<?xml version="1.0" standalone="no"?><!DOCTYPE svg PUBLIC "-//W3C//DTD SVG 1.1//EN" "http://www.w3.org/Graphics/SVG/1.1/DTD/svg11.dtd" ><svg xmlns="http://www.w3.org/2000/svg"><metadata>Generated by Glyphter</metadata><defs><font id="soliloquy" horiz-adv-x="0"><font-face units-per-em="1024" ascent="1024" descent="0" font-family="soliloquy" font-weight="normal" /><missing-glyph horiz-adv-x="0" /><glyph unicode="&#x0041;" d="M960,416C960,416,878.4,401.6,878.4,401.6C870.4,376,860.8,352,848,329.6C848,329.6,896,262.4,896,262.4C921.6,236.8,921.6,196.8,896,171.2C896,171.2,851.2,128,851.2,128C825.6,102.4,785.6,102.4,760,128C760,128,692.8,176,692.8,176C670.4,163.2,646.4,153.6,620.8,145.6C620.8,145.6,608,64,608,64C608,28.8,579.2,0,544,0C544,0,480,0,480,0C444.8,0,416,28.8,416,64C416,64,401.6,145.6,401.6,145.6C376,153.6,352,163.2,329.6,176C329.6,176,262.4,128,262.4,128C236.8,102.4,196.8,102.4,171.2,128C171.2,128,128,172.8,128,172.8C102.4,198.4,102.4,238.4,128,264C128,264,176,331.2,176,331.2C163.2,353.6,153.6,377.6,145.6,403.2C145.6,403.2,64,416,64,416C28.8,416,0,444.8,0,480C0,480,0,544,0,544C0,579.2,28.8,608,64,608C64,608,145.6,622.4,145.6,622.4C153.6,648,163.2,672,176,694.4C176,694.4,128,761.6,128,761.6C102.4,787.2,102.4,827.2,128,852.8C128,852.8,172.8,896,172.8,896C198.4,921.6,238.4,921.6,264,896C264,896,331.2,848,331.2,848C353.6,860.8,377.6,870.4,403.2,878.4C403.2,878.4,416,960,416,960C416,995.2,444.8,1024,480,1024C480,1024,544,1024,544,1024C579.2,1024,608,995.2,608,960C608,960,622.4,878.4,622.4,878.4C648,870.4,672,860.8,694.4,848C694.4,848,761.6,896,761.6,896C787.2,921.6,827.2,921.6,852.8,896C852.8,896,897.6,851.2,897.6,851.2C923.2,825.6,923.2,785.6,897.6,760C897.6,760,849.6,692.8,849.6,692.8C862.4,670.4,872,646.4,880,620.8C880,620.8,960,608,960,608C995.2,608,1024,579.2,1024,544C1024,544,1024,480,1024,480C1024,444.8,995.2,416,960,416C960,416,960,416,960,416M928,544C928,544,827.2,560,827.2,560C819.2,611.2,798.4,659.2,769.6,699.2C769.6,699.2,828.8,782.4,828.8,782.4C841.6,795.2,841.6,814.4,828.8,827.2C816,840,796.8,840,784,827.2C784,827.2,700.8,768,700.8,768C660.8,796.8,612.8,817.6,561.6,825.6C561.6,825.6,544,928,544,928C544,945.6,529.6,960,512,960C494.4,960,480,945.6,480,928C480,928,462.4,827.2,462.4,827.2C411.2,819.2,363.2,798.4,323.2,769.6C323.2,769.6,240,828.8,240,828.8C227.2,841.6,208,841.6,195.2,828.8C182.4,816,182.4,796.8,195.2,784C195.2,784,254.4,700.8,254.4,700.8C224,660.8,204.8,612.8,196.8,561.6C196.8,561.6,96,544,96,544C78.4,544,64,529.6,64,512C64,494.4,78.4,480,96,480C96,480,196.8,464,196.8,464C204.8,412.8,225.6,364.8,254.4,324.8C254.4,324.8,195.2,240,195.2,240C182.4,227.2,182.4,208,195.2,195.2C208,182.4,227.2,182.4,240,195.2C240,195.2,323.2,254.4,323.2,254.4C363.2,225.6,411.2,204.8,462.4,196.8C462.4,196.8,480,96,480,96C480,78.4,494.4,64,512,64C529.6,64,544,78.4,544,96C544,96,560,196.8,560,196.8C611.2,204.8,659.2,225.6,699.2,254.4C699.2,254.4,782.4,195.2,782.4,195.2C795.2,182.4,814.4,182.4,827.2,195.2C840,208,840,227.2,827.2,240C827.2,240,768,323.2,768,323.2C798.4,363.2,817.6,411.2,825.6,462.4C825.6,462.4,926.4,478.4,926.4,478.4C944,478.4,958.4,492.8,958.4,510.4C958.4,528,945.6,544,928,544C928,544,928,544,928,544M512,352C424,352,352,424,352,512C352,600,424,672,512,672C600,672,672,600,672,512C672,424,600,352,512,352C512,352,512,352,512,352M512,608C459.2,608,416,564.8,416,512C416,459.2,459.2,416,512,416C564.8,416,608,459.2,608,512C608,564.8,564.8,608,512,608C512,608,512,608,512,608" class="soliloquy-configuration"/><glyph unicode="&#x0042;" d="M313.6,251.2C520,89.6,715.2,158.4,804.8,168C804.8,168,964.8,8,964.8,8C964.8,8,1024,8,1024,8C1024,8,840,192,840,192C838.4,302.4,1091.2,1016,0,1016C118.4,604.8,107.2,412.8,313.6,251.2M512,556.8C563.2,459.2,656,312,720,264C784,216,854.4,180.8,705.6,244.8C556.8,307.2,448,486.4,376,622.4C320,726.4,273.6,820.8,169.6,891.2C65.6,961.6,182.4,912,182.4,912C371.2,819.2,440,692.8,512,556.8" class="soliloquy-leaf"/><glyph unicode="&#x0044;" d="M64,128C64,128,64,832,64,832C64,832,0,832,0,832C0,832,0,128,0,128C0,57.6,60.8,0,136,0C136,0,896,0,896,0C896,0,896,64,896,64C896,64,132.8,64,132.8,64C94.4,64,64,92.8,64,128C64,128,64,128,64,128M864,896C864,896,288,896,288,896C270.4,896,256,881.6,256,864C256,864,256,352,256,352C256,334.4,270.4,320,288,320C288,320,864,320,864,320C881.6,320,896,334.4,896,352C896,352,896,864,896,864C896,881.6,881.6,896,864,896C864,896,864,896,864,896M832,416C832,398.4,817.6,384,800,384C800,384,352,384,352,384C334.4,384,320,398.4,320,416C320,416,320,800,320,800C320,817.6,334.4,832,352,832C352,832,800,832,800,832C817.6,832,832,817.6,832,800C832,800,832,416,832,416C832,416,832,416,832,416M960,1024C960,1024,192,1024,192,1024C156.8,1024,128,995.2,128,960C128,960,128,192,128,192C128,156.8,156.8,128,192,128C192,128,960,128,960,128C995.2,128,1024,156.8,1024,192C1024,192,1024,960,1024,960C1024,995.2,995.2,1024,960,1024C960,1024,960,1024,960,1024M960,224C960,206.4,945.6,192,928,192C928,192,224,192,224,192C206.4,192,192,206.4,192,224C192,224,192,928,192,928C192,945.6,206.4,960,224,960C224,960,928,960,928,960C945.6,960,960,945.6,960,928C960,928,960,224,960,224C960,224,960,224,960,224" class="soliloquy-lightbox"/><glyph unicode="&#x0045;" d="M992.432,835.643C992.432,835.643,850.042,693.253,850.042,693.253C850.042,693.253,720.451,720.451,720.451,720.451C720.451,720.451,694.852,850.042,694.852,850.042C694.852,850.042,835.643,992.432,835.643,992.432C790.846,1013.231,741.249,1024.43,691.653,1024.43C608.458,1024.43,523.664,992.432,459.669,928.436C368.475,837.243,342.877,704.452,381.274,589.26C381.274,589.26,43.697,251.683,43.697,251.683C-13.899,194.087,-13.899,101.293,43.697,43.697C72.495,14.899,109.293,0.5,147.69,0.5C186.087,0.5,222.885,14.899,251.683,43.697C251.683,43.697,589.26,381.274,589.26,381.274C624.457,370.075,659.655,363.675,696.452,363.675C781.246,363.675,864.441,395.673,928.436,459.669C1030.829,562.062,1050.028,712.451,992.432,835.643C992.432,835.643,992.432,835.643,992.432,835.643M877.24,512.465C829.243,464.468,765.248,437.27,696.452,437.27C667.654,437.27,640.456,442.07,613.258,450.069C613.258,450.069,570.061,464.468,570.061,464.468C570.061,464.468,538.063,432.47,538.063,432.47C538.063,432.47,200.486,94.894,200.486,94.894C186.087,80.495,168.488,72.495,147.69,72.495C128.491,72.495,109.293,80.495,94.894,94.894C80.495,109.293,72.495,126.891,72.495,147.69C72.495,166.889,80.495,186.087,94.894,200.486C94.894,200.486,432.47,538.063,432.47,538.063C432.47,538.063,464.468,570.061,464.468,570.061C464.468,570.061,450.069,613.258,450.069,613.258C418.071,707.652,442.07,808.445,510.865,877.24C558.862,925.237,622.857,952.435,691.653,952.435C691.653,952.435,642.056,902.838,642.056,902.838C642.056,902.838,614.858,875.64,614.858,875.64C614.858,875.64,622.857,837.243,622.857,837.243C622.857,837.243,648.456,707.652,648.456,707.652C648.456,707.652,658.055,659.655,658.055,659.655C658.055,659.655,706.052,650.055,706.052,650.055C706.052,650.055,835.643,624.457,835.643,624.457C835.643,624.457,874.04,616.458,874.04,616.458C874.04,616.458,901.238,643.656,901.238,643.656C901.238,643.656,950.835,693.253,950.835,693.253C950.835,626.057,925.237,560.462,877.24,512.465C877.24,512.465,877.24,512.465,877.24,512.465" class="soliloquy-misc"/><glyph unicode="&#x0046;" d="M704,1024C704,1024,320,1024,320,1024C249.6,1024,192,966.4,192,896C192,896,192,128,192,128C192,57.6,249.6,0,320,0C320,0,704,0,704,0C774.4,0,832,57.6,832,128C832,128,832,896,832,896C832,966.4,774.4,1024,704,1024C704,1024,704,1024,704,1024M768,128C768,92.8,739.2,64,704,64C704,64,320,64,320,64C284.8,64,256,92.8,256,128C256,128,256,320,256,320C256,320,768,320,768,320C768,320,768,128,768,128C768,128,768,128,768,128M768,384C768,384,256,384,256,384C256,384,256,768,256,768C256,768,768,768,768,768C768,768,768,384,768,384C768,384,768,384,768,384M768,832C768,832,256,832,256,832C256,832,256,896,256,896C256,931.2,284.8,960,320,960C320,960,704,960,704,960C739.2,960,768,931.2,768,896C768,896,768,832,768,832C768,832,768,832,768,832M512,128C547.2,128,576,156.8,576,192C576,227.2,547.2,256,512,256C476.8,256,448,227.2,448,192C448,156.8,476.8,128,512,128C512,128,512,128,512,128" class="soliloquy-mobile"/><glyph unicode="&#x0047;" d="M416,960C416,960,416,1024,416,1024C416,1024,1024,1024,1024,1024C1024,1024,1024,960,1024,960C1024,960,416,960,416,960C416,960,416,960,416,960C416,960,416,960,416,960M640,720C640,720,640,784,640,784C640,784,896,784,896,784C896,784,896,720,896,720C896,720,640,720,640,720C640,720,640,720,640,720C640,720,640,720,640,720M640,592C640,592,640,656,640,656C640,656,896,656,896,656C896,656,896,592,896,592C896,592,640,592,640,592C640,592,640,592,640,592C640,592,640,592,640,592M640,464C640,464,640,528,640,528C640,528,896,528,896,528C896,528,896,464,896,464C896,464,640,464,640,464C640,464,640,464,640,464C640,464,640,464,640,464M608,224C608,224,608,288,608,288C608,288,1024,288,1024,288C1024,288,1024,224,1024,224C1024,224,608,224,608,224C608,224,608,224,608,224C608,224,608,224,608,224M960,288C960,288,960,960,960,960C960,960,1024,960,1024,960C1024,960,1024,288,1024,288C1024,288,960,288,960,288C960,288,960,288,960,288C960,288,960,288,960,288M416,800C416,800,416,960,416,960C416,960,480,960,480,960C480,960,480,800,480,800C480,800,416,800,416,800C416,800,416,800,416,800C416,800,416,800,416,800M0,736C0,736,0,800,0,800C0,800,608,800,608,800C608,800,608,736,608,736C608,736,0,736,0,736C0,736,0,736,0,736C0,736,0,736,0,736M128,496C128,496,128,560,128,560C128,560,480,560,480,560C480,560,480,496,480,496C480,496,128,496,128,496C128,496,128,496,128,496C128,496,128,496,128,496M128,368C128,368,128,432,128,432C128,432,480,432,480,432C480,432,480,368,480,368C480,368,128,368,128,368C128,368,128,368,128,368C128,368,128,368,128,368M128,240C128,240,128,304,128,304C128,304,480,304,480,304C480,304,480,240,480,240C480,240,128,240,128,240C128,240,128,240,128,240C128,240,128,240,128,240M0,0C0,0,0,64,0,64C0,64,608,64,608,64C608,64,608,0,608,0C608,0,0,0,0,0C0,0,0,0,0,0C0,0,0,0,0,0M544,64C544,64,544,736,544,736C544,736,608,736,608,736C608,736,608,64,608,64C608,64,544,64,544,64C544,64,544,64,544,64C544,64,544,64,544,64M0,64C0,64,0,736,0,736C0,736,64,736,64,736C64,736,64,64,64,64C64,64,0,64,0,64C0,64,0,64,0,64C0,64,0,64,0,64" class="soliloquy-pagination"/><glyph unicode="&#x0048;" d="M969.6,0C969.6,0,198.4,0,198.4,0C168,0,144,24,144,54.4C144,54.4,144,192,144,192C144,193.6,144,195.2,144,196.8C144,196.8,144,825.6,144,825.6C144,856,168,880,198.4,880C198.4,880,968,880,968,880C998.4,880,1022.4,856,1022.4,825.6C1022.4,825.6,1022.4,56,1022.4,56C1024,24,1000,0,969.6,0C969.6,0,969.6,0,969.6,0M198.4,83.2C198.4,68.8,211.2,56,225.6,56C225.6,56,713.6,56,713.6,56C713.6,56,440,371.2,440,371.2C440,371.2,198.4,176,198.4,176C198.4,176,198.4,83.2,198.4,83.2C198.4,83.2,198.4,83.2,198.4,83.2M969.6,796.8C969.6,811.2,956.8,824,942.4,824C942.4,824,227.2,824,227.2,824C212.8,824,200,811.2,200,796.8C200,796.8,200,251.2,200,251.2C200,251.2,420.8,432,420.8,432C425.6,435.2,430.4,436.8,435.2,438.4C436.8,438.4,436.8,438.4,438.4,440C440,440,443.2,441.6,444.8,441.6C452.8,443.2,462.4,440,467.2,433.6C467.2,433.6,552,334.4,552,334.4C552,334.4,809.6,544,809.6,544C816,550.4,824,552,832,550.4C841.6,550.4,849.6,548.8,857.6,544C857.6,544,969.6,422.4,969.6,422.4C969.6,422.4,969.6,796.8,969.6,796.8C969.6,796.8,969.6,796.8,969.6,796.8M969.6,337.6C968,337.6,968,337.6,969.6,337.6C969.6,337.6,828.8,488,828.8,488C828.8,488,587.2,291.2,587.2,291.2C587.2,291.2,792,54.4,792,54.4C792,54.4,940.8,54.4,940.8,54.4C955.2,54.4,968,67.2,968,81.6C968,81.6,968,337.6,968,337.6C968,337.6,969.6,337.6,969.6,337.6M364.8,550.4C304,550.4,254.4,600,254.4,660.8C254.4,721.6,304,771.2,364.8,771.2C425.6,771.2,475.2,721.6,475.2,660.8C473.6,600,425.6,550.4,364.8,550.4C364.8,550.4,364.8,550.4,364.8,550.4M364.8,715.2C334.4,715.2,310.4,691.2,310.4,660.8C310.4,630.4,334.4,606.4,364.8,606.4C395.2,606.4,419.2,630.4,419.2,660.8C419.2,689.6,395.2,715.2,364.8,715.2C364.8,715.2,364.8,715.2,364.8,715.2M256,960C256,960,192,960,192,960C192,960,192,1024,192,1024C192,1024,256,1024,256,1024C256,1024,256,960,256,960C256,960,256,960,256,960M448,960C448,960,384,960,384,960C384,960,384,1024,384,1024C384,1024,448,1024,448,1024C448,1024,448,960,448,960C448,960,448,960,448,960M640,960C640,960,576,960,576,960C576,960,576,1024,576,1024C576,1024,640,1024,640,1024C640,1024,640,960,640,960C640,960,640,960,640,960M832,960C832,960,768,960,768,960C768,960,768,1024,768,1024C768,1024,832,1024,832,1024C832,1024,832,960,832,960C832,960,832,960,832,960M1024,960C1024,960,960,960,960,960C960,960,960,1024,960,1024C960,1024,1024,1024,1024,1024C1024,1024,1024,960,1024,960C1024,960,1024,960,1024,960M64,960C64,960,0,960,0,960C0,960,0,1024,0,1024C0,1024,64,1024,64,1024C64,1024,64,960,64,960C64,960,64,960,64,960M64,768C64,768,0,768,0,768C0,768,0,832,0,832C0,832,64,832,64,832C64,832,64,768,64,768C64,768,64,768,64,768M64,576C64,576,0,576,0,576C0,576,0,640,0,640C0,640,64,640,64,640C64,640,64,576,64,576C64,576,64,576,64,576M64,384C64,384,0,384,0,384C0,384,0,448,0,448C0,448,64,448,64,448C64,448,64,384,64,384C64,384,64,384,64,384M64,192C64,192,0,192,0,192C0,192,0,256,0,256C0,256,64,256,64,256C64,256,64,192,64,192C64,192,64,192,64,192M64,0C64,0,0,0,0,0C0,0,0,64,0,64C0,64,64,64,64,64C64,64,64,0,64,0C64,0,64,0,64,0" class="soliloquy-proofing"/><glyph unicode="&#x0049;" d="M992,960.654C992,960.654,32,960.654,32,960.654C14.4,960.654,0,946.254,0,928.654C0,911.054,14.4,896.654,32,896.654C32,896.654,64,896.654,64,896.654C64,896.654,64,320.654,64,320.654C64,285.454,92.8,256.654,128,256.654C128,256.654,404.8,256.654,404.8,256.654C404.8,256.654,324.8,109.454,324.8,109.454C315.2,95.054,321.6,75.854,337.6,67.854C355.2,59.854,376,64.654,385.6,79.054C385.6,79.054,475.2,242.254,475.2,242.254C478.4,247.054,480,250.254,480,255.054C480,255.054,544,255.054,544,255.054C544,250.254,545.6,245.454,548.8,242.254C548.8,242.254,638.4,79.054,638.4,79.054C648,64.654,670.4,59.854,686.4,67.854C704,75.854,708.8,95.054,699.2,109.454C699.2,109.454,619.2,256.654,619.2,256.654C619.2,256.654,896,256.654,896,256.654C931.2,256.654,960,285.454,960,320.654C960,320.654,960,896.654,960,896.654C960,896.654,992,896.654,992,896.654C1009.6,896.654,1024,911.054,1024,928.654C1024,946.254,1009.6,960.654,992,960.654C992,960.654,992,960.654,992,960.654M896,832.654C896,832.654,896,832.654,896,832.654C896,832.654,896,352.654,896,352.654C896,335.054,881.6,320.654,864,320.654C864,320.654,160,320.654,160,320.654C142.4,320.654,128,335.054,128,352.654C128,352.654,128,864.654,128,864.654C128,864.654,128,864.654,128,864.654C128,864.654,128,896.654,128,896.654C128,896.654,160,896.654,160,896.654C160,896.654,160,896.654,160,896.654C160,896.654,864,896.654,864,896.654C864,896.654,864,896.654,864,896.654C864,896.654,896,896.654,896,896.654C896,896.654,896,832.654,896,832.654C896,832.654,896,832.654,896,832.654M816,770.254C800,779.854,780.8,773.454,772.8,759.054C772.8,759.054,574.4,578.254,574.4,578.254C574.4,578.254,417.6,690.254,417.6,690.254C409.6,701.454,393.6,707.854,379.2,704.654C376,704.654,374.4,703.054,371.2,703.054C371.2,703.054,369.6,703.054,369.6,703.054C369.6,703.054,368,703.054,368,701.454C366.4,699.854,363.2,698.254,361.6,696.654C360,695.054,358.4,693.454,356.8,691.854C356.8,691.854,356.8,691.854,355.2,690.254C355.2,690.254,195.2,498.254,195.2,498.254C185.6,482.254,192,463.054,206.4,453.454C220.8,443.854,241.6,450.254,249.6,464.654C249.6,464.654,390.4,632.654,390.4,632.654C390.4,632.654,539.2,527.054,539.2,527.054C542.4,522.254,547.2,519.054,553.6,515.854C555.2,514.254,555.2,511.054,558.4,509.454C574.4,501.454,593.6,506.254,601.6,520.654C601.6,520.654,825.6,725.454,825.6,725.454C836.8,743.054,832,762.254,816,770.254C816,770.254,816,770.254,816,770.254" class="soliloquy-slideshow"/><glyph unicode="&#x004a;" d="M195.829,420.092C195.829,420.092,420.092,195.829,420.092,195.829C420.092,195.829,464.945,240.682,464.945,240.682C464.945,240.682,240.682,464.945,240.682,464.945C240.682,464.945,195.829,420.092,195.829,420.092C195.829,420.092,195.829,420.092,195.829,420.092M532.224,1024C532.224,1024,18.021,509.797,18.021,509.797C-6.007,485.769,-6.007,445.722,18.021,420.092C18.021,420.092,420.092,18.021,420.092,18.021C444.12,-6.007,484.167,-6.007,509.797,18.021C509.797,18.021,1024,532.224,1024,532.224C1024,532.224,1024,1024,1024,1024C1024,1024,532.224,1024,532.224,1024C532.224,1024,532.224,1024,532.224,1024M956.721,554.65C956.721,554.65,487.371,83.698,487.371,83.698C474.556,70.883,455.334,70.883,442.519,83.698C442.519,83.698,83.698,442.519,83.698,442.519C70.883,455.334,70.883,474.556,83.698,487.371C83.698,487.371,554.65,956.721,554.65,956.721C554.65,956.721,959.925,959.925,959.925,959.925C959.925,959.925,956.721,554.65,956.721,554.65C956.721,554.65,956.721,554.65,956.721,554.65M859.007,676.393C908.665,726.051,908.665,807.747,859.007,857.405C809.348,907.063,727.653,907.063,677.995,857.405C628.336,807.747,628.336,726.051,677.995,676.393C726.051,626.734,807.747,626.734,859.007,676.393C859.007,676.393,859.007,676.393,859.007,676.393M722.847,814.154C748.477,839.784,788.524,839.784,814.154,814.154C839.784,788.524,839.784,748.477,814.154,722.847C788.524,697.217,748.477,697.217,722.847,722.847C697.217,748.477,697.217,788.524,722.847,814.154C722.847,814.154,722.847,814.154,722.847,814.154" class="soliloquy-tags"/><glyph unicode="&#x004b;" d="M960,1024C960,1024,64,1024,64,1024C28.8,1024,0,995.2,0,960C0,960,0,228.8,0,228.8C0,227.2,0,225.6,0,224C0,224,0,64,0,64C0,28.8,28.8,0,64,0C64,0,960,0,960,0C995.2,0,1024,28.8,1024,64C1024,64,1024,960,1024,960C1024,995.2,995.2,1024,960,1024C960,1024,960,1024,960,1024M96,64C78.4,64,64,78.4,64,96C64,96,64,204.8,64,204.8C64,204.8,345.6,432,345.6,432C345.6,432,664,64,664,64C664,64,96,64,96,64C96,64,96,64,96,64M960,96C960,78.4,945.6,64,928,64C928,64,755.2,64,755.2,64C755.2,64,516.8,339.2,516.8,339.2C516.8,339.2,796.8,568,796.8,568C796.8,568,958.4,392,958.4,392C958.4,392,958.4,392,960,392C960,392,960,96,960,96C960,96,960,96,960,96M960,491.2C960,491.2,830.4,632,830.4,632C822.4,638.4,811.2,640,800,640C790.4,640,780.8,638.4,774.4,632C774.4,632,475.2,387.2,475.2,387.2C475.2,387.2,376,502.4,376,502.4C368,510.4,358.4,513.6,348.8,512C345.6,512,344,510.4,340.8,510.4C339.2,510.4,339.2,510.4,337.6,508.8C331.2,507.2,324.8,507.2,320,502.4C320,502.4,64,292.8,64,292.8C64,292.8,64,928,64,928C64,945.6,78.4,960,96,960C96,960,928,960,928,960C945.6,960,960,945.6,960,928C960,928,960,491.2,960,491.2C960,491.2,960,491.2,960,491.2M256,896C185.6,896,128,838.4,128,768C128,697.6,185.6,640,256,640C326.4,640,384,697.6,384,768C384,838.4,326.4,896,256,896C256,896,256,896,256,896M256,704C220.8,704,192,732.8,192,768C192,803.2,220.8,832,256,832C291.2,832,320,803.2,320,768C320,732.8,291.2,704,256,704C256,704,256,704,256,704" class="soliloquy-thumbnails"/><glyph unicode="&#x004c;" d="M992,768C992,768,768,619.2,768,619.2C768,619.2,768,704,768,704C768,774.4,710.4,832,640,832C640,832,128,832,128,832C57.6,832,0,774.4,0,704C0,704,0,320,0,320C0,249.6,57.6,192,128,192C128,192,640,192,640,192C710.4,192,768,249.6,768,320C768,320,768,404.8,768,404.8C768,404.8,992,256,992,256C1009.6,256,1024,270.4,1024,288C1024,288,1024,736,1024,736C1024,753.6,1009.6,768,992,768C992,768,992,768,992,768M704,320C704,284.8,675.2,256,640,256C640,256,128,256,128,256C92.8,256,64,284.8,64,320C64,320,64,704,64,704C64,739.2,92.8,768,128,768C128,768,640,768,640,768C675.2,768,704,739.2,704,704C704,704,704,320,704,320C704,320,704,320,704,320M960,353.6C960,353.6,768,481.6,768,481.6C768,481.6,768,540.8,768,540.8C768,540.8,960,668.8,960,668.8C960,668.8,960,353.6,960,353.6C960,353.6,960,353.6,960,353.6" class="soliloquy-video"/><glyph unicode="&#x004d;" d="M800,640C800,640,800,736,800,736C800,894.4,670.4,1024,512,1024C353.6,1024,224,894.4,224,736C224,736,224,640,224,640C224,640,224,640,224,640C153.6,640,96,582.4,96,512C96,512,96,128,96,128C96,57.6,153.6,0,224,0C224,0,800,0,800,0C870.4,0,928,57.6,928,128C928,128,928,512,928,512C928,582.4,870.4,640,800,640C800,640,800,640,800,640M288,736C288,859.2,388.8,960,512,960C635.2,960,736,859.2,736,736C736,736,736,640,736,640C736,640,288,640,288,640C288,640,288,736,288,736C288,736,288,736,288,736M864,128C864,92.8,835.2,64,800,64C800,64,224,64,224,64C188.8,64,160,92.8,160,128C160,128,160,512,160,512C160,547.2,188.8,576,224,576C224,576,800,576,800,576C835.2,576,864,547.2,864,512C864,512,864,128,864,128C864,128,864,128,864,128M512,448C494.4,448,480,433.6,480,416C480,416,480,224,480,224C480,206.4,494.4,192,512,192C529.6,192,544,206.4,544,224C544,224,544,416,544,416C544,433.6,529.6,448,512,448C512,448,512,448,512,448" class="soliloquy-watermark"/><glyph unicode="&#x004e;" d="M682.667,461.267C682.667,466.244,681.067,470.333,677.867,473.533C674.667,476.733,670.578,478.333,665.6,478.333C665.6,478.333,546.133,478.333,546.133,478.333C546.133,478.333,546.133,666.067,546.133,666.067C546.133,670.689,544.444,674.689,541.067,678.067C537.689,681.444,533.689,683.133,529.067,683.133C529.067,683.133,426.667,683.133,426.667,683.133C422.044,683.133,418.044,681.444,414.667,678.067C411.289,674.689,409.6,670.689,409.6,666.067C409.6,666.067,409.6,478.333,409.6,478.333C409.6,478.333,290.133,478.333,290.133,478.333C285.511,478.333,281.511,476.644,278.133,473.267C274.756,469.889,273.067,465.889,273.067,461.267C273.067,456.289,274.667,452.2,277.867,449C277.867,449,465.6,261.267,465.6,261.267C468.8,258.067,472.889,256.467,477.867,256.467C482.844,256.467,486.933,258.067,490.133,261.267C490.133,261.267,677.333,448.467,677.333,448.467C680.889,452.733,682.667,457,682.667,461.267C682.667,461.267,682.667,461.267,682.667,461.267M1024,341.8C1024,285.267,1004,237,964,197C924,157,875.733,137,819.2,137C819.2,137,238.933,137,238.933,137C173.156,137,116.889,160.378,70.133,207.133C23.378,253.889,0,310.156,0,375.933C0,422.156,12.444,464.822,37.333,503.933C62.222,543.044,95.644,572.378,137.6,591.933C136.889,602.6,136.533,610.244,136.533,614.867C136.533,690.244,163.2,754.6,216.533,807.933C269.867,861.267,334.222,887.933,409.6,887.933C465.067,887.933,515.822,872.467,561.867,841.533C607.911,810.6,641.422,769.533,662.4,718.333C687.644,740.378,717.156,751.4,750.933,751.4C788.622,751.4,820.8,738.067,847.467,711.4C874.133,684.733,887.467,652.556,887.467,614.867C887.467,587.844,880.178,563.311,865.6,541.267C911.822,530.244,949.778,506.156,979.467,469C1009.156,431.844,1024,389.444,1024,341.8C1024,341.8,1024,341.8,1024,341.8" class="soliloquy-cloud-download"/><glyph unicode="&#x004f;" d="M0,512C0,555.333,8.5,596.75,25.5,636.25C42.5,675.75,65.25,709.75,93.75,738.25C122.25,766.75,156.25,789.5,195.75,806.5C235.25,823.5,276.667,832,320,832C320,832,704,832,704,832C747.333,832,788.75,823.5,828.25,806.5C867.75,789.5,901.75,766.75,930.25,738.25C958.75,709.75,981.5,675.75,998.5,636.25C1015.5,596.75,1024,555.333,1024,512C1024,468.667,1015.5,427.25,998.5,387.75C981.5,348.25,958.75,314.25,930.25,285.75C901.75,257.25,867.75,234.5,828.25,217.5C788.75,200.5,747.333,192,704,192C704,192,320,192,320,192C276.667,192,235.25,200.5,195.75,217.5C156.25,234.5,122.25,257.25,93.75,285.75C65.25,314.25,42.5,348.25,25.5,387.75C8.5,427.25,0,468.667,0,512C0,512,0,512,0,512M704,256C738.667,256,771.75,262.75,803.25,276.25C834.75,289.75,862,308,885,331C908,354,926.25,381.25,939.75,412.75C953.25,444.25,960,477.333,960,512C960,546.667,953.25,579.75,939.75,611.25C926.25,642.75,908,670,885,693C862,716,834.75,734.25,803.25,747.75C771.75,761.25,738.667,768,704,768C669.333,768,636.25,761.25,604.75,747.75C573.25,734.25,546,716,523,693C500,670,481.75,642.75,468.25,611.25C454.75,579.75,448,546.667,448,512C448,477.333,454.75,444.25,468.25,412.75C481.75,381.25,500,354,523,331C546,308,573.25,289.75,604.75,276.25C636.25,262.75,669.333,256,704,256C704,256,704,256,704,256" class="soliloquy-toggle-on"/><glyph unicode="&#x0050;" d="M810.667,469.333C810.667,469.333,810.667,554.667,810.667,554.667C810.667,566.222,806.445,576.222,798,584.667C789.555,593.111,779.555,597.333,768,597.333C768,597.333,597.333,597.333,597.333,597.333C597.333,597.333,597.333,768,597.333,768C597.333,779.555,593.111,789.555,584.667,798C576.222,806.445,566.222,810.667,554.667,810.667C554.667,810.667,469.333,810.667,469.333,810.667C457.778,810.667,447.778,806.445,439.333,798C430.889,789.555,426.667,779.555,426.667,768C426.667,768,426.667,597.333,426.667,597.333C426.667,597.333,256,597.333,256,597.333C244.445,597.333,234.445,593.111,226,584.667C217.555,576.222,213.333,566.222,213.333,554.667C213.333,554.667,213.333,469.333,213.333,469.333C213.333,457.778,217.555,447.778,226,439.333C234.445,430.889,244.445,426.667,256,426.667C256,426.667,426.667,426.667,426.667,426.667C426.667,426.667,426.667,256,426.667,256C426.667,244.445,430.889,234.445,439.333,226C447.778,217.555,457.778,213.333,469.333,213.333C469.333,213.333,554.667,213.333,554.667,213.333C566.222,213.333,576.222,217.555,584.667,226C593.111,234.445,597.333,244.445,597.333,256C597.333,256,597.333,426.667,597.333,426.667C597.333,426.667,768,426.667,768,426.667C779.555,426.667,789.555,430.889,798,439.333C806.445,447.778,810.667,457.778,810.667,469.333C810.667,469.333,810.667,469.333,810.667,469.333M1024,512C1024,419.111,1001.111,333.445,955.333,255C909.555,176.555,847.445,114.445,769,68.667C690.555,22.889,604.889,0,512,0C419.111,0,333.445,22.889,255,68.667C176.555,114.445,114.445,176.555,68.667,255C22.889,333.445,0,419.111,0,512C0,604.889,22.889,690.555,68.667,769C114.445,847.445,176.555,909.555,255,955.333C333.445,1001.111,419.111,1024,512,1024C604.889,1024,690.555,1001.111,769,955.333C847.445,909.555,909.555,847.445,955.333,769C1001.111,690.555,1024,604.889,1024,512C1024,512,1024,512,1024,512" class="soliloquy-plus-circle"/><glyph unicode="&#x0051;" d="M1024,736C1024,718.696,1017.672,703.689,1005.016,690.977C1005.016,690.977,557.023,242.984,557.023,242.984C544.367,230.328,529.36,224,512,224C494.64,224,479.633,230.328,466.977,242.984C466.977,242.984,18.984,690.977,18.984,690.977C6.328,703.633,0,718.64,0,736C0,753.36,6.328,768.367,18.984,781.023C31.64,793.679,46.647,800.007,64.007,800.007C64.007,800.007,959.993,800.007,959.993,800.007C977.297,800.007,992.304,793.679,1005.016,781.023C1017.728,768.367,1024.056,753.36,1024,736C1024,736,1024,736,1024,736" class="soliloquy-down-arrow"/><glyph unicode="&#x0052;" d="M292.553,274.581C292.553,274.581,292.553,164.85,292.553,164.85C292.553,149.617,287.209,136.657,276.553,126.001C265.896,115.344,252.936,110,237.703,110C237.703,110,54.85,110,54.85,110C39.617,110,26.657,115.344,16.001,126.001C5.344,136.657,0,149.617,0,164.85C0,164.85,0,274.581,0,274.581C0,289.814,5.344,302.774,16.001,313.43C26.657,324.087,39.617,329.431,54.85,329.431C54.85,329.431,237.703,329.431,237.703,329.431C252.936,329.431,265.896,324.087,276.553,313.43C287.209,302.774,292.553,289.814,292.553,274.581C292.553,274.581,292.553,274.581,292.553,274.581M292.553,567.166C292.553,567.166,292.553,457.435,292.553,457.435C292.553,442.202,287.209,429.242,276.553,418.586C265.896,407.929,252.936,402.585,237.703,402.585C237.703,402.585,54.85,402.585,54.85,402.585C39.617,402.585,26.657,407.929,16.001,418.586C5.344,429.242,0,442.202,0,457.435C0,457.435,0,567.166,0,567.166C0,582.399,5.344,595.359,16.001,606.016C26.657,616.672,39.617,622.016,54.85,622.016C54.85,622.016,237.703,622.016,237.703,622.016C252.936,622.016,265.896,616.672,276.553,606.016C287.209,595.359,292.553,582.399,292.553,567.166C292.553,567.166,292.553,567.166,292.553,567.166M1024,274.581C1024,274.581,1024,164.85,1024,164.85C1024,149.617,1018.656,136.657,1007.999,126.001C997.343,115.344,984.383,110,969.15,110C969.15,110,420.557,110,420.557,110C405.325,110,392.364,115.344,381.708,126.001C371.052,136.657,365.707,149.617,365.707,164.85C365.707,164.85,365.707,274.581,365.707,274.581C365.707,289.814,371.052,302.774,381.708,313.43C392.364,324.087,405.325,329.431,420.557,329.431C420.557,329.431,969.15,329.431,969.15,329.431C984.383,329.431,997.343,324.087,1007.999,313.43C1018.656,302.774,1024,289.814,1024,274.581C1024,274.581,1024,274.581,1024,274.581M292.553,859.751C292.553,859.751,292.553,750.02,292.553,750.02C292.553,734.788,287.209,721.827,276.553,711.171C265.896,700.514,252.936,695.17,237.703,695.17C237.703,695.17,54.85,695.17,54.85,695.17C39.617,695.17,26.657,700.514,16.001,711.171C5.344,721.827,0,734.788,0,750.02C0,750.02,0,859.751,0,859.751C0,874.984,5.344,887.944,16.001,898.601C26.657,909.257,39.617,914.601,54.85,914.601C54.85,914.601,237.703,914.601,237.703,914.601C252.936,914.601,265.896,909.257,276.553,898.601C287.209,887.944,292.553,874.984,292.553,859.751C292.553,859.751,292.553,859.751,292.553,859.751M1024,567.166C1024,567.166,1024,457.435,1024,457.435C1024,442.202,1018.656,429.242,1007.999,418.586C997.343,407.929,984.383,402.585,969.15,402.585C969.15,402.585,420.557,402.585,420.557,402.585C405.325,402.585,392.364,407.929,381.708,418.586C371.052,429.242,365.707,442.202,365.707,457.435C365.707,457.435,365.707,567.166,365.707,567.166C365.707,582.399,371.052,595.359,381.708,606.016C392.364,616.672,405.325,622.016,420.557,622.016C420.557,622.016,969.15,622.016,969.15,622.016C984.383,622.016,997.343,616.672,1007.999,606.016C1018.656,595.359,1024,582.399,1024,567.166C1024,567.166,1024,567.166,1024,567.166M1024,859.751C1024,859.751,1024,750.02,1024,750.02C1024,734.788,1018.656,721.827,1007.999,711.171C997.343,700.514,984.383,695.17,969.15,695.17C969.15,695.17,420.557,695.17,420.557,695.17C405.325,695.17,392.364,700.514,381.708,711.171C371.052,721.827,365.707,734.788,365.707,750.02C365.707,750.02,365.707,859.751,365.707,859.751C365.707,874.984,371.052,887.944,381.708,898.601C392.364,909.257,405.325,914.601,420.557,914.601C420.557,914.601,969.15,914.601,969.15,914.601C984.383,914.601,997.343,909.257,1007.999,898.601C1018.656,887.944,1024,874.984,1024,859.751C1024,859.751,1024,859.751,1024,859.751" class="soliloquy-list"/><glyph unicode="&#x0053;" d="M292.553,274.581C292.553,274.581,292.553,164.85,292.553,164.85C292.553,149.617,287.209,136.657,276.553,126.001C265.896,115.344,252.936,110,237.703,110C237.703,110,54.85,110,54.85,110C39.617,110,26.657,115.344,16.001,126.001C5.344,136.657,0,149.617,0,164.85C0,164.85,0,274.581,0,274.581C0,289.814,5.344,302.774,16.001,313.43C26.657,324.087,39.617,329.431,54.85,329.431C54.85,329.431,237.703,329.431,237.703,329.431C252.936,329.431,265.896,324.087,276.553,313.43C287.209,302.774,292.553,289.814,292.553,274.581C292.553,274.581,292.553,274.581,292.553,274.581M292.553,567.166C292.553,567.166,292.553,457.435,292.553,457.435C292.553,442.202,287.209,429.242,276.553,418.586C265.896,407.929,252.936,402.585,237.703,402.585C237.703,402.585,54.85,402.585,54.85,402.585C39.617,402.585,26.657,407.929,16.001,418.586C5.344,429.242,0,442.202,0,457.435C0,457.435,0,567.166,0,567.166C0,582.399,5.344,595.359,16.001,606.016C26.657,616.672,39.617,622.016,54.85,622.016C54.85,622.016,237.703,622.016,237.703,622.016C252.936,622.016,265.896,616.672,276.553,606.016C287.209,595.359,292.553,582.399,292.553,567.166C292.553,567.166,292.553,567.166,292.553,567.166M658.261,274.581C658.261,274.581,658.261,164.85,658.261,164.85C658.261,149.617,652.916,136.657,642.26,126.001C631.604,115.344,618.643,110,603.411,110C603.411,110,420.557,110,420.557,110C405.325,110,392.364,115.344,381.708,126.001C371.052,136.657,365.707,149.617,365.707,164.85C365.707,164.85,365.707,274.581,365.707,274.581C365.707,289.814,371.052,302.774,381.708,313.43C392.364,324.087,405.325,329.431,420.557,329.431C420.557,329.431,603.411,329.431,603.411,329.431C618.643,329.431,631.604,324.087,642.26,313.43C652.916,302.774,658.261,289.814,658.261,274.581C658.261,274.581,658.261,274.581,658.261,274.581M292.553,859.751C292.553,859.751,292.553,750.02,292.553,750.02C292.553,734.788,287.209,721.827,276.553,711.171C265.896,700.514,252.936,695.17,237.703,695.17C237.703,695.17,54.85,695.17,54.85,695.17C39.617,695.17,26.657,700.514,16.001,711.171C5.344,721.827,0,734.788,0,750.02C0,750.02,0,859.751,0,859.751C0,874.984,5.344,887.944,16.001,898.601C26.657,909.257,39.617,914.601,54.85,914.601C54.85,914.601,237.703,914.601,237.703,914.601C252.936,914.601,265.896,909.257,276.553,898.601C287.209,887.944,292.553,874.984,292.553,859.751C292.553,859.751,292.553,859.751,292.553,859.751M658.261,567.166C658.261,567.166,658.261,457.435,658.261,457.435C658.261,442.202,652.916,429.242,642.26,418.586C631.604,407.929,618.643,402.585,603.411,402.585C603.411,402.585,420.557,402.585,420.557,402.585C405.325,402.585,392.364,407.929,381.708,418.586C371.052,429.242,365.707,442.202,365.707,457.435C365.707,457.435,365.707,567.166,365.707,567.166C365.707,582.399,371.052,595.359,381.708,606.016C392.364,616.672,405.325,622.016,420.557,622.016C420.557,622.016,603.411,622.016,603.411,622.016C618.643,622.016,631.604,616.672,642.26,606.016C652.916,595.359,658.261,582.399,658.261,567.166C658.261,567.166,658.261,567.166,658.261,567.166M1024,274.581C1024,274.581,1024,164.85,1024,164.85C1024,149.617,1018.656,136.657,1007.999,126.001C997.343,115.344,984.383,110,969.15,110C969.15,110,786.297,110,786.297,110C771.064,110,758.104,115.344,747.447,126.001C736.791,136.657,731.447,149.617,731.447,164.85C731.447,164.85,731.447,274.581,731.447,274.581C731.447,289.814,736.791,302.774,747.447,313.43C758.104,324.087,771.064,329.431,786.297,329.431C786.297,329.431,969.15,329.431,969.15,329.431C984.383,329.431,997.343,324.087,1007.999,313.43C1018.656,302.774,1024,289.814,1024,274.581C1024,274.581,1024,274.581,1024,274.581M658.261,859.751C658.261,859.751,658.261,750.02,658.261,750.02C658.261,734.788,652.916,721.827,642.26,711.171C631.604,700.514,618.643,695.17,603.411,695.17C603.411,695.17,420.557,695.17,420.557,695.17C405.325,695.17,392.364,700.514,381.708,711.171C371.052,721.827,365.707,734.788,365.707,750.02C365.707,750.02,365.707,859.751,365.707,859.751C365.707,874.984,371.052,887.944,381.708,898.601C392.364,909.257,405.325,914.601,420.557,914.601C420.557,914.601,603.411,914.601,603.411,914.601C618.643,914.601,631.604,909.257,642.26,898.601C652.916,887.944,658.261,874.984,658.261,859.751C658.261,859.751,658.261,859.751,658.261,859.751M1024,567.166C1024,567.166,1024,457.435,1024,457.435C1024,442.202,1018.656,429.242,1007.999,418.586C997.343,407.929,984.383,402.585,969.15,402.585C969.15,402.585,786.297,402.585,786.297,402.585C771.064,402.585,758.104,407.929,747.447,418.586C736.791,429.242,731.447,442.202,731.447,457.435C731.447,457.435,731.447,567.166,731.447,567.166C731.447,582.399,736.791,595.359,747.447,606.016C758.104,616.672,771.064,622.016,786.297,622.016C786.297,622.016,969.15,622.016,969.15,622.016C984.383,622.016,997.343,616.672,1007.999,606.016C1018.656,595.359,1024,582.399,1024,567.166C1024,567.166,1024,567.166,1024,567.166M1024,859.751C1024,859.751,1024,750.02,1024,750.02C1024,734.788,1018.656,721.827,1007.999,711.171C997.343,700.514,984.383,695.17,969.15,695.17C969.15,695.17,786.297,695.17,786.297,695.17C771.064,695.17,758.104,700.514,747.447,711.171C736.791,721.827,731.447,734.788,731.447,750.02C731.447,750.02,731.447,859.751,731.447,859.751C731.447,874.984,736.791,887.944,747.447,898.601C758.104,909.257,771.064,914.601,786.297,914.601C786.297,914.601,969.15,914.601,969.15,914.601C984.383,914.601,997.343,909.257,1007.999,898.601C1018.656,887.944,1024,874.984,1024,859.751C1024,859.751,1024,859.751,1024,859.751" class="soliloquy-grid"/><glyph unicode="&#x0054;" d="M118.5,656.615C118.5,700.923,126.192,742.666,141.577,781.846C156.962,821.026,178.192,855.18,205.269,884.308C232.346,913.436,263.526,938.666,298.808,960C334.09,981.334,372.038,997.334,412.654,1008C453.269,1018.666,494.705,1024,536.962,1024C601.782,1024,662.09,1010.359,717.885,983.077C773.68,955.795,819.013,916.103,853.885,864C888.757,811.897,906.192,753.026,906.192,687.385C906.192,648,902.295,609.436,894.5,571.692C886.705,533.949,874.397,497.641,857.577,462.769C840.757,427.897,820.243,397.231,796.038,370.769C771.834,344.308,742.09,323.18,706.808,307.385C671.526,291.59,632.757,283.692,590.5,283.692C562.603,283.692,534.91,290.257,507.423,303.385C479.936,316.513,460.243,334.564,448.346,357.538C444.243,341.538,438.5,318.462,431.115,288.308C423.731,258.154,418.91,238.666,416.654,229.846C414.397,221.026,410.192,206.462,404.038,186.154C397.885,165.846,392.551,151.282,388.038,142.462C383.526,133.641,376.962,120.82,368.346,104C359.731,87.18,350.295,71.282,340.038,56.308C329.782,41.334,317.064,23.59,301.885,3.077C301.885,3.077,293.269,0,293.269,0C293.269,0,287.731,6.154,287.731,6.154C281.577,70.564,278.5,109.128,278.5,121.846C278.5,159.59,282.91,201.949,291.731,248.923C300.551,295.897,314.192,354.872,332.654,425.846C351.115,496.82,361.782,538.462,364.654,550.769C351.526,577.436,344.962,612.103,344.962,654.769C344.962,688.82,355.628,720.82,376.962,750.769C398.295,780.718,425.372,795.692,458.192,795.692C483.218,795.692,502.705,787.385,516.654,770.769C530.603,754.154,537.577,733.128,537.577,707.692C537.577,680.615,528.551,641.436,510.5,590.154C492.449,538.872,483.423,500.513,483.423,475.077C483.423,449.231,492.654,427.795,511.115,410.769C529.577,393.743,551.936,385.231,578.192,385.231C600.757,385.231,621.68,390.359,640.962,400.615C660.243,410.872,676.346,424.82,689.269,442.462C702.192,460.103,713.68,479.59,723.731,500.923C733.782,522.257,741.577,544.923,747.115,568.923C752.654,592.923,756.757,615.692,759.423,637.231C762.09,658.769,763.423,679.18,763.423,698.462C763.423,769.436,740.962,824.718,696.038,864.308C651.115,903.897,592.551,923.692,520.346,923.692C438.295,923.692,369.782,897.128,314.808,844C259.834,790.872,232.346,723.487,232.346,641.846C232.346,623.795,234.91,606.359,240.038,589.538C245.166,572.718,250.705,559.385,256.654,549.538C262.603,539.692,268.141,530.359,273.269,521.538C278.397,512.718,280.962,506.462,280.962,502.769C280.962,491.282,277.885,476.308,271.731,457.846C265.577,439.385,257.987,430.154,248.962,430.154C248.141,430.154,244.654,430.769,238.5,432C217.577,438.154,199.013,449.641,182.808,466.462C166.603,483.282,154.09,502.666,145.269,524.615C136.449,546.564,129.782,568.718,125.269,591.077C120.757,613.436,118.5,635.282,118.5,656.615C118.5,656.615,118.5,656.615,118.5,656.615" class="soliloquy-pinterest-p"/><glyph unicode="&#x0055;" d="M245.354,86.516C245.354,86.516,306.862,148.024,306.862,148.024C306.862,148.024,148.024,306.862,148.024,306.862C148.024,306.862,86.516,245.354,86.516,245.354C86.516,245.354,86.516,173.032,86.516,173.032C86.516,173.032,173.032,173.032,173.032,173.032C173.032,173.032,173.032,86.516,173.032,86.516C173.032,86.516,245.354,86.516,245.354,86.516C245.354,86.516,245.354,86.516,245.354,86.516M598.854,713.758C598.854,723.672,593.898,728.628,583.984,728.628C579.478,728.628,575.648,727.051,572.494,723.897C572.494,723.897,206.152,357.555,206.152,357.555C202.997,354.401,201.42,350.571,201.42,346.065C201.42,336.151,206.377,331.195,216.29,331.195C220.797,331.195,224.626,332.772,227.781,335.926C227.781,335.926,594.123,702.268,594.123,702.268C597.277,705.422,598.854,709.252,598.854,713.758C598.854,713.758,598.854,713.758,598.854,713.758M562.355,843.533C562.355,843.533,843.533,562.355,843.533,562.355C843.533,562.355,281.178,0,281.178,0C281.178,0,0,0,0,0C0,0,0,281.178,0,281.178C0,281.178,562.355,843.533,562.355,843.533M1024,778.646C1024,754.764,1015.664,734.486,998.991,717.814C998.991,717.814,886.791,605.613,886.791,605.613C886.791,605.613,605.613,886.791,605.613,886.791C605.613,886.791,717.814,998.316,717.814,998.316C734.036,1015.438,754.313,1024,778.646,1024C802.527,1024,823.03,1015.438,840.153,998.316C840.153,998.316,998.991,840.153,998.991,840.153C1015.664,822.58,1024,802.077,1024,778.646C1024,778.646,1024,778.646,1024,778.646" class="soliloquy-pencil"/><glyph unicode="&#x0056;" d="M1024,199.973C1024,176.987,1015.955,157.45,999.865,141.36C999.865,141.36,882.64,24.135,882.64,24.135C866.55,8.045,847.013,0,824.027,0C801.041,0,781.504,8.045,765.414,24.135C765.414,24.135,512,277.549,512,277.549C512,277.549,258.586,24.135,258.586,24.135C242.496,8.045,222.959,0,199.973,0C176.987,0,157.45,8.045,141.36,24.135C141.36,24.135,24.135,141.36,24.135,141.36C8.045,157.45,0,176.987,0,199.973C0,222.959,8.045,242.496,24.135,258.586C24.135,258.586,277.549,512,277.549,512C277.549,512,24.135,765.414,24.135,765.414C8.045,781.504,0,801.041,0,824.027C0,847.013,8.045,866.55,24.135,882.64C24.135,882.64,141.36,999.865,141.36,999.865C157.45,1015.955,176.987,1024,199.973,1024C222.959,1024,242.496,1015.955,258.586,999.865C258.586,999.865,512,746.451,512,746.451C512,746.451,765.414,999.865,765.414,999.865C781.504,1015.955,801.041,1024,824.027,1024C847.013,1024,866.55,1015.955,882.64,999.865C882.64,999.865,999.865,882.64,999.865,882.64C1015.955,866.55,1024,847.013,1024,824.027C1024,801.041,1015.955,781.504,999.865,765.414C999.865,765.414,746.451,512,746.451,512C746.451,512,999.865,258.586,999.865,258.586C1015.955,242.496,1024,222.959,1024,199.973C1024,199.973,1024,199.973,1024,199.973" class="soliloquy-close"/><glyph unicode="&#x0057;" d="M1024,751.577C1024,733.959,1017.834,718.985,1005.502,706.653C1005.502,706.653,527.195,228.346,527.195,228.346C527.195,228.346,437.347,138.498,437.347,138.498C425.015,126.166,410.041,120,392.423,120C374.806,120,359.832,126.166,347.499,138.498C347.499,138.498,257.652,228.346,257.652,228.346C257.652,228.346,18.498,467.499,18.498,467.499C6.166,479.832,0,494.806,0,512.423C0,530.041,6.166,545.015,18.498,557.347C18.498,557.347,108.346,647.195,108.346,647.195C120.678,659.527,135.652,665.693,153.27,665.693C170.887,665.693,185.861,659.527,198.194,647.195C198.194,647.195,392.423,452.305,392.423,452.305C392.423,452.305,825.806,886.348,825.806,886.348C838.139,898.681,853.113,904.846,870.73,904.846C888.348,904.846,903.322,898.681,915.654,886.348C915.654,886.348,1005.502,796.501,1005.502,796.501C1017.834,784.168,1024,769.194,1024,751.577C1024,751.577,1024,751.577,1024,751.577" class="soliloquy-check"/></font>
</defs>
</svg>
