<svg width="236" height="253" viewBox="0 0 236 253" fill="none" xmlns="http://www.w3.org/2000/svg">
    <path d="M3 0.5H232C233.381 0.5 234.5 1.61929 234.5 3V242.51C234.5 247.757 230.247 252.01 225 252.01H3C1.61929 252.01 0.5 250.891 0.5 249.51V3.00001C0.5 1.61929 1.61929 0.5 3 0.5Z" fill="white" stroke="#E3ECF3"/>
    <path d="M28.9173 64.3513V70.1694H28.2127V65.0899H28.1786L26.7582 66.0331V65.3172L28.2127 64.3513H28.9173ZM31.2582 69.374L31.2127 69.6808C31.1805 69.8967 31.1313 70.1278 31.065 70.374C31.0006 70.6202 30.9334 70.8522 30.8633 71.07C30.7932 71.2878 30.7354 71.4611 30.69 71.5899H30.1786C30.2032 71.4687 30.2354 71.3086 30.2752 71.1098C30.315 70.9109 30.3548 70.6884 30.3945 70.4422C30.4362 70.1978 30.4703 69.9478 30.4968 69.6922L30.5309 69.374H31.2582ZM32.489 70.1694V69.6581L34.4094 67.5558C34.6348 67.3096 34.8204 67.0956 34.9663 66.9138C35.1121 66.73 35.2201 66.5577 35.2901 66.3967C35.3621 66.2338 35.3981 66.0634 35.3981 65.8853C35.3981 65.6808 35.3488 65.5037 35.2504 65.3541C35.1538 65.2045 35.0212 65.0889 34.8526 65.0075C34.6841 64.9261 34.4947 64.8853 34.2844 64.8853C34.061 64.8853 33.8659 64.9317 33.6992 65.0245C33.5344 65.1155 33.4066 65.2433 33.3157 65.4081C33.2267 65.5728 33.1822 65.766 33.1822 65.9876H32.5117C32.5117 65.6467 32.5903 65.3475 32.7475 65.0899C32.9047 64.8323 33.1187 64.6316 33.3896 64.4876C33.6623 64.3437 33.9682 64.2717 34.3072 64.2717C34.6481 64.2717 34.9502 64.3437 35.2134 64.4876C35.4767 64.6316 35.6831 64.8257 35.8327 65.07C35.9824 65.3143 36.0572 65.5861 36.0572 65.8853C36.0572 66.0994 36.0183 66.3086 35.9407 66.5132C35.8649 66.7158 35.7324 66.9422 35.543 67.1922C35.3555 67.4403 35.0951 67.7433 34.7617 68.1013L33.4549 69.499V69.5444H36.1594V70.1694H32.489ZM39.2305 70.249C38.8024 70.249 38.4379 70.1325 38.1367 69.8995C37.8356 69.6647 37.6055 69.3247 37.4464 68.8797C37.2873 68.4327 37.2077 67.8929 37.2077 67.2603C37.2077 66.6316 37.2873 66.0946 37.4464 65.6495C37.6074 65.2026 37.8384 64.8617 38.1396 64.6268C38.4426 64.3901 38.8062 64.2717 39.2305 64.2717C39.6547 64.2717 40.0174 64.3901 40.3185 64.6268C40.6216 64.8617 40.8526 65.2026 41.0117 65.6495C41.1727 66.0946 41.2532 66.6316 41.2532 67.2603C41.2532 67.8929 41.1737 68.4327 41.0146 68.8797C40.8555 69.3247 40.6254 69.6647 40.3242 69.8995C40.0231 70.1325 39.6585 70.249 39.2305 70.249ZM39.2305 69.624C39.6547 69.624 39.9843 69.4194 40.2191 69.0103C40.454 68.6013 40.5714 68.0179 40.5714 67.2603C40.5714 66.7566 40.5174 66.3276 40.4094 65.9734C40.3034 65.6192 40.15 65.3494 39.9492 65.1638C39.7504 64.9781 39.5108 64.8853 39.2305 64.8853C38.81 64.8853 38.4814 65.0927 38.2447 65.5075C38.0079 65.9204 37.8896 66.5047 37.8896 67.2603C37.8896 67.7641 37.9426 68.1922 38.0487 68.5444C38.1547 68.8967 38.3072 69.1647 38.506 69.3484C38.7068 69.5321 38.9483 69.624 39.2305 69.624ZM44.2305 70.249C43.8024 70.249 43.4379 70.1325 43.1367 69.8995C42.8356 69.6647 42.6055 69.3247 42.4464 68.8797C42.2873 68.4327 42.2077 67.8929 42.2077 67.2603C42.2077 66.6316 42.2873 66.0946 42.4464 65.6495C42.6074 65.2026 42.8384 64.8617 43.1396 64.6268C43.4426 64.3901 43.8062 64.2717 44.2305 64.2717C44.6547 64.2717 45.0174 64.3901 45.3185 64.6268C45.6216 64.8617 45.8526 65.2026 46.0117 65.6495C46.1727 66.0946 46.2532 66.6316 46.2532 67.2603C46.2532 67.8929 46.1737 68.4327 46.0146 68.8797C45.8555 69.3247 45.6254 69.6647 45.3242 69.8995C45.0231 70.1325 44.6585 70.249 44.2305 70.249ZM44.2305 69.624C44.6547 69.624 44.9843 69.4194 45.2191 69.0103C45.454 68.6013 45.5714 68.0179 45.5714 67.2603C45.5714 66.7566 45.5174 66.3276 45.4094 65.9734C45.3034 65.6192 45.15 65.3494 44.9492 65.1638C44.7504 64.9781 44.5108 64.8853 44.2305 64.8853C43.81 64.8853 43.4814 65.0927 43.2447 65.5075C43.0079 65.9204 42.8896 66.5047 42.8896 67.2603C42.8896 67.7641 42.9426 68.1922 43.0487 68.5444C43.1547 68.8967 43.3072 69.1647 43.506 69.3484C43.7068 69.5321 43.9483 69.624 44.2305 69.624Z" fill="#444444" fill-opacity="0.5"/>
    <path d="M34.4908 156.416C34.1574 156.416 33.8572 156.349 33.5902 156.217C33.3232 156.084 33.1091 155.902 32.9482 155.671C32.7872 155.44 32.6991 155.177 32.6839 154.882H33.3658C33.3923 155.145 33.5116 155.363 33.7237 155.535C33.9377 155.705 34.1934 155.791 34.4908 155.791C34.7294 155.791 34.9415 155.735 35.1271 155.623C35.3146 155.511 35.4614 155.358 35.5675 155.163C35.6754 154.966 35.7294 154.743 35.7294 154.495C35.7294 154.241 35.6735 154.015 35.5618 153.816C35.4519 153.615 35.3004 153.457 35.1072 153.342C34.9141 153.226 34.6934 153.167 34.4453 153.166C34.2673 153.164 34.0845 153.191 33.897 153.248C33.7095 153.303 33.5552 153.374 33.4339 153.461L32.7749 153.382L33.1271 150.518H36.1499V151.143H33.718L33.5135 152.859H33.5476C33.6669 152.764 33.8165 152.685 33.9964 152.623C34.1764 152.56 34.3639 152.529 34.5589 152.529C34.915 152.529 35.2322 152.614 35.5107 152.785C35.791 152.953 36.0107 153.185 36.1697 153.478C36.3307 153.772 36.4112 154.107 36.4112 154.484C36.4112 154.855 36.3279 155.186 36.1612 155.478C35.9964 155.768 35.7692 155.997 35.4794 156.166C35.1896 156.332 34.8601 156.416 34.4908 156.416ZM39.4716 156.416C39.233 156.412 38.9943 156.366 38.7557 156.279C38.517 156.192 38.2992 156.045 38.1023 155.839C37.9053 155.631 37.7472 155.349 37.6278 154.995C37.5085 154.639 37.4489 154.192 37.4489 153.654C37.4489 153.139 37.4972 152.683 37.5938 152.285C37.6903 151.885 37.8305 151.549 38.0142 151.276C38.1979 151.002 38.4195 150.793 38.679 150.651C38.9403 150.509 39.2348 150.438 39.5625 150.438C39.8883 150.438 40.178 150.504 40.4318 150.634C40.6875 150.763 40.8958 150.943 41.0568 151.174C41.2178 151.405 41.322 151.671 41.3693 151.972H40.6761C40.6117 151.711 40.4867 151.494 40.3011 151.322C40.1155 151.15 39.8693 151.063 39.5625 151.063C39.1117 151.063 38.7566 151.259 38.4972 151.651C38.2396 152.043 38.1098 152.594 38.108 153.302H38.1534C38.2595 153.141 38.3854 153.004 38.5312 152.89C38.679 152.775 38.8419 152.685 39.0199 152.623C39.1979 152.56 39.3864 152.529 39.5852 152.529C39.9186 152.529 40.2235 152.613 40.5 152.779C40.7765 152.944 40.9981 153.172 41.1648 153.464C41.3314 153.754 41.4148 154.086 41.4148 154.461C41.4148 154.821 41.3343 155.15 41.1733 155.45C41.0123 155.747 40.786 155.984 40.4943 156.16C40.2045 156.334 39.8636 156.419 39.4716 156.416ZM39.4716 155.791C39.7102 155.791 39.9242 155.731 40.1136 155.612C40.3049 155.492 40.4555 155.332 40.5653 155.132C40.6771 154.931 40.733 154.707 40.733 154.461C40.733 154.221 40.679 154.002 40.571 153.805C40.465 153.606 40.3182 153.448 40.1307 153.33C39.9451 153.213 39.733 153.154 39.4943 153.154C39.3144 153.154 39.1468 153.19 38.9915 153.262C38.8362 153.332 38.6998 153.429 38.5824 153.552C38.4669 153.675 38.3759 153.816 38.3097 153.975C38.2434 154.132 38.2102 154.298 38.2102 154.472C38.2102 154.703 38.2642 154.919 38.3722 155.12C38.482 155.321 38.6316 155.483 38.821 155.606C39.0123 155.729 39.2292 155.791 39.4716 155.791ZM44.4297 156.416C44.0017 156.416 43.6371 156.299 43.3359 156.066C43.0348 155.831 42.8047 155.491 42.6456 155.046C42.4865 154.599 42.407 154.06 42.407 153.427C42.407 152.798 42.4865 152.261 42.6456 151.816C42.8066 151.369 43.0376 151.028 43.3388 150.793C43.6418 150.557 44.0054 150.438 44.4297 150.438C44.8539 150.438 45.2166 150.557 45.5178 150.793C45.8208 151.028 46.0518 151.369 46.2109 151.816C46.3719 152.261 46.4524 152.798 46.4524 153.427C46.4524 154.06 46.3729 154.599 46.2138 155.046C46.0547 155.491 45.8246 155.831 45.5234 156.066C45.2223 156.299 44.8577 156.416 44.4297 156.416ZM44.4297 155.791C44.8539 155.791 45.1835 155.586 45.4183 155.177C45.6532 154.768 45.7706 154.185 45.7706 153.427C45.7706 152.923 45.7166 152.494 45.6087 152.14C45.5026 151.786 45.3492 151.516 45.1484 151.33C44.9496 151.145 44.71 151.052 44.4297 151.052C44.0092 151.052 43.6806 151.259 43.4439 151.674C43.2071 152.087 43.0888 152.671 43.0888 153.427C43.0888 153.931 43.1418 154.359 43.2479 154.711C43.3539 155.063 43.5064 155.331 43.7053 155.515C43.906 155.699 44.1475 155.791 44.4297 155.791Z" fill="#444444" fill-opacity="0.5"/>
    <path d="M24.8313 23.2727L26.9407 29.9034H27.0217L29.1353 23.2727H31.1808L28.1722 32H25.7944L22.7816 23.2727H24.8313ZM32.1971 32V25.4545H34.0124V32H32.1971ZM33.109 24.6108C32.8391 24.6108 32.6076 24.5213 32.4144 24.3423C32.2241 24.1605 32.1289 23.9432 32.1289 23.6903C32.1289 23.4403 32.2241 23.2259 32.4144 23.0469C32.6076 22.8651 32.8391 22.7741 33.109 22.7741C33.3789 22.7741 33.609 22.8651 33.7994 23.0469C33.9925 23.2259 34.0891 23.4403 34.0891 23.6903C34.0891 23.9432 33.9925 24.1605 33.7994 24.3423C33.609 24.5213 33.3789 24.6108 33.109 24.6108ZM37.8786 32.1065C37.3814 32.1065 36.9311 31.9787 36.5277 31.723C36.1271 31.4645 35.8089 31.0852 35.5732 30.5852C35.3402 30.0824 35.2237 29.4659 35.2237 28.7358C35.2237 27.9858 35.3445 27.3622 35.5859 26.8651C35.8274 26.3651 36.1484 25.9915 36.549 25.7443C36.9524 25.4943 37.3942 25.3693 37.8743 25.3693C38.2408 25.3693 38.5462 25.4318 38.7905 25.5568C39.0376 25.679 39.2365 25.8324 39.3871 26.017C39.5405 26.1989 39.657 26.3778 39.7365 26.554H39.7919V23.2727H41.603V32H39.8132V30.9517H39.7365C39.6513 31.1335 39.5305 31.3139 39.3743 31.4929C39.2209 31.669 39.0206 31.8153 38.7734 31.9318C38.5291 32.0483 38.2308 32.1065 37.8786 32.1065ZM38.4538 30.6619C38.7464 30.6619 38.9936 30.5824 39.1953 30.4233C39.3999 30.2614 39.5561 30.0355 39.6641 29.7457C39.7749 29.456 39.8303 29.1165 39.8303 28.7273C39.8303 28.3381 39.7763 28 39.6683 27.7131C39.5604 27.4261 39.4041 27.2045 39.1996 27.0483C38.995 26.892 38.7464 26.8139 38.4538 26.8139C38.1555 26.8139 37.9041 26.8949 37.6996 27.0568C37.495 27.2187 37.3402 27.4432 37.2351 27.7301C37.13 28.017 37.0774 28.3494 37.0774 28.7273C37.0774 29.108 37.13 29.4446 37.2351 29.7372C37.343 30.027 37.4979 30.2543 37.6996 30.419C37.9041 30.581 38.1555 30.6619 38.4538 30.6619ZM46.0785 32.1278C45.4052 32.1278 44.8256 31.9915 44.3398 31.7188C43.8569 31.4432 43.4847 31.054 43.2234 30.5511C42.962 30.0455 42.8313 29.4474 42.8313 28.7571C42.8313 28.0838 42.962 27.4929 43.2234 26.9844C43.4847 26.4759 43.8526 26.0795 44.3271 25.7955C44.8043 25.5114 45.364 25.3693 46.006 25.3693C46.4379 25.3693 46.8398 25.4389 47.212 25.5781C47.587 25.7145 47.9137 25.9205 48.1921 26.196C48.4734 26.4716 48.6921 26.8182 48.8484 27.2358C49.0046 27.6506 49.0827 28.1364 49.0827 28.6932V29.1918H43.5558V28.0668H47.3739C47.3739 27.8054 47.3171 27.5739 47.2035 27.3722C47.0898 27.1705 46.9322 27.0128 46.7305 26.8991C46.5316 26.7827 46.3001 26.7244 46.0359 26.7244C45.7603 26.7244 45.516 26.7884 45.3029 26.9162C45.0927 27.0412 44.9279 27.2102 44.8086 27.4233C44.6893 27.6335 44.6282 27.8679 44.6254 28.1264V29.196C44.6254 29.5199 44.685 29.7997 44.8043 30.0355C44.9265 30.2713 45.0984 30.4531 45.32 30.581C45.5415 30.7088 45.8043 30.7727 46.1083 30.7727C46.31 30.7727 46.4947 30.7443 46.6623 30.6875C46.8299 30.6307 46.9734 30.5455 47.0927 30.4318C47.212 30.3182 47.3029 30.179 47.3654 30.0142L49.0444 30.125C48.9592 30.5284 48.7844 30.8807 48.5202 31.1818C48.2589 31.4801 47.9208 31.7131 47.506 31.8807C47.0941 32.0455 46.6183 32.1278 46.0785 32.1278ZM53.2248 32.1278C52.5629 32.1278 51.9904 31.9872 51.5075 31.706C51.0273 31.4219 50.6566 31.027 50.3952 30.5213C50.1339 30.0128 50.0032 29.4233 50.0032 28.7528C50.0032 28.0767 50.1339 27.4858 50.3952 26.9801C50.6566 26.4716 51.0273 26.0767 51.5075 25.7955C51.9904 25.5114 52.5629 25.3693 53.2248 25.3693C53.8867 25.3693 54.4577 25.5114 54.9379 25.7955C55.4208 26.0767 55.793 26.4716 56.0543 26.9801C56.3157 27.4858 56.4464 28.0767 56.4464 28.7528C56.4464 29.4233 56.3157 30.0128 56.0543 30.5213C55.793 31.027 55.4208 31.4219 54.9379 31.706C54.4577 31.9872 53.8867 32.1278 53.2248 32.1278ZM53.2333 30.7216C53.5344 30.7216 53.7859 30.6364 53.9876 30.4659C54.1893 30.2926 54.3413 30.0568 54.4435 29.7585C54.5487 29.4602 54.6012 29.1207 54.6012 28.7401C54.6012 28.3594 54.5487 28.0199 54.4435 27.7216C54.3413 27.4233 54.1893 27.1875 53.9876 27.0142C53.7859 26.8409 53.5344 26.7543 53.2333 26.7543C52.9293 26.7543 52.6737 26.8409 52.4663 27.0142C52.2617 27.1875 52.1069 27.4233 52.0018 27.7216C51.8995 28.0199 51.8484 28.3594 51.8484 28.7401C51.8484 29.1207 51.8995 29.4602 52.0018 29.7585C52.1069 30.0568 52.2617 30.2926 52.4663 30.4659C52.6737 30.6364 52.9293 30.7216 53.2333 30.7216ZM62.0149 23.2727L64.1243 29.9034H64.2053L66.3189 23.2727H68.3643L65.3558 32H62.978L59.9652 23.2727H62.0149ZM69.3807 32V25.4545H71.196V32H69.3807ZM70.2926 24.6108C70.0227 24.6108 69.7912 24.5213 69.598 24.3423C69.4077 24.1605 69.3125 23.9432 69.3125 23.6903C69.3125 23.4403 69.4077 23.2259 69.598 23.0469C69.7912 22.8651 70.0227 22.7741 70.2926 22.7741C70.5625 22.7741 70.7926 22.8651 70.983 23.0469C71.1761 23.2259 71.2727 23.4403 71.2727 23.6903C71.2727 23.9432 71.1761 24.1605 70.983 24.3423C70.7926 24.5213 70.5625 24.6108 70.2926 24.6108ZM75.6332 32.1278C74.9599 32.1278 74.3803 31.9915 73.8945 31.7188C73.4116 31.4432 73.0394 31.054 72.7781 30.5511C72.5167 30.0455 72.386 29.4474 72.386 28.7571C72.386 28.0838 72.5167 27.4929 72.7781 26.9844C73.0394 26.4759 73.4073 26.0795 73.8817 25.7955C74.359 25.5114 74.9187 25.3693 75.5607 25.3693C75.9925 25.3693 76.3945 25.4389 76.7667 25.5781C77.1417 25.7145 77.4684 25.9205 77.7468 26.196C78.0281 26.4716 78.2468 26.8182 78.4031 27.2358C78.5593 27.6506 78.6374 28.1364 78.6374 28.6932V29.1918H73.1104V28.0668H76.9286C76.9286 27.8054 76.8718 27.5739 76.7582 27.3722C76.6445 27.1705 76.4869 27.0128 76.2852 26.8991C76.0863 26.7827 75.8548 26.7244 75.5906 26.7244C75.315 26.7244 75.0707 26.7884 74.8576 26.9162C74.6474 27.0412 74.4826 27.2102 74.3633 27.4233C74.244 27.6335 74.1829 27.8679 74.18 28.1264V29.196C74.18 29.5199 74.2397 29.7997 74.359 30.0355C74.4812 30.2713 74.6531 30.4531 74.8746 30.581C75.0962 30.7088 75.359 30.7727 75.663 30.7727C75.8647 30.7727 76.0494 30.7443 76.217 30.6875C76.3846 30.6307 76.5281 30.5455 76.6474 30.4318C76.7667 30.3182 76.8576 30.179 76.9201 30.0142L78.5991 30.125C78.5138 30.5284 78.3391 30.8807 78.0749 31.1818C77.8136 31.4801 77.4755 31.7131 77.0607 31.8807C76.6488 32.0455 76.1729 32.1278 75.6332 32.1278ZM81.0664 32L79.2852 25.4545H81.1218L82.136 29.8523H82.1957L83.2525 25.4545H85.055L86.1289 29.8267H86.1843L87.1815 25.4545H89.0138L87.2369 32H85.315L84.19 27.8835H84.109L82.984 32H81.0664ZM92.7937 32V23.2727H96.2369C96.8988 23.2727 97.4627 23.3991 97.9286 23.652C98.3945 23.902 98.7496 24.25 98.994 24.696C99.2411 25.1392 99.3647 25.6506 99.3647 26.2301C99.3647 26.8097 99.2397 27.321 98.9897 27.7642C98.7397 28.2074 98.3775 28.5526 97.9031 28.7997C97.4315 29.0469 96.8604 29.1705 96.19 29.1705H93.9954V27.6918H95.8917C96.2468 27.6918 96.5394 27.6307 96.7695 27.5085C97.0025 27.3835 97.1758 27.2116 97.2894 26.9929C97.4059 26.7713 97.4641 26.517 97.4641 26.2301C97.4641 25.9403 97.4059 25.6875 97.2894 25.4716C97.1758 25.2528 97.0025 25.0838 96.7695 24.9645C96.5366 24.8423 96.2411 24.7812 95.8832 24.7812H94.6388V32H92.7937ZM103.407 32.1278C102.733 32.1278 102.154 31.9915 101.668 31.7188C101.185 31.4432 100.813 31.054 100.551 30.5511C100.29 30.0455 100.159 29.4474 100.159 28.7571C100.159 28.0838 100.29 27.4929 100.551 26.9844C100.813 26.4759 101.181 26.0795 101.655 25.7955C102.132 25.5114 102.692 25.3693 103.334 25.3693C103.766 25.3693 104.168 25.4389 104.54 25.5781C104.915 25.7145 105.242 25.9205 105.52 26.196C105.801 26.4716 106.02 26.8182 106.176 27.2358C106.333 27.6506 106.411 28.1364 106.411 28.6932V29.1918H100.884V28.0668H104.702C104.702 27.8054 104.645 27.5739 104.532 27.3722C104.418 27.1705 104.26 27.0128 104.059 26.8991C103.86 26.7827 103.628 26.7244 103.364 26.7244C103.088 26.7244 102.844 26.7884 102.631 26.9162C102.421 27.0412 102.256 27.2102 102.137 27.4233C102.017 27.6335 101.956 27.8679 101.953 28.1264V29.196C101.953 29.5199 102.013 29.7997 102.132 30.0355C102.255 30.2713 102.426 30.4531 102.648 30.581C102.87 30.7088 103.132 30.7727 103.436 30.7727C103.638 30.7727 103.823 30.7443 103.99 30.6875C104.158 30.6307 104.301 30.5455 104.421 30.4318C104.54 30.3182 104.631 30.179 104.694 30.0142L106.373 30.125C106.287 30.5284 106.113 30.8807 105.848 31.1818C105.587 31.4801 105.249 31.7131 104.834 31.8807C104.422 32.0455 103.946 32.1278 103.407 32.1278ZM107.596 32V25.4545H109.355V26.5966H109.424C109.543 26.1903 109.743 25.8835 110.025 25.6761C110.306 25.4659 110.63 25.3608 110.996 25.3608C111.087 25.3608 111.185 25.3665 111.29 25.3778C111.395 25.3892 111.488 25.4048 111.567 25.4247V27.0355C111.482 27.0099 111.364 26.9872 111.213 26.9673C111.063 26.9474 110.925 26.9375 110.8 26.9375C110.533 26.9375 110.294 26.9957 110.084 27.1122C109.877 27.2259 109.712 27.3849 109.59 27.5895C109.471 27.794 109.411 28.0298 109.411 28.2969V32H107.596ZM115.317 23.2727H117.593L119.996 29.1364H120.098L122.502 23.2727H124.777V32H122.988V26.3196H122.915L120.657 31.9574H119.438L117.179 26.2983H117.107V32H115.317V23.2727ZM126.263 32V25.4545H128.079V32H126.263ZM127.175 24.6108C126.906 24.6108 126.674 24.5213 126.481 24.3423C126.29 24.1605 126.195 23.9432 126.195 23.6903C126.195 23.4403 126.29 23.2259 126.481 23.0469C126.674 22.8651 126.906 22.7741 127.175 22.7741C127.445 22.7741 127.675 22.8651 127.866 23.0469C128.059 23.2259 128.156 23.4403 128.156 23.6903C128.156 23.9432 128.059 24.1605 127.866 24.3423C127.675 24.5213 127.445 24.6108 127.175 24.6108ZM131.348 28.2159V32H129.533V25.4545H131.263V26.6094H131.34C131.485 26.2287 131.728 25.9276 132.069 25.706C132.409 25.4815 132.823 25.3693 133.309 25.3693C133.763 25.3693 134.159 25.4688 134.498 25.6676C134.836 25.8665 135.098 26.1506 135.286 26.5199C135.473 26.8864 135.567 27.3239 135.567 27.8324V32H133.752V28.1562C133.755 27.7557 133.652 27.4432 133.445 27.2188C133.238 26.9915 132.952 26.8778 132.588 26.8778C132.344 26.8778 132.128 26.9304 131.941 27.0355C131.756 27.1406 131.611 27.294 131.506 27.4957C131.404 27.6946 131.351 27.9347 131.348 28.2159ZM141.195 29.2131V25.4545H143.011V32H141.268V30.8111H141.2C141.052 31.1946 140.806 31.5028 140.462 31.7358C140.121 31.9687 139.705 32.0852 139.214 32.0852C138.776 32.0852 138.391 31.9858 138.059 31.7869C137.727 31.5881 137.467 31.3054 137.279 30.9389C137.094 30.5724 137.001 30.1335 136.998 29.6222V25.4545H138.813V29.2983C138.816 29.6847 138.92 29.9901 139.124 30.2145C139.329 30.4389 139.603 30.5511 139.947 30.5511C140.165 30.5511 140.37 30.5014 140.56 30.402C140.751 30.2997 140.904 30.1491 141.021 29.9503C141.14 29.7514 141.198 29.5057 141.195 29.2131ZM147.944 25.4545V26.8182H144.002V25.4545H147.944ZM144.897 23.8864H146.713V29.9886C146.713 30.1562 146.738 30.2869 146.789 30.3807C146.841 30.4716 146.912 30.5355 147.002 30.5724C147.096 30.6094 147.204 30.6278 147.326 30.6278C147.412 30.6278 147.497 30.6207 147.582 30.6065C147.667 30.5895 147.733 30.5767 147.778 30.5682L148.064 31.919C147.973 31.9474 147.845 31.9801 147.68 32.017C147.515 32.0568 147.315 32.081 147.079 32.0895C146.642 32.1065 146.258 32.0483 145.929 31.9148C145.602 31.7812 145.348 31.5739 145.166 31.2926C144.984 31.0114 144.895 30.6562 144.897 30.2273V23.8864ZM152.039 32.1278C151.366 32.1278 150.787 31.9915 150.301 31.7188C149.818 31.4432 149.446 31.054 149.184 30.5511C148.923 30.0455 148.792 29.4474 148.792 28.7571C148.792 28.0838 148.923 27.4929 149.184 26.9844C149.446 26.4759 149.814 26.0795 150.288 25.7955C150.765 25.5114 151.325 25.3693 151.967 25.3693C152.399 25.3693 152.801 25.4389 153.173 25.5781C153.548 25.7145 153.875 25.9205 154.153 26.196C154.434 26.4716 154.653 26.8182 154.809 27.2358C154.966 27.6506 155.044 28.1364 155.044 28.6932V29.1918H149.517V28.0668H153.335C153.335 27.8054 153.278 27.5739 153.164 27.3722C153.051 27.1705 152.893 27.0128 152.691 26.8991C152.493 26.7827 152.261 26.7244 151.997 26.7244C151.721 26.7244 151.477 26.7884 151.264 26.9162C151.054 27.0412 150.889 27.2102 150.77 27.4233C150.65 27.6335 150.589 27.8679 150.586 28.1264V29.196C150.586 29.5199 150.646 29.7997 150.765 30.0355C150.887 30.2713 151.059 30.4531 151.281 30.581C151.502 30.7088 151.765 30.7727 152.069 30.7727C152.271 30.7727 152.456 30.7443 152.623 30.6875C152.791 30.6307 152.934 30.5455 153.054 30.4318C153.173 30.3182 153.264 30.179 153.326 30.0142L155.005 30.125C154.92 30.5284 154.745 30.8807 154.481 31.1818C154.22 31.4801 153.882 31.7131 153.467 31.8807C153.055 32.0455 152.579 32.1278 152.039 32.1278Z" fill="#444444"/>
    <line x1="50.686" y1="66.2773" x2="235" y2="66.2773" stroke="#D9D9D9" stroke-opacity="0.5"/>
    <line x1="50.686" y1="153.826" x2="235" y2="153.826" stroke="#D9D9D9" stroke-opacity="0.5"/>
    <line x1="69.1567" y1="66.7773" x2="69.1567" y2="252.934" stroke="#D9D9D9" stroke-opacity="0.5"/>
    <line x1="92.1963" y1="66.7773" x2="92.1963" y2="252.934" stroke="#D9D9D9" stroke-opacity="0.5"/>
    <line x1="115.235" y1="66.7773" x2="115.235" y2="252.934" stroke="#D9D9D9" stroke-opacity="0.5"/>
    <line x1="138.274" y1="66.7773" x2="138.274" y2="252.934" stroke="#D9D9D9" stroke-opacity="0.5"/>
    <line x1="161.313" y1="66.7773" x2="161.313" y2="252.934" stroke="#D9D9D9" stroke-opacity="0.5"/>
    <line x1="184.353" y1="66.7773" x2="184.353" y2="252.934" stroke="#D9D9D9" stroke-opacity="0.5"/>
    <line x1="207.392" y1="66.7773" x2="207.392" y2="252.934" stroke="#D9D9D9" stroke-opacity="0.5"/>
    <path d="M68.6567 242.336L92.4189 229.181L116.189 203.621L139.943 213.766L163.713 176.53L187.476 195.612L211.238 215.538L235 152.022" stroke="#509FE2" stroke-miterlimit="10"/>
    <path d="M91.6958 231.492C93.1688 231.492 94.3629 230.302 94.3629 228.833C94.3629 227.364 93.1688 226.173 91.6958 226.173C90.2229 226.173 89.0288 227.364 89.0288 228.833C89.0288 230.302 90.2229 231.492 91.6958 231.492Z" fill="#509FE2"/>
    <path d="M116.941 206.625C118.414 206.625 119.608 205.434 119.608 203.966C119.608 202.497 118.414 201.306 116.941 201.306C115.468 201.306 114.274 202.497 114.274 203.966C114.274 205.434 115.468 206.625 116.941 206.625Z" fill="#509FE2"/>
    <path d="M140.176 216.714C141.649 216.714 142.843 215.523 142.843 214.054C142.843 212.586 141.649 211.395 140.176 211.395C138.703 211.395 137.509 212.586 137.509 214.054C137.509 215.523 138.703 216.714 140.176 216.714Z" fill="#509FE2"/>
    <path d="M164.748 178.871C166.221 178.871 167.415 177.68 167.415 176.212C167.415 174.743 166.221 173.552 164.748 173.552C163.275 173.552 162.081 174.743 162.081 176.212C162.081 177.68 163.275 178.871 164.748 178.871Z" fill="#509FE2"/>
    <path d="M183.853 195.409C185.326 195.409 186.52 194.218 186.52 192.749C186.52 191.28 185.326 190.09 183.853 190.09C182.38 190.09 181.186 191.28 181.186 192.749C181.186 194.218 182.38 195.409 183.853 195.409Z" fill="#509FE2"/>
    <path d="M211.341 217.866C212.814 217.866 214.008 216.675 214.008 215.206C214.008 213.738 212.814 212.547 211.341 212.547C209.868 212.547 208.674 213.738 208.674 215.206C208.674 216.675 209.868 217.866 211.341 217.866Z" fill="#509FE2"/>
</svg>
