<svg width="155" height="97" viewBox="0 0 155 97" fill="none" xmlns="http://www.w3.org/2000/svg">
    <path d="M79.8213 81.4849H97.9918V96.9916H80.1532C77.3322 95.778 75.0091 94.052 73.322 92.0294C73.9858 88.6854 76.4472 84.3165 79.8213 81.4849Z" fill="#6F4BBB"/>
    <path d="M80.9791 82.8943C78.592 85.3342 76.2324 88.2891 75.4368 91.6507C76.8635 93.3315 78.7292 94.6328 80.7321 95.5816H95.8774V82.8943H80.9791Z" fill="#7D5DC2"/>
    <path d="M76.8392 87.8284C76.3717 88.5125 75.4918 91.2775 75.4368 91.4485C76.8667 93.2158 78.7367 94.5841 80.7441 95.5817H88.8289V88.427C84.8415 88.3985 80.8541 88.1989 76.8392 87.8284Z" fill="#9478CF"/>
    <path d="M79.5408 93.4673C81.3609 94.1317 82.2175 95.3738 82.4851 96.9915H76.1415C76.5697 95.6049 77.7742 93.9006 79.5408 93.4673Z" fill="#5F3EA7"/>
    <path d="M79.6418 94.1721C78.7627 94.4658 78.0262 95.3175 77.551 96.2867H79.6656V94.1721H79.6418Z" fill="#6F4BBB"/>
    <path d="M86.3303 93.4673C88.7661 94.1151 89.9438 95.6959 90.2382 96.9915H81.78C82.3421 95.6181 84.0552 93.7782 86.3303 93.4673Z" fill="#5F3EA7"/>
    <path d="M85.9548 94.1721C84.5993 94.3909 83.2709 95.2415 82.4847 96.2867H86.009V94.1721H85.9548Z" fill="#6F4BBB"/>
    <path d="M119.686 81.4849H101.516V96.9916H119.354C122.175 95.778 124.498 94.052 126.185 92.0294C125.549 88.6854 123.088 84.3165 119.686 81.4849Z" fill="#6F4BBB"/>
    <path d="M118.529 82.8943C120.916 85.3342 123.275 88.2891 124.071 91.6507C122.644 93.3315 120.778 94.6328 118.776 95.5816H103.63V82.8943H118.529Z" fill="#7D5DC2"/>
    <path d="M122.668 87.8284C123.136 88.5125 124.016 91.2775 124.071 91.4485C122.641 93.2158 120.771 94.5841 118.764 95.5817H110.679V88.427C114.666 88.3985 118.681 88.1989 122.668 87.8284Z" fill="#9478CF"/>
    <path d="M119.967 93.4673C118.147 94.1317 117.29 95.3738 117.022 96.9915H123.366C122.938 95.6049 121.733 93.9006 119.967 93.4673Z" fill="#5F3EA7"/>
    <path d="M119.874 94.1721C121.046 94.4658 122.028 95.3175 122.661 96.2867H119.842V94.1721H119.874Z" fill="#6F4BBB"/>
    <path d="M113.502 93.4673C110.864 94.1151 109.588 95.6959 109.269 96.9915H118.432C117.823 95.6181 115.967 93.7782 113.502 93.4673Z" fill="#5F3EA7"/>
    <path d="M113.553 94.1721C114.908 94.3909 116.236 95.2415 117.023 96.2867H113.498V94.1721H113.553Z" fill="#6F4BBB"/>
    <path d="M67.9427 22.1672C67.1429 17.1972 68.0254 14.6192 69.0733 10.0744C72.3551 12.7056 74.451 14.5926 78.4498 16.5328C79.2496 11.7222 81.0146 7.17746 83.5793 2.92505L85.0961 0.426758C90.9426 4.67917 95.9342 8.0811 99.7951 13.7155C103.656 8.0811 108.648 4.67917 114.494 0.426758L116.011 2.92505C118.576 7.17746 120.341 11.7222 121.14 16.5328C125.139 14.5926 127.235 12.7056 130.517 10.0744C131.592 14.5926 132.447 17.1706 131.648 22.1672L138.873 24.0808C137.439 42.2599 135.977 57.7546 134.13 75.9337C133.881 78.4319 133.606 80.9568 133.33 83.4551C133.247 84.1727 132.337 85.475 128.476 85.5016C109.613 86.7242 89.8671 86.7242 71.0314 85.5016C67.1705 85.4484 66.2604 84.1727 66.1777 83.4551C65.9019 80.9037 65.6261 78.3522 65.3779 75.8008C65.2676 74.7642 65.1573 73.7277 65.047 72.6646C63.475 56.4523 61.9307 40.2931 60.6345 24.0542L67.8599 22.1406H67.9427V22.1672Z" fill="#6F4BBB"/>
    <path d="M85.8413 3.95093C82.722 9.0357 80.9829 14.4118 80.6516 19.9732C77.4495 18.808 73.8058 16.9012 70.6589 14.4383C70.024 17.1395 70.162 20.6618 71.0177 23.7339C68.3677 24.3165 65.9109 24.9256 63.4541 25.6142C64.7791 42.2456 66.0213 58.877 67.7328 75.4555C67.8984 77.0974 68.2573 80.6462 68.4505 82.2881C69.1406 82.6589 70.576 82.6589 71.1557 82.6854C90.1476 83.9036 109.36 83.9036 128.352 82.6854C128.959 82.6324 130.367 82.6324 131.057 82.2881C131.251 80.6727 131.609 77.0445 131.775 75.4555C133.459 58.8505 134.729 42.2191 136.054 25.6142C133.597 24.9256 131.14 24.3165 128.49 23.7339C129.346 20.6618 129.484 17.1395 128.849 14.4383C125.73 16.9277 122.058 18.808 118.856 19.9732C118.525 14.4383 116.786 9.0357 113.667 3.95093C107.318 8.559 103.149 11.8959 99.7539 18.5696C96.331 11.8959 92.1903 8.559 85.8137 3.95093H85.8413Z" fill="#9478CF"/>
    <path d="M86.0586 3.95093C86.5325 11.341 88.4835 19.5521 92.1627 22.9955C87.2571 22.4922 84.6371 21.936 80.8465 19.9759C77.5854 18.8105 73.9063 16.9033 70.7288 14.44C72.429 19.3137 74.0735 22.7836 77.4461 26.174C74.5752 26.121 72.9307 25.2204 71.0911 23.7371C68.4154 24.3199 65.9347 24.9291 63.4541 25.6178C64.792 42.2519 66.0462 58.8861 67.7743 75.4674C67.9416 77.1096 68.3039 80.6589 68.499 82.3012C69.1958 82.672 70.6452 82.672 71.2305 82.6985C80.8186 83.3077 90.4625 83.599 100.106 83.599V73.6927C85.2225 74.8052 71.6207 52.5026 87.2571 37.855L84.1354 39.4972C83.7452 37.1399 84.5256 34.1997 85.5569 31.8158C87.5916 27.1805 92.9989 23.7371 100.106 22.916V18.5456C96.6501 11.8707 92.4972 8.53328 86.0586 3.95093Z" fill="#A58DD4"/>
    <path d="M122.362 26.4918C125.665 23.057 127.316 19.5149 128.995 14.5774C129.628 17.3145 129.49 20.8834 128.637 23.9962C126.821 25.5258 125.197 26.4382 122.362 26.4918ZM116.776 25.0964C118.427 25.0964 119.748 26.4113 119.748 27.9946C119.748 29.6046 118.4 30.8927 116.776 30.8927C115.125 30.8927 113.804 29.5778 113.804 27.9946C113.804 26.4113 115.152 25.0964 116.776 25.0964ZM127.646 31.644C128.774 31.644 129.71 32.5564 129.71 33.6566C129.71 34.7568 128.774 35.6692 127.646 35.6692C126.518 35.6692 125.582 34.7568 125.582 33.6566C125.582 32.5296 126.49 31.644 127.646 31.644ZM107.86 23.2449C111.492 19.7832 113.419 11.4646 113.886 3.95093C116.996 9.10313 118.73 14.5505 119.06 20.1857C115.29 22.1715 112.703 22.735 107.86 23.2449Z" fill="#7D5DC2"/>
    <path d="M72.7255 29.3254C75.3822 29.3254 77.551 31.4564 77.551 34.0668C77.551 36.6772 75.3822 38.8081 72.7255 38.8081C70.0688 38.8081 67.9 36.6772 67.9 34.0668C67.9 31.4564 70.0688 29.3254 72.7255 29.3254ZM69.6079 43.8691C70.6652 43.8691 71.5327 44.7215 71.5327 45.7603C71.5327 46.7992 70.6652 47.6516 69.6079 47.6516C68.5506 47.6516 67.6831 46.7992 67.6831 45.7603C67.6831 44.7215 68.5506 43.8691 69.6079 43.8691Z" fill="#9478CF"/>
    <path d="M100.106 32.145C111.783 32.145 121.252 41.1401 121.252 52.2333C121.252 63.3264 111.783 72.3215 100.106 72.3215C88.4291 72.3215 78.9606 63.3264 78.9606 52.2333C78.9606 41.1401 88.4291 32.145 100.106 32.145Z" fill="#D3E8EF"/>
    <path d="M79.6653 47.6372C81.4989 39.9016 87.7933 33.8313 95.7297 32.1929C104.378 31.5483 111.384 37.4843 111.384 45.569C111.384 53.7074 104.268 60.9327 95.5381 61.6847C86.7807 62.4368 79.6926 56.474 79.6926 48.3087C79.6653 48.0938 79.6653 47.8521 79.6653 47.6372Z" fill="white"/>
    <path d="M106.449 44.1272C113.079 44.1272 118.432 49.323 118.432 55.7572C118.432 62.1914 113.079 67.3873 106.449 67.3873C99.8203 67.3873 94.467 62.1914 94.467 55.7572C94.467 49.3499 99.8203 44.1272 106.449 44.1272Z" fill="#EA4E64"/>
    <path d="M106.475 44.1272C108.222 44.1272 109.886 44.4703 111.383 45.13V45.262C111.383 53.0472 104.561 59.988 95.9646 61.0436C95.0217 59.4074 94.467 57.5336 94.467 55.528C94.467 49.2206 99.8193 44.1272 106.475 44.1272Z" fill="#EC6277"/>
    <path d="M106.45 48.3564C110.727 48.3564 114.203 51.6487 114.203 55.7574C114.203 59.8397 110.754 63.1583 106.45 63.1583C102.173 63.1583 98.6965 59.8661 98.6965 55.7574C98.6965 51.675 102.146 48.3564 106.45 48.3564Z" fill="#232323"/>
    <path d="M106.427 48.3564C108.001 48.3564 109.464 48.8101 110.679 49.584C109.188 54.361 105.268 58.4174 100.243 60.3389C99.2765 59.0846 98.6967 57.5101 98.6967 55.8555C98.6691 51.719 102.12 48.3564 106.427 48.3564Z" fill="#323232"/>
    <path d="M97.9919 46.9465C100.724 46.9465 102.926 49.1487 102.926 51.8805C102.926 54.6123 100.724 56.8144 97.9919 56.8144C95.2601 56.8144 93.058 54.6123 93.058 51.8805C93.058 49.1487 95.2601 46.9465 97.9919 46.9465Z" fill="white"/>
    <path d="M75.4368 61.2698C81.31 57.9889 90.1468 63.7305 89.5002 73.0264C83.8964 71.2766 77.8346 65.9178 75.4368 61.2698Z" fill="#6F4BBB"/>
    <path d="M75.4368 61.7488C80.7839 61.8537 86.6982 64.7911 89.5338 73.0264C82.8093 72.292 76.544 67.3089 75.4368 61.7488Z" fill="#A58DD4"/>
    <path d="M78.2562 68.9535C79.0569 68.6851 82.8117 68.7656 83.1154 69.1682C83.4743 69.6514 82.4804 72.1207 81.4313 73.7311C80.0508 72.6575 78.9188 71.1813 78.2562 68.9535Z" fill="#7D5DC2"/>
    <path d="M76.8463 68.2487C77.647 67.9803 81.4018 68.0608 81.7055 68.4634C82.0644 68.9465 81.0705 71.4158 80.0213 73.0262C78.6409 71.9526 77.5089 70.4764 76.8463 68.2487Z" fill="white"/>
    <path d="M78.0293 66.6824C78.2858 72.0072 85.4676 77.1388 92.2789 75.2351C92.6494 76.7802 91.5665 77.6906 90.455 77.9113C84.2706 78.4355 78.3143 74.6558 76.3478 69.8276C75.7778 68.5033 76.4048 66.8479 78.0293 66.6824Z" fill="#6F4BBB"/>
    <path d="M76.9019 76.5508C78.5345 79.6577 81.0922 81.1149 83.8948 81.5823C79.895 83.3969 76.3577 80.9774 76.9019 76.5508Z" fill="#6F4BBB"/>
    <path d="M79.6653 77.2554C82.8998 78.8372 85.9698 79.3404 89.5332 79.0529C86.9292 80.5627 81.8307 80.7305 79.6653 77.2554Z" fill="#9478CF"/>
    <path d="M107.155 25.8052C100.701 14.8114 83.7098 21.22 85.4253 33.5545C89.6731 26.6364 97.8693 24.3841 107.155 25.8052Z" fill="#5F3EA7"/>
    <path d="M107.154 26.3672C103.564 19.9669 96.0081 19.5513 90.9441 23.0701C90.9173 24.5662 91.346 25.6468 92.123 26.5057C96.2225 24.4554 101.581 23.6242 107.154 26.3672Z" fill="#6F4BBB"/>
    <path d="M141.692 67.3875C148.666 67.3875 154.38 72.713 154.38 79.3699C154.38 86.0268 148.666 91.3524 141.692 91.3524C134.719 91.3524 129.005 86.0268 129.005 79.3699C129.005 72.713 134.719 67.3875 141.692 67.3875Z" fill="#6F4BBB"/>
    <path d="M141.693 68.7971C147.539 68.7971 152.265 73.3869 152.265 79.0175C152.265 84.6747 147.539 89.2378 141.693 89.2378C135.846 89.2378 131.12 84.648 131.12 79.0175C131.12 73.3869 135.874 68.7971 141.693 68.7971Z" fill="#9478CF"/>
    <path d="M141.705 68.7971C146.015 68.7971 149.729 71.2101 151.544 74.7048C151.941 80.2519 145.022 84.3291 140.4 82.4153C136.998 80.6125 134.644 77.0901 134.644 73.0684C134.644 72.4028 134.701 71.7648 134.843 71.1269C136.742 69.6847 139.124 68.7971 141.705 68.7971Z" fill="#A58DD4"/>
    <path d="M137.494 77.4969C137.002 76.0438 142.624 74.2209 143.143 75.674L148.71 91.8158C149.202 93.2689 143.58 95.0918 143.061 93.6387L137.494 77.4969Z" fill="#2B3039"/>
    <path d="M145.762 75.8455C143.498 77.2102 141.625 78.5476 140.283 81.0314C142.212 83.3242 144.756 84.5798 147.552 84.2522C149.816 81.4682 148.642 78.2747 145.762 75.8455Z" fill="#5F3EA7"/>
    <path d="M147.331 79.673C146.975 78.8268 146.323 78.029 145.493 77.2554C143.655 78.2224 142.144 79.262 140.987 80.7609C142.262 80.8576 144.248 80.5917 147.331 79.673Z" fill="#6F4BBB"/>
    <path d="M147.876 82.8943C145.612 84.1453 143.739 85.3713 142.397 87.6481C144.326 89.7498 146.87 90.9007 149.666 90.6005C151.93 88.0484 150.756 85.1211 147.876 82.8943Z" fill="#5F3EA7"/>
    <path d="M149.446 86.0115C149.129 85.1671 148.55 84.3709 147.812 83.5989C146.178 84.5639 144.835 85.6014 143.807 87.0972C144.94 87.2178 146.705 86.9283 149.446 86.0115Z" fill="#6F4BBB"/>
    <path d="M136.068 83.4388C138.186 82.9311 140.056 82.6104 142.339 83.2518C142.614 85.6569 141.926 87.8483 140.139 89.2379C137.168 88.9974 135.903 86.4854 136.068 83.4388Z" fill="#5F3EA7"/>
    <path d="M137.431 86.4185C137.039 85.5148 136.843 84.482 136.758 83.3524C138.44 82.9005 139.982 82.7069 141.692 83.1265C141.076 84.0625 139.786 85.1275 137.431 86.4185Z" fill="#6F4BBB"/>
    <path d="M131.705 39.225C120.247 39.8366 111.478 49.1702 112.122 60.046C112.766 70.9218 122.6 79.2449 134.059 78.6333C145.517 78.0217 154.286 68.6882 153.642 57.8123C152.997 46.9365 143.192 38.6134 131.705 39.225Z" fill="#393F4C"/>
    <path d="M131.86 42.0429C121.977 42.5737 114.384 50.7486 114.937 60.2771C115.489 69.7791 123.992 77.0781 133.903 76.5207C143.787 75.9899 151.379 67.815 150.827 58.2865C150.247 48.7845 141.772 41.4855 131.86 42.0429Z" fill="#D3E8EF"/>
    <path d="M146.698 67.3873C148.59 64.7245 149.621 61.5135 149.421 58.0937C148.991 51.3323 143.861 45.8241 137.068 44.1272C136.523 49.9748 135.95 55.7181 135.348 61.6179C137.613 62.4533 143.459 65.1161 146.698 67.3873Z" fill="white"/>
    <path d="M131.652 43.4445C123.089 43.9347 116.53 51.2048 117.052 59.7003C117.134 60.8984 117.326 62.0693 117.655 63.1584C117.628 62.9134 117.6 62.6683 117.6 62.396C117.052 52.5391 124.626 44.098 134.561 43.5262H134.644C133.683 43.4445 132.668 43.3901 131.652 43.4445Z" fill="white"/>
    <path d="M117.728 67.9769C118.056 68.512 118.411 69.0203 118.794 69.5019L124.043 62.3855L136.126 67.3081L143.125 53.1555L150.151 54.4665C149.959 53.8244 149.768 53.1823 149.522 52.567L142.141 51.1758L135.279 65.0608L123.469 60.2452L117.728 67.9769Z" fill="#999999"/>
    <path d="M123.503 57.5253C125.648 57.4199 127.473 58.896 127.589 60.8466C127.705 62.7972 126.082 64.4578 123.937 64.5632C121.793 64.6686 119.967 63.1925 119.851 61.242C119.706 59.3178 121.358 57.6571 123.503 57.5253Z" fill="#1EC185"/>
    <path d="M142.534 49.0668C144.679 48.9614 146.505 50.4375 146.621 52.3881C146.737 54.3387 145.114 55.9993 142.969 56.1047C140.824 56.2102 138.998 54.734 138.882 52.7835C138.737 50.8329 140.389 49.1723 142.534 49.0668Z" fill="#EA4E64"/>
    <path d="M135.486 62.4589C137.63 62.3535 139.456 63.8296 139.572 65.7802C139.688 67.7307 138.065 69.3914 135.92 69.4968C133.775 69.6022 131.949 68.1261 131.834 66.1756C131.689 64.225 133.341 62.5644 135.486 62.4589Z" fill="#FF893A"/>
    <path d="M63.4539 70.207C70.4277 70.207 76.1412 75.3759 76.1412 81.8371C76.1412 88.2982 70.4277 93.4671 63.4539 93.4671C56.4801 93.4671 50.7666 88.2982 50.7666 81.8371C50.7666 75.3759 56.4801 70.207 63.4539 70.207Z" fill="#6F4BBB"/>
    <path d="M63.4541 71.6162C69.3005 71.6162 74.0269 76.206 74.0269 81.8365C74.0269 87.4938 69.3005 92.0569 63.4541 92.0569C57.6077 92.0569 52.8813 87.4671 52.8813 81.8365C52.8813 76.206 57.635 71.6162 63.4541 71.6162Z" fill="#9478CF"/>
    <path d="M63.4657 71.6162C67.7758 71.6162 71.4904 73.9086 73.3052 77.2285C73.7022 82.4983 66.7834 86.3716 62.1614 84.5535C58.7587 82.8408 56.4052 79.4945 56.4052 75.6739C56.4052 75.0416 56.4619 74.4355 56.6036 73.8295C58.5035 72.4594 60.8854 71.6162 63.4657 71.6162Z" fill="#A58DD4"/>
    <path d="M41.6856 49.508L39.0649 46.5213C33.4632 40.1376 23.4041 38.4708 15.4022 41.5389C7.10429 44.7206 2.03038 53.1951 1.89754 62.077L1.89753 62.0781C1.79301 68.7386 4.22189 73.6108 8.20877 77.2836C12.2499 81.0063 17.9598 83.5541 24.4576 85.3281C34.382 88.0376 45.714 88.8479 55.0125 89.5128C57.9382 89.722 60.6626 89.9168 63.0786 90.1518L63.0793 90.1519C63.2076 90.1644 63.3243 90.1837 63.4204 90.2019C64.996 87.356 66.6757 84.514 68.3608 81.6627C72.4794 74.6939 76.6313 67.6689 79.3802 60.3931C83.2628 50.1165 84.1856 39.6832 77.9653 28.8695C76.0009 25.4549 71.7082 22.7957 66.7351 21.5326C61.7735 20.2725 56.5316 20.5057 52.8785 22.419L41.6856 49.508ZM41.6856 49.508L41.6923 45.5345M41.6856 49.508L41.6923 45.5345M41.6923 45.5345C41.708 36.2419 44.6592 26.7303 52.8779 22.4193L41.6923 45.5345Z" fill="#EB5757" stroke="white" stroke-width="3"/>
    <path d="M67.3392 78.5728C65.1042 79.8983 63.2555 81.1973 61.931 83.6097C63.8349 85.8366 66.3459 87.0561 69.1051 86.7379C71.3402 84.0339 70.1813 80.9322 67.3392 78.5728Z" fill="#5F3EA7"/>
    <path d="M69.0773 82.2836C68.7462 81.3557 68.1392 80.4809 67.3666 79.6326C65.6558 80.693 64.2486 81.8329 63.1725 83.4765C64.359 83.5826 66.2077 83.291 69.0773 82.2836Z" fill="#6F4BBB"/>
    <path d="M69.4917 85.0674C67.2567 86.3929 65.4079 87.6919 64.0835 90.1043C65.9874 92.3312 68.4983 93.5507 71.2576 93.2326C73.4926 90.5285 72.3337 87.4268 69.4917 85.0674Z" fill="#5F3EA7"/>
    <path d="M71.2296 88.5146C70.8985 87.5867 70.2914 86.7119 69.5188 85.8635C67.8081 86.9239 66.4008 88.0639 65.3247 89.7075C66.5112 89.8401 68.3599 89.522 71.2296 88.5146Z" fill="#6F4BBB"/>
    <path d="M59.9238 86.3278C62.0485 85.8241 63.9248 85.506 66.215 86.1422C66.4909 88.5281 65.8011 90.702 64.0076 92.0805C61.0275 91.8419 59.7583 89.3499 59.9238 86.3278Z" fill="#5F3EA7"/>
    <path d="M61.2231 89.2157C60.8368 88.4738 60.6437 87.6259 60.5609 86.6986C62.2165 86.3276 63.7341 86.1687 65.4173 86.5131C64.8103 87.2815 63.541 88.1559 61.2231 89.2157Z" fill="#6F4BBB"/>
</svg>
