<svg width="36" height="30" viewBox="0 0 36 30" fill="none" xmlns="http://www.w3.org/2000/svg">
<path d="M9.81855 28.301L15.9894 28.3019L15.9932 33.5433L9.93507 33.5424C8.97674 33.1321 8.18735 32.5486 7.61392 31.8649C7.83852 30.7346 8.67337 29.258 9.81855 28.301Z" fill="#6F4BBB"/>
<path d="M10.1761 28.7386C9.35953 29.5589 8.55251 30.5524 8.28095 31.6826C8.76976 32.2478 9.40876 32.6855 10.0946 33.0046L15.2792 33.0053L15.2761 28.7393L10.1761 28.7386Z" fill="#7D5DC2"/>
<path d="M23.3886 28.3004L17.2178 28.2995L17.2216 33.5409L23.2797 33.5418C24.2374 33.1317 25.026 32.5484 25.5984 31.8648C25.3816 30.7345 24.5446 29.2577 23.3886 28.3004Z" fill="#6F4BBB"/>
<path d="M23.0412 28.7378C23.859 29.5583 24.6674 30.552 24.9406 31.6824C24.4526 32.2475 23.8143 32.6849 23.1289 33.0038L17.9443 33.0031L17.9412 28.7371L23.0412 28.7378Z" fill="#7D5DC2"/>
<path d="M0.1104 29.9158C0.148677 30.8731 0.374669 31.6207 0.807109 32.0858C1.4834 32.0312 2.05586 31.3019 2.31842 30.6729C1.9234 30.0073 1.15292 29.7063 0.1104 29.9158Z" fill="#5F3EA7"/>
<path d="M1.81976 30.4263C1.88614 31.2833 1.99941 32.04 2.55418 32.8059C3.54971 32.5963 4.32896 32.0586 4.65709 31.2016C4.16785 30.1167 3.00298 29.9707 1.81976 30.4263Z" fill="#5F3EA7"/>
<path d="M7.12028 18.0519L7.12975 31.173C4.79046 31.4553 2.06569 31.3638 0.110362 29.9046C0.147062 28.6828 0.268342 27.4883 0.493012 26.3486C0.914325 24.2879 1.71159 22.4097 3.09162 20.8689C4.31206 19.5104 5.53302 18.8632 7.12028 18.0519Z" fill="#6F4BBB"/>
<path d="M0.768044 29.6038C1.99016 30.5158 4.92186 30.7989 6.46264 30.6076L6.45437 19.1094C2.48141 21.1605 0.905631 24.9444 0.768044 29.6038Z" fill="#9478CF"/>
<path d="M0.767991 29.6047C1.38855 30.0699 2.44128 30.3618 3.54091 30.526C3.69862 27.5989 3.67675 23.1945 2.99931 22.0273C1.52532 24.0606 0.859908 26.6594 0.767991 29.6047Z" fill="#A58DD4"/>
<path d="M3.53663 27.6538C4.05327 27.6539 4.46687 28.0551 4.46724 28.5565C4.46761 29.0579 4.05459 29.459 3.53796 29.4589C3.02132 29.4588 2.60772 29.0576 2.60735 28.5562C2.60698 28.0548 3.02 27.6537 3.53663 27.6538Z" fill="#9478CF"/>
<path d="M5.73847 7.81629C5.4648 6.11135 5.76475 5.22703 6.12057 3.66805C7.23909 4.57081 7.95349 5.21823 9.31607 5.88397C9.58728 4.23381 10.1873 2.67487 11.0599 1.21625L11.5759 0.359313C13.5685 1.81834 15.2696 2.98558 16.5861 4.91861C17.8998 2.98596 19.5993 1.81922 21.5897 0.360762L22.1069 1.21785C22.9816 2.67672 23.584 4.23584 23.8576 5.88608C25.2192 5.22072 25.9327 4.57351 27.0499 3.67107C27.4174 5.22104 27.7092 6.10545 27.438 7.81943L29.8997 8.47622C29.4158 14.7123 28.9218 20.0275 28.297 26.2635C28.2131 27.1205 28.1198 27.9866 28.0265 28.8436C27.9985 29.0898 27.6888 29.5365 26.3737 29.5454C19.9487 29.9639 13.2227 29.9629 6.8065 29.5426C5.49137 29.5242 5.18105 29.0865 5.15269 28.8403C5.05811 27.9651 4.96353 27.0898 4.87834 26.2146C4.84051 25.859 4.80267 25.5034 4.76483 25.1387C4.22531 19.5772 3.69519 14.0339 3.2496 8.46325L5.71028 7.80717L5.73846 7.80717L5.73847 7.81629Z" fill="#6F4BBB"/>
<path d="M11.8486 1.6632C10.7884 3.41354 10.1979 5.26423 10.0866 7.17882C8.99661 6.7775 7.75616 6.12089 6.68464 5.27284C6.46927 6.20276 6.51713 7.41534 6.80911 8.47298C5.90746 8.67342 5.07157 8.883 4.2357 9.11992C4.6908 14.8456 5.11771 20.5712 5.70431 26.2786C5.76109 26.8439 5.88411 28.0656 5.95028 28.6309C6.18521 28.7585 6.67369 28.7586 6.87097 28.7678C13.3342 29.1881 19.8722 29.189 26.3348 28.7706C26.5415 28.7524 27.0206 28.7524 27.2553 28.6339C27.3207 28.0778 27.4419 26.8288 27.4978 26.2818C28.0667 20.5654 28.4946 14.8399 28.9413 9.12349C28.1051 8.88633 27.2689 8.67651 26.3669 8.47581C26.6573 7.41826 26.7034 6.20568 26.4867 5.2757C25.4258 6.13256 24.1769 6.7797 23.0875 7.1807C22.9734 5.2752 22.3803 3.41521 21.3175 1.66457C19.1581 3.25064 17.7405 4.39919 16.5867 6.69655C15.4202 4.39886 14.0103 3.24989 11.8392 1.66319L11.8486 1.6632V1.6632Z" fill="#9478CF"/>
<path d="M11.852 1.66293C12.0136 4.20699 12.6733 7.03379 13.9145 8.21934C12.2606 8.04588 11.3772 7.85428 10.0989 7.17936C8.99922 6.77801 7.75845 6.12133 6.68668 5.27318C7.26105 6.95104 7.81627 8.14562 8.95405 9.31293C7.98623 9.29457 7.43163 8.98447 6.81112 8.47376C5.90922 8.67425 5.07311 8.88387 4.23702 9.12084C4.69213 14.8473 5.11906 20.5737 5.7057 26.2819C5.76248 26.8473 5.88551 28.0691 5.95168 28.6345C6.18668 28.7622 6.67528 28.7622 6.87261 28.7714C10.1051 28.9815 13.3562 29.0822 16.6073 29.0826L16.6049 25.6723C11.5876 26.0547 6.99672 18.3764 12.2644 13.3346L11.2124 13.8998C11.0803 13.0882 11.3427 12.0761 11.6897 11.2555C12.3745 9.65986 14.1965 8.47469 16.5924 8.19232L16.5913 6.68778C15.4245 4.38979 14.0237 3.24069 11.852 1.66293Z" fill="#A58DD4"/>
<path d="M24.2253 9.30991C25.3518 8.143 25.9146 6.93954 26.4865 5.26196C26.7032 6.192 26.6571 7.40465 26.3667 8.46226C25.747 8.98189 25.193 9.29181 24.2253 9.30991ZM22.3179 8.83552C22.8816 8.8356 23.3328 9.28243 23.3332 9.82038C23.3336 10.3674 22.8736 10.805 22.3193 10.8049C21.7556 10.8049 21.3044 10.358 21.304 9.82009C21.3036 9.28214 21.7636 8.83544 22.3179 8.83552ZM26.0304 11.0608C26.4155 11.0608 26.7352 11.3709 26.7355 11.7447C26.7357 12.1185 26.4165 12.4285 26.0314 12.4284C25.6462 12.4284 25.3265 12.1183 25.3263 11.7445C25.326 11.3616 25.6358 11.0607 26.0304 11.0608ZM19.2736 8.20597C20.5128 7.02996 21.1684 4.20356 21.3262 1.65062C22.3891 3.40137 22.9823 5.25235 23.0964 7.16709C21.8098 7.84162 20.9269 8.03296 19.2736 8.20597Z" fill="#7D5DC2"/>
<path d="M7.38817 10.2705C8.30892 10.2706 9.06108 11.0002 9.06173 11.8938C9.06237 12.7873 8.31127 13.5167 7.39052 13.5166C6.46977 13.5164 5.71761 12.7869 5.71696 11.8933C5.71632 10.9997 6.46742 10.2704 7.38817 10.2705ZM6.3113 15.2489C6.67772 15.2489 6.97858 15.5407 6.97884 15.8963C6.9791 16.2519 6.67865 16.5437 6.31223 16.5436C5.94581 16.5436 5.64495 16.2518 5.64469 15.8962C5.64443 15.5406 5.94488 15.2488 6.3113 15.2489Z" fill="#9478CF"/>
<path d="M16.7027 11.1561C20.6761 11.1566 23.9003 14.2842 23.9031 18.1406C23.906 21.997 20.6863 25.1236 16.7129 25.123C12.7395 25.1225 9.51528 21.9949 9.51245 18.1385C9.50962 14.2821 12.7293 11.1555 16.7027 11.1561Z" fill="#D3E8EF"/>
<path d="M9.69966 16.5518C10.3271 13.9263 12.486 11.8663 15.2097 11.3106C18.1778 11.0922 20.5839 13.1073 20.586 15.8514C20.588 18.6138 18.1475 21.0658 15.1513 21.3207C12.1456 21.5755 9.71125 19.5512 9.70922 16.7798C9.69977 16.7068 9.69971 16.6248 9.69966 16.5518Z" fill="white"/>
<path d="M18.9215 15.4594C21.1665 15.4597 22.9807 17.2195 22.9823 19.3984C22.9839 21.5774 21.1723 23.3366 18.9273 23.3363C16.6822 23.336 14.868 21.5762 14.8664 19.3973C14.8648 17.2275 16.6764 15.4591 18.9215 15.4594Z" fill="#EA4E64"/>
<path d="M18.9216 15.4593C19.5134 15.4594 20.0771 15.578 20.5846 15.806L20.5846 15.8516C20.5866 18.5411 18.2775 20.9385 15.3658 21.3027C15.046 20.7374 14.8576 20.0901 14.8571 19.3972C14.8555 17.2183 16.6672 15.459 18.9216 15.4593Z" fill="#EC6277"/>
<path d="M18.9223 16.845C20.3782 16.8452 21.5626 17.985 21.5637 19.4072C21.5647 20.8203 20.3914 21.9688 18.926 21.9686C17.47 21.9684 16.2856 20.8286 16.2846 19.4064C16.2836 17.9933 17.4569 16.8448 18.9223 16.845Z" fill="#232323"/>
<path d="M18.9217 16.845C19.4572 16.8451 19.9551 17.0001 20.3686 17.2646C19.8626 18.8964 18.5297 20.282 16.8206 20.9382C16.4915 20.5096 16.2939 19.9717 16.2934 19.4065C16.283 17.9933 17.4563 16.8448 18.9217 16.845Z" fill="#323232"/>
<path d="M16.0486 16.4529C16.9692 16.453 17.7118 17.1733 17.7124 18.0668C17.7131 18.9602 16.9715 19.6803 16.051 19.6802C15.1304 19.6801 14.3878 18.9597 14.3872 18.0663C14.3865 17.1728 15.1281 16.4527 16.0486 16.4529Z" fill="white"/>
<path d="M8.2473 21.3417C10.2942 20.2481 13.3765 22.163 13.1534 25.2625C11.1992 24.6788 9.08442 22.8917 8.2473 21.3417Z" fill="#6F4BBB"/>
<path d="M8.24707 21.3418C10.1069 21.3786 12.1647 22.3999 13.1531 25.2626C10.814 25.007 8.6336 23.2746 8.24707 21.3418Z" fill="#A58DD4"/>
<path d="M9.2161 23.9318C9.48845 23.8407 10.766 23.8682 10.8694 24.005C10.9916 24.1691 10.6541 25.0078 10.2975 25.5548C9.8276 25.19 9.4421 24.6885 9.2161 23.9318Z" fill="#7D5DC2"/>
<path d="M8.84062 23.6309C9.11296 23.5398 10.3905 23.5673 10.4939 23.7041C10.6162 23.8682 10.2786 24.7069 9.92206 25.2539C9.45211 24.8891 9.06661 24.3876 8.84062 23.6309Z" fill="white"/>
<path d="M9.22495 23.2024C9.31077 24.9618 11.679 26.6577 13.9233 26.029C14.0458 26.5395 13.6891 26.8403 13.3229 26.9132C11.2848 27.0861 9.3208 25.8369 8.67155 24.2416C8.48337 23.804 8.68961 23.2571 9.22495 23.2024Z" fill="#6F4BBB"/>
<path d="M8.84168 26.5038C9.406 27.534 10.2893 28.0173 11.2569 28.1724C9.87655 28.7738 8.6549 27.9714 8.84168 26.5038Z" fill="#6F4BBB"/>
<path d="M9.77124 26.7498C10.8798 27.3514 11.9318 27.5429 13.1526 27.4336C12.2608 28.0077 10.5141 28.0713 9.77124 26.7498Z" fill="#9478CF"/>
<path d="M19.1925 9.17517C16.9638 5.43756 11.1046 7.61533 11.6993 11.8085C13.1628 9.45692 15.9894 8.69162 19.1925 9.17517Z" fill="#5F3EA7"/>
<path d="M19.1918 9.17397C17.9319 7.06876 15.2834 6.93179 13.5092 8.08892C13.5002 8.58101 13.6507 8.93643 13.9232 9.21896C15.3597 8.54476 17.2378 8.27158 19.1918 9.17397Z" fill="#6F4BBB"/>
<path d="M30.8502 23.3925C33.1891 23.3929 35.1067 25.2165 35.1084 27.4957C35.1101 29.7749 33.1951 31.598 30.8562 31.5977C28.5172 31.5973 26.5997 29.7737 26.598 27.4945C26.5963 25.2153 28.5112 23.3922 30.8502 23.3925Z" fill="#6F4BBB"/>
<path d="M30.8508 23.9943C32.861 23.9946 34.4872 25.5629 34.4886 27.4866C34.49 29.4193 32.8661 30.978 30.8559 30.9778C28.8458 30.9775 27.2195 29.4091 27.2181 27.4855C27.2167 25.5619 28.85 23.994 30.8508 23.9943Z" fill="#9478CF"/>
<path d="M30.8503 23.9938C32.2781 23.994 33.5091 24.7873 34.1111 25.936C34.244 27.7593 31.9531 29.0991 30.4215 28.4699C29.2939 27.8771 28.5135 26.7192 28.5125 25.3974C28.5123 25.1786 28.531 24.9689 28.5778 24.7592C29.2068 24.2853 29.9956 23.9937 30.8503 23.9938Z" fill="#A58DD4"/>
<path d="M29.3675 26.9482C29.198 26.4467 31.1329 25.8178 31.3118 26.3193L33.2325 31.8907C33.4019 32.3922 31.467 33.021 31.2881 32.5195L29.3675 26.9482Z" fill="#2B3039"/>
<path d="M32.1478 26.3829C31.3872 26.8386 30.7582 27.2853 30.3079 28.1149C30.9566 28.8808 31.8117 29.3003 32.751 29.191C33.5112 28.2612 33.1159 27.1945 32.1478 26.3829Z" fill="#5F3EA7"/>
<path d="M32.7414 27.6591C32.6284 27.3401 32.4216 27.0392 32.1584 26.7475C31.5763 27.112 31.0976 27.5039 30.7317 28.0691C31.1356 28.1056 31.7648 28.0054 32.7414 27.6591Z" fill="#6F4BBB"/>
<path d="M32.8821 28.6172C32.1216 29.0729 31.4926 29.5196 31.0423 30.3491C31.691 31.1151 32.5461 31.5346 33.4854 31.4253C34.2455 30.4955 33.8502 29.4288 32.8821 28.6172Z" fill="#5F3EA7"/>
<path d="M33.4748 29.8023C33.3618 29.4833 33.155 29.1824 32.8918 28.8907C32.3097 29.2552 31.831 29.6471 31.4651 30.2122C31.869 30.2579 32.4982 30.1486 33.4748 29.8023Z" fill="#6F4BBB"/>
<path d="M28.9186 28.8361C29.6417 28.663 30.2804 28.5537 31.0602 28.7726C31.1548 29.5931 30.9205 30.3407 30.3102 30.8147C29.2957 30.7325 28.863 29.8754 28.9186 28.8361Z" fill="#5F3EA7"/>
<path d="M29.3616 29.8297C29.23 29.5744 29.164 29.2827 29.1356 28.9637C29.699 28.8361 30.2156 28.7815 30.7886 28.9001C30.5822 29.1644 30.1503 29.4652 29.3616 29.8297Z" fill="#6F4BBB"/>
<path d="M27.4646 13.7446C23.6229 13.9538 20.6851 17.1533 20.9039 20.8822C21.1227 24.611 24.4218 27.465 28.2636 27.2559C32.1053 27.0467 35.0431 23.8472 34.8243 20.1184C34.6056 16.3896 31.3158 13.5355 27.4646 13.7446Z" fill="#393F4C"/>
<path d="M27.5212 14.5834C24.1585 14.7653 21.5774 17.5729 21.7677 20.8459C21.9579 24.1097 24.8529 26.6172 28.225 26.4263C31.5877 26.2444 34.1689 23.4368 33.9786 20.1639C33.7789 16.9 30.8933 14.3925 27.5212 14.5834Z" fill="#D3E8EF"/>
<path d="M32.5147 23.4357C33.1341 22.5058 33.4716 21.3843 33.4049 20.1898C33.2623 17.8282 31.5791 15.9041 29.352 15.3111C29.175 17.3535 28.9886 19.3595 28.7928 21.4201C29.5352 21.712 31.4525 22.6423 32.5147 23.4357Z" fill="white"/>
<path d="M27.429 15.2396C24.4983 15.4033 22.255 17.8372 22.4356 20.6818C22.4641 21.0829 22.5301 21.475 22.6431 21.8397C22.6336 21.7576 22.6242 21.6756 22.6241 21.5844C22.4338 18.284 25.0244 15.458 28.4248 15.2671L28.453 15.2671C28.1242 15.2397 27.7766 15.2214 27.429 15.2396Z" fill="white"/>
<path d="M22.644 23.5715C22.7569 23.7538 22.8791 23.927 23.0107 24.0911L24.8123 21.6667L28.9648 23.3445L31.3658 18.5229L33.7799 18.9699C33.714 18.7511 33.6481 18.5323 33.5634 18.3227L31.0272 17.8483L28.6731 22.5788L24.6145 20.9375L22.644 23.5715Z" fill="#999999"/>
<path d="M24.6337 20.0815C25.3288 20.0452 25.921 20.5558 25.959 21.2305C25.9971 21.9051 25.4715 22.4794 24.7764 22.5158C24.0813 22.5521 23.4891 22.0415 23.4511 21.3668C23.4036 20.7013 23.9386 20.127 24.6337 20.0815Z" fill="#1EC185"/>
<path d="M31.1205 16.9707C31.8156 16.9344 32.4078 17.445 32.4458 18.1196C32.4839 18.7943 31.9583 19.3686 31.2632 19.4049C30.5681 19.4413 29.976 18.9307 29.9379 18.256C29.8904 17.5814 30.4254 17.0071 31.1205 16.9707Z" fill="#EA4E64"/>
<path d="M28.7375 21.7501C29.4325 21.7137 30.0247 22.2243 30.0628 22.899C30.1008 23.5736 29.5752 24.1479 28.8801 24.1843C28.1851 24.2206 27.5929 23.71 27.5548 23.0354C27.5074 22.3607 28.0424 21.7864 28.7375 21.7501Z" fill="#338EEF"/>
</svg>
