<svg width="145" height="114" viewBox="0 0 145 114" fill="none" xmlns="http://www.w3.org/2000/svg">
<path d="M34.3708 95.272L55.6601 95.2749L55.6733 113.096L34.7728 113.093C31.4665 111.698 28.7432 109.714 26.7648 107.389C27.5397 103.546 30.4199 98.5257 34.3708 95.272Z" fill="#6F4BBB"/>
<path d="M35.6042 96.7592C32.7871 99.5481 30.0028 102.926 29.066 106.769C30.7524 108.691 32.9569 110.178 35.3232 111.264L53.2101 111.266L53.1994 96.7616L35.6042 96.7592Z" fill="#7D5DC2"/>
<path d="M30.6848 102.837C30.1345 103.58 29.0998 106.586 29.0351 106.772C30.7215 108.694 32.926 110.182 35.2922 111.267L44.8187 111.268L44.813 103.489C40.1146 103.458 35.4159 103.24 30.6848 102.837Z" fill="#9478CF"/>
<path d="M34.284 109.316C36.4879 110.03 37.5258 111.362 37.8511 113.098L30.1717 113.097C30.6891 111.609 32.1458 109.781 34.284 109.316Z" fill="#5F3EA7"/>
<path d="M34.2521 110.124C33.0533 110.434 32.0494 111.332 31.402 112.355L34.2861 112.356L34.2845 110.124L34.2521 110.124Z" fill="#6F4BBB"/>
<path d="M41.8667 108.883C44.8158 109.658 46.2428 111.548 46.6004 113.098L36.3614 113.097C37.0407 111.454 39.1128 109.255 41.8667 108.883Z" fill="#5F3EA7"/>
<path d="M41.802 109.657C40.182 109.936 38.595 111.021 37.6563 112.353L41.8688 112.354L41.8668 109.657L41.802 109.657Z" fill="#6F4BBB"/>
<path d="M81.1888 95.2695L59.8994 95.2666L59.9126 113.087L80.8131 113.09C84.1173 111.696 86.8377 109.713 88.8126 107.389C88.0645 103.545 85.1769 98.5243 81.1888 95.2695Z" fill="#6F4BBB"/>
<path d="M79.9907 96.7578C82.8119 99.5474 85.6011 102.926 86.5436 106.769C84.8601 108.69 82.6577 110.178 80.293 111.262L62.4062 111.26L62.3955 96.7554L79.9907 96.7578Z" fill="#7D5DC2"/>
<path d="M84.8846 102.834C85.436 103.578 86.475 106.584 86.54 106.77C84.8564 108.691 82.6541 110.178 80.2895 111.263L70.763 111.262L70.7573 103.483C75.4557 103.452 80.1864 103.236 84.8846 102.834Z" fill="#9478CF"/>
<path d="M81.3231 109.312C79.1202 110.024 78.0843 111.357 77.7615 113.092L85.441 113.093C84.9215 111.606 83.462 109.777 81.3231 109.312Z" fill="#5F3EA7"/>
<path d="M81.3566 110.116C82.5559 110.426 83.5611 111.325 84.21 112.348L81.3259 112.348L81.3242 110.116L81.3566 110.116Z" fill="#6F4BBB"/>
<path d="M73.7424 108.878C70.7944 109.653 69.3701 111.543 69.0148 113.092L79.2537 113.093C78.5721 111.451 76.4968 109.251 73.7424 108.878Z" fill="#5F3EA7"/>
<path d="M73.7757 109.652C75.3961 109.932 76.9848 111.016 77.9255 112.349L73.7129 112.349L73.7109 109.652L73.7757 109.652Z" fill="#6F4BBB"/>
<path d="M0.878097 100.763C1.01015 104.017 1.78982 106.559 3.28174 108.14C5.61494 107.955 7.58994 105.475 8.49576 103.337C7.13296 101.074 4.47479 100.05 0.878097 100.763Z" fill="#5F3EA7"/>
<path d="M2.07815 101.662C2.14436 103.553 2.66444 105.506 3.73522 106.932L4.63913 101.786C3.82859 101.6 2.95335 101.6 2.07815 101.662Z" fill="#6F4BBB"/>
<path d="M6.77601 102.497C7.00502 105.411 7.39582 107.984 9.30976 110.588C12.7443 109.875 15.4327 108.047 16.5648 105.133C14.8769 101.445 10.8581 100.948 6.77601 102.497Z" fill="#5F3EA7"/>
<path d="M9.79573 109.35L12.0922 102.871C10.7955 102.623 9.33713 102.809 7.94372 103.242C8.17223 105.443 8.56262 107.397 9.79573 109.35Z" fill="#6F4BBB"/>
<path d="M18.0507 104.884C18.6364 108.2 21.9107 109.844 23.5634 109.751C24.3078 108.542 25.052 106.961 25.0506 105.071L23.6239 103.924C21.4523 103.52 19.1516 103.675 18.0507 104.884Z" fill="#5F3EA7"/>
<path d="M22.9806 108.635C23.6282 107.705 24.0486 106.279 24.1124 104.915L21.7783 104.542L22.9806 108.635Z" fill="#6F4BBB"/>
<path d="M25.0633 60.4246L25.096 105.036C17.0255 105.996 7.625 105.685 0.879125 100.724C1.00574 96.5695 1.42416 92.5083 2.19927 88.6332C3.6528 81.627 6.40336 75.241 11.1645 70.0023C15.375 65.3836 19.5873 63.183 25.0633 60.4246Z" fill="#6F4BBB"/>
<path d="M3.1481 99.7014C7.36439 102.802 17.4788 103.765 22.7944 103.114L22.7659 64.0203C9.05922 70.9941 3.62278 83.8593 3.1481 99.7014Z" fill="#9478CF"/>
<path d="M3.14913 99.7045C5.29007 101.286 8.92199 102.278 12.7157 102.837C13.2598 92.8847 13.1843 77.9098 10.8472 73.941C5.7619 80.8544 3.46624 89.6902 3.14913 99.7045Z" fill="#A58DD4"/>
<path d="M12.6995 93.0708C14.4819 93.071 15.9088 94.4351 15.9101 96.1399C15.9114 97.8448 14.4865 99.2085 12.7041 99.2082C10.9217 99.2079 9.49477 97.8439 9.4935 96.139C9.49223 94.4342 10.9171 93.0705 12.6995 93.0708Z" fill="#9478CF"/>
<path d="M20.2966 25.6244C19.3524 19.8276 20.3872 16.8209 21.6148 11.5204C25.4737 14.5898 27.9384 16.791 32.6393 19.0546C33.575 13.444 35.6452 8.14358 38.6555 3.18428L40.4358 0.270698C47.31 5.2314 53.1789 9.20002 57.721 15.7723C62.2533 9.20131 68.1163 5.23437 74.9832 0.275622L76.7678 3.18972C79.7855 8.14987 81.8636 13.4509 82.8076 19.0617C87.5051 16.7995 89.9665 14.599 93.8209 11.5307C95.0887 16.8006 96.0956 19.8076 95.1601 25.6351L103.653 27.8682C101.983 49.0708 100.279 67.1425 98.1235 88.3451C97.834 91.2589 97.5121 94.2036 97.1902 97.1174C97.0936 97.9544 96.0253 99.4731 91.4881 99.5035C69.3218 100.926 46.1173 100.923 23.9813 99.4939C19.4441 99.4312 18.3735 97.9432 18.2756 97.1062C17.9493 94.1303 17.623 91.1544 17.3291 88.1786C17.1986 86.9696 17.0681 85.7606 16.9375 84.5207C15.0762 65.6115 13.2473 46.7643 11.71 27.8241L20.1993 25.5934L20.2965 25.5934L20.2966 25.6244Z" fill="#6F4BBB"/>
<path d="M41.376 4.70321C37.7183 10.6544 35.6813 16.9467 35.2972 23.4563C31.5368 22.0919 27.2572 19.8594 23.5605 16.976C22.8175 20.1377 22.9826 24.2605 23.9899 27.8565C20.8792 28.538 17.9954 29.2505 15.1116 30.0561C16.6817 49.5232 18.1546 68.9904 20.1784 88.3956C20.3743 90.3175 20.7987 94.4714 21.027 96.3933C21.8375 96.8274 23.5227 96.8276 24.2033 96.8587C46.5014 98.2878 69.0577 98.291 91.3537 96.8683C92.0666 96.8064 93.7194 96.8066 94.5294 96.4038C94.7548 94.5129 95.173 90.2662 95.366 88.4063C97.3285 68.9707 98.8048 49.5039 100.346 30.0682C97.461 29.2619 94.5761 28.5485 91.4644 27.8661C92.4663 24.2704 92.6253 20.1477 91.8776 16.9857C88.2176 19.8991 83.9089 22.0993 80.1505 23.4627C79.7568 16.984 77.7104 10.6601 74.0438 4.70787C66.5938 10.1005 61.7031 14.0056 57.7226 21.8166C53.6982 14.0045 48.834 10.098 41.3436 4.7032L41.376 4.70321Z" fill="#9478CF"/>
<path d="M41.3858 4.70273C41.9432 13.3525 44.2193 22.9636 48.5013 26.9945C42.7955 26.4048 39.7478 25.7533 35.3374 23.4586C31.5437 22.094 27.263 19.8613 23.5654 16.9776C25.547 22.6823 27.4625 26.7439 31.3878 30.7127C28.0489 30.6503 26.1355 29.596 23.9947 27.8595C20.8832 28.5412 17.9986 29.2539 15.1141 30.0596C16.6842 49.5295 18.1571 68.9993 20.181 88.4072C20.3769 90.3294 20.8014 94.4838 21.0297 96.406C21.8404 96.8402 23.5261 96.8404 24.2069 96.8715C35.3588 97.5859 46.5753 97.9283 57.7915 97.9297L57.7831 86.3347C40.4734 87.6347 24.6351 61.5285 42.8085 44.3863L39.1792 46.308C38.7234 43.5487 39.6285 40.1075 40.8259 37.3174C43.1884 31.8923 49.4744 27.8627 57.74 26.9027L57.7363 21.7872C53.7109 13.974 48.878 10.0671 41.3858 4.70273Z" fill="#A58DD4"/>
<path d="M84.0766 30.7013C87.963 26.7338 89.9046 22.642 91.8775 16.9382C92.6253 20.1004 92.4663 24.2234 91.4642 27.8193C89.3264 29.586 87.4149 30.6397 84.0766 30.7013ZM77.4959 29.0883C79.4406 29.0886 80.9974 30.6078 80.9988 32.4369C81.0002 34.2969 79.4131 35.7847 77.5009 35.7844C75.5562 35.7841 73.9993 34.2649 73.998 32.4359C73.9966 30.6069 75.5836 29.0881 77.4959 29.0883ZM90.3039 36.6542C91.6328 36.6544 92.7356 37.7085 92.7365 38.9795C92.7375 40.2505 91.6363 41.3044 90.3074 41.3042C88.9785 41.304 87.8758 40.2499 87.8748 38.9789C87.8739 37.6768 88.9427 36.654 90.3039 36.6542ZM66.9931 26.9479C71.2684 22.9494 73.5301 13.3397 74.0746 4.65968C77.7415 10.6122 79.7881 16.9056 80.1818 23.4157C75.7432 25.7091 72.697 26.3597 66.9931 26.9479Z" fill="#7D5DC2"/>
<path d="M25.987 33.9688C29.1636 33.9692 31.7586 36.4497 31.7608 39.4879C31.763 42.526 29.1717 45.0058 25.9951 45.0054C22.8185 45.005 20.2236 42.5245 20.2214 39.4863C20.2191 36.4482 22.8105 33.9684 25.987 33.9688ZM22.2718 50.8952C23.536 50.8954 24.574 51.8876 24.5749 53.0966C24.5757 54.3057 23.5392 55.2976 22.2751 55.2975C21.0109 55.2973 19.9729 54.3051 19.972 53.096C19.9712 51.887 21.0077 50.895 22.2718 50.8952Z" fill="#9478CF"/>
<path d="M58.1208 36.9794C71.8291 36.9813 82.9527 47.615 82.9624 60.7268C82.9722 73.8386 71.8644 84.469 58.1562 84.467C44.4479 84.4651 33.3243 73.8315 33.3146 60.7197C33.3048 47.6079 44.4125 36.9774 58.1208 36.9794Z" fill="#D3E8EF"/>
<path d="M33.9625 55.3254C36.1271 46.3987 43.5755 39.3945 52.9721 37.505C63.212 36.7625 71.5133 43.614 71.5202 52.944C71.5272 62.336 63.1077 70.6729 52.7705 71.5394C42.401 72.4058 34.0025 65.5233 33.9955 56.1003C33.9629 55.8523 33.9627 55.5734 33.9625 55.3254Z" fill="white"/>
<path d="M65.7763 51.6099C73.5216 51.611 79.7807 57.5944 79.7862 65.0027C79.7917 72.411 73.5416 78.3926 65.7962 78.3915C58.0509 78.3903 51.7919 72.407 51.7863 64.9987C51.7808 57.6214 58.031 51.6088 65.7763 51.6099Z" fill="#EA4E64"/>
<path d="M65.7767 51.6099C67.8184 51.6102 69.7631 52.0135 71.5137 52.7886L71.5138 52.9436C71.5206 62.0879 63.5544 70.2392 53.5089 71.4776C52.4057 69.5556 51.7559 67.3547 51.7541 64.9989C51.7486 57.5904 57.9988 51.6088 65.7767 51.6099Z" fill="#EC6277"/>
<path d="M65.7793 56.3219C70.8024 56.3226 74.8886 60.1978 74.8922 65.0333C74.8958 69.8379 70.8478 73.7429 65.7923 73.7422C60.7691 73.7415 56.6829 69.8663 56.6793 65.0307C56.6758 60.2262 60.7238 56.3211 65.7793 56.3219Z" fill="#232323"/>
<path d="M65.7794 56.3219C67.6266 56.3221 69.3446 56.8493 70.7712 57.7484C69.0253 63.2967 64.4269 68.0077 58.5304 70.2387C57.3951 68.7816 56.7132 66.9527 56.7118 65.0308C56.6758 60.2262 60.7238 56.3211 65.7794 56.3219Z" fill="#323232"/>
<path d="M55.865 54.9876C59.0409 54.9881 61.6029 57.4372 61.6052 60.4749C61.6074 63.5127 59.0491 65.9611 55.8732 65.9606C52.6973 65.9602 50.1353 63.511 50.133 60.4733C50.1307 57.4356 52.6891 54.9872 55.865 54.9876Z" fill="white"/>
<path d="M28.952 71.6106C36.0137 67.8921 46.6478 74.4027 45.8779 84.9413C39.136 82.9565 31.84 76.8803 28.952 71.6106Z" fill="#6F4BBB"/>
<path d="M28.9512 71.6108C35.3676 71.7357 42.467 75.2082 45.8768 84.9413C37.8072 84.0722 30.2847 78.1821 28.9512 71.6108Z" fill="#A58DD4"/>
<path d="M32.2941 80.4165C33.2337 80.1066 37.6411 80.2003 37.998 80.6653C38.4197 81.2233 37.2551 84.0749 36.025 85.9346C34.4037 84.6944 33.0738 82.9894 32.2941 80.4165Z" fill="#7D5DC2"/>
<path d="M30.9982 79.393C31.9378 79.0832 36.3453 79.1768 36.7021 79.6418C37.1238 80.1998 35.9593 83.0514 34.7292 84.9111C33.1079 83.6709 31.7779 81.9659 30.9982 79.393Z" fill="white"/>
<path d="M32.3232 77.9371C32.6193 83.9189 40.7896 89.6849 48.5327 87.5474C48.9552 89.2831 47.7246 90.3058 46.461 90.5535C39.4296 91.1415 32.6539 86.8943 30.414 81.4701C29.7648 79.9823 30.4763 78.1228 32.3232 77.9371Z" fill="#6F4BBB"/>
<path d="M31.0027 89.1611C32.9496 92.6638 35.9969 94.307 39.335 94.8344C34.573 96.8794 30.3583 94.1512 31.0027 89.1611Z" fill="#6F4BBB"/>
<path d="M34.21 89.9971C38.0347 92.0424 41.664 92.6934 45.8758 92.322C42.7991 94.2737 36.7728 94.4899 34.21 89.9971Z" fill="#9478CF"/>
<path d="M66.7109 30.2436C59.0219 17.5358 38.8075 24.9402 40.8595 39.1969C45.9085 31.2016 55.6601 28.5995 66.7109 30.2436Z" fill="#5F3EA7"/>
<path d="M66.7107 30.2404C62.3639 23.0828 53.2266 22.617 47.1057 26.5513C47.0745 28.2244 47.5938 29.4328 48.5341 30.3934C53.4897 28.1012 59.9692 27.1723 66.7107 30.2404Z" fill="#6F4BBB"/>
<path d="M106.928 78.5824C114.998 78.5836 121.614 84.784 121.619 92.5332C121.625 100.283 115.019 106.481 106.949 106.48C98.8799 106.479 92.2642 100.278 92.2584 92.5291C92.2527 84.7798 98.8591 78.5813 106.928 78.5824Z" fill="#6F4BBB"/>
<path d="M106.932 80.629C113.867 80.63 119.478 85.9623 119.483 92.5027C119.488 99.074 113.885 104.374 106.95 104.373C100.015 104.372 94.4043 99.0394 94.3995 92.4991C94.3946 85.9587 100.029 80.628 106.932 80.629Z" fill="#9478CF"/>
<path d="M106.933 80.6269C111.859 80.6276 116.106 83.3248 118.183 87.2305C118.641 93.4297 110.738 97.985 105.454 95.8455C101.564 93.8302 98.8711 89.8934 98.8678 85.3991C98.8673 84.6552 98.9315 83.9423 99.093 83.2294C101.263 81.6179 103.984 80.6265 106.933 80.6269Z" fill="#A58DD4"/>
<path d="M104.953 88.9457C104.962 87.1431 111.97 87.3212 111.991 89.1345L112.013 109.203C112.004 111.005 104.997 110.827 104.975 109.014L104.953 88.9457Z" fill="#2B3039"/>
<path d="M111.408 88.7499C108.785 90.2994 106.614 91.818 105.061 94.6385C107.299 97.2426 110.249 98.6689 113.49 98.2974C116.112 95.1361 114.748 91.5092 111.408 88.7499Z" fill="#5F3EA7"/>
<path d="M113.455 93.0891C113.066 92.0042 112.352 90.9814 111.444 89.9895C109.436 91.2289 107.784 92.5614 106.522 94.4828C107.915 94.607 110.086 94.2663 113.455 93.0891Z" fill="#6F4BBB"/>
<path d="M113.94 96.3476C111.316 97.8971 109.146 99.4156 107.592 102.236C109.83 104.84 112.78 106.267 116.021 105.895C118.643 102.734 117.28 99.1068 113.94 96.3476Z" fill="#5F3EA7"/>
<path d="M115.986 100.376C115.596 99.2913 114.882 98.2685 113.974 97.2766C111.966 98.516 110.315 99.8485 109.052 101.77C110.446 101.925 112.616 101.553 115.986 100.376Z" fill="#6F4BBB"/>
<path d="M100.267 97.0911C102.762 96.5025 104.966 96.1309 107.656 96.8752C107.982 99.665 107.174 102.207 105.069 103.818C101.568 103.539 100.075 100.625 100.267 97.0911Z" fill="#5F3EA7"/>
<path d="M101.796 100.469C101.342 99.6009 101.114 98.6091 101.016 97.5244C102.96 97.0907 104.742 96.905 106.719 97.3082C106.007 98.2069 104.517 99.2294 101.796 100.469Z" fill="#6F4BBB"/>
<path d="M105.835 20.5775C85.7999 21.6524 70.4789 38.0968 71.6199 57.2613C72.7609 76.4258 89.9666 91.0944 110.002 90.0195C130.037 88.9447 145.358 72.5002 144.217 53.3357C143.076 34.1713 125.92 19.5027 105.835 20.5775Z" fill="#232323"/>
<path d="M106.131 24.8884C88.5937 25.823 75.1327 40.2529 76.125 57.0746C77.1173 73.8494 92.2152 86.7371 109.801 85.7556C127.338 84.821 140.799 70.3911 139.807 53.5694C138.766 36.7946 123.717 23.9069 106.131 24.8884Z" fill="white"/>
<path fill-rule="evenodd" clip-rule="evenodd" d="M119.015 33.5487C119.577 30.9033 123.34 30.8639 123.96 33.4988L123.986 33.6219L124.045 33.868C124.758 36.8152 127.162 39.0533 130.154 39.556C132.913 40.0191 132.938 43.9755 130.185 44.4731C128.717 44.7382 127.359 45.4312 126.283 46.4652C125.208 47.4992 124.461 48.828 124.138 50.2847L124.064 50.6075C123.48 53.25 119.72 53.2577 119.122 50.6195L119.06 50.3418C118.732 48.8834 117.977 47.5559 116.891 46.5287C115.804 45.5015 114.437 44.8212 112.963 44.5747C110.21 44.1148 110.186 40.1647 112.932 39.6703C114.398 39.4064 115.752 38.7132 116.824 37.6786C117.895 36.644 118.635 35.3146 118.95 33.8588L118.993 33.65L119.015 33.5487ZM121.453 56.0279C119.947 56.008 118.504 55.4199 117.414 54.3814C117.176 54.5401 116.97 54.7405 116.804 54.973C115.394 56.8654 113.741 58.8003 111.869 60.6924C110.45 62.1297 109.01 63.4375 107.589 64.6062C106.154 63.4554 104.698 62.1657 103.261 60.7463C101.884 59.389 100.577 57.9616 99.3471 56.4698C100.498 55.031 101.791 53.5786 103.207 52.1414C104.975 50.3445 106.866 48.6717 108.864 47.1349C109.073 46.9834 109.255 46.7986 109.404 46.5879C108.8 46.044 108.315 45.3812 107.978 44.6411C107.642 43.9009 107.462 43.0994 107.449 42.2865C104.336 40.1349 101.26 38.5457 98.5186 37.7254C95.5487 36.837 92.0711 36.6155 89.8069 38.905C88.3404 40.3932 87.9517 42.4055 88.0774 44.3167C88.2032 46.231 88.8579 48.3316 89.8414 50.4617C90.8444 52.5811 92.0386 54.6046 93.4093 56.507C92.0629 58.4244 90.8941 60.4605 89.9174 62.5901C88.9606 64.7324 88.3323 66.8411 88.2306 68.7568C88.1288 70.6694 88.5396 72.6767 90.0277 74.1464C91.5159 75.6129 93.5282 76.0016 95.4394 75.8759C97.3505 75.7469 99.4543 75.0954 101.584 74.1119C103.507 73.2244 105.55 72.0171 107.63 70.544C109.725 71.9909 111.78 73.1726 113.716 74.0359C115.855 74.9926 117.967 75.6209 119.883 75.7227C121.795 75.8245 123.799 75.4106 125.269 73.9224C127.533 71.6328 127.268 68.1583 126.343 65.1998C125.459 62.3801 123.755 59.2147 121.453 56.0279ZM97.1597 42.2656C98.9834 42.8104 101.161 43.8523 103.522 45.367C100.968 47.561 98.599 49.9603 96.4372 52.5409C95.5732 51.243 94.8062 49.8831 94.1426 48.4723C93.3001 46.6446 92.8829 45.1303 92.8063 44.0026C92.7328 42.8685 93.0081 42.4118 93.1808 42.2369C93.4634 41.9507 94.5096 41.4764 97.1597 42.2656ZM94.2433 64.5287C94.8167 63.2452 95.5697 61.8658 96.4866 60.4316C98.6816 62.985 101.082 65.3544 103.664 67.5161C102.367 68.381 101.008 69.149 99.5982 69.8138C97.7705 70.6564 96.2562 71.0735 95.1285 71.1501C93.9913 71.2236 93.5377 70.9483 93.3628 70.7756C93.1879 70.6029 92.9069 70.1464 92.9662 69.0147C93.0286 67.8861 93.4236 66.3668 94.2464 64.5287L94.2433 64.5287ZM115.648 69.7132C114.231 69.067 112.863 68.3161 111.558 67.4666C114.109 65.2724 116.476 62.8732 118.636 60.2928C120.177 62.6376 121.246 64.8019 121.813 66.6186C122.639 69.2554 122.178 70.3107 121.895 70.5969C121.719 70.7718 121.266 71.0527 120.134 70.9903C119.003 70.9342 117.486 70.5328 115.648 69.7132ZM104.378 56.4382C104.373 55.6001 104.701 54.7943 105.29 54.1979C105.878 53.6016 106.68 53.2636 107.518 53.2583C108.356 53.2531 109.162 53.581 109.759 54.1699C110.355 54.7588 110.693 55.5605 110.698 56.3986C110.703 57.2367 110.375 58.0426 109.787 58.639C109.198 59.2353 108.396 59.5733 107.558 59.5785C106.72 59.5838 105.914 59.2559 105.318 58.667C104.721 58.078 104.383 57.2763 104.378 56.4382Z" fill="#232323"/>
<path fill-rule="evenodd" clip-rule="evenodd" d="M119.011 33.5483C119.573 30.9028 123.336 30.8635 123.956 33.4984L123.982 33.6214L124.041 33.8676C124.755 36.8147 127.158 39.0529 130.15 39.5556C132.909 40.0187 132.934 43.9751 130.181 44.4727C128.713 44.7378 127.355 45.4308 126.28 46.4648C125.204 47.4988 124.457 48.8276 124.134 50.2843L124.06 50.6071C123.477 53.2496 119.716 53.2573 119.118 50.6191L119.056 50.3414C118.728 48.883 117.973 47.5555 116.887 46.5283C115.801 45.5011 114.433 44.8208 112.959 44.5743C110.206 44.1143 110.182 40.1642 112.928 39.6698C114.394 39.406 115.748 38.7128 116.82 37.6782C117.891 36.6436 118.632 35.3142 118.947 33.8584L118.989 33.6496L119.011 33.5483Z" fill="#EA4E64"/>
</svg>
