<?xml version="1.0" encoding="utf-8"?>
<!-- Generator: Adobe Illustrator 27.0.1, SVG Export Plug-In . SVG Version: 6.00 Build 0)  -->
<svg version="1.1" id="Layer_1" xmlns="http://www.w3.org/2000/svg" xmlns:xlink="http://www.w3.org/1999/xlink" x="0px" y="0px"
	 viewBox="0 0 15 15" style="enable-background:new 0 0 15 15;" xml:space="preserve">
<style type="text/css">
	.st1{fill:#fff;}
</style>
	<g>
		<path class="st1" d="M6.3,10.3L4,7.9C3.9,7.8,3.9,7.8,3.9,7.7c0-0.1,0-0.2,0.1-0.3l0.5-0.5c0.1-0.1,0.1-0.1,0.2-0.1
		c0.1,0,0.2,0,0.3,0.1l1.6,1.6L10,5.1C10.1,5,10.2,5,10.2,5c0.1,0,0.2,0,0.3,0.1L11,5.6c0.1,0.1,0.1,0.2,0.1,0.3
		c0,0.1,0,0.2-0.1,0.3l-4.2,4.2c-0.1,0.1-0.2,0.1-0.3,0.1C6.5,10.4,6.4,10.3,6.3,10.3z"/>
</g>
</svg>
