<svg width="36" height="30" viewBox="0 0 119 105" fill="none" xmlns="http://www.w3.org/2000/svg">
<path d="M24.7047 63.8367H55.0953C58.8809 69.595 65.3795 73.434 72.7542 73.434H24.7047C22.0659 73.434 19.9263 71.2852 19.9263 68.6353C19.9263 65.9854 22.0659 63.8367 24.7047 63.8367Z" fill="#E63060"/>
<path d="M15.1847 57.0439C12.5459 57.0439 10.4062 54.8952 10.4062 52.2453C10.4062 49.5954 12.5459 47.4466 15.1847 47.4466H52.2279C51.8828 48.9822 51.6916 50.5924 51.6916 52.2453C51.6916 53.8981 51.8828 55.5084 52.2279 57.0439H15.1847Z" fill="#A735DF"/>
<path d="M5.62801 40.6485C2.98927 40.6485 0.849609 38.4998 0.849609 35.8499C0.849609 33.2 2.98927 31.0512 5.62801 31.0512H72.7539C72.6 31.0512 72.4088 31.0512 72.2549 31.0512H72.1381C71.9841 31.0512 71.8301 31.0512 71.639 31.0512H71.6018C71.4479 31.0512 71.2939 31.0512 71.1452 31.0886H71.0709C70.9169 31.0886 70.763 31.1259 70.5718 31.1259H70.4975C70.3435 31.1259 70.232 31.1632 70.078 31.1632H70.0037C69.8497 31.2005 69.6958 31.2005 69.5471 31.2379H69.4303C69.1224 31.2752 68.8197 31.3552 68.5118 31.3925L68.395 31.4298C68.241 31.4671 68.1295 31.5044 67.9755 31.5044L67.8587 31.5418L67.5136 31.6164L67.3968 31.6537C67.2429 31.6911 67.1314 31.7284 66.9774 31.771L66.9031 31.8084C66.7863 31.8457 66.6748 31.883 66.558 31.9257L66.404 31.963L66.0589 32.0803L65.9049 32.1176C65.7509 32.1549 65.6394 32.1922 65.4855 32.2722L65.4111 32.3095L65.1032 32.4268L64.9492 32.5015C64.8324 32.5388 64.7209 32.6188 64.6041 32.6561L64.4501 32.7308L64.1847 32.8481L64.0307 32.9227C63.9139 32.96 63.8024 33.04 63.6856 33.0773L63.5316 33.152L63.3033 33.2693L63.0379 33.4239L62.8096 33.5412L62.6184 33.6585L62.4273 33.7758L62.1618 33.9304L62.0079 34.0477L61.8167 34.165L61.5513 34.3196L61.3601 34.4369L61.2433 34.5116C61.015 34.6662 60.7442 34.8582 60.5159 35.0128L60.4788 35.0501C60.3248 35.1674 60.1708 35.2794 60.0169 35.3967L59.9797 35.434C59.7514 35.6259 59.4806 35.8179 59.2523 36.0098L59.2151 36.0472C57.6861 37.3535 56.3109 38.889 55.2013 40.6165H5.74482L5.62801 40.6485Z" fill="#6433F9"/>
<path d="M95.0425 52.2453C95.0425 39.8861 85.0663 29.8622 72.7539 29.8622C60.4416 29.8622 50.4653 39.8808 50.4653 52.2453C50.4653 64.6098 60.4416 74.6283 72.7539 74.6283C85.0663 74.6283 95.0425 64.6044 95.0425 52.2453ZM53.8315 52.2453C53.8315 41.7256 62.3158 33.2426 72.7539 33.2426C83.2292 33.2426 91.6764 41.7629 91.6764 52.2453C91.6764 62.765 83.1921 71.2479 72.7539 71.2479C62.2786 71.2479 53.8315 62.7223 53.8315 52.2453Z" fill="#210F59"/>
<path d="M114.231 22.8402L77.3042 1.53424C74.4 -0.155946 71.071 -0.155946 68.1297 1.53424L31.2032 22.8402C30.8581 23.0322 30.513 23.2615 30.2104 23.4907H47.8321L72.563 9.2494C72.6001 9.2494 72.7169 9.17476 72.7541 9.17476C72.7913 9.17476 72.9081 9.21208 72.9452 9.2494L109.872 30.5554C109.909 30.5554 109.988 30.63 110.026 30.6727C110.063 30.7473 110.063 30.8646 110.063 30.902V73.6312C110.063 73.7059 110.063 73.8232 110.026 73.8605C110.026 73.8978 109.909 73.9352 109.872 73.9778L72.9452 95.2838C72.9081 95.2838 72.7913 95.3585 72.7541 95.3585C72.7169 95.3585 72.6001 95.3211 72.563 95.2838L47.8321 81.0425H30.2051C30.513 81.2718 68.1244 102.999 68.1244 102.999C71.0286 104.689 74.3575 104.689 77.2989 102.999L114.225 81.693C117.167 79.9655 118.85 77.049 118.85 73.6312V30.902C118.855 27.4843 117.177 24.5251 114.231 22.8402Z" fill="#210F59"/>
<path fill-rule="evenodd" clip-rule="evenodd" d="M78.9695 38.707C79.3169 37.0708 81.6447 37.0464 82.0282 38.6761L82.0443 38.7522L82.0805 38.9044C82.5219 40.7273 84.0082 42.1116 85.8592 42.4225C87.5654 42.7089 87.5807 45.1559 85.8783 45.4637C84.97 45.6276 84.1305 46.0562 83.4651 46.6958C82.7997 47.3353 82.3381 48.1571 82.1382 49.0581L82.0926 49.2578C81.7314 50.8921 79.4055 50.8969 79.0357 49.2652L78.9974 49.0934C78.7945 48.1914 78.3273 47.3703 77.6556 46.735C76.9839 46.0997 76.1381 45.679 75.2262 45.5265C73.5239 45.242 73.5086 42.7989 75.2072 42.4931C76.1138 42.3299 76.9516 41.9012 77.6143 41.2613C78.277 40.6214 78.7348 39.7992 78.9297 38.8988L78.9562 38.7696L78.9695 38.707ZM80.4776 52.6102C79.5462 52.5979 78.6538 52.2342 77.9791 51.5919C77.8324 51.69 77.7046 51.814 77.6022 51.9578C76.73 53.1282 75.7074 54.3249 74.5498 55.4952C73.6719 56.3841 72.7818 57.193 71.9029 57.9159C71.015 57.2041 70.1148 56.4064 69.2258 55.5285C68.374 54.689 67.566 53.8062 66.8051 52.8835C67.5168 51.9936 68.3165 51.0954 69.1924 50.2064C70.2861 49.0951 71.4552 48.0604 72.6913 47.11C72.8204 47.0162 72.9332 46.902 73.0253 46.7717C72.6517 46.4352 72.3514 46.0253 72.1434 45.5675C71.9354 45.1098 71.8241 44.614 71.8164 44.1113C69.8906 42.7805 67.9885 41.7976 66.2927 41.2902C64.4558 40.7408 62.3049 40.6037 60.9046 42.0198C59.9975 42.9402 59.7571 44.1849 59.8349 45.3669C59.9127 46.5509 60.3176 47.8501 60.9259 49.1676C61.5462 50.4784 62.2848 51.7299 63.1326 52.9065C62.2999 54.0924 61.577 55.3518 60.9729 56.6689C60.3811 57.9939 59.9925 59.2981 59.9296 60.483C59.8666 61.6659 60.1207 62.9074 61.0411 63.8164C61.9616 64.7234 63.2062 64.9639 64.3882 64.8861C65.5702 64.8064 66.8714 64.4034 68.1889 63.7951C69.3777 63.2462 70.6416 62.4995 71.9278 61.5884C73.2235 62.4833 74.4946 63.2141 75.6922 63.7481C77.0153 64.3398 78.3214 64.7284 79.5063 64.7914C80.6892 64.8543 81.9287 64.5983 82.8377 63.6779C84.2381 62.2618 84.0741 60.1128 83.5017 58.283C82.9552 56.539 81.9011 54.5813 80.4776 52.6102ZM65.4522 44.0984C66.5801 44.4353 67.927 45.0797 69.3871 46.0166C67.8079 47.3735 66.3424 48.8575 65.0053 50.4535C64.4709 49.6508 63.9966 48.8097 63.5862 47.9371C63.065 46.8067 62.807 45.8701 62.7597 45.1727C62.7142 44.4712 62.8845 44.1887 62.9913 44.0805C63.1661 43.9035 63.8132 43.6102 65.4522 44.0984ZM63.6484 57.8679C64.0031 57.0741 64.4688 56.2209 65.0359 55.3339C66.3935 56.9132 67.8781 58.3786 69.4748 59.7156C68.6728 60.2506 67.8324 60.7256 66.9604 61.1367C65.83 61.6579 64.8934 61.9159 64.1959 61.9632C63.4926 62.0087 63.212 61.8384 63.1038 61.7316C62.9957 61.6248 62.8219 61.3425 62.8585 60.6425C62.8972 59.9445 63.1415 59.0048 63.6504 57.8679L63.6484 57.8679ZM76.8873 61.0745C76.0106 60.6749 75.1649 60.2104 74.3572 59.685C75.935 58.3279 77.3992 56.844 78.735 55.2481C79.6882 56.6983 80.3494 58.0369 80.7004 59.1606C81.211 60.7914 80.9258 61.444 80.751 61.6211C80.6422 61.7292 80.3619 61.903 79.6619 61.8644C78.9619 61.8297 78.0241 61.5815 76.8873 61.0745ZM69.9166 52.864C69.9134 52.3457 70.1162 51.8472 70.4804 51.4784C70.8447 51.1096 71.3405 50.9005 71.8589 50.8973C72.3773 50.894 72.8757 51.0968 73.2445 51.4611C73.6134 51.8253 73.8224 52.3212 73.8256 52.8395C73.8289 53.3579 73.6261 53.8563 73.2618 54.2252C72.8976 54.594 72.4018 54.803 71.8834 54.8063C71.365 54.8095 70.8666 54.6067 70.4978 54.2425C70.1289 53.8782 69.9199 53.3824 69.9166 52.864Z" fill="#210F59"/>
<path fill-rule="evenodd" clip-rule="evenodd" d="M78.9668 38.7067C79.3143 37.0705 81.642 37.0461 82.0256 38.6758L82.0417 38.7519L82.0778 38.9041C82.5192 40.727 84.0056 42.1113 85.8565 42.4222C87.5627 42.7086 87.5781 45.1556 85.8756 45.4634C84.9674 45.6273 84.1279 46.056 83.4625 46.6955C82.797 47.335 82.3354 48.1568 82.1356 49.0578L82.0899 49.2575C81.7288 50.8918 79.4029 50.8966 79.033 49.2649L78.9948 49.0931C78.7918 48.1911 78.3247 47.3701 77.653 46.7347C76.9813 46.0994 76.1355 45.6787 75.2236 45.5262C73.5213 45.2417 73.506 42.7986 75.2045 42.4928C76.1112 42.3296 76.949 41.9009 77.6117 41.261C78.2744 40.6211 78.7322 39.7989 78.927 38.8985L78.9535 38.7693L78.9668 38.7067Z" fill="#E63060"/>
</svg>
