<svg width="28" height="23" viewBox="0 0 64 53" fill="none" xmlns="http://www.w3.org/2000/svg">
	<path
		d="M53.2334 16.5523C53.6926 16.2773 53.784 14.5801 53.8304 14.076C53.9677 12.9294 55.3893 12.4253 56.3067 13.0213C57.912 14.1673 58.7371 16.3691 58.9657 18.2489C59.1953 20.1747 59.0121 22.7428 57.6365 24.2563C56.1689 25.9075 52.4542 26.4122 50.2534 26.1825C49.6575 26.1366 49.1069 25.9988 48.5563 25.9075L47.5016 16.4605L48.6492 16.6896C49.7952 16.9187 52.1343 17.1488 53.189 16.5523H53.2334Z"
		fill="#999966"/>
	<path
		d="M56.8142 14.7167C56.5392 14.3498 56.2182 13.9829 55.8514 13.7538C55.4845 13.4783 54.7966 13.7079 54.7497 14.1666L54.7048 14.4871C55.3931 14.258 56.1723 14.4417 56.8142 14.7167ZM58.0986 21.1828C58.3736 19.7153 58.2358 18.0181 57.7317 16.5511C57.3648 16.0924 56.9974 15.726 56.3096 15.4505C55.438 15.0836 54.9798 15.2214 54.5685 15.5882C54.5221 15.9551 54.4293 16.2301 54.3389 16.5052C56.7234 17.2849 57.7322 19.5775 58.0991 21.2282V21.1828H58.0986ZM51.1278 17.789C50.3027 17.789 49.4312 17.6972 48.5602 17.514L49.3848 25.1261C50.4869 25.3557 51.7697 25.3557 52.9158 25.2185C53.7414 22.2834 52.9158 18.8442 51.0824 17.7436L51.1278 17.789ZM53.696 17.2849C53.3755 17.4681 52.9153 17.6058 52.3668 17.6972C54.017 19.4402 54.5216 22.6044 53.9241 25.0807C55.3003 24.8057 56.4463 24.301 57.0428 23.6591C57.1806 23.5213 57.2719 23.3376 57.4102 23.2004C57.4102 20.5863 56.3555 17.789 53.8333 17.2389C53.7868 17.2849 53.7868 17.2849 53.7404 17.2849H53.696Z"
		fill="#C0C0A0"/>
	<path
		d="M53.1956 22.2389C52.0949 22.5144 50.9029 22.5604 50.0309 22.4685C49.6645 22.4226 49.3431 22.3767 49.0221 22.2848L48.472 17.5618C49.3431 17.745 50.2151 17.8368 51.0402 17.8368C52.2327 18.5706 53.0134 20.3132 53.1507 22.2389H53.1956ZM56.5439 15.5896C56.5883 15.8652 56.6348 16.1402 56.6807 16.4147C56.7725 16.9653 56.7725 17.6072 56.7266 18.2496C56.1296 17.5159 55.3509 16.874 54.2967 16.5071C54.3875 16.232 54.4799 15.9565 54.5258 15.5896C54.8912 15.2687 55.3958 15.085 56.2674 15.4524C56.3602 15.4978 56.4516 15.5437 56.5439 15.5896ZM55.8556 13.8011C55.9933 14.0308 56.0842 14.2599 56.1765 14.489C55.6719 14.3517 55.1677 14.3053 54.6172 14.4436L54.6631 14.1226C54.708 13.6634 55.3958 13.4343 55.7637 13.7098L55.8561 13.7552V13.8011H55.8556ZM53.6543 17.2868C53.3333 17.47 52.8736 17.6072 52.3245 17.6991C53.3333 18.7538 53.8824 20.3132 54.0666 21.9644C54.708 21.7343 55.3045 21.4138 55.6719 20.9556C56.0393 20.5882 55.0754 17.5159 53.7461 17.2409C53.6997 17.2868 53.6997 17.2868 53.6543 17.2868Z"
		fill="#FBFAC4"/>
	<path
		d="M10.1804 16.5523C9.72063 16.2773 9.6298 14.5801 9.58287 14.076C9.4456 12.9294 8.024 12.4253 7.10705 13.0213C5.50125 14.1673 4.67666 16.3691 4.44755 18.2489C4.21844 20.1747 4.40161 22.7428 5.77729 24.2563C7.24481 25.9075 10.959 26.4122 13.1603 26.1825C13.7563 26.1366 14.3069 25.9988 14.8575 25.9075L15.9117 16.4605L14.7646 16.6896C13.6186 16.9187 11.2795 17.1488 10.2248 16.5523H10.1804Z"
		fill="#999966"/>
	<path
		d="M6.67026 14.7167C6.94529 14.3498 7.26625 13.9829 7.63263 13.7538C8.00002 13.4783 8.68785 13.7079 8.73478 14.1666L8.7792 14.4871C8.09136 14.258 7.31167 14.4417 6.67026 14.7167ZM5.38542 21.1828C5.11089 19.7153 5.24866 18.0181 5.75281 16.5511C6.11969 16.0924 6.48658 15.726 7.17441 15.4505C8.04594 15.0836 8.50467 15.2214 8.91596 15.5882C8.96238 15.9551 9.05525 16.2301 9.14558 16.5052C6.76111 17.2849 5.7523 19.5775 5.38491 21.2282V21.1828H5.38542ZM12.3567 17.789C13.1818 17.789 14.0533 17.6972 14.9243 17.514L14.0992 25.1261C12.9976 25.3557 11.7142 25.3557 10.5682 25.2185C9.74258 22.2834 10.5682 18.8442 12.4021 17.7436L12.3567 17.789ZM9.7885 17.2849C10.1089 17.4681 10.5692 17.6058 11.1177 17.6972C9.46704 19.4402 8.96289 22.6044 9.55989 25.0807C8.18421 24.8057 7.03816 24.301 6.44116 23.6591C6.30339 23.5213 6.21254 23.3376 6.07427 23.2004C6.07427 20.5863 7.12899 17.789 9.65123 17.2389C9.69715 17.2849 9.69715 17.2849 9.74408 17.2849H9.7885Z"
		fill="#C0C0A0"/>
	<path
		d="M10.2191 22.2389C11.3197 22.5144 12.5117 22.5604 13.3832 22.4685C13.7501 22.4226 14.0711 22.3767 14.392 22.2848L14.9421 17.5618C14.0711 17.745 13.1995 17.8368 12.3744 17.8368C11.182 18.5706 10.4023 20.3132 10.264 22.2389H10.2191ZM6.87073 15.5896C6.82582 15.8652 6.77991 16.1402 6.73348 16.4147C6.64214 16.9653 6.64213 17.6072 6.68856 18.2496C7.28455 17.5159 8.06373 16.874 9.11794 16.5071C9.0271 16.232 8.93476 15.9565 8.88833 15.5896C8.52297 15.2687 8.01881 15.085 7.14728 15.4524C7.05443 15.4978 6.96309 15.5437 6.87073 15.5896ZM7.55908 13.8011C7.42131 14.0308 7.33048 14.2599 7.23813 14.489C7.74228 14.3517 8.24693 14.3053 8.7975 14.4436L8.75107 14.1226C8.70666 13.6634 8.01882 13.4343 7.65093 13.7098L7.55858 13.7552V13.8011H7.55908ZM9.76037 17.2868C10.0813 17.47 10.5411 17.6072 11.0901 17.6991C10.0813 18.7538 9.53177 20.3132 9.34807 21.9644C8.70666 21.7343 8.10966 21.4138 7.74227 20.9556C7.3759 20.5882 8.33927 17.5159 9.66852 17.2409C9.71444 17.2868 9.71444 17.2868 9.76037 17.2868Z"
		fill="#FBFAC4"/>
	<path
		d="M15.2822 14.7202C13.6774 14.5824 12.1176 14.9034 10.5587 15.133L11.9344 13.8027C13.2651 12.5189 15.0531 11.3724 16.7512 10.5467C19.2725 9.26291 22.1621 8.30004 25.0502 8.025C23.0316 7.15347 20.739 6.74068 18.5846 6.23602C26.8856 4.49397 37.5236 3.85154 45.1368 10.3176C49.4939 14.0324 51.8779 20.9112 51.8779 27.1477C51.8779 50.674 11.7981 50.674 11.7981 27.1477C11.7981 23.9836 12.5773 20.9572 14.0453 18.2053C13.4952 18.3431 12.9906 18.5263 12.439 18.7559L10.0101 19.7647L11.7512 17.7925C12.8064 16.6005 13.9989 15.5917 15.3746 14.812L15.2822 14.7202Z"
		fill="#8ED41E"/>
	<path
		d="M33.2995 7.47073C37.1979 7.92896 41.0034 9.21329 44.1666 11.9187C48.0186 15.1747 50.0826 21.228 50.0826 26.6853C50.0826 36.6814 41.828 41.8641 33.299 42.1392V7.47073H33.2995Z"
		fill="#70A91B"/>
	<path
		d="M18.5443 12.5627C21.5712 10.5446 26.5244 9.90266 32.4863 10.2241C31.4316 8.98621 30.4687 8.20602 29.0471 7.51819C31.7525 7.42634 33.9074 8.02284 39.2728 9.85724C34.6422 7.15131 28.9563 5.9134 23.6357 6.50939C25.5615 7.05946 27.3959 7.93099 29.0925 9.07755C23.6357 8.48156 17.3523 11.0951 14.8301 13.2505C16.4818 13.0673 17.9483 13.3878 19.5087 14.0761C17.3074 14.8553 15.8853 15.5436 14.5092 16.8734C16.8936 15.6809 18.774 14.6721 21.8008 14.0302C20.6084 13.6174 19.9664 12.8836 18.5443 12.5627Z"
		fill="#A1E141"/>
	<path
		d="M31.7806 7.01311C37.2848 7.01311 41.7323 11.3238 41.7323 16.6893C41.7323 22.0088 37.2848 26.3654 31.7806 26.3654C26.2784 26.3654 21.8309 22.0547 21.8309 16.6893C21.8299 11.3698 26.2784 7.01311 31.7806 7.01311Z"
		fill="#70A91B"/>
	<path
		d="M16.0521 25.7221C16.373 25.1256 46.5476 24.8965 47.1441 25.7221C48.1978 27.0978 47.6028 28.4276 47.1441 29.5741H16.0521C15.777 28.3357 15.3183 27.006 16.0521 25.7221Z"
		fill="#70A91B"/>
	<path
		d="M16.4736 26.5958C16.7945 25.8162 46.1889 25.4952 46.7854 26.5958C47.7942 28.4757 47.1977 30.3101 46.7854 31.8694H16.4736C16.198 30.1723 15.7857 28.3843 16.4736 26.5958Z"
		fill="#4B7113"/>
	<path
		d="M40.9235 6.60339C40.5112 -1.23835 29.963 -2.06397 27.2122 4.08115C32.0729 1.42114 37.0251 2.38453 40.9235 6.60339Z"
		fill="#70A91B"/>
	<path
		d="M35.007 0.0883189C31.9357 -0.370407 28.5878 0.959853 27.2122 4.03165C29.0461 3.02286 30.9269 2.56463 32.7149 2.56463C33.0823 1.87679 33.9533 0.547045 35.0539 0.0883189H35.007Z"
		fill="#85C51F"/>
	<path
		d="M31.8304 6.00415C36.7831 6.00415 40.7733 9.99391 40.7733 14.9465C40.7733 19.8992 36.7831 23.8889 31.8304 23.8889C26.8788 23.8889 22.8895 19.8992 22.8895 14.9465C22.8895 9.99391 26.8783 6.00415 31.8304 6.00415Z"
		fill="#D3E8EF"/>
	<path
		d="M26.1422 8.29666C29.1227 5.82035 33.2961 5.82034 35.4051 8.3885C37.5145 10.9107 36.7812 14.9918 33.8003 17.5141C30.8188 19.9904 26.6464 19.9904 24.5359 17.4222C22.4275 14.9 23.1617 10.8189 26.1422 8.29666Z"
		fill="white"/>
	<path
		d="M32.083 11.9201C35.5682 11.9201 38.3659 14.5342 38.3659 17.7897C38.3659 21.0457 35.5671 23.6597 32.083 23.6597C28.5989 23.6597 25.8007 21.0457 25.8007 17.7897C25.8007 14.5342 28.5984 11.9201 32.083 11.9201Z"
		fill="#0D82DF"/>
	<path
		d="M32.083 11.9201C33.7797 11.9201 35.339 12.562 36.4397 13.5708C36.0274 14.9924 35.1558 16.414 33.8715 17.5146C31.3952 19.5781 28.0943 19.8996 25.8466 18.5234C25.8006 18.2943 25.8007 18.0652 25.8007 17.7897C25.8007 14.5342 28.5984 11.9201 32.083 11.9201Z"
		fill="#0399ED"/>
	<path
		d="M32.0413 14.0317C34.2426 14.0317 36.077 15.7284 36.077 17.7919C36.077 19.8559 34.2885 21.552 32.0413 21.552C29.8405 21.552 28.0061 19.8559 28.0061 17.7919C28.0061 15.7284 29.7941 14.0317 32.0413 14.0317Z"
		fill="#232323"/>
	<path
		d="M32.0413 14.0335C33.4629 14.0335 34.7013 14.7214 35.4351 15.7302C35.0218 16.3721 34.4717 16.9681 33.8298 17.4727C32.1781 18.8489 30.16 19.4449 28.3725 19.3071C28.1434 18.8489 28.0061 18.2984 28.0061 17.7478C28.0061 15.6843 29.7941 13.9876 32.0413 13.9876V14.0335Z"
		fill="#323232"/>
	<path
		d="M28.5165 12.2399C30.1672 12.2399 31.4969 13.4783 31.4969 15.0371C31.4969 16.5965 30.1672 17.8349 28.5165 17.8349C26.8658 17.8349 25.536 16.5965 25.536 15.0371C25.536 13.4783 26.8658 12.2399 28.5165 12.2399Z"
		fill="white"/>
	<path
		d="M10.9285 28.7989C24.7776 26.7354 38.6736 26.9185 52.5227 28.7989C53.5315 36.0441 52.981 42.924 52.5227 49.8473C38.6736 50.3979 24.7776 50.4903 10.9285 49.8473C10.1029 42.8317 10.012 35.815 10.9285 28.7989Z"
		fill="#9CAEB3"/>
	<path
		d="M14.9265 48.4255C26.162 48.8373 37.3517 48.7929 48.5862 48.4255C44.551 46.1319 40.5153 43.9321 35.9755 42.6937C34.5069 43.3815 32.9491 43.9321 31.3897 44.3903C31.1601 44.4358 31.1601 44.4358 30.931 44.3903C29.6461 43.9775 28.3628 43.4729 27.1239 42.9233C22.7213 44.2066 18.7321 46.087 14.8801 48.472L14.9265 48.4255ZM12.2665 31.1826C11.6705 36.7318 11.7619 42.3263 12.3589 47.875C16.3945 45.3532 20.7048 43.3351 25.2441 41.914C20.0164 39.1627 16.3476 35.2183 12.2665 31.1826ZM50.0532 30.0825C37.8099 28.614 25.5196 28.4767 13.2758 30.0825C18.3198 35.722 23.8699 40.3546 31.253 42.784C39.0937 40.5383 44.5046 35.6311 50.0532 30.0825ZM51.1084 47.875C51.4758 42.3263 51.8422 36.7777 51.2462 31.2291C47.1197 35.3107 42.7166 39.2081 37.5802 41.913C42.3497 43.3346 46.7987 45.4451 51.1553 47.8744H51.1084V47.875Z"
		fill="#D3E8EF"/>
	<path
		d="M14.9265 48.4247C20.3369 48.6084 25.7477 48.6997 31.206 48.6997V44.3895C31.1601 44.3895 31.1147 44.3895 30.9769 44.3431C29.6931 43.9318 28.4098 43.4266 27.1708 42.876C22.7683 44.1599 18.779 46.0397 14.9265 48.4247ZM12.2665 31.1818C11.6705 36.7309 11.7619 42.3255 12.3589 47.8741C16.3945 45.3524 20.7048 43.3343 25.2441 41.9132C20.0164 39.1618 16.3476 35.2175 12.2665 31.1818ZM31.206 28.9346C25.1987 28.9346 19.2372 29.3015 13.2758 30.0822C18.2749 35.7221 23.8699 40.3084 31.206 42.7837V28.9346Z"
		fill="white"/>
	<path
		d="M23.4251 32.235C23.3797 32.4182 23.2879 32.6024 23.197 32.7856C23.1042 33.0606 22.921 33.3346 22.6924 33.5183C22.1418 33.9311 21.4545 33.7944 20.857 33.5642C19.5272 33.0137 18.6108 31.6839 18.0597 30.4001C17.4183 28.9315 17.3719 27.8778 17.7387 26.2725C27.0021 25.7684 36.4951 25.6765 45.4829 26.2266V26.2725H45.6212C45.7589 27.8319 45.6211 28.4738 45.2548 29.7592C44.8415 31.2262 43.9694 33.0137 42.5029 33.7015C41.9523 33.9775 41.3104 34.1148 40.8058 33.7474C40.5772 33.5642 40.3945 33.2892 40.2557 33.0137C39.9347 32.5095 39.8439 31.7768 39.7516 31.2257C39.5684 31.5926 39.3393 31.8217 38.9719 31.913C38.3759 32.0508 37.6881 32.1416 37.0916 32.188C36.4956 32.2345 35.8547 32.2809 35.2112 32.2809C34.2484 32.2809 33.1931 32.188 32.2772 31.914C32.1399 32.4646 31.9103 32.9677 31.3603 33.1509C30.7643 33.3346 30.03 33.427 29.3881 33.4734C28.7002 33.5183 28.0124 33.5647 27.3705 33.5647C26.3158 33.5647 25.1233 33.4734 24.1604 33.0606C23.793 32.9228 23.5629 32.6473 23.4267 32.2809V32.235H23.4251Z"
		fill="#999966"/>
	<path
		d="M38.9872 25.9527C39.3546 28.0162 39.2623 30.6762 38.6663 30.8135C37.7488 31.0431 34.2178 31.4105 32.4757 30.7686C32.016 29.8976 32.016 27.6963 32.0624 25.9078C34.4474 25.9073 36.8319 25.9073 38.9872 25.9527ZM24.1747 26.3655C23.8543 27.3289 23.5333 28.429 23.2124 29.7598C23.0287 30.5854 22.8909 31.4105 22.7526 32.006C22.5694 32.8311 22.1566 32.9694 21.377 32.6479C19.3589 31.7774 18.3057 28.3841 18.396 26.3196C19.7722 26.2277 21.8362 26.1364 24.1742 26.0446C26.4219 25.9986 28.9442 25.9527 31.4664 25.9527C31.6945 28.475 31.6945 31.5018 31.1455 32.1432C30.1811 32.4657 26.4219 32.9239 24.5865 32.0983C23.7609 31.732 24.0819 28.6592 24.1278 26.4119L24.1747 26.3655ZM39.3546 25.9527C39.6286 27.0534 39.9501 28.1999 40.2705 29.6674C40.4537 30.5844 40.5466 31.4569 40.6833 32.0519C40.867 32.9689 41.2339 33.1066 41.9672 32.7403C43.7567 31.8223 44.7655 28.4285 44.7185 26.1823C43.3898 26.0905 41.5095 25.9986 39.3546 25.9527Z"
		fill="#C0C0A0"/>
	<path
		d="M32.0525 27.1923C34.2078 27.1923 36.3642 27.1923 38.3353 27.2377C38.6563 28.3848 38.6563 30.4483 37.2801 30.9525C35.8131 31.0907 33.7032 31.1357 32.4653 30.6774C32.1448 30.035 32.0525 28.6134 32.0525 27.1923ZM24.1189 27.3296C26.091 27.2837 28.3382 27.2377 30.5854 27.2377C30.8135 28.8889 31.2269 32.1909 29.1633 32.3741C27.6499 32.5118 25.7701 32.5118 24.5771 32.0072C23.8908 31.6862 23.9816 29.3936 24.0729 27.3755L24.1189 27.3296ZM18.4789 27.6051C19.4418 27.5133 20.7251 27.4668 22.238 27.4214C22.4217 27.4214 22.7886 31.9612 22.7886 31.9612C22.6049 32.7868 22.1926 32.9246 21.4129 32.6037C19.8076 31.9158 18.7988 29.6217 18.5233 27.6505L18.4789 27.6051ZM40.6739 32.0531C40.8571 32.97 41.2245 33.1078 41.9577 32.7414C43.4263 32.0072 44.3427 29.6222 44.6182 27.5592C43.7472 27.4668 42.6925 27.4214 41.4531 27.3755C40.7198 27.9261 40.5815 31.7321 40.6739 32.0531Z"
		fill="#FBFAC4"/>
	<path
		d="M28.1301 27.2837C28.2229 29.0732 28.1301 30.8606 27.902 30.9979C27.4437 31.2744 25.7466 31.6403 24.9215 30.9525C24.599 30.7239 24.6455 28.9803 24.6919 27.3296C25.792 27.2837 26.9391 27.2837 28.177 27.2377L28.1301 27.2837ZM35.8351 27.2377C35.8805 28.568 35.7886 29.8059 35.6054 29.8977C35.1931 30.1264 33.5873 30.4024 32.7622 29.8518C32.4872 29.6686 32.4872 28.4297 32.5326 27.1923H35.8356V27.2377H35.8351ZM21.3435 27.4669C21.2976 27.9715 21.2976 28.5685 21.2976 29.164V30.9979C21.2976 31.6862 21.1144 31.8235 20.747 31.5025C20.0143 30.9525 19.3713 29.2099 19.0963 27.6051C19.7382 27.5587 20.5184 27.5133 21.3435 27.4669ZM44.0891 27.5133C43.4916 27.4668 42.8043 27.4214 42.0251 27.4214C42.0251 27.9256 42.0715 28.4756 42.0715 29.0726V31.0443C42.0715 31.7781 42.2088 31.9158 42.5757 31.5944C43.2176 30.9979 43.8141 29.2558 44.0891 27.5133Z"
		fill="white"/>
	<path
		d="M13.7305 48.7915C13.2259 51.0841 10.9317 52.5976 8.6401 52.5057C5.47595 52.3674 0.568726 48.8828 0.660573 45.4436C0.706496 43.5179 2.1281 41.7743 3.59562 40.6747C5.01722 39.5726 7.40169 38.4275 9.2366 38.9316C11.0705 39.4363 12.3543 41.9585 12.9508 43.6087C13.5004 45.0308 14.0515 47.2791 13.6836 48.792H13.7305V48.7915Z"
		fill="#85C51F"/>
	<path
		d="M12.9011 48.5588C12.9461 48.2838 12.993 48.0083 12.993 47.6873C12.397 45.1651 10.9749 42.2765 9.37012 41.8182C6.8938 41.0835 1.89573 44.3859 2.16976 47.7797C3.54594 49.8891 6.48149 51.6316 8.59043 51.7225C10.5162 51.8148 12.4883 50.53 12.9017 48.6043V48.5588H12.9011Z"
		fill="#70A91B"/>
	<path
		d="M10.6007 45.9939C11.2421 44.71 10.1889 42.4629 8.58309 42.646C6.88645 42.8757 3.21765 45.3979 3.21765 47.3701C3.21765 48.6085 4.91429 49.48 6.70226 48.9759C8.03252 48.6085 10.096 47.0491 10.6007 45.9939ZM12.0223 49.204C12.3432 48.4243 11.8845 47.0491 10.9676 47.1859C10.0047 47.3701 7.71106 49.0203 7.80341 49.9377C7.84833 50.672 9.13316 51.3139 10.1425 50.9465C10.8757 50.672 11.7467 49.8459 12.0223 49.204Z"
		fill="#5D8D17"/>
	<path
		d="M8.07079 40.0307C8.11672 40.8563 6.51143 41.589 5.86951 40.9936C5.31894 39.9383 5.45772 38.6545 5.91544 38.3795C6.42009 38.1044 7.65849 38.6091 8.07079 40.0307Z"
		fill="#2C440C"/>
	<path
		d="M5.01168 41.5478C5.19386 42.4637 3.95695 43.2444 3.35995 42.8316C2.58077 42.0519 2.30623 40.6763 2.6716 40.3553C3.03949 40.0343 4.36926 40.539 5.01168 41.5478Z"
		fill="#2C440C"/>
	<path
		d="M2.61153 43.8392C2.88808 44.4357 2.29058 45.2608 1.60274 45.2154C0.869983 44.6648 0.182142 43.381 0.456167 43.0595C0.731707 42.6932 1.97012 43.0595 2.61153 43.8392Z"
		fill="#2C440C"/>
	<path
		d="M14.4007 35.3106C14.7681 34.6228 13.7593 34.163 12.9337 33.8421C12.107 33.5675 11.6952 33.5675 11.3743 34.2554C11.0069 34.9432 10.8237 35.9974 11.6953 36.2725C12.5204 36.548 14.0797 35.9974 14.4471 35.3096H14.4007V35.3106Z"
		fill="#2C440C"/>
	<path
		d="M15.1372 32.7432C15.2291 33.5224 14.1274 33.9352 13.2115 34.1189C12.34 34.3026 11.9726 34.2102 11.8817 33.4306C11.7889 32.6499 12.019 31.413 12.9364 31.2298C13.8065 31.0466 15.0449 31.963 15.1372 32.7432Z"
		fill="#2C440C"/>
	<path
		d="M15.3128 30.1723C15.4062 30.9066 14.3041 31.2745 13.3881 31.4577C12.5166 31.6398 12.1492 31.549 12.0584 30.7698C11.965 30.0355 12.1956 28.8895 13.0667 28.7058C13.9387 28.5221 15.1761 29.3936 15.2684 30.1264L15.3128 30.1723Z"
		fill="#2C440C"/>
	<path
		d="M8.08358 28.4786C8.22084 29.0761 9.36741 28.9368 10.2389 28.7551C11.11 28.5255 11.4314 28.3418 11.2477 27.7458C11.11 27.1493 10.5594 26.3242 9.68989 26.5534C8.81836 26.7825 7.94682 27.8836 8.08358 28.5255V28.4786Z"
		fill="#2C440C"/>
	<path
		d="M7.29042 35.7679L7.56495 36.5471L6.96896 36.0889C6.69291 35.8593 6.46481 35.5383 6.28111 35.1715C6.32603 35.5383 6.37297 35.7684 6.46481 36.0889C5.59379 34.6668 4.81308 33.1079 5.31723 31.0449C5.77697 29.1641 7.6573 28.2926 8.98705 27.9262C9.81215 27.6971 10.7286 27.5593 11.5537 27.6512C12.0584 27.6971 12.9299 27.8343 13.2968 28.2926C13.6637 28.7528 13.8473 29.7147 13.9387 30.3566C14.076 31.3654 14.031 32.4201 13.8938 33.4289C13.7555 34.3453 13.481 35.2174 13.0222 35.9511C12.6554 36.5017 12.242 36.914 11.693 37.1441C11.0496 37.4187 10.4077 37.4646 9.71931 37.3273C8.80337 37.1441 7.97776 36.5935 7.24349 35.8139L7.29042 35.7679Z"
		fill="#85C51F"/>
	<path
		d="M12.9251 28.9348C13.4757 29.5778 13.7507 32.2842 13.1083 34.2554C12.9251 34.3018 12.6955 34.3472 12.4669 34.3472C11.4576 34.4396 10.4937 33.9813 9.85233 33.4308C9.89825 33.7058 9.99011 33.889 10.082 34.0268C9.53138 33.7987 9.07315 33.1103 8.75169 32.3301C8.79661 32.9726 8.88947 33.2476 8.98081 33.615C8.29247 33.3854 7.7429 32.6057 7.32959 31.7811C6.96271 31.0468 7.00863 29.9916 7.65054 29.5339C9.34717 28.2955 12.2368 28.2036 12.8782 28.9833L12.9251 28.9348Z"
		fill="#A1E141"/>
	<path
		d="M49.78 48.7915C50.2841 51.0841 52.5767 52.5976 54.8704 52.5057C58.034 52.3674 62.9407 48.8828 62.8484 45.4436C62.804 43.5179 61.3809 41.7743 59.9143 40.6747C58.4927 39.5726 56.1073 38.4275 54.2734 38.9316C52.44 39.4363 51.1556 41.9585 50.5591 43.6087C50.0086 45.0308 49.4585 47.2791 49.8264 48.792H49.78V48.7915Z"
		fill="#85C51F"/>
	<path
		d="M50.5061 48.5588C50.4597 48.2838 50.4127 48.0083 50.4127 47.6873C51.0097 45.1651 52.4308 42.2765 54.0361 41.8182C56.5124 41.0835 61.5105 44.3859 61.2359 47.7797C59.8598 49.8891 56.9242 51.6316 54.8158 51.7225C52.8895 51.8148 50.9174 50.53 50.5046 48.6043V48.5588H50.5061Z"
		fill="#70A91B"/>
	<path
		d="M52.9068 45.9939C52.2639 44.71 53.3186 42.4629 54.9249 42.646C56.6215 42.8757 60.2898 45.3979 60.2898 47.3701C60.2898 48.6085 58.5932 49.48 56.8047 48.9759C55.4744 48.6085 53.4114 47.0491 52.9068 45.9939ZM51.4852 49.204C51.1642 48.4243 51.6225 47.0491 52.5399 47.1859C53.5028 47.3701 55.7949 49.0203 55.7041 49.9377C55.6581 50.672 54.3743 51.3139 53.365 50.9465C52.6312 50.672 51.7602 49.8459 51.4852 49.204Z"
		fill="#5D8D17"/>
	<path
		d="M55.3538 40.0307C55.3073 40.8563 56.9131 41.589 57.5546 40.9936C58.1051 39.9383 57.9668 38.6545 57.5091 38.3795C57.0045 38.1044 55.7656 38.6091 55.3538 40.0307Z"
		fill="#2C440C"/>
	<path
		d="M58.4584 41.5478C58.2763 42.4637 59.5132 43.2444 60.1102 42.8316C60.8893 42.0519 61.1639 40.6763 60.7985 40.3553C60.4306 40.0343 59.1003 40.539 58.4584 41.5478Z"
		fill="#2C440C"/>
	<path
		d="M60.8028 43.8392C60.5267 44.4357 61.1243 45.2608 61.8116 45.2154C62.5444 44.6648 63.2322 43.381 62.9582 43.0595C62.6826 42.6932 61.4447 43.0595 60.8028 43.8392Z"
		fill="#2C440C"/>
	<path
		d="M49.0788 35.3106C48.7119 34.6228 49.7207 34.163 50.5473 33.8421C51.3729 33.5675 51.7842 33.5675 52.1057 34.2554C52.4725 34.9432 52.6562 35.9974 51.7842 36.2725C50.9596 36.548 49.3997 35.9974 49.0329 35.3096H49.0788V35.3106Z"
		fill="#2C440C"/>
	<path
		d="M48.3891 32.7432C48.2978 33.5224 49.3979 33.9352 50.3154 34.1189C51.1869 34.3026 51.5538 34.2102 51.6451 33.4306C51.737 32.6499 51.5084 31.413 50.5904 31.2298C49.7194 31.0466 48.4815 31.963 48.3891 32.7432Z"
		fill="#2C440C"/>
	<path
		d="M48.1246 30.1723C48.0318 30.9066 49.1334 31.2745 50.0494 31.4577C50.9209 31.6398 51.2883 31.549 51.3791 30.7698C51.4725 30.0355 51.2424 28.8895 50.3703 28.7058C49.4993 28.5221 48.2614 29.3936 48.1696 30.1264L48.1246 30.1723Z"
		fill="#2C440C"/>
	<path
		d="M55.3917 28.4786C55.2534 29.0761 54.1069 28.9368 53.2354 28.7551C52.3653 28.5255 52.0434 28.3418 52.2266 27.7458C52.3654 27.1493 52.9144 26.3242 53.7854 26.5534C54.6575 26.7825 55.5285 27.8836 55.3917 28.5255V28.4786Z"
		fill="#2C440C"/>
	<path
		d="M56.0857 35.7679L55.8107 36.5471L56.4067 36.0889C56.6832 35.8593 56.9113 35.5383 57.0945 35.1715C57.0496 35.5383 57.0032 35.7684 56.9113 36.0889C57.7824 34.6668 58.563 33.1079 58.0584 31.0449C57.5992 29.1641 55.7183 28.2926 54.3891 27.9262C53.5635 27.6971 52.6475 27.5593 51.8219 27.6512C51.3178 27.6971 50.4462 27.8343 50.0794 28.2926C49.712 28.7528 49.5288 29.7147 49.4374 30.3566C49.3002 31.3654 49.3446 32.4201 49.4829 33.4289C49.6206 34.3453 49.8947 35.2174 50.3539 35.9511C50.7203 36.5017 51.1341 36.914 51.6831 37.1441C52.3266 37.4187 52.968 37.4646 53.6563 37.3273C54.5723 37.1441 55.3979 36.5935 56.1327 35.8139L56.0857 35.7679Z"
		fill="#85C51F"/>
	<path
		d="M50.6148 28.9348C50.0642 29.5778 49.7891 32.2842 50.4316 34.2554C50.6148 34.3018 50.8444 34.3472 51.073 34.3472C52.0823 34.4396 53.0457 33.9813 53.6876 33.4308C53.6411 33.7058 53.5498 33.889 53.458 34.0268C54.0085 33.7987 54.4668 33.1103 54.7877 32.3301C54.7428 32.9726 54.6499 33.2476 54.5591 33.615C55.2474 33.3854 55.7965 32.6057 56.2103 31.7811C56.5767 31.0468 56.5313 29.9916 55.8894 29.5339C54.1927 28.2955 51.3031 28.2036 50.6617 28.9833L50.6148 28.9348Z"
		fill="#A1E141"/>
</svg>
