<svg width="16" height="19" fill="none" xmlns="http://www.w3.org/2000/svg"><path d="M15.875 12.906V1.094a.855.855 0 00-.844-.844H3.5A3.376 3.376 0 00.125 3.625v11.25A3.376 3.376 0 003.5 18.25h11.531a.833.833 0 00.844-.844v-.562a.855.855 0 00-.316-.633c-.176-.563-.176-2.11 0-2.637a.87.87 0 00.316-.668zM4.625 4.961c0-.106.07-.211.21-.211h7.454c.106 0 .211.105.211.21v.704c0 .14-.105.211-.21.211H4.835c-.14 0-.211-.07-.211-.21V4.96zm0 2.25c0-.106.07-.211.21-.211h7.454c.106 0 .211.105.211.21v.704c0 .14-.105.211-.21.211H4.835c-.14 0-.211-.07-.211-.21V7.21zM13.52 16H3.5a1.11 1.11 0 01-1.125-1.125c0-.598.492-1.125 1.125-1.125h10.02c-.07.633-.07 1.652 0 2.25z" fill="#338EEF"/></svg>