<?xml version="1.0" encoding="utf-8"?>
<!-- Generator: Adobe Illustrator 26.5.0, SVG Export Plug-In . SVG Version: 6.00 Build 0)  -->
<svg version="1.1" id="Layer_1" xmlns="http://www.w3.org/2000/svg" xmlns:xlink="http://www.w3.org/1999/xlink" x="0px" y="0px"
	 viewBox="0 0 50 50" style="enable-background:new 0 0 50 50;" xml:space="preserve">
<style type="text/css">
	.st0{fill:#8898AB;}
	.st1{fill:#4987D7;}
</style>
<g>
	<path class="st0" d="M29.4,4.7c0.2,0.1,0.5,0.1,0.7,0.2c1.9,0.6,3.3,2.3,3.3,4.4c0,3,0,6.1,0,9.1c0,0.8-0.5,1.4-1.3,1.4
		c-0.7,0-1.3-0.6-1.3-1.4c0-2.9,0-5.8,0-8.8c0-1.6-0.8-2.4-2.4-2.4c-6.3,0-12.6,0-18.9,0C8,7.2,7.2,8.1,7.2,9.6c0,8.6,0,17.1,0,25.7
		c0,1.6,0.8,2.4,2.4,2.4c4.2,0,8.5,0,12.7,0c0.2,0,0.3,0,0.5,0c0.6,0.1,1.1,0.7,1,1.3c0,0.6-0.6,1.1-1.2,1.2c-0.1,0-0.3,0-0.4,0
		c-4.2,0-8.4,0-12.7,0c-2.7,0-4.6-1.8-4.9-4c0,0,0-0.1-0.1-0.1c0-9.2,0-18.3,0-27.5c0-0.1,0.1-0.2,0.1-0.3C5.1,6.9,6,5.7,7.5,5.1
		c0.4-0.2,0.8-0.3,1.2-0.4C15.6,4.7,22.5,4.7,29.4,4.7z"/>
	<path class="st1" d="M25,29.7c0-1.2,0-2.4,0-3.6c0-0.7,0.3-1.1,1-1.4c2.9-1,5.7-2,8.6-2.9c0.3-0.1,0.7-0.1,1.1,0
		c2.9,1,5.8,1.9,8.7,2.9c0.7,0.2,1,0.6,1,1.4c0,2,0,4.1,0,6.1c0.1,3.4-1.1,6.2-3.4,8.7c-1.7,1.9-3.8,3.3-6,4.4
		c-0.5,0.2-0.9,0.2-1.4,0c-3-1.5-5.6-3.4-7.5-6.2c-1.3-1.9-1.9-4-1.9-6.3C25,31.6,25,30.6,25,29.7z M27.5,30.1c0,0.8,0,1.7,0,2.5
		c0,1.4,0.3,2.8,1,4c1.5,2.7,3.8,4.5,6.4,5.9c0.1,0.1,0.3,0,0.4,0c1.8-1,3.5-2.1,4.8-3.7c1.7-1.9,2.7-4.2,2.6-6.8
		c-0.1-1.6,0-3.2,0-4.8c0-0.3-0.1-0.4-0.4-0.5c-2.3-0.8-4.7-1.6-7-2.4c-0.2-0.1-0.4-0.1-0.5,0c-2.4,0.8-4.7,1.6-7.1,2.4
		c-0.3,0.1-0.3,0.2-0.3,0.5C27.5,28.2,27.5,29.2,27.5,30.1z"/>
	<path class="st0" d="M19.1,18.2c2.6,0,5.3,0,7.9,0c0.9,0,1.6,0.7,1.3,1.6c-0.1,0.5-0.4,0.8-0.9,0.9c-0.2,0-0.4,0.1-0.5,0.1
		c-5.2,0-10.4,0-15.6,0c-0.3,0-0.6-0.1-0.9-0.2c-0.5-0.2-0.7-0.8-0.6-1.4c0.1-0.6,0.6-0.9,1.2-1c0.1,0,0.3,0,0.4,0
		C13.9,18.2,16.5,18.2,19.1,18.2z"/>
	<path class="st0" d="M15.6,27.6c-1.5,0-3,0-4.5,0c-0.8,0-1.4-0.5-1.4-1.3c0-0.8,0.6-1.3,1.4-1.3c3,0,6,0,9,0c0.8,0,1.4,0.5,1.4,1.3
		c0,0.7-0.6,1.3-1.4,1.3C18.7,27.6,17.2,27.6,15.6,27.6z"/>
	<path class="st0" d="M14.8,14c-1.3,0-2.6,0-3.9,0c-0.6,0-1-0.3-1.1-0.8c-0.2-0.5-0.1-1,0.3-1.3c0.2-0.2,0.6-0.4,0.9-0.4
		c2.5,0,5,0,7.5,0c0.8,0,1.3,0.6,1.3,1.3c0,0.7-0.6,1.2-1.3,1.3C17.3,14,16.1,14,14.8,14C14.8,14,14.8,14,14.8,14z"/>
	<path class="st1" d="M34.6,34.5c0.8-1,1.5-2,2.2-3c0.6-0.8,1.3-1.7,1.9-2.5c0.5-0.6,1.3-0.8,1.8-0.3c0.6,0.4,0.7,1.2,0.2,1.8
		c-1.7,2.2-3.3,4.4-5,6.7c-0.5,0.7-1.4,0.8-2,0.1c-1.1-1.1-2.2-2.2-3.3-3.3c-0.5-0.5-0.5-1.3,0-1.8c0.5-0.5,1.3-0.5,1.8,0
		C33,32.9,33.8,33.7,34.6,34.5z"/>
</g>
</svg>
