<svg width="45" height="45" viewBox="0 0 45 45" fill="none" xmlns="http://www.w3.org/2000/svg">
<path d="M22.5 45C34.9264 45 45 34.9264 45 22.5C45 10.0736 34.9264 0 22.5 0C10.0736 0 0 10.0736 0 22.5C0 34.9264 10.0736 45 22.5 45Z" fill="#338EEF"/>
<path d="M22.4999 41.3893C32.9322 41.3893 41.3893 32.9322 41.3893 22.4999C41.3893 12.0676 32.9322 3.6106 22.4999 3.6106C12.0676 3.6106 3.6106 12.0676 3.6106 22.4999C3.6106 32.9322 12.0676 41.3893 22.4999 41.3893Z" fill="white"/>
<path d="M20.9043 28.0949L19.7931 11.584C19.6923 10.0895 20.8228 8.79649 22.3173 8.6957C23.8119 8.59491 25.1049 9.72535 25.2057 11.2199C25.2136 11.3375 25.2126 11.4694 25.2057 11.584L24.0945 28.0949C23.9028 30.0742 21.093 30.0692 20.9038 28.0949H20.9043Z" fill="#338EEF"/>
<path d="M22.4997 36.3104C23.7221 36.3104 24.7131 35.3194 24.7131 34.097C24.7131 32.8745 23.7221 31.8835 22.4997 31.8835C21.2772 31.8835 20.2863 32.8745 20.2863 34.097C20.2863 35.3194 21.2772 36.3104 22.4997 36.3104Z" fill="#338EEF"/>
</svg>
