<svg width="28" height="28" viewBox="0 0 64 64" fill="none" xmlns="http://www.w3.org/2000/svg"><path d="M54.644 9.356A31.836 31.836 0 0032.029 0c-8.84 0-16.876 3.559-22.673 9.356C3.559 15.153 0 23.19 0 32.029c0 8.84 3.559 16.818 9.356 22.615A31.836 31.836 0 0031.971 64a31.84 31.84 0 0022.616-9.356 31.836 31.836 0 009.356-22.615c0-8.84-3.502-16.876-9.3-22.673zm-1.09 44.197c-5.51 5.51-13.145 8.955-21.583 8.955-8.437 0-16.071-3.387-21.582-8.955C4.88 47.986 1.492 40.41 1.492 32.03c0-8.438 3.444-16.072 8.955-21.582 5.51-5.51 13.144-8.955 21.582-8.955 8.437 0 16.071 3.444 21.582 8.955 5.51 5.51 8.954 13.144 8.954 21.582-.057 8.38-3.444 16.014-9.012 21.524z" fill="#2794DA"/><path d="M59.523 31.742C59.408 16.646 47.125 4.477 32.029 4.477S4.649 16.646 4.477 31.742l12.628-12.628 4.247 4.247-9.24 9.242h39.834l-9.241-9.242 4.247-4.247 12.57 12.628zm-27.494-4.707l-11.767-12.34h7.806V8.61c0-1.55 1.78-2.87 3.96-2.87 2.182 0 3.961 1.263 3.961 2.87v6.084h7.806L32.03 27.035zm3.386 20.491c-.631-.401-1.435-.746-2.353-1.09-.746-.23-1.32-.517-1.78-.746-.459-.23-.803-.46-1.033-.746a1.448 1.448 0 01-.344-.976c0-.287.115-.574.287-.861.172-.287.46-.517.86-.632.403-.172.92-.287 1.55-.287.517 0 .977.058 1.436.115.402.058.803.172 1.09.287.345.115.574.23.804.287l.689-2.124c-.402-.23-.976-.401-1.608-.516-.573-.115-1.205-.172-1.894-.23V37.77h-1.951v2.353c-.287.057-.632.115-.919.23-.746.23-1.32.516-1.836.918-.517.402-.919.803-1.148 1.32-.287.517-.402 1.09-.402 1.665 0 .688.172 1.32.574 1.837.344.516.86.975 1.55 1.377.688.402 1.435.746 2.41 1.033.69.23 1.263.46 1.665.689.402.23.746.517.918.804.173.287.287.631.287.975 0 .402-.114.747-.344 1.034-.23.287-.574.516-1.033.688-.46.173-.976.23-1.608.23a12.12 12.12 0 01-1.492-.115l-1.377-.344a6.841 6.841 0 01-1.148-.46l-.69 2.24c.288.171.69.343 1.149.458.459.115.976.23 1.55.345.573.057 1.148.114 1.721.114h.115v2.297h1.952v-2.469l.689-.172a5.652 5.652 0 001.951-.976c.517-.401.919-.86 1.148-1.435.23-.516.402-1.09.402-1.722 0-.688-.172-1.32-.46-1.836-.286-.46-.745-.919-1.377-1.32z" fill="#2794DA"/></svg>