<svg width="12" height="13" viewBox="0 0 12 13" fill="none" xmlns="http://www.w3.org/2000/svg">
<path fill-rule="evenodd" clip-rule="evenodd" d="M6.4005 2.14599L2.35281 6.30195C1.12142 7.53334 1.12138 9.52977 2.35277 10.7611C3.58415 11.9925 5.58062 11.9925 6.812 10.7611L6.81252 10.7606L10.7586 6.82382C11.0052 6.57784 11.4045 6.57831 11.6505 6.82487C11.8964 7.07144 11.896 7.47073 11.6494 7.71672L7.70385 11.653C7.70375 11.6531 7.70394 11.6529 7.70385 11.653C5.97989 13.3766 3.18476 13.3768 1.46092 11.653C-0.261994 9.93008 -0.263015 7.13732 1.45786 5.41313L5.50588 1.25683C6.73726 0.0254478 8.73377 0.0254867 9.96515 1.25687C11.1955 2.48722 11.1965 4.48138 9.96824 5.71301L5.92019 9.86934C5.18136 10.6082 3.98344 10.6081 3.24461 9.8693C2.50578 9.13047 2.50578 7.93259 3.24461 7.19376L7.39781 3.04056C7.64409 2.79429 8.04338 2.79429 8.28966 3.04056C8.53594 3.28684 8.53594 3.68613 8.28966 3.93241L4.13646 8.08561C3.89018 8.33188 3.89018 8.73118 4.13646 8.97745C4.38192 9.22291 4.77939 9.22373 5.02585 8.97989L9.07327 4.82422C9.8121 4.08539 9.81214 2.88755 9.07331 2.14872C8.33539 1.4108 7.13955 1.40989 6.4005 2.14599Z" fill="#777777"/>
</svg>
