<svg width="27" height="21" fill="none" xmlns="http://www.w3.org/2000/svg"><path d="M26.5 10.354c-.038 3.543-1.093 6.37-3.204 8.782-.377.452-.829.867-1.281 1.244-.415.377-1.018.377-1.357 0-.34-.415-.264-.98.188-1.357a10.061 10.061 0 002.3-2.751c.904-1.546 1.432-3.204 1.507-5.013.15-3.128-.83-5.804-2.902-8.103-.302-.302-.64-.603-.942-.905-.415-.377-.49-.98-.151-1.357.34-.414.904-.414 1.357 0 2.412 2.073 3.844 4.712 4.372 7.84.075.64.075 1.281.113 1.62zm-25.667.302C.91 6.736 2.38 3.458 5.356.857c.415-.377 1.018-.34 1.32.038.338.377.263.98-.152 1.319C4.49 3.985 3.208 6.17 2.794 8.847c-.566 3.505.376 6.596 2.75 9.234.302.34.679.679 1.018.98.415.377.452.942.113 1.32-.34.376-.904.376-1.319.037-2.638-2.261-4.146-5.164-4.447-8.631 0-.188-.038-.377-.038-.565-.038-.189-.038-.377-.038-.566z" fill="#3B43FF"/><path d="M4.49 10.618c.075-2.789 1.092-5.126 3.24-6.972.453-.377.943-.34 1.32.075.339.377.301.867-.151 1.282-1.018.942-1.847 2.035-2.261 3.392-.792 2.75-.227 5.2 1.733 7.311.189.226.415.415.603.641.34.34.377.867.076 1.206-.302.377-.905.452-1.244.113a16.432 16.432 0 01-1.583-1.658c-1.018-1.357-1.583-2.902-1.696-4.636 0-.113-.038-.226-.038-.377v-.377zm18.354.038c-.075 2.714-1.093 5.013-3.128 6.86-.302.301-.679.452-1.093.301-.603-.264-.754-.942-.302-1.47.528-.603 1.131-1.168 1.583-1.847 1.81-2.789 1.395-6.595-.98-8.97l-.565-.565c-.34-.34-.377-.867-.075-1.206.339-.377.867-.453 1.281-.151a7.9 7.9 0 011.885 2.148c.791 1.282 1.281 2.676 1.356 4.184 0 .226 0 .452.038.716z" fill="#3B43FF"/><path d="M19.113 10.43c0 1.884-.641 3.203-1.847 4.334-.415.415-1.018.415-1.357 0-.34-.377-.34-.942.113-1.319.754-.716 1.244-1.583 1.282-2.638.037-1.018-.264-1.885-.943-2.639-.113-.15-.264-.263-.377-.376-.377-.377-.414-.905-.075-1.282.34-.377.905-.415 1.32-.038a5.646 5.646 0 011.47 2.036c.3.678.451 1.394.414 1.922zm-8.518-4.221c.528 0 .791.188.98.565.188.377.075.754-.226 1.018-.49.49-.905.98-1.131 1.658-.452 1.432-.15 2.676.83 3.769.075.113.188.188.3.301.378.415.415.943.038 1.32a.934.934 0 01-1.281.037c-.942-.829-1.583-1.809-1.771-3.053-.377-2.035.188-3.806 1.696-5.2.188-.265.452-.34.565-.415zm3.015 6.218a1.786 1.786 0 01-1.809-1.809c0-1.017.83-1.809 1.847-1.809s1.809.792 1.809 1.81c0 1.055-.792 1.808-1.847 1.808z" fill="#3B43FF"/></svg>