<svg width="20" height="27" viewBox="0 0 40 54" fill="none" xmlns="http://www.w3.org/2000/svg"><g clip-path="url(#clip0)"><path fill-rule="evenodd" clip-rule="evenodd" d="M4.648 10c-.959 0-1.781.68-1.946 1.625C2.175 14.658 1.112 21.34 1 26.5c-.114 5.288 1.134 13.417 1.712 16.864.16.952.985 1.636 1.95 1.636h30.684a1.96 1.96 0 001.944-1.619C37.874 40.042 39.114 32.261 39 27c-.112-5.195-1.194-12.217-1.72-15.36A1.969 1.969 0 0035.33 10H4.648zm2.729 5a.99.99 0 00-.987.873C6.153 17.885 5.593 22.984 5.5 27c-.096 4.116.94 10.066 1.341 12.2.088.468.496.8.972.8H32.18a.983.983 0 00.97-.798c.404-2.134 1.445-8.085 1.349-12.202-.093-4.016-.658-9.117-.897-11.128a.99.99 0 00-.986-.872H7.377z" fill="#BFCDC2"/><path d="M2.702 11.625l.986.171-.986-.171zM1 26.5l1 .022-1-.022zm1.712 16.864l-.986.166.986-.166zm34.578.017l-.985-.172.985.172zM39 27l1-.022L39 27zm-1.72-15.36l.987-.165-.987.165zM6.39 15.873l.993.117-.993-.117zM5.5 27l-1-.023 1 .023zm1.341 12.2l-.983.185.983-.184V39.2zm26.31.002l.983.185-.982-.185h-.001zM34.5 27l-1 .023 1-.023zm-.897-11.128l.993-.118-.993.118zM3.688 11.796a.967.967 0 01.96-.796V9a2.967 2.967 0 00-2.93 2.454l1.97.342zM2 26.522c.11-5.077 1.16-11.693 1.688-14.726l-1.97-.342C1.188 14.487.112 21.236 0 26.478l2 .044zm1.698 16.677C3.118 39.74 1.888 31.7 2 26.522l-2-.044c-.116 5.397 1.15 13.617 1.726 17.052l1.972-.33v-.001zm.963.801a.965.965 0 01-.963-.8l-1.972.33A2.965 2.965 0 004.66 46v-2h.001zm30.684 0H4.662v2h30.684v-2h-.001zm.96-.79a.962.962 0 01-.96.79v2a2.962 2.962 0 002.93-2.447l-1.97-.344v.001zM38 27.021c.111 5.15-1.11 12.837-1.695 16.187l1.97.344c.582-3.328 1.84-11.201 1.725-16.575l-2 .044zm-1.706-15.217C36.82 14.95 37.89 21.907 38 27.022l2-.044c-.114-5.275-1.208-12.362-1.733-15.503l-1.973.33v-.001zM35.33 11a.97.97 0 01.964.805l1.973-.33A2.969 2.969 0 0035.33 9v2zM4.648 11H35.33V9H4.648v2zm2.735 4.99v.001a.02.02 0 01-.001.004.013.013 0 01-.003.004h-.002c-.002.001-.002.001 0 .001v-2a1.99 1.99 0 00-1.98 1.756l1.986.234zM6.5 27.023c.092-3.964.646-9.022.883-11.033l-1.986-.234c-.237 2.013-.802 7.154-.897 11.22l2 .047zm1.324 11.993C7.42 36.87 6.407 31.02 6.5 27.023l-2-.046c-.098 4.236.959 10.285 1.358 12.409l1.966-.37zM7.813 39c-.002 0-.002 0 0 0l.003.002a.026.026 0 01.008.014l-1.966.37A1.983 1.983 0 007.813 41v-2zm24.368 0H7.813v2H32.18v-2h.001zm-.012.016a.027.027 0 01.008-.014.013.013 0 01.004-.002c.001 0 .001 0 0 0v2c.945 0 1.774-.664 1.953-1.613l-1.965-.371zM33.5 27.023c.093 3.997-.926 9.848-1.33 11.993l1.964.371c.402-2.123 1.464-8.173 1.366-12.41l-2 .046zm-.89-11.033c.239 2.01.798 7.069.89 11.033l2-.046c-.095-4.069-.665-9.21-.904-11.223l-1.986.236zm.007.01c.001 0 0 0 0 0l-.002-.002-.003-.003a.03.03 0 01-.002-.004v-.001l1.986-.236A1.99 1.99 0 0032.616 14v2h.001zm-25.24 0h25.24v-2H7.377v2z" fill="#839788"/><path d="M30.5 23.099c0 6.592-.971 12.613-2.571 17.25-.978 2.835-2.14 3.732-3.34 4.022-.635.154-1.327.148-2.105.095-.214-.014-.437-.033-.667-.052-.579-.047-1.198-.099-1.817-.099s-1.238.052-1.817.1c-.23.018-.453.037-.667.051-.778.053-1.47.059-2.106-.095-1.199-.29-2.36-1.187-3.339-4.022-1.6-4.637-2.571-10.658-2.571-17.25 0-4.879.532-9.447 1.458-13.374.087-.368.276-.584.526-.729.271-.156.637-.24 1.073-.273.431-.033.883-.013 1.316.006h.008l.036.002c.394.017.824.036 1.137-.025 1.419-.276 2.533-.212 3.33-.083.398.066.72.148.97.215l.117.033.212.057c.078.02.202.05.317.05.11 0 .268-.014.453-.031l.122-.012c.176-.016.39-.037.652-.059.65-.054 1.592-.12 2.914-.16.21-.007.51-.044.834-.083l.44-.052c.507-.055 1.064-.1 1.595-.073.535.026 1.002.122 1.353.315.331.182.573.456.679.902.926 3.927 1.458 8.495 1.458 13.374z" fill="#fff" stroke="#839788"/><path d="M9.317 40.85a1.5 1.5 0 011.493-1.35h18.38a1.5 1.5 0 011.493 1.35l.6 6a1.5 1.5 0 01-1.493 1.65H10.21a1.5 1.5 0 01-1.493-1.65l.6-6z" fill="#BFCDC2" stroke="#839788"/><path d="M14.496 2a.5.5 0 01.5-.5h10a.5.5 0 01.5.5v8.5h-11V2v0z" stroke="#839788" stroke-width="3" stroke-linejoin="round"/><path d="M11.496 7a1.5 1.5 0 011.5-1.5h14a1.5 1.5 0 011.5 1.5v4.5h-17V7z" fill="#BFCDC2" stroke="#839788"/><path d="M8.496 10a1.5 1.5 0 011.5-1.5h20a1.5 1.5 0 011.5 1.5v4.5h-23V10zm-3.43 38.588A1.5 1.5 0 016.51 47.5h26.98a1.5 1.5 0 011.443 1.088l.857 3a1.5 1.5 0 01-1.442 1.912H5.65a1.5 1.5 0 01-1.442-1.912l.857-3h.001z" fill="#BFCDC2" stroke="#839788"/><path d="M9.242 35.802l11.084-9.66 11.27-8.63" stroke="#839788" stroke-width="2"/><path d="M30.69 35.747l-11.047-9.63L8.4 17.508" stroke="#839788" stroke-width="2"/></g><defs><clipPath id="clip0"><path fill="#fff" d="M0 0h40v54H0z"/></clipPath></defs></svg>