<svg width="30" height="23" fill="none" xmlns="http://www.w3.org/2000/svg"><g clip-path="url(#clip0)"><path d="M3.473 14.248c1.62.218 3.036-.146 4.189-1.183l1.926.103-1.05 3.093C7.37 18.115 5.676 18.51 3.94 18.392l-.467-4.144z" fill="#7EAABA"/><path d="M4.188 14.948l.322 2.831c1.444-.014 2.597-.482 3.458-1.795l.76-2.218-.847-.044c-1.08.89-2.335 1.27-3.693 1.226z" fill="#D3E8EF"/><path d="M4.188 14.948l.19 1.678c1.985-.233 3.532-1.05 4.335-2.86l-.847-.044c-1.08.89-2.32 1.27-3.678 1.226z" fill="#fff"/><path d="M3.94 11.825a3.289 3.289 0 013.284 3.284 3.289 3.289 0 01-3.284 3.283 3.28 3.28 0 01-3.283-3.284 3.289 3.289 0 013.283-3.283z" fill="#7EAABA"/><path d="M3.94 12.467a2.625 2.625 0 00-2.627 2.627A2.625 2.625 0 003.94 17.72a2.625 2.625 0 002.627-2.627 2.625 2.625 0 00-2.627-2.627z" fill="#D3E8EF"/><path d="M3.94 12.467a2.61 2.61 0 00-2.16 1.124 2.645 2.645 0 002.627 2.466c.89 0 1.693-.438 2.16-1.124a2.635 2.635 0 00-2.627-2.466z" fill="#fff"/><path d="M3.605 12.306a2.448 2.448 0 012.451 2.452 2.448 2.448 0 01-2.451 2.452 2.46 2.46 0 01-2.452-2.466 2.445 2.445 0 012.452-2.438z" fill="#7EAABA"/><path d="M3.43 11.65c1.357 0 2.466 1.109 2.466 2.451a2.473 2.473 0 01-2.467 2.467A2.473 2.473 0 01.963 14.1a2.46 2.46 0 012.467-2.45z" fill="#7F3E13"/><path d="M3.663 12.584a1.956 1.956 0 100 3.911 1.956 1.956 0 000-3.911z" fill="#B85A1B"/><path d="M2.189 9.665c.044-1.372 2.087-1.46 2.145 0 .599-1.007 2.481-.452 1.897 1.124.03.131.059.248.073.38 1.022.058 1.358 1.648-.043 2.144a3.005 3.005 0 01-.555 1.124c-1.197 1.036-1.59.19-2.233-.51-.627.014-2.335-.424-1.853 1.181-1.095-.7-1.795-2.116-1.27-4.188-.73-1.678 1.212-2.306 1.839-1.255z" fill="#7F3E13"/><path d="M1.007 11.154c-.248 1.007-.263 2.145.452 2.962 1.007 1.153 3.05 1.095 3.839-.35.423-.788.394-1.766.218-2.627-1.503-.321-3.02-.263-4.509.015z" fill="#B85A1B"/><path d="M1.007 11.154c-.248 1.007-.263 2.145.452 2.962.467.526 1.124.788 1.81.803V10.92c-.759 0-1.503.088-2.262.234z" fill="#E1762F"/><path d="M2 11.927c-.147.555-.147 1.197.262 1.65.555.641 1.693.612 2.13-.205.234-.438.22-.978.118-1.46-.832-.175-1.679-.146-2.51.015z" fill="#7F3E13"/><path d="M3.254 10.38a.58.58 0 00.57-.569.58.58 0 00-.57-.57v1.14zm2.058-.715a.58.58 0 01.57.57.58.58 0 01-.57.568.58.58 0 01-.569-.569.57.57 0 01.57-.569z" fill="#B85A1B"/><path d="M1.313 9.723a.58.58 0 01.57.57.58.58 0 01-.57.569.58.58 0 01-.569-.57.57.57 0 01.57-.569zm1.941.657V9.256a.58.58 0 00-.569.57c0 .306.263.569.57.554z" fill="#E1762F"/><path d="M5.954 11.723a.58.58 0 01.57.569.58.58 0 01-.57.57.58.58 0 01-.569-.57.56.56 0 01.57-.57z" fill="#B85A1B"/><path d="M25.48 18.436c-.13-1.708-.904-2.934-2.422-3.59l.307-1.182 2.451-.657c2.131.642 2.977 2.014 3.386 3.721l-3.721 1.708z" fill="#7EAABA"/><path d="M25.991 17.502l2.437-1.139c-.423-1.43-1.138-2.349-2.641-2.714l-1.912.51-.087.322c1.182.686 1.897 1.722 2.203 3.02z" fill="#fff"/><path d="M23.116 18.728a3.18 3.18 0 012.029-4.028 3.18 3.18 0 014.028 2.028 3.18 3.18 0 01-2.029 4.028 3.18 3.18 0 01-4.027-2.028z" fill="#7EAABA"/><path d="M23.642 18.553a2.631 2.631 0 003.327 1.678 2.631 2.631 0 001.678-3.328 2.631 2.631 0 00-3.327-1.678 2.631 2.631 0 00-1.678 3.328z" fill="#D3E8EF"/><path d="M28.75 17.37c-.015-.16-.059-.306-.102-.466a2.631 2.631 0 00-3.328-1.679c-.423.146-.788.38-1.08.672.015.16.059.306.102.467a2.637 2.637 0 003.328 1.678c.438-.132.802-.38 1.08-.672z" fill="#fff"/><path d="M22.518 19.545a2.996 2.996 0 011.912-3.794 2.996 2.996 0 013.794 1.911 2.996 2.996 0 01-1.912 3.795 2.996 2.996 0 01-3.794-1.912z" fill="#7F3E13"/><path d="M23.13 19.355a2.37 2.37 0 011.504-2.992 2.37 2.37 0 012.992 1.504 2.37 2.37 0 01-1.503 2.991 2.363 2.363 0 01-2.992-1.503z" fill="#B85A1B"/><path d="M23.029 18.232a2.4 2.4 0 011.605-1.883 2.37 2.37 0 013.109 2.087c-1.533.978-3.532.773-4.714-.204z" fill="#E1762F"/><path d="M12.113.208c1.196 0 2.174 1.036 2.174 2.292 0 1.27-.963 2.29-2.174 2.29-1.197 0-2.175-1.035-2.175-2.29 0-1.256.978-2.292 2.175-2.292z" fill="#7F3E13"/><path d="M12.113.836c-.89 0-1.533.788-1.533 1.664 0 .86.642 1.663 1.533 1.663.89 0 1.532-.788 1.532-1.663 0-.847-.642-1.664-1.532-1.664z" fill="#B85A1B"/><path d="M12.113 1.478c-.555 0-.905.51-.905 1.036 0 .51.365 1.036.905 1.036.554 0 .905-.51.905-1.036 0-.51-.365-1.036-.905-1.036z" fill="#63300F"/><path d="M21.336.208c1.197 0 2.175 1.036 2.175 2.292 0 1.27-.964 2.29-2.175 2.29-1.197 0-2.174-1.035-2.174-2.29 0-1.256.977-2.292 2.174-2.292z" fill="#7F3E13"/><path d="M21.336.836c-.89 0-1.532.788-1.532 1.664 0 .86.642 1.663 1.532 1.663s1.532-.788 1.532-1.663c0-.847-.642-1.664-1.532-1.664z" fill="#B85A1B"/><path d="M21.336 1.478c-.555 0-.905.51-.905 1.036 0 .51.365 1.036.905 1.036.555 0 .905-.51.905-1.036 0-.51-.365-1.036-.905-1.036z" fill="#4F2800"/><path d="M17.6 1.288a.685.685 0 11.002 1.37.685.685 0 01-.002-1.37zm-1.751 0a.685.685 0 11.001 1.37.685.685 0 01-.001-1.37z" fill="#7F3E13"/><path d="M24.736 4.149v4.276l.044.014a1.577 1.577 0 011.021 1.489v3.064l-9.077 2.992-9.077-2.919V9.928c0-.672.394-1.24 1.022-1.489l.043-.014V4.134c0-2.948 16.024-2.948 16.024.015z" fill="#7F3E13"/><path d="M9.442 4.31v4.61l-.38.147a1.04 1.04 0 00-.67.992v3.24l8.347 2.685 8.348-2.743v-3.182c0-.452-.263-.832-.672-.992l-.38-.146V4.309c-.014-2.189-14.578-2.189-14.593 0z" fill="#B85A1B"/><path d="M9.442 4.31v4.61l-.38.147a1.04 1.04 0 00-.67.992v3.24l8.347 2.685v-1.751c-2.89.014-5.78-1.883-5.02-5.633h5.02V2.675c-3.649 0-7.297.554-7.297 1.634z" fill="#E1762F"/><path d="M11.325 7.622h10.843c1.532 8.143-12.507 8.085-10.843 0z" fill="#E5895B"/><path d="M11.85 8.264c-.146 1.255.117 2.466 1.05 3.415.993.992 2.482 1.416 3.853 1.401 1.328-.015 2.73-.423 3.707-1.357.978-.949 1.284-2.175 1.153-3.459H11.85z" fill="#E5895B"/><path d="M18.549 12.058c.73.949 2.86.555 2.218-1.444l-2.218 1.444z" fill="#FAD395"/><path d="M17.877 11.854c.817 1.05 3.474.423 2.86-1.853l-2.86 1.853z" fill="#4F2800"/><path d="M20.329 10.103a.313.313 0 01.38.233c.043.175-.044.35-.205.394a.313.313 0 01-.38-.233c-.043-.16.044-.35.205-.394zm-1.737 1.211c.16-.044.321.059.38.234.043.175-.044.35-.205.394-.16.043-.32-.059-.38-.234-.043-.175.045-.35.205-.394z" fill="#fff"/><path d="M19.658 12.263c.583-.19 1.08-.657 1.167-1.401-.467-.073-1.284.627-1.167 1.4z" fill="#AD6151"/><path d="M12.434 7.622h8.595c1.226 5.823-9.909 5.764-8.595 0z" fill="#FAD395"/><path d="M16.724 10.935c.059-.35.19-.672.409-.963 1.036-.161 1.926-.95 1.649-2.35a6.2 6.2 0 00-2.043-.35L16.316 8.6l.408 2.335z" fill="#4F2800"/><path d="M16.724 10.935a2.17 2.17 0 00-.408-.963c-1.036-.161-1.927-.95-1.65-2.35a6.2 6.2 0 012.044-.35l.014 3.663z" fill="#63300F"/><path d="M15.207 7.826a6.001 6.001 0 013.05 0c.423 1.066-3.518 1.051-3.05 0z" fill="#AD6151"/><path d="M15.09 4.864c.627 0 1.153.51 1.153 1.153 0 .627-.511 1.153-1.153 1.153a1.155 1.155 0 01-1.153-1.153c0-.628.51-1.153 1.153-1.153z" fill="#fff"/><path d="M15.177 5.272a.862.862 0 01.001 1.722.863.863 0 01-.862-.86c0-.482.38-.862.861-.862z" fill="#1B1D23"/><path d="M18.388 4.864c-.628 0-1.153.51-1.153 1.153 0 .627.51 1.153 1.153 1.153.627 0 1.153-.511 1.153-1.153 0-.628-.51-1.153-1.153-1.153z" fill="#fff"/><path d="M18.315 5.272a.863.863 0 00-.86.861c0 .467.379.861.86.861a.862.862 0 00.861-.86.872.872 0 00-.86-.862z" fill="#1B1D23"/><path d="M15.922 4.499c-.92-.175-1.693-.015-2.379.423-.248-1.415 2.13-1.839 2.379-.423z" fill="#63300F"/><path d="M17.323 3.784c.92-.175 1.693-.015 2.378.423.249-1.416-2.116-1.824-2.378-.423z" fill="#4F2800"/><path d="M25.787 13.007v8.844c0 .584-.482 1.08-1.08 1.08H8.712c-.583 0-1.08-.482-1.08-1.08v-8.756l9.078 2.174 9.077-2.262z" fill="#7EAABA"/><path d="M25.072 13.926l-8.348 2.058L8.377 14v7.662c0 .306.233.54.54.54h15.63a.53.53 0 00.54-.54l-.015-7.735z" fill="#D3E8EF"/><path d="M16.724 15.999l-8.333-2v7.662c0 .306.234.54.54.54h7.808l-.015-6.202z" fill="#fff"/><path d="M16.724 20.1h7.005v.934h-7.005V20.1zm0-1.941h7.005v.934h-7.005v-.934z" fill="#036AAB"/><path d="M16.724 21.048V20.1H9.72v.934h7.005v.014zm-7.005-2.89h7.005v.95H9.72v-.95z" fill="#0399ED"/><path d="M12.565 17.546h.876v4.29h-.876v-4.29z" fill="#fff"/><path d="M10.099 13.664c2.218.525 4.422 1.065 6.625 1.59l-2.364 2.233c-1.532-.904-3.05-1.897-4.261-3.823z" fill="#7EAABA"/><path d="M11.967 14.86c.671.672 1.43 1.197 2.291 1.723l.992-.95c-1.08-.247-2.189-.524-3.283-.773z" fill="#fff"/><path d="M23.35 13.664c-2.218.525-4.422 1.065-6.626 1.59l2.364 2.233c1.533-.904 3.05-1.897 4.262-3.823z" fill="#7EAABA"/><path d="M21.482 14.86c-.671.672-1.43 1.197-2.291 1.723l-.993-.95c1.095-.247 2.19-.524 3.284-.773z" fill="#fff"/></g><defs><clipPath id="clip0"><path fill="#fff" transform="translate(0 .208)" d="M0 0h29.333v22.708H0z"/></clipPath></defs></svg>