<svg width="27" height="27" fill="none" xmlns="http://www.w3.org/2000/svg"><g clip-path="url(#clip0)"><path fill-rule="evenodd" clip-rule="evenodd" d="M13.706 26.098c6.976 0 12.632-5.656 12.632-12.632 0-6.977-5.656-12.633-12.632-12.633C6.729.833 1.073 6.49 1.073 13.466c0 6.976 5.656 12.632 12.633 12.632zM11.694 5.457a.669.669 0 00-.779-.28 8.499 8.499 0 00-.97.412.694.694 0 00-.353.76l.217 1.097a.786.786 0 01-.278.75 6.626 6.626 0 00-.95.973.754.754 0 01-.735.286l-1.075-.217a.671.671 0 00-.744.364 8.947 8.947 0 00-.4.99c-.1.297.02.62.277.794l.912.618c.235.16.352.445.324.732-.046.46-.044.92.003 1.373a.784.784 0 01-.321.732l-.911.622a.696.696 0 00-.274.795c.114.338.249.668.403.989a.671.671 0 00.746.361l1.074-.221a.754.754 0 01.736.284c.281.352.6.678.953.97.219.18.335.466.28.749l-.213 1.096c-.06.308.08.623.357.76a8.58 8.58 0 00.97.408c.482.169 1.155-.434 1.653-.88.245-.22.396-.53.398-.863v-1.839c0-.02 0-.039.002-.058-1.47-.359-2.563-1.709-2.563-3.319v-1.947c0-.148.117-.268.262-.268h.911v-1.915c0-.265.21-.48.47-.48.259 0 .469.215.469.48v1.915h2.464v-1.915c0-.265.21-.48.47-.48.258 0 .468.215.468.48v1.915h.911c.145 0 .263.12.263.268v1.947c0 1.661-1.164 3.045-2.704 3.35v1.852c0 .34.156.656.409.877.507.442 1.192 1.04 1.67.87a8.51 8.51 0 00.97-.412.694.694 0 00.353-.76l-.216-1.097a.786.786 0 01.278-.75 6.68 6.68 0 00.95-.973.754.754 0 01.734-.286l1.075.217a.671.671 0 00.745-.364 8.947 8.947 0 00.4-.99.696.696 0 00-.277-.794l-.913-.619a.784.784 0 01-.323-.73 6.931 6.931 0 00-.003-1.374.784.784 0 01.32-.732l.911-.622a.696.696 0 00.275-.795 8.848 8.848 0 00-.404-.989.671.671 0 00-.746-.361l-1.074.22a.754.754 0 01-.735-.283 6.627 6.627 0 00-.953-.97.786.786 0 01-.28-.749l.212-1.096a.694.694 0 00-.357-.76 8.587 8.587 0 00-.97-.408.669.669 0 00-.778.282l-.606.931a.756.756 0 01-.717.33 6.426 6.426 0 00-1.346.003.756.756 0 01-.717-.327l-.61-.93z" fill="#005AE0"/></g><defs><clipPath id="clip0"><path fill="#fff" transform="translate(.859 .833)" d="M0 0h25.616v25.265H0z"/></clipPath></defs></svg>