<svg width="28" height="23" viewBox="0 0 64 53" fill="none" xmlns="http://www.w3.org/2000/svg"><path d="M53.233 16.552c.46-.275.551-1.972.597-2.476.138-1.147 1.56-1.65 2.477-1.055 1.605 1.146 2.43 3.348 2.659 5.228.23 1.926.046 4.494-1.33 6.007-1.467 1.651-5.182 2.156-7.383 1.927-.596-.046-1.146-.184-1.697-.276l-1.054-9.447 1.147.23c1.146.229 3.485.459 4.54-.138h.044z" fill="#996"/><path d="M56.814 14.717c-.275-.367-.596-.734-.963-.963-.367-.276-1.054-.046-1.101.413l-.045.32c.688-.229 1.467-.045 2.11.23zm1.285 6.466c.275-1.468.137-3.165-.367-4.632-.367-.459-.735-.825-1.422-1.1-.872-.367-1.33-.23-1.742.137-.046.367-.139.642-.23.917 2.385.78 3.394 3.073 3.761 4.723v-.045zm-6.971-3.394c-.825 0-1.697-.092-2.568-.275l.825 7.612c1.102.23 2.385.23 3.53.092.826-2.935 0-6.374-1.833-7.474l.046.045zm2.568-.504c-.32.183-.78.32-1.33.412 1.651 1.743 2.156 4.907 1.558 7.384 1.376-.275 2.522-.78 3.119-1.422.138-.138.229-.321.367-.459 0-2.614-1.054-5.411-3.577-5.961-.046.046-.046.046-.093.046h-.044z" fill="#C0C0A0"/><path d="M53.196 22.239a9.623 9.623 0 01-3.165.23 6.57 6.57 0 01-1.009-.184l-.55-4.723c.871.183 1.743.275 2.568.275 1.193.734 1.973 2.476 2.11 4.402h.046zm3.348-6.65c.044.276.09.551.137.826.092.55.092 1.192.046 1.835-.597-.734-1.376-1.376-2.43-1.743.09-.275.183-.55.229-.917.365-.321.87-.505 1.741-.138l.277.138zm-.688-1.788c.137.23.228.459.32.688-.504-.137-1.008-.184-1.559-.045l.046-.321c.045-.46.733-.689 1.1-.413l.093.045v.046zm-2.202 3.486c-.32.183-.78.32-1.33.412 1.01 1.055 1.558 2.614 1.743 4.265.641-.23 1.237-.55 1.605-1.008.367-.368-.597-3.44-1.926-3.715-.046.046-.046.046-.092.046z" fill="#FBFAC4"/><path d="M10.18 16.552c-.46-.275-.55-1.972-.597-2.476-.137-1.147-1.559-1.65-2.476-1.055-1.606 1.146-2.43 3.348-2.66 5.228-.229 1.926-.045 4.494 1.33 6.007 1.468 1.651 5.182 2.156 7.383 1.927.596-.046 1.147-.184 1.697-.276l1.055-9.447-1.147.23c-1.146.229-3.486.459-4.54-.138h-.045z" fill="#996"/><path d="M6.67 14.717c.275-.367.596-.734.963-.963.367-.276 1.055-.046 1.102.413l.044.32c-.688-.229-1.467-.045-2.109.23zm-1.285 6.466c-.274-1.468-.136-3.165.368-4.632.367-.459.734-.825 1.421-1.1.872-.367 1.33-.23 1.742.137.046.367.14.642.23.917-2.385.78-3.394 3.073-3.761 4.723v-.045zm6.972-3.394c.825 0 1.696-.092 2.567-.275l-.825 7.612c-1.101.23-2.385.23-3.53.092-.826-2.935 0-6.374 1.833-7.474l-.045.045zm-2.568-.504c.32.183.78.32 1.329.412-1.651 1.743-2.155 4.907-1.558 7.384-1.376-.275-2.522-.78-3.119-1.422-.138-.138-.228-.321-.367-.459 0-2.614 1.055-5.411 3.577-5.961.046.046.046.046.093.046h.045z" fill="#C0C0A0"/><path d="M10.22 22.239a9.62 9.62 0 003.163.23 6.557 6.557 0 001.009-.184l.55-4.723c-.87.183-1.742.275-2.568.275-1.192.734-1.972 2.476-2.11 4.402h-.045zm-3.35-6.65c-.044.276-.09.551-.137.826-.09.55-.09 1.192-.044 1.835.596-.734 1.375-1.376 2.429-1.743-.09-.275-.183-.55-.23-.917-.365-.321-.87-.505-1.74-.138l-.277.138zm.69-1.788c-.139.23-.23.459-.322.688.504-.137 1.009-.184 1.56-.045l-.047-.321c-.044-.46-.732-.689-1.1-.413l-.092.045v.046zm2.2 3.486c.321.183.781.32 1.33.412-1.009 1.055-1.558 2.614-1.742 4.265-.641-.23-1.238-.55-1.606-1.008-.366-.368.597-3.44 1.927-3.715.045.046.045.046.091.046z" fill="#FBFAC4"/><path d="M15.282 14.72c-1.605-.138-3.164.183-4.723.413l1.375-1.33c1.331-1.284 3.12-2.43 4.817-3.256 2.521-1.284 5.411-2.247 8.3-2.522-2.02-.872-4.312-1.284-6.466-1.789 8.3-1.742 18.939-2.384 26.552 4.082 4.357 3.714 6.74 10.593 6.74 16.83 0 23.526-40.079 23.526-40.079 0 0-3.164.78-6.19 2.247-8.943-.55.138-1.054.321-1.606.55l-2.429 1.01 1.741-1.973c1.055-1.192 2.248-2.2 3.624-2.98l-.093-.092z" fill="#8ED41E"/><path d="M33.3 7.47c3.898.459 7.703 1.743 10.867 4.449 3.852 3.256 5.916 9.309 5.916 14.766 0 9.996-8.255 15.18-16.784 15.454V7.471z" fill="#70A91B"/><path d="M18.544 12.563c3.027-2.018 7.98-2.66 13.942-2.339-1.054-1.238-2.017-2.018-3.439-2.706 2.706-.092 4.86.505 10.226 2.34-4.63-2.707-10.317-3.945-15.637-3.349 1.925.55 3.76 1.422 5.457 2.569-5.457-.596-11.74 2.017-14.263 4.173 1.652-.184 3.118.137 4.679.825-2.202.78-3.624 1.468-5 2.797 2.385-1.192 4.265-2.2 7.292-2.843-1.193-.413-1.835-1.146-3.257-1.467z" fill="#A1E141"/><path d="M31.78 7.013c5.505 0 9.952 4.31 9.952 9.676 0 5.32-4.447 9.676-9.951 9.676-5.503 0-9.95-4.31-9.95-9.676-.001-5.32 4.447-9.676 9.95-9.676z" fill="#70A91B"/><path d="M16.052 25.722c.321-.596 30.496-.826 31.092 0 1.054 1.376.459 2.706 0 3.852H16.052c-.275-1.238-.734-2.568 0-3.852z" fill="#70A91B"/><path d="M16.474 26.596c.32-.78 29.715-1.1 30.311 0 1.01 1.88.413 3.714 0 5.273H16.474c-.276-1.697-.688-3.485 0-5.273z" fill="#4B7113"/><path d="M40.923 6.603c-.412-7.841-10.96-8.667-13.71-2.522 4.86-2.66 9.812-1.696 13.71 2.522z" fill="#70A91B"/><path d="M35.007.088c-3.071-.458-6.42.872-7.795 3.944 1.834-1.01 3.715-1.467 5.503-1.467.367-.688 1.238-2.018 2.339-2.477h-.047z" fill="#85C51F"/><path d="M31.83 6.004a8.925 8.925 0 018.943 8.943 8.925 8.925 0 01-8.943 8.942 8.924 8.924 0 01-8.94-8.942 8.924 8.924 0 018.94-8.943z" fill="#D3E8EF"/><path d="M26.142 8.297c2.98-2.477 7.154-2.477 9.263.091 2.11 2.523 1.376 6.604-1.605 9.126-2.981 2.476-7.154 2.476-9.264-.092-2.109-2.522-1.374-6.603 1.606-9.125z" fill="#fff"/><path d="M32.083 11.92c3.485 0 6.283 2.614 6.283 5.87 0 3.256-2.799 5.87-6.283 5.87-3.484 0-6.282-2.614-6.282-5.87 0-3.256 2.797-5.87 6.282-5.87z" fill="#0D82DF"/><path d="M32.083 11.92c1.697 0 3.256.642 4.357 1.65-.413 1.422-1.284 2.844-2.569 3.945-2.476 2.063-5.777 2.385-8.024 1.008-.046-.229-.046-.458-.046-.733 0-3.256 2.797-5.87 6.282-5.87z" fill="#0399ED"/><path d="M32.041 14.032c2.202 0 4.036 1.696 4.036 3.76s-1.788 3.76-4.036 3.76c-2.2 0-4.035-1.696-4.035-3.76s1.788-3.76 4.035-3.76z" fill="#232323"/><path d="M32.041 14.034a4.19 4.19 0 013.394 1.696 7.212 7.212 0 01-1.605 1.743c-1.652 1.376-3.67 1.972-5.457 1.834a3.547 3.547 0 01-.367-1.56c0-2.063 1.788-3.76 4.035-3.76v.046z" fill="#323232"/><path d="M28.517 12.24c1.65 0 2.98 1.238 2.98 2.797 0 1.56-1.33 2.798-2.98 2.798-1.651 0-2.981-1.239-2.981-2.798s1.33-2.797 2.98-2.797z" fill="#fff"/><path d="M10.928 28.799c13.85-2.064 27.746-1.88 41.595 0 1.008 7.245.458 14.125 0 21.048-13.85.55-27.745.643-41.595 0-.825-7.015-.916-14.032 0-21.048z" fill="#9CAEB3"/><path d="M14.927 48.425c11.235.412 22.425.368 33.66 0-4.036-2.293-8.072-4.493-12.612-5.731-1.468.688-3.026 1.238-4.585 1.696-.23.046-.23.046-.459 0a38.509 38.509 0 01-3.807-1.467c-4.403 1.284-8.392 3.164-12.244 5.549l.046-.047zm-2.66-17.242c-.596 5.549-.505 11.143.092 16.692 4.036-2.522 8.346-4.54 12.885-5.961-5.228-2.751-8.896-6.696-12.977-10.731zm37.786-1.1c-12.243-1.469-24.533-1.606-36.777 0 5.044 5.639 10.594 10.272 17.977 12.701 7.84-2.246 13.252-7.153 18.8-12.701zm1.055 17.792c.368-5.549.734-11.097.138-16.646-4.126 4.082-8.53 7.98-13.666 10.684 4.77 1.422 9.219 3.532 13.575 5.961h-.047v.001z" fill="#D3E8EF"/><path d="M14.927 48.425c5.41.183 10.82.275 16.279.275v-4.31c-.046 0-.091 0-.23-.047a37.992 37.992 0 01-3.805-1.467c-4.403 1.284-8.392 3.164-12.244 5.549zm-2.66-17.243c-.596 5.549-.505 11.143.092 16.692 4.036-2.522 8.346-4.54 12.885-5.96-5.228-2.752-8.896-6.697-12.977-10.732zm18.939-2.247c-6.007 0-11.969.367-17.93 1.147 4.999 5.64 10.594 10.226 17.93 12.702v-13.85z" fill="#fff"/><path d="M23.425 32.235c-.045.183-.137.367-.228.55a1.643 1.643 0 01-.505.733c-.55.413-1.238.276-1.835.046-1.33-.55-2.246-1.88-2.797-3.164-.642-1.468-.688-2.522-.321-4.127 9.263-.505 18.756-.596 27.744-.046v.046h.138c.138 1.559 0 2.2-.366 3.486-.413 1.467-1.286 3.255-2.752 3.943-.55.276-1.193.413-1.697.045-.229-.183-.411-.458-.55-.733-.321-.505-.412-1.237-.504-1.788-.184.367-.413.596-.78.687-.596.138-1.284.229-1.88.275a24.47 24.47 0 01-1.88.093c-.964 0-2.019-.093-2.935-.367-.137.55-.367 1.054-.917 1.237-.596.184-1.33.276-1.972.322-.688.045-1.376.092-2.018.092-1.054 0-2.247-.092-3.21-.504-.367-.138-.597-.414-.733-.78v-.046h-.002z" fill="#996"/><path d="M38.987 25.953c.368 2.063.275 4.723-.32 4.86-.918.23-4.45.598-6.191-.044-.46-.871-.46-3.073-.414-4.861 2.385 0 4.77 0 6.925.045zm-14.812.413c-.32.963-.642 2.063-.963 3.394-.183.825-.321 1.65-.46 2.246-.183.825-.595.963-1.375.642-2.018-.87-3.071-4.264-2.981-6.328 1.376-.092 3.44-.184 5.778-.275 2.248-.046 4.77-.092 7.292-.092.229 2.522.229 5.549-.32 6.19-.965.323-4.724.78-6.56-.045-.825-.366-.504-3.439-.458-5.686l.047-.046zm15.18-.413c.274 1.1.595 2.247.916 3.714.183.917.276 1.79.412 2.385.184.917.55 1.055 1.284.688 1.79-.918 2.799-4.312 2.752-6.558a116.789 116.789 0 00-5.364-.23z" fill="#C0C0A0"/><path d="M32.053 27.192c2.155 0 4.311 0 6.282.046.321 1.147.321 3.21-1.055 3.715-1.467.138-3.577.183-4.815-.276-.32-.642-.413-2.064-.413-3.485zm-7.934.138c1.972-.046 4.22-.092 6.466-.092.229 1.65.642 4.953-1.422 5.136-1.513.138-3.393.138-4.586-.367-.686-.32-.595-2.613-.504-4.631l.046-.046zm-5.64.275c.963-.092 2.246-.138 3.759-.184.184 0 .55 4.54.55 4.54-.183.826-.595.964-1.375.643-1.605-.688-2.614-2.982-2.89-4.953l-.044-.046zm22.195 4.448c.183.917.55 1.055 1.284.688 1.468-.734 2.385-3.119 2.66-5.182-.87-.092-1.925-.138-3.165-.184-.733.551-.872 4.357-.78 4.678z" fill="#FBFAC4"/><path d="M28.13 27.284c.093 1.79 0 3.577-.228 3.714-.458.276-2.155.642-2.98-.046-.323-.228-.277-1.972-.23-3.622 1.1-.046 2.247-.046 3.485-.092l-.047.046zm7.705-.046c.045 1.33-.046 2.568-.23 2.66-.412.228-2.018.504-2.843-.046-.275-.183-.275-1.422-.23-2.66h3.304v.046zm-14.492.229c-.045.505-.045 1.102-.045 1.697v1.834c0 .688-.184.825-.551.505-.733-.55-1.376-2.293-1.65-3.898a149.7 149.7 0 012.246-.138zm22.746.046a25.99 25.99 0 00-2.064-.092c0 .505.047 1.055.047 1.652v1.971c0 .734.137.872.504.55.642-.596 1.238-2.338 1.513-4.08z" fill="#fff"/><path d="M13.73 48.791c-.504 2.293-2.798 3.807-5.09 3.715-3.164-.139-8.07-3.623-7.98-7.062.046-1.926 1.468-3.67 2.936-4.77 1.421-1.101 3.806-2.246 5.64-1.742 1.834.504 3.118 3.026 3.715 4.677.55 1.422 1.1 3.67.733 5.183h.046z" fill="#85C51F"/><path d="M12.901 48.559c.045-.275.092-.55.092-.872-.596-2.522-2.018-5.41-3.623-5.869-2.476-.734-7.474 2.568-7.2 5.962 1.376 2.11 4.311 3.852 6.42 3.942 1.926.093 3.898-1.192 4.312-3.118v-.045z" fill="#70A91B"/><path d="M10.6 45.994c.642-1.284-.411-3.531-2.017-3.348-1.697.23-5.365 2.752-5.365 4.724 0 1.239 1.696 2.11 3.484 1.606 1.33-.367 3.394-1.927 3.899-2.982zm1.422 3.21c.321-.78-.138-2.155-1.054-2.018-.963.184-3.257 1.834-3.165 2.752.045.734 1.33 1.376 2.34 1.008.733-.274 1.604-1.1 1.88-1.742z" fill="#5D8D17"/><path d="M8.07 40.03c.047.826-1.559 1.559-2.2.964-.551-1.056-.412-2.34.045-2.614.505-.276 1.743.23 2.156 1.65zm-3.058 1.518c.182.916-1.055 1.696-1.652 1.284-.78-.78-1.054-2.156-.688-2.477.367-.32 1.697.184 2.34 1.193zm-2.4 2.292c.276.596-.321 1.42-1.01 1.375-.732-.55-1.42-1.834-1.146-2.156.276-.366 1.514 0 2.156.78zM14.4 35.31c.368-.687-.64-1.147-1.466-1.468-.827-.274-1.239-.274-1.56.413-.367.688-.55 1.742.321 2.017.825.276 2.385-.275 2.752-.962h-.046z" fill="#2C440C"/><path d="M15.137 32.743c.092.78-1.01 1.192-1.926 1.376-.871.184-1.238.091-1.33-.688-.092-.781.138-2.018 1.055-2.201.87-.183 2.109.733 2.201 1.513z" fill="#2C440C"/><path d="M15.313 30.172c.093.735-1.009 1.102-1.925 1.286-.871.182-1.239.091-1.33-.688-.093-.735.138-1.88 1.009-2.064.872-.184 2.11.688 2.201 1.42l.045.046zm-7.229-1.693c.137.597 1.283.458 2.155.276.871-.23 1.192-.413 1.009-1.01-.138-.596-.689-1.42-1.558-1.192-.872.23-1.743 1.33-1.606 1.973v-.047z" fill="#2C440C"/><path d="M7.29 35.768l.275.78-.596-.46c-.276-.229-.504-.55-.688-.916.045.366.092.596.184.917-.871-1.422-1.652-2.981-1.148-5.044.46-1.88 2.34-2.752 3.67-3.119.825-.229 1.742-.367 2.567-.275.504.046 1.376.183 1.743.642.367.46.55 1.422.642 2.064.137 1.008.092 2.063-.045 3.072-.139.916-.413 1.788-.872 2.522-.367.55-.78.963-1.329 1.193-.643.275-1.285.32-1.974.183-.916-.183-1.741-.733-2.476-1.513l.047-.046z" fill="#85C51F"/><path d="M12.925 28.935c.55.643.826 3.35.183 5.32a2.677 2.677 0 01-.641.092c-1.01.093-1.973-.366-2.615-.916.046.275.138.458.23.596-.55-.228-1.009-.917-1.33-1.697.045.643.137.918.229 1.285-.689-.23-1.238-1.01-1.651-1.834-.367-.734-.321-1.79.32-2.247 1.697-1.238 4.587-1.33 5.228-.55l.047-.05z" fill="#A1E141"/><path d="M49.78 48.791c.504 2.293 2.797 3.807 5.09 3.715 3.164-.139 8.07-3.623 7.978-7.062-.044-1.926-1.467-3.67-2.934-4.77-1.421-1.101-3.807-2.246-5.64-1.742-1.834.504-3.118 3.026-3.715 4.677-.55 1.422-1.1 3.67-.733 5.183h-.046z" fill="#85C51F"/><path d="M50.506 48.559c-.046-.275-.093-.55-.093-.872.597-2.522 2.018-5.41 3.623-5.869 2.476-.734 7.474 2.568 7.2 5.962-1.376 2.11-4.312 3.852-6.42 3.942-1.927.093-3.899-1.192-4.311-3.118v-.045h.001z" fill="#70A91B"/><path d="M52.907 45.994c-.643-1.284.412-3.531 2.018-3.348 1.697.23 5.365 2.752 5.365 4.724 0 1.239-1.697 2.11-3.485 1.606-1.33-.367-3.394-1.927-3.898-2.982zm-1.422 3.21c-.32-.78.138-2.155 1.055-2.018.963.184 3.255 1.834 3.164 2.752-.046.734-1.33 1.376-2.339 1.008-.734-.274-1.605-1.1-1.88-1.742z" fill="#5D8D17"/><path d="M55.354 40.03c-.047.826 1.56 1.559 2.2.964.551-1.056.413-2.34-.045-2.614-.505-.276-1.743.23-2.155 1.65zm3.104 1.518c-.182.916 1.055 1.696 1.652 1.284.78-.78 1.054-2.156.688-2.477-.367-.32-1.698.184-2.34 1.193zm2.345 2.292c-.276.596.321 1.42 1.009 1.375.732-.55 1.42-1.834 1.146-2.156-.275-.366-1.513 0-2.155.78zm-11.724-8.53c-.367-.687.642-1.147 1.468-1.468.826-.274 1.237-.274 1.559.413.366.688.55 1.742-.322 2.017-.824.276-2.384-.275-2.751-.962h.046z" fill="#2C440C"/><path d="M48.39 32.743c-.092.78 1.008 1.192 1.925 1.376.872.184 1.239.091 1.33-.688.092-.781-.137-2.018-1.055-2.201-.87-.183-2.109.733-2.2 1.513z" fill="#2C440C"/><path d="M48.125 30.172c-.093.735 1.008 1.102 1.924 1.286.872.182 1.24.091 1.33-.688.093-.735-.137-1.88-1.009-2.064-.87-.184-2.109.688-2.2 1.42l-.045.046zm7.267-1.693c-.139.597-1.285.458-2.157.276-.87-.23-1.192-.413-1.008-1.01.138-.596.687-1.42 1.558-1.192.873.23 1.744 1.33 1.607 1.973v-.047z" fill="#2C440C"/><path d="M56.086 35.768l-.275.78.596-.46c.276-.229.504-.55.688-.916a5.295 5.295 0 01-.184.917c.871-1.422 1.652-2.981 1.147-5.044-.459-1.88-2.34-2.752-3.669-3.119-.826-.229-1.742-.367-2.567-.275-.504.046-1.376.183-1.743.642-.367.46-.55 1.422-.642 2.064-.137 1.008-.092 2.063.046 3.072.138.916.412 1.788.87 2.522.367.55.781.963 1.33 1.193.644.275 1.285.32 1.973.183.916-.183 1.742-.733 2.477-1.513l-.047-.046z" fill="#85C51F"/><path d="M50.615 28.935c-.55.643-.826 3.35-.183 5.32.183.047.412.092.641.092 1.01.093 1.973-.366 2.615-.916a1.477 1.477 0 01-.23.596c.55-.228 1.009-.917 1.33-1.697-.045.643-.138.918-.229 1.285.688-.23 1.238-1.01 1.651-1.834.367-.734.321-1.79-.32-2.247-1.697-1.238-4.587-1.33-5.228-.55l-.047-.05z" fill="#A1E141"/></svg>