<svg width="20" height="27" fill="none" xmlns="http://www.w3.org/2000/svg"><g clip-path="url(#clip0)" fill-rule="evenodd" clip-rule="evenodd"><path d="M9.22 7.571c-1.8-.808-3.673-2.015-5.42-2.576.621 1.481 1.145 3.06 1.688 4.62-1.082.813-2.346 1.444-3.554 2.132 1.028 1.015 2.483 1.604 3.643 2.487-.93 1.146-2.754 2.338-3.199 3.376 1.923-.24 4.164-.631 5.953-.71.393 1.976.596 4.142 1.155 5.952.832-2.395 1.585-4.87 2.576-7.107 1.53.632 3.394 1.404 4.887 1.777-1.048-1.47-2.004-3.031-2.932-4.62 1.373-.996 2.763-1.976 4.087-3.021-1.871-.172-3.81-.277-5.775-.355-.313-2.028-.23-4.45-.711-6.308-.727 1.523-1.585 2.916-2.399 4.353zm.888 16.791c-.247 1.058.567 1.492.444 2.133-.804-.277-1.409-.42-2.488-.267.034-.825.776-.942.622-1.954C-2.814 22.966-2.836 2.187 8.597.908c14.297-1.6 14.745 23.087 1.51 23.454" fill="#E34F0E"/><path d="M11.618 3.218c.48 1.859.398 4.28.71 6.308 1.966.078 3.905.183 5.776.355-1.324 1.045-2.713 2.025-4.087 3.02.928 1.59 1.884 3.15 2.932 4.62-1.493-.372-3.357-1.144-4.887-1.776-.99 2.237-1.744 4.712-2.576 7.107-.56-1.81-.762-3.976-1.155-5.952-1.79.079-4.03.47-5.953.71.445-1.038 2.27-2.23 3.199-3.376-1.16-.883-2.615-1.472-3.643-2.487 1.208-.688 2.472-1.32 3.554-2.133-.543-1.56-1.067-3.138-1.688-4.62 1.748.562 3.621 1.769 5.42 2.577.813-1.437 1.671-2.83 2.398-4.353z" fill="#fff"/></g><defs><clipPath id="clip0"><path fill="#fff" transform="translate(.042 .833)" d="M0 0h19.653v25.667H0z"/></clipPath></defs></svg>