<svg width="30" height="30" viewBox="0 0 30 30" fill="none" xmlns="http://www.w3.org/2000/svg">
	<path
		d="M8.9675 22.7833L13.4928 22.7839L13.4956 26.6276L9.05295 26.627C8.35018 26.3261 7.7713 25.8982 7.35078 25.3968C7.51548 24.5679 8.12771 23.4851 8.9675 22.7833Z"
		fill="#6F4BBB"/>
	<path
		d="M9.22946 23.1042C8.63067 23.7058 8.03885 24.4343 7.8397 25.2632C8.19817 25.6777 8.66677 25.9986 9.16975 26.2326L12.9718 26.2331L12.9695 23.1047L9.22946 23.1042Z"
		fill="#7D5DC2"/>
	<path
		d="M8.18379 24.4149C8.06681 24.5753 7.84688 25.2237 7.83313 25.2638C8.19159 25.6783 8.66018 25.9992 9.16314 26.2332L11.1881 26.2335L11.1869 24.5557C10.1882 24.5489 9.18944 24.502 8.18379 24.4149Z"
		fill="#9478CF"/>
	<path
		d="M8.94893 25.8127C9.41739 25.9665 9.63799 26.2539 9.70714 26.6282L8.07481 26.628C8.18477 26.3072 8.49443 25.9129 8.94893 25.8127Z"
		fill="#5F3EA7"/>
	<path
		d="M8.94209 25.9865C8.68728 26.0534 8.47389 26.2472 8.33629 26.4678L8.94933 26.4679L8.94898 25.9865L8.94209 25.9865Z"
		fill="#6F4BBB"/>
	<path
		d="M10.5607 25.719C11.1876 25.8862 11.4909 26.2939 11.5669 26.6281L9.39054 26.6278C9.53492 26.2736 9.97537 25.7991 10.5607 25.719Z"
		fill="#5F3EA7"/>
	<path
		d="M10.5464 25.8861C10.2021 25.9462 9.86476 26.1801 9.66522 26.4676L10.5606 26.4677L10.5602 25.8861L10.5464 25.8861Z"
		fill="#6F4BBB"/>
	<path
		d="M18.9186 22.7829L14.3933 22.7823L14.3961 26.626L18.8387 26.6266C19.5411 26.3259 20.1193 25.8981 20.5391 25.3968C20.3801 24.5679 19.7663 23.4849 18.9186 22.7829Z"
		fill="#6F4BBB"/>
	<path
		d="M18.6641 23.1037C19.2638 23.7054 19.8567 24.4341 20.057 25.263C19.6991 25.6774 19.231 25.9982 18.7284 26.2321L14.9263 26.2316L14.9241 23.1031L18.6641 23.1037Z"
		fill="#7D5DC2"/>
	<path
		d="M19.7047 24.4142C19.8219 24.5746 20.0427 25.223 20.0565 25.2631C19.6987 25.6775 19.2306 25.9983 18.7279 26.2322L16.703 26.2319L16.7018 24.5542C17.7005 24.5476 18.706 24.501 19.7047 24.4142Z"
		fill="#9478CF"/>
	<path
		d="M18.9473 25.8115C18.4791 25.9651 18.2589 26.2525 18.1903 26.6268L19.8226 26.6271C19.7122 26.3062 19.402 25.9118 18.9473 25.8115Z"
		fill="#5F3EA7"/>
	<path
		d="M18.9549 25.9852C19.2098 26.0521 19.4235 26.246 19.5614 26.4666L18.9483 26.4665L18.948 25.9852L18.9549 25.9852Z"
		fill="#6F4BBB"/>
	<path
		d="M17.3364 25.7181C16.7097 25.8851 16.407 26.2928 16.3315 26.627L18.5078 26.6272C18.363 26.273 17.9218 25.7984 17.3364 25.7181Z"
		fill="#5F3EA7"/>
	<path
		d="M17.3429 25.885C17.6873 25.9453 18.025 26.1793 18.2249 26.4667L17.3295 26.4666L17.3291 25.885L17.3429 25.885Z"
		fill="#6F4BBB"/>
	<path
		d="M1.84842 23.9675C1.87649 24.6695 2.04222 25.2178 2.35934 25.5588C2.85529 25.5187 3.2751 24.9839 3.46764 24.5227C3.17796 24.0345 2.61294 23.8138 1.84842 23.9675Z"
		fill="#5F3EA7"/>
	<path
		d="M2.10352 24.1614C2.11759 24.5693 2.22814 24.9906 2.45575 25.2982L2.64788 24.1882C2.47559 24.1481 2.28955 24.1481 2.10352 24.1614Z"
		fill="#6F4BBB"/>
	<path
		d="M3.10145 24.3419C3.15013 24.9703 3.2332 25.5252 3.64002 26.0869C4.37008 25.9332 4.94153 25.5388 5.18216 24.9104C4.82338 24.1148 3.96914 24.0077 3.10145 24.3419Z"
		fill="#5F3EA7"/>
	<path
		d="M3.74335 25.8197L4.23149 24.4223C3.95587 24.3687 3.64587 24.4088 3.34969 24.5024C3.39826 24.9771 3.48124 25.3984 3.74335 25.8197Z"
		fill="#6F4BBB"/>
	<path
		d="M5.49847 24.8565C5.62299 25.5718 6.31897 25.9263 6.67026 25.9063C6.8285 25.6456 6.98668 25.3046 6.98638 24.8968L6.68311 24.6494C6.22153 24.5624 5.73249 24.5958 5.49847 24.8565Z"
		fill="#5F3EA7"/>
	<path d="M6.54585 25.6655C6.6835 25.465 6.77285 25.1574 6.78642 24.8632L6.29028 24.7829L6.54585 25.6655Z"
		  fill="#6F4BBB"/>
	<path
		d="M6.98892 15.2673L6.99587 24.8894C5.28039 25.0965 3.28222 25.0293 1.84831 23.9593C1.87523 23.0633 1.96417 22.1873 2.12893 21.3515C2.43789 19.8404 3.02255 18.463 4.03457 17.3331C4.92956 16.3369 5.82493 15.8622 6.98892 15.2673Z"
		fill="#6F4BBB"/>
	<path
		d="M2.33048 23.7387C3.2267 24.4075 5.37662 24.6151 6.50652 24.4748L6.50046 16.0428C3.58695 17.547 2.43138 20.3218 2.33048 23.7387Z"
		fill="#9478CF"/>
	<path
		d="M2.33054 23.7394C2.78562 24.0805 3.55762 24.2945 4.36402 24.415C4.47967 22.2684 4.46363 19.0386 3.96684 18.1826C2.88592 19.6737 2.39795 21.5794 2.33054 23.7394Z"
		fill="#A58DD4"/>
	<path
		d="M4.36091 22.3087C4.73978 22.3087 5.04309 22.603 5.04336 22.9707C5.04363 23.3384 4.74075 23.6325 4.36189 23.6325C3.98302 23.6324 3.67971 23.3382 3.67944 22.9705C3.67917 22.6028 3.98205 22.3086 4.36091 22.3087Z"
		fill="#9478CF"/>
	<path
		d="M5.97528 7.76121C5.77459 6.51091 5.99456 5.86241 6.25549 4.71916C7.07574 5.38118 7.59963 5.85596 8.59886 6.34417C8.79775 5.13405 9.23779 3.99083 9.87766 2.92117L10.2561 2.29275C11.7173 3.36271 12.9648 4.21869 13.9302 5.63624C14.8936 4.21896 16.1399 3.36335 17.5995 2.29382L17.9788 2.92235C18.6203 3.99218 19.062 5.13554 19.2626 6.34571C20.2612 5.85779 20.7844 5.38316 21.6036 4.72138C21.8731 5.85802 22.0872 6.50659 21.8883 7.76351L23.6935 8.24515C23.3387 12.8183 22.9764 16.7161 22.5182 21.2892C22.4567 21.9176 22.3883 22.5528 22.3198 23.1813C22.2993 23.3618 22.0722 23.6894 21.1078 23.6959C16.3961 24.0028 11.4638 24.0021 6.75851 23.6938C5.79407 23.6803 5.56651 23.3594 5.54571 23.1788C5.47635 22.537 5.40699 21.8951 5.34453 21.2533C5.31678 20.9925 5.28903 20.7318 5.26128 20.4643C4.86563 16.3859 4.47688 12.3208 4.15011 8.23564L5.95461 7.75452L5.97528 7.75452L5.97528 7.76121Z"
		fill="#6F4BBB"/>
	<path
		d="M10.4564 3.24895C9.67892 4.53253 9.24593 5.88971 9.16429 7.29373C8.36498 6.99944 7.45531 6.51792 6.66954 5.89602C6.5116 6.57796 6.54669 7.46719 6.76081 8.24279C6.0996 8.38978 5.48661 8.54347 4.87364 8.71721C5.20738 12.916 5.52045 17.1148 5.95063 21.3002C5.99226 21.7148 6.08248 22.6107 6.131 23.0252C6.30329 23.1189 6.6615 23.1189 6.80617 23.1256C11.5459 23.4339 16.3404 23.4346 21.0797 23.1277C21.2312 23.1143 21.5825 23.1144 21.7547 23.0275C21.8026 22.6197 21.8915 21.7037 21.9325 21.3026C22.3497 17.1106 22.6635 12.9118 22.9911 8.71983C22.3778 8.54591 21.7646 8.39205 21.1032 8.24486C21.3162 7.46932 21.35 6.5801 21.191 5.89812C20.4131 6.52648 19.4972 7.00105 18.6983 7.29511C18.6146 5.89775 18.1796 4.53376 17.4003 3.24995C15.8167 4.41307 14.7771 5.25534 13.931 6.94007C13.0756 5.2551 12.0417 4.41252 10.4495 3.24895L10.4564 3.24895Z"
		fill="#9478CF"/>
	<path
		d="M10.4583 3.24872C10.5768 5.11437 11.0606 7.18735 11.9708 8.05675C10.758 7.92955 10.1102 7.78904 9.17271 7.2941C8.3663 6.99978 7.45641 6.51821 6.67044 5.89623C7.09165 7.12667 7.49881 8.0027 8.33318 8.85872C7.62344 8.84525 7.21674 8.61785 6.7617 8.24333C6.10031 8.39036 5.48716 8.54408 4.87403 8.71786C5.20778 12.9172 5.52085 17.1166 5.95106 21.3026C5.9927 21.7172 6.08292 22.6133 6.13145 23.0279C6.30378 23.1215 6.66209 23.1215 6.80679 23.1283C9.17725 23.2824 11.5614 23.3562 13.9456 23.3565L13.9438 20.8556C10.2644 21.136 6.89781 15.5053 10.7608 11.8079L9.98932 12.2224C9.89242 11.6273 10.0848 10.8851 10.3393 10.2833C10.8415 9.11313 12.1777 8.24401 13.9346 8.03694L13.9338 6.93361C13.0782 5.24842 12.0509 4.40575 10.4583 3.24872Z"
		fill="#A58DD4"/>
	<path
		d="M19.5325 8.8565C20.3586 8.00076 20.7713 7.11823 21.1907 5.888C21.3496 6.57003 21.3158 7.45931 21.1028 8.23489C20.6484 8.61595 20.2421 8.84323 19.5325 8.8565ZM18.1337 8.50861C18.5471 8.50867 18.878 8.83635 18.8783 9.23084C18.8786 9.63202 18.5412 9.95292 18.1348 9.95286C17.7214 9.9528 17.3905 9.62512 17.3902 9.23063C17.3899 8.83614 17.7272 8.50855 18.1337 8.50861ZM20.8562 10.1405C21.1386 10.1405 21.3731 10.3679 21.3733 10.642C21.3735 10.9161 21.1394 11.1434 20.8569 11.1434C20.5745 11.1434 20.34 10.916 20.3398 10.6419C20.3396 10.361 20.5668 10.1404 20.8562 10.1405ZM15.9012 8.04694C16.81 7.18453 17.2907 5.11184 17.4065 3.23968C18.1859 4.52357 18.6209 5.88095 18.7046 7.28509C17.7611 7.77975 17.1136 7.92007 15.9012 8.04694Z"
		fill="#7D5DC2"/>
	<path
		d="M7.18485 9.56096C7.86007 9.56105 8.41166 10.0961 8.41213 10.7513C8.4126 11.4066 7.86179 11.9415 7.18657 11.9414C6.51136 11.9413 5.95977 11.4063 5.9593 10.751C5.95883 10.0957 6.50964 9.56087 7.18485 9.56096ZM6.39515 13.2118C6.66386 13.2118 6.88449 13.4258 6.88468 13.6866C6.88487 13.9474 6.66454 14.1613 6.39583 14.1613C6.12712 14.1612 5.90649 13.9472 5.9063 13.6864C5.90611 13.4257 6.12644 13.2117 6.39515 13.2118Z"
		fill="#9478CF"/>
	<path
		d="M14.0158 10.2104C16.9297 10.2108 19.2941 12.5043 19.2962 15.3323C19.2983 18.1604 16.9372 20.4532 14.0234 20.4528C11.1095 20.4524 8.74509 18.1588 8.74302 15.3308C8.74094 12.5028 11.102 10.2099 14.0158 10.2104Z"
		fill="#D3E8EF"/>
	<path
		d="M8.88027 14.1673C9.34038 12.2419 10.9236 10.7312 12.9209 10.3237C15.0976 10.1635 16.8621 11.6413 16.8636 13.6536C16.865 15.6794 15.0754 17.4775 12.8781 17.6644C10.674 17.8513 8.88877 16.3668 8.88728 14.3344C8.88035 14.2809 8.88031 14.2208 8.88027 14.1673Z"
		fill="white"/>
	<path
		d="M15.6428 13.3661C17.2892 13.3664 18.6196 14.6569 18.6208 16.2548C18.6219 17.8526 17.2934 19.1428 15.6471 19.1425C14.0007 19.1423 12.6703 17.8518 12.6691 16.2539C12.6679 14.6627 13.9965 13.3659 15.6428 13.3661Z"
		fill="#EA4E64"/>
	<path
		d="M15.6429 13.3661C16.0769 13.3661 16.4903 13.4531 16.8624 13.6203L16.8624 13.6537C16.8639 15.626 15.1706 17.3841 13.0353 17.6513C12.8008 17.2367 12.6626 16.762 12.6623 16.2539C12.6611 14.656 13.9897 13.3658 15.6429 13.3661Z"
		fill="#EC6277"/>
	<path
		d="M15.6437 14.3822C16.7114 14.3824 17.58 15.2182 17.5807 16.2612C17.5815 17.2974 16.721 18.1397 15.6464 18.1395C14.5787 18.1394 13.7102 17.3036 13.7094 16.2606C13.7086 15.2243 14.5691 14.3821 15.6437 14.3822Z"
		fill="#232323"/>
	<path
		d="M15.6432 14.3822C16.0358 14.3823 16.401 14.496 16.7043 14.6899C16.3331 15.8866 15.3557 16.9027 14.1024 17.3839C13.861 17.0696 13.7161 16.6752 13.7158 16.2606C13.7081 15.2244 14.5686 14.3821 15.6432 14.3822Z"
		fill="#323232"/>
	<path
		d="M13.5364 14.0947C14.2115 14.0948 14.7561 14.623 14.7565 15.2782C14.757 15.9334 14.2132 16.4615 13.5381 16.4614C12.8631 16.4613 12.3185 15.9331 12.318 15.2779C12.3175 14.6227 12.8613 14.0946 13.5364 14.0947Z"
		fill="white"/>
	<path
		d="M7.81511 17.6799C9.31617 16.8778 11.5766 18.2821 11.4129 20.5551C9.97982 20.1271 8.429 18.8165 7.81511 17.6799Z"
		fill="#6F4BBB"/>
	<path
		d="M7.81519 17.6799C9.17906 17.7069 10.6881 18.4558 11.4129 20.5551C9.69762 20.3677 8.09864 19.0973 7.81519 17.6799Z"
		fill="#A58DD4"/>
	<path
		d="M8.52566 19.5792C8.72538 19.5124 9.66224 19.5326 9.73808 19.6329C9.82772 19.7532 9.58019 20.3683 9.31872 20.7694C8.97409 20.5019 8.6914 20.1342 8.52566 19.5792Z"
		fill="#7D5DC2"/>
	<path
		d="M8.25027 19.3586C8.44999 19.2917 9.38685 19.3119 9.4627 19.4122C9.55234 19.5326 9.3048 20.1476 9.04333 20.5487C8.69871 20.2813 8.41601 19.9135 8.25027 19.3586Z"
		fill="white"/>
	<path
		d="M8.53219 19.0443C8.59512 20.3346 10.3318 21.5782 11.9777 21.1172C12.0675 21.4915 11.8059 21.7121 11.5373 21.7655C10.0427 21.8923 8.60248 20.9763 8.12635 19.8064C7.98836 19.4855 8.1396 19.0844 8.53219 19.0443Z"
		fill="#6F4BBB"/>
	<path
		d="M8.25112 21.4654C8.66496 22.2208 9.31269 22.5753 10.0222 22.689C9.01003 23.1301 8.11415 22.5417 8.25112 21.4654Z"
		fill="#6F4BBB"/>
	<path
		d="M8.93286 21.6458C9.74584 22.087 10.5173 22.2274 11.4126 22.1473C10.7586 22.5682 9.47761 22.6149 8.93286 21.6458Z"
		fill="#9478CF"/>
	<path
		d="M15.8415 8.75767C14.2071 6.01676 9.91034 7.61379 10.3465 10.6888C11.4197 8.96429 13.4925 8.40307 15.8415 8.75767Z"
		fill="#5F3EA7"/>
	<path
		d="M15.8413 8.75682C14.9173 7.21301 12.9751 7.11256 11.674 7.96112C11.6674 8.32199 11.7778 8.58263 11.9776 8.78982C13.031 8.29541 14.4083 8.09508 15.8413 8.75682Z"
		fill="#6F4BBB"/>
	<path
		d="M24.3905 19.1838C26.1057 19.184 27.512 20.5214 27.5132 22.1928C27.5144 23.8642 26.1101 25.2011 24.3949 25.2009C22.6797 25.2006 21.2735 23.8633 21.2722 22.1919C21.271 20.5205 22.6753 19.1835 24.3905 19.1838Z"
		fill="#6F4BBB"/>
	<path
		d="M24.3907 19.6251C25.8648 19.6253 27.0574 20.7754 27.0584 22.186C27.0595 23.6034 25.8686 24.7465 24.3945 24.7462C22.9203 24.746 21.7278 23.5959 21.7267 22.1853C21.7257 20.7746 22.9234 19.6248 24.3907 19.6251Z"
		fill="#9478CF"/>
	<path
		d="M24.3909 19.6247C25.438 19.6248 26.3407 20.2066 26.7822 21.049C26.8796 22.3861 25.1996 23.3686 24.0765 22.9072C23.2496 22.4725 22.6772 21.6234 22.6765 20.654C22.6764 20.4935 22.6901 20.3398 22.7244 20.186C23.1857 19.8385 23.7641 19.6246 24.3909 19.6247Z"
		fill="#A58DD4"/>
	<path
		d="M23.3035 21.7912C23.1792 21.4234 24.5982 20.9623 24.7294 21.33L26.1378 25.4157C26.2621 25.7835 24.8432 26.2446 24.712 25.8769L23.3035 21.7912Z"
		fill="#2B3039"/>
	<path
		d="M25.3426 21.3767C24.7849 21.7109 24.3236 22.0385 23.9934 22.6468C24.4691 23.2085 25.0962 23.5161 25.785 23.436C26.3424 22.7541 26.0525 21.9719 25.3426 21.3767Z"
		fill="#5F3EA7"/>
	<path
		d="M25.7772 22.3126C25.6944 22.0786 25.5427 21.858 25.3497 21.6441C24.9228 21.9114 24.5718 22.1988 24.3034 22.6132C24.5996 22.64 25.0611 22.5665 25.7772 22.3126Z"
		fill="#6F4BBB"/>
	<path
		d="M25.8804 23.0152C25.3227 23.3494 24.8614 23.6769 24.5312 24.2853C25.0069 24.847 25.634 25.1546 26.3228 25.0745C26.8803 24.3926 26.5904 23.6103 25.8804 23.0152Z"
		fill="#5F3EA7"/>
	<path
		d="M26.3153 23.8843C26.2325 23.6503 26.0808 23.4297 25.8878 23.2158C25.4609 23.4831 25.1099 23.7705 24.8415 24.1849C25.1377 24.2184 25.5992 24.1382 26.3153 23.8843Z"
		fill="#6F4BBB"/>
	<path
		d="M22.9741 23.1757C23.5044 23.0488 23.9728 22.9686 24.5447 23.1292C24.614 23.7309 24.4422 24.2791 23.9947 24.6267C23.2507 24.5664 22.9334 23.9379 22.9741 23.1757Z"
		fill="#5F3EA7"/>
	<path
		d="M23.2991 23.9043C23.2026 23.7171 23.1542 23.5032 23.1334 23.2693C23.5466 23.1757 23.9254 23.1357 24.3456 23.2226C24.1942 23.4165 23.8775 23.637 23.2991 23.9043Z"
		fill="#6F4BBB"/>
	<path
		d="M21.9077 12.1087C19.0905 12.262 16.9361 14.6084 17.0965 17.3428C17.257 20.0773 19.6764 22.1703 22.4936 22.0169C25.3109 21.8635 27.4653 19.5172 27.3049 16.7827C27.1444 14.0483 24.7319 11.9553 21.9077 12.1087Z"
		fill="#393F4C"/>
	<path
		d="M21.9494 12.7238C19.4835 12.8571 17.5906 14.916 17.7302 17.3162C17.8697 19.7097 19.9927 21.5485 22.4656 21.4085C24.9315 21.2751 26.8244 19.2162 26.6848 16.8161C26.5384 14.4226 24.4223 12.5837 21.9494 12.7238Z"
		fill="#D3E8EF"/>
	<path
		d="M25.6111 19.2154C26.0653 18.5335 26.3128 17.7111 26.2639 16.8351C26.1593 15.1033 24.925 13.6922 23.2918 13.2574C23.162 14.7552 23.0253 16.2262 22.8817 17.7373C23.4261 17.9514 24.8321 18.6336 25.6111 19.2154Z"
		fill="white"/>
	<path
		d="M21.8821 13.2049C19.7329 13.325 18.0878 15.1099 18.2202 17.1959C18.2411 17.4901 18.2895 17.7776 18.3724 18.045C18.3654 17.9848 18.3585 17.9247 18.3584 17.8578C18.2189 15.4375 20.1187 13.3652 22.6123 13.2251L22.633 13.2251C22.3918 13.205 22.1369 13.1916 21.8821 13.2049Z"
		fill="white"/>
	<path
		d="M18.3729 19.315C18.4557 19.4487 18.5453 19.5757 18.6418 19.6961L19.9629 17.9182L23.0082 19.1485L24.7688 15.6127L26.5392 15.9405C26.4909 15.78 26.4425 15.6196 26.3804 15.4659L24.5205 15.118L22.7942 18.587L19.8179 17.3834L18.3729 19.315Z"
		fill="#999999"/>
	<path
		d="M19.8317 16.7557C20.3415 16.729 20.7757 17.1035 20.8036 17.5983C20.8316 18.093 20.4461 18.5141 19.9364 18.5408C19.4266 18.5675 18.9924 18.193 18.9645 17.6983C18.9297 17.2102 19.322 16.7891 19.8317 16.7557Z"
		fill="#1EC185"/>
	<path
		d="M24.5888 14.4745C25.0985 14.4478 25.5328 14.8223 25.5607 15.317C25.5886 15.8117 25.2032 16.2329 24.6934 16.2595C24.1837 16.2862 23.7495 15.9118 23.7215 15.417C23.6867 14.9223 24.0791 14.5011 24.5888 14.4745Z"
		fill="#EA4E64"/>
	<path
		d="M22.8412 17.9793C23.351 17.9526 23.7852 18.3271 23.8131 18.8218C23.8411 19.3166 23.4556 19.7377 22.9459 19.7644C22.4362 19.7911 22.0019 19.4166 21.974 18.9219C21.9392 18.4271 22.3315 18.006 22.8412 17.9793Z"
		fill="#338EEF"/>
</svg>
