<svg width="146" height="146" viewBox="0 0 146 146" fill="none" xmlns="http://www.w3.org/2000/svg">
<rect x="14" y="23.1475" width="115.957" height="106.017" rx="10" fill="#CDDCE9"/>
<rect x="30.5652" y="51.8613" width="58" height="9" rx="4.5" fill="#9DAFBF"/>
<rect x="30.5652" y="68.8613" width="76" height="9" rx="4.5" fill="#9DAFBF"/>
<rect x="30.5652" y="85.8613" width="57" height="9" rx="4.5" fill="#9DAFBF"/>
<path d="M132.736 15.8642L132.735 15.8632C129.302 12.4266 122.595 12.5716 117.699 17.4598L132.736 15.8642ZM132.736 15.8642L136.135 19.2618L132.736 15.8642ZM48.1736 86.9698L117.698 17.4608L136.136 19.2629C139.573 22.7043 139.43 29.4088 134.541 34.2918L134.54 34.2927L64.821 103.99L42.6248 112.107L42.6209 112.108C40.9551 112.72 39.9482 111.894 39.7399 110.937C39.6428 110.418 39.6917 109.883 39.8813 109.391L39.8873 109.375L39.8931 109.36L48.1736 86.9698Z" fill="#509FE2" stroke="white" stroke-width="5"/>
</svg>
