<svg width="14" height="14" viewBox="0 0 14 14" fill="none" xmlns="http://www.w3.org/2000/svg">
<path d="M0 7.41142C0 7.13823 0 6.86422 0 6.59102C0.00822957 6.54247 0.018105 6.49475 0.0255117 6.4462C0.0691284 6.14503 0.09464 5.83975 0.158831 5.54269C0.524223 3.86157 1.38751 2.48491 2.7569 1.44728C4.46043 0.157022 6.37874 -0.270869 8.47069 0.165251C10.1454 0.514147 11.5066 1.39132 12.5476 2.74494C13.6718 4.20635 14.14 5.87019 13.9639 7.70189C13.8216 9.18552 13.2447 10.4964 12.2563 11.6146C11.1725 12.8407 9.82117 13.6043 8.20735 13.8915C7.944 13.9384 7.67654 13.9647 7.41155 14.0001H6.59106C6.55567 13.9927 6.52111 13.9804 6.48572 13.9779C5.39037 13.9006 4.36579 13.5879 3.43091 13.0152C1.61711 11.9035 0.500358 10.3013 0.10863 8.20549C0.0600758 7.94299 0.0353871 7.67639 0 7.41142Z" fill="#EAFAEE"/>
<path d="M7.50227 7.4993C7.50227 7.93231 7.50227 8.34785 7.50227 8.76414C7.50227 8.99128 7.50303 9.21842 7.50227 9.44556C7.49999 9.77753 7.29507 10.0016 6.99605 10.0001C6.70309 9.9986 6.49894 9.77525 6.49818 9.45012C6.49666 8.80668 6.49818 8.16325 6.49818 7.50006C6.4496 7.50006 6.40558 7.50006 6.36157 7.50006C5.73999 7.50006 5.11765 7.50234 4.49607 7.49854C4.23802 7.49702 4.03842 7.31319 4.00427 7.06174C3.97315 6.83308 4.11507 6.59986 4.33896 6.53149C4.42169 6.50642 4.51276 6.49959 4.59928 6.49883C5.17457 6.49579 5.75061 6.49731 6.32589 6.49731H6.49742C6.49742 6.44717 6.49742 6.40311 6.49742 6.35905C6.49742 5.7536 6.4959 5.14815 6.49742 4.54269C6.49818 4.27074 6.64541 4.0717 6.87841 4.01549C7.20552 3.93648 7.49696 4.17046 7.49999 4.52598C7.50454 5.06382 7.50151 5.60242 7.50151 6.14103C7.50151 6.25422 7.50151 6.36665 7.50151 6.49883C7.55843 6.49883 7.607 6.49883 7.65558 6.49883C8.24832 6.49883 8.8403 6.49807 9.43304 6.49883C9.70778 6.49883 9.89448 6.61885 9.97037 6.8346C10.0865 7.16733 9.84818 7.49778 9.48389 7.50006C8.87445 7.50386 8.26501 7.50082 7.65633 7.50158C7.6108 7.50158 7.56526 7.50158 7.50227 7.50158V7.4993Z" fill="#40A88D"/>
</svg>
