<svg width="16" height="16" fill="none" xmlns="http://www.w3.org/2000/svg"><path d="M8 .25C3.719.25.25 3.75.25 8A7.749 7.749 0 008 15.75c4.25 0 7.75-3.469 7.75-7.75 0-4.25-3.5-7.75-7.75-7.75zm0 3.438A1.32 1.32 0 019.313 5 1.3 1.3 0 018 6.313c-.75 0-1.313-.563-1.313-1.313A1.3 1.3 0 018 3.687zm1.75 7.937a.38.38 0 01-.375.375h-2.75a.361.361 0 01-.375-.375v-.75a.38.38 0 01.375-.375H7v-2h-.375a.361.361 0 01-.375-.375v-.75A.38.38 0 016.625 7h2c.188 0 .375.188.375.375V10.5h.375c.188 0 .375.188.375.375v.75z" fill="#fff"/></svg>