<svg width="188" height="56" viewBox="0 0 188 56" fill="none" xmlns="http://www.w3.org/2000/svg">
	<path
		d="M13.6184 42.3408H22.2715V49.9139H13.7764C12.433 49.3212 11.3267 48.4783 10.5233 47.4905C10.8394 45.8574 12.0116 43.7237 13.6184 42.3408Z"
		fill="#6F4BBB"/>
	<path
		d="M14.1189 42.973C12.9731 44.1584 11.8404 45.594 11.4584 47.2271C12.1433 48.0437 13.0389 48.6759 14.0004 49.1369H21.2705V42.973H14.1189Z"
		fill="#7D5DC2"/>
	<path
		d="M12.1169 45.5544C11.893 45.8705 11.4715 47.1481 11.4452 47.2271C12.1301 48.0437 13.0257 48.6759 13.9871 49.1368H17.8593V45.831C15.9495 45.8179 14.0398 45.7257 12.1169 45.5544Z"
		fill="#9478CF"/>
	<path
		d="M13.5789 48.3071C14.4744 48.6101 14.8959 49.1764 15.0276 49.9139H11.9062C12.1169 49.2818 12.7096 48.5047 13.5789 48.3071Z"
		fill="#5F3EA7"/>
	<path d="M13.5657 48.6495C13.0784 48.7812 12.6701 49.1632 12.4067 49.5978H13.5789V48.6495H13.5657Z" fill="#6F4BBB"/>
	<path
		d="M16.6607 48.1227C17.8593 48.4519 18.4388 49.2554 18.5837 49.9139H14.4218C14.6983 49.2158 15.5413 48.2807 16.6607 48.1227Z"
		fill="#5F3EA7"/>
	<path d="M16.6344 48.452C15.9759 48.5706 15.3305 49.0315 14.9485 49.5979H16.6607V48.452H16.6344Z" fill="#6F4BBB"/>
	<path
		d="M32.6498 42.3408H23.9968V49.9139H32.4918C33.8352 49.3212 34.9415 48.4783 35.7449 47.4905C35.442 45.8574 34.2698 43.7237 32.6498 42.3408Z"
		fill="#6F4BBB"/>
	<path
		d="M32.1625 42.973C33.3084 44.1584 34.4411 45.594 34.823 47.2271C34.1381 48.0437 33.2425 48.6759 32.2811 49.1369H25.0109V42.973H32.1625Z"
		fill="#7D5DC2"/>
	<path
		d="M34.1513 45.5544C34.3752 45.8705 34.7967 47.1481 34.823 47.2271C34.1381 48.0437 33.2425 48.6759 32.2811 49.1368H28.4089V45.831C30.3187 45.8179 32.2416 45.7257 34.1513 45.5544Z"
		fill="#9478CF"/>
	<path
		d="M32.7025 48.3071C31.8069 48.6101 31.3855 49.1764 31.2538 49.9139H34.3752C34.1645 49.2818 33.5718 48.5047 32.7025 48.3071Z"
		fill="#5F3EA7"/>
	<path d="M32.7157 48.6495C33.203 48.7812 33.6113 49.1632 33.8747 49.5978H32.7025V48.6495H32.7157Z" fill="#6F4BBB"/>
	<path
		d="M29.6206 48.1227C28.4221 48.4519 27.8426 49.2554 27.6977 49.9139H31.8596C31.583 49.2158 30.7401 48.2807 29.6206 48.1227Z"
		fill="#5F3EA7"/>
	<path d="M29.6338 48.452C30.2923 48.5706 30.9376 49.0315 31.3196 49.5979H29.6074V48.452H29.6338Z" fill="#6F4BBB"/>
	<path
		d="M0 44.6721C0.0526823 46.055 0.368776 47.135 0.974622 47.8067C1.9229 47.7276 2.72631 46.674 3.09508 45.7652C2.54192 44.8038 1.46193 44.3691 0 44.6721Z"
		fill="#5F3EA7"/>
	<path
		d="M0.487305 45.054C0.513646 45.8574 0.724375 46.6871 1.159 47.293L1.52778 45.1066C1.19852 45.0276 0.84291 45.0276 0.487305 45.054Z"
		fill="#6F4BBB"/>
	<path
		d="M2.39703 45.4095C2.48923 46.6476 2.64727 47.7407 3.42434 48.847C4.82042 48.5441 5.91358 47.7671 6.37455 46.529C5.68968 44.9617 4.05653 44.751 2.39703 45.4095Z"
		fill="#5F3EA7"/>
	<path
		d="M3.62194 48.3203L4.55705 45.5677C4.03023 45.4623 3.43755 45.5414 2.87122 45.7257C2.96341 46.6609 3.12146 47.4906 3.62194 48.3203Z"
		fill="#6F4BBB"/>
	<path
		d="M6.98041 46.4237C7.21748 47.833 8.5477 48.531 9.2194 48.4915C9.52233 47.9778 9.82525 47.3061 9.82525 46.5027L9.24575 46.0154C8.36332 45.8442 7.42821 45.9101 6.98041 46.4237Z"
		fill="#5F3EA7"/>
	<path d="M8.98231 48.0174C9.24572 47.6223 9.41694 47.0164 9.44328 46.4369L8.495 46.2789L8.98231 48.0174Z"
		  fill="#6F4BBB"/>
	<path
		d="M9.83842 27.5371V46.4896C6.55894 46.8978 2.73948 46.7661 0 44.6588C0.0526823 42.894 0.223899 41.1686 0.539993 39.5223C1.13267 36.5458 2.25217 33.8326 4.18824 31.6068C5.90041 29.6444 7.61259 28.7093 9.83842 27.5371Z"
		fill="#6F4BBB"/>
	<path
		d="M0.921936 44.2242C2.63411 45.5413 6.74333 45.9495 8.9033 45.673V29.0649C3.33215 32.0283 1.11949 37.494 0.921936 44.2242Z"
		fill="#9478CF"/>
	<path
		d="M0.921936 44.2242C1.79119 44.8959 3.2663 45.3173 4.80725 45.5544C5.03115 41.3266 5.00481 34.9653 4.05653 33.2794C1.98875 36.2165 1.05364 39.9701 0.921936 44.2242Z"
		fill="#A58DD4"/>
	<path
		d="M4.80724 41.4058C5.53162 41.4058 6.11113 41.9853 6.11113 42.7096C6.11113 43.434 5.53162 44.0135 4.80724 44.0135C4.08286 44.0135 3.50336 43.434 3.50336 42.7096C3.50336 41.9853 4.08286 41.4058 4.80724 41.4058Z"
		fill="#9478CF"/>
	<path
		d="M7.91555 12.7597C7.53361 10.2968 7.95507 9.01929 8.45555 6.76712C10.0228 8.07101 11.0238 9.00612 12.9335 9.96757C13.3155 7.5837 14.1584 5.33153 15.3833 3.22424L16.1076 1.98621C18.8998 4.0935 21.2837 5.77933 23.1276 8.57149C24.9714 5.77933 27.3553 4.0935 30.1475 1.98621L30.8719 3.22424C32.0967 5.33153 32.9396 7.5837 33.3216 9.96757C35.2313 9.00612 36.2323 8.07101 37.7996 6.76712C38.3132 9.00612 38.7215 10.2837 38.3396 12.7597L41.7903 13.708C41.1054 22.7167 40.4073 30.3951 39.5249 39.4038C39.4064 40.6418 39.2747 41.893 39.143 43.1311C39.1035 43.4867 38.6688 44.132 36.8249 44.1452C27.8163 44.751 18.3862 44.751 9.39066 44.1452C7.54678 44.1189 7.11215 43.4867 7.07264 43.1311C6.94093 41.8667 6.80923 40.6023 6.69069 39.3379C6.63801 38.8243 6.58533 38.3106 6.53264 37.7838C5.78192 29.7498 5.04437 21.7421 4.42535 13.6948L7.87604 12.7466H7.91555V12.7597Z"
		fill="#6F4BBB"/>
	<path
		d="M16.4896 3.86963C15.0013 6.39838 14.1715 9.072 14.0135 11.8378C12.4857 11.2583 10.7472 10.31 9.24575 9.08517C8.94282 10.4286 9.00867 12.1803 9.41696 13.708C8.15259 13.9978 6.98041 14.3007 5.80823 14.6432C6.44041 22.9143 7.03309 31.1854 7.84967 39.4302C7.92869 40.2467 8.09991 42.0116 8.1921 42.8282C8.52136 43.0126 9.20623 43.0126 9.48282 43.0257C18.5442 43.6316 27.7109 43.6316 36.7722 43.0257C37.062 42.9994 37.7337 42.9994 38.063 42.8282C38.1551 42.0248 38.3264 40.2204 38.4054 39.4302C39.2088 31.1722 39.8146 22.9011 40.4468 14.6432C39.2746 14.3007 38.1025 13.9978 36.8381 13.708C37.2464 12.1803 37.3122 10.4286 37.0093 9.08517C35.521 10.3232 33.7693 11.2583 32.2416 11.8378C32.0835 9.08517 31.2538 6.39838 29.7655 3.86963C26.7363 6.16131 24.7475 7.8208 23.1275 11.1398C21.4944 7.8208 19.5188 6.16131 16.4764 3.86963H16.4896Z"
		fill="#9478CF"/>
	<path
		d="M16.4896 3.86963C16.7135 7.54422 17.6354 11.6271 19.3739 13.3393C17.0559 13.089 15.8179 12.8124 14.0267 11.8378C12.4857 11.2583 10.7472 10.31 9.24575 9.08517C10.0492 11.5086 10.8262 13.2339 12.4199 14.9197C11.0633 14.8934 10.2862 14.4456 9.41696 13.708C8.15259 13.9978 6.98041 14.3007 5.80823 14.6432C6.44041 22.9143 7.03309 31.1854 7.84967 39.4302C7.92869 40.2467 8.09991 42.0116 8.1921 42.8282C8.52136 43.0126 9.20623 43.0126 9.48282 43.0257C14.0135 43.3287 18.5705 43.4735 23.1275 43.4735V38.5477C16.0944 39.1009 9.6672 28.0113 17.0559 20.728L15.5808 21.5445C15.3964 20.3724 15.7652 18.9104 16.2525 17.7251C17.2139 15.4202 19.769 13.708 23.1275 13.2998V11.1266C21.4944 7.80763 19.532 6.14814 16.4896 3.86963Z"
		fill="#A58DD4"/>
	<path
		d="M33.8352 14.9197C35.4156 13.2339 36.2059 11.4954 37.0093 9.07199C37.3122 10.4154 37.2464 12.1671 36.8381 13.6949C35.9688 14.4456 35.1917 14.8934 33.8352 14.9197ZM31.1616 14.2349C31.9518 14.2349 32.584 14.8802 32.584 15.6573C32.584 16.4475 31.9386 17.0797 31.1616 17.0797C30.3713 17.0797 29.7391 16.4343 29.7391 15.6573C29.7391 14.8802 30.3845 14.2349 31.1616 14.2349ZM36.3639 17.4485C36.9039 17.4485 37.3517 17.8963 37.3517 18.4363C37.3517 18.9763 36.9039 19.4241 36.3639 19.4241C35.8239 19.4241 35.3761 18.9763 35.3761 18.4363C35.3761 17.8831 35.8108 17.4485 36.3639 17.4485ZM26.8943 13.3261C28.6328 11.6271 29.5547 7.5442 29.7786 3.85645C31.2669 6.38519 32.0967 9.05882 32.2547 11.8246C30.4503 12.7993 29.2123 13.0758 26.8943 13.3261Z"
		fill="#7D5DC2"/>
	<path
		d="M10.2204 16.3026C11.5111 16.3026 12.5647 17.3563 12.5647 18.647C12.5647 19.9377 11.5111 20.9913 10.2204 20.9913C8.92964 20.9913 7.87599 19.9377 7.87599 18.647C7.87599 17.3563 8.92964 16.3026 10.2204 16.3026ZM8.70574 23.4937C9.21939 23.4937 9.64085 23.9152 9.64085 24.4289C9.64085 24.9425 9.21939 25.364 8.70574 25.364C8.19209 25.364 7.77063 24.9425 7.77063 24.4289C7.77063 23.9152 8.19209 23.4937 8.70574 23.4937Z"
		fill="#9478CF"/>
	<path
		d="M23.2856 17.5801C28.8568 17.5801 33.3743 22.0976 33.3743 27.6688C33.3743 33.2399 28.8568 37.7575 23.2856 37.7575C17.7145 37.7575 13.197 33.2399 13.197 27.6688C13.197 22.0976 17.7145 17.5801 23.2856 17.5801Z"
		fill="#D3E8EF"/>
	<path
		d="M13.4603 25.3771C14.3428 21.584 17.372 18.6075 21.1914 17.8041C25.3533 17.488 28.725 20.3987 28.725 24.363C28.725 28.3537 25.3007 31.8966 21.0993 32.2653C16.8847 32.6341 13.4735 29.7103 13.4735 25.7064C13.4603 25.601 13.4603 25.4825 13.4603 25.3771Z"
		fill="white"/>
	<path
		d="M26.3938 23.7967C29.5416 23.7967 32.0835 26.3386 32.0835 29.4864C32.0835 32.6341 29.5416 35.1761 26.3938 35.1761C23.2461 35.1761 20.7042 32.6341 20.7042 29.4864C20.7042 26.3518 23.2461 23.7967 26.3938 23.7967Z"
		fill="#EA4E64"/>
	<path
		d="M26.3938 23.7967C27.2236 23.7967 28.0138 23.9679 28.725 24.2972V24.363C28.725 28.2483 25.4851 31.7122 21.4022 32.239C20.9544 31.4225 20.691 30.4873 20.691 29.4864C20.691 26.3386 23.2329 23.7967 26.3938 23.7967Z"
		fill="#EC6277"/>
	<path
		d="M26.3938 25.7986C28.4352 25.7986 30.0947 27.4449 30.0947 29.4995C30.0947 31.541 28.4484 33.2004 26.3938 33.2004C24.3524 33.2004 22.6929 31.5541 22.6929 29.4995C22.6929 27.4581 24.3392 25.7986 26.3938 25.7986Z"
		fill="#232323"/>
	<path
		d="M26.3938 25.7986C27.1445 25.7986 27.8425 26.0225 28.422 26.4044C27.7108 28.762 25.8406 30.7639 23.4436 31.7122C22.9826 31.0932 22.706 30.3161 22.706 29.4995C22.6928 27.4581 24.3392 25.7986 26.3938 25.7986Z"
		fill="#323232"/>
	<path
		d="M22.3637 25.2323C23.6544 25.2323 24.6949 26.2728 24.6949 27.5635C24.6949 28.8542 23.6544 29.8947 22.3637 29.8947C21.0729 29.8947 20.0325 28.8542 20.0325 27.5635C20.0325 26.2728 21.0729 25.2323 22.3637 25.2323Z"
		fill="white"/>
	<path
		d="M11.4189 32.2917C14.2901 30.7112 18.61 33.477 18.2939 37.955C15.5544 37.1121 12.5911 34.5307 11.4189 32.2917Z"
		fill="#6F4BBB"/>
	<path
		d="M11.4189 32.2917C14.0267 32.3444 16.911 33.8195 18.2939 37.955C15.0144 37.5863 11.9589 35.0838 11.4189 32.2917Z"
		fill="#A58DD4"/>
	<path
		d="M12.7755 36.0321C13.1574 35.9004 14.9486 35.9399 15.0935 36.1374C15.2647 36.3745 14.7905 37.5862 14.2901 38.3764C13.6315 37.8496 13.0915 37.1252 12.7755 36.0321Z"
		fill="#7D5DC2"/>
	<path
		d="M12.2487 35.5975C12.6306 35.4658 14.4218 35.5053 14.5667 35.7029C14.7379 35.9399 14.2638 37.1516 13.7633 37.9419C13.1047 37.415 12.5648 36.6907 12.2487 35.5975Z"
		fill="white"/>
	<path
		d="M12.7886 34.9786C12.9071 37.5205 16.2261 39.9702 19.3738 39.0615C19.5451 39.799 19.0446 40.2336 18.5309 40.339C15.6729 40.5892 12.9203 38.7849 12.0115 36.48C11.7481 35.8478 12.0378 35.0576 12.7886 34.9786Z"
		fill="#6F4BBB"/>
	<path
		d="M12.2486 39.7463C13.0389 41.2346 14.2769 41.9326 15.6335 42.1565C13.6974 43.0258 11.9852 41.8667 12.2486 39.7463Z"
		fill="#6F4BBB"/>
	<path
		d="M13.5525 40.1019C15.1066 40.9711 16.5817 41.2477 18.2939 41.0897C17.0427 41.9194 14.593 42.0116 13.5525 40.1019Z"
		fill="#9478CF"/>
	<path
		d="M26.7758 14.7221C23.6544 9.32222 15.4359 12.47 16.2657 18.5284C18.3203 15.1304 22.2846 14.0241 26.7758 14.7221Z"
		fill="#5F3EA7"/>
	<path
		d="M26.7758 14.7221C25.0109 11.6797 21.2968 11.4821 18.8076 13.1548C18.7944 13.866 19.0051 14.3797 19.3871 14.7879C21.4022 13.8133 24.0363 13.4182 26.7758 14.7221Z"
		fill="#6F4BBB"/>
	<path
		d="M43.1204 35.255C46.3999 35.255 49.0867 37.8891 49.0867 41.1818C49.0867 44.4744 46.3999 47.1085 43.1204 47.1085C39.841 47.1085 37.1542 44.4744 37.1542 41.1818C37.1542 37.8891 39.841 35.255 43.1204 35.255Z"
		fill="#6F4BBB"/>
	<path
		d="M43.1204 36.1243C45.9389 36.1243 48.2175 38.3896 48.2175 41.1686C48.2175 43.9608 45.9389 46.2129 43.1204 46.2129C40.3019 46.2129 38.0234 43.9476 38.0234 41.1686C38.0234 38.3896 40.3151 36.1243 43.1204 36.1243Z"
		fill="#9478CF"/>
	<path
		d="M43.1205 36.1243C45.1224 36.1243 46.8477 37.2701 47.6907 38.9296C47.8751 41.5637 44.6614 43.4998 42.5146 42.591C40.9342 41.7349 39.841 40.0623 39.841 38.1525C39.841 37.8364 39.8673 37.5335 39.9332 37.2306C40.8156 36.5457 41.922 36.1243 43.1205 36.1243Z"
		fill="#A58DD4"/>
	<path
		d="M41.0395 40.3916C40.8024 39.6672 43.5156 38.7584 43.7658 39.4828L46.4526 47.53C46.6897 48.2544 43.9765 49.1632 43.7263 48.4388L41.0395 40.3916Z"
		fill="#2B3039"/>
	<path
		d="M44.938 39.575C43.8712 40.2335 42.9888 40.8789 42.3566 42.0774C43.2653 43.1837 44.4639 43.7896 45.7809 43.6315C46.8477 42.2881 46.2946 40.7472 44.938 39.575Z"
		fill="#5F3EA7"/>
	<path
		d="M45.7677 41.4189C45.6097 40.958 45.3199 40.5233 44.9511 40.1019C44.1346 40.6287 43.4629 41.195 42.9492 42.0116C43.5156 42.0643 44.398 41.9194 45.7677 41.4189Z"
		fill="#6F4BBB"/>
	<path
		d="M45.9653 42.8018C44.8985 43.4603 44.016 44.1057 43.3839 45.3042C44.2926 46.4106 45.4911 47.0164 46.8082 46.8584C47.875 45.515 47.3219 43.974 45.9653 42.8018Z"
		fill="#5F3EA7"/>
	<path
		d="M46.7951 44.5139C46.637 44.0529 46.3473 43.6183 45.9785 43.1968C45.1619 43.7237 44.4902 44.29 43.9766 45.1066C44.5429 45.1724 45.4253 45.0144 46.7951 44.5139Z"
		fill="#6F4BBB"/>
	<path
		d="M40.4073 43.1179C41.4215 42.8676 42.3171 42.7096 43.4102 43.0257C43.5419 44.211 43.2127 45.291 42.3566 45.9759C40.9341 45.8573 40.3283 44.6193 40.4073 43.1179Z"
		fill="#5F3EA7"/>
	<path
		d="M41.0264 44.5535C40.842 44.1847 40.7498 43.7633 40.7103 43.3023C41.5005 43.1179 42.2249 43.0389 43.0283 43.2101C42.7385 43.5921 42.1327 44.0267 41.0264 44.5535Z"
		fill="#6F4BBB"/>
	<path
		d="M38.379 21.3206C32.9922 21.6235 28.8699 26.2464 29.1728 31.6332C29.4757 37.0199 34.0986 41.1423 39.4853 40.8394C44.8721 40.5365 48.9945 35.9136 48.6916 30.5268C48.3886 25.1401 43.7789 21.0177 38.379 21.3206Z"
		fill="#393F4C"/>
	<path
		d="M38.458 22.5322C33.743 22.7956 30.1211 26.8521 30.3845 31.5804C30.6479 36.2954 34.7044 39.9173 39.4327 39.6407C44.1477 39.3773 47.7696 35.3208 47.5062 30.5926C47.2296 25.8775 43.1863 22.2556 38.458 22.5322Z"
		fill="#D3E8EF"/>
	<path
		d="M45.4516 35.321C46.3209 33.9776 46.795 32.3576 46.7028 30.6323C46.5053 27.2211 44.1477 24.4421 41.0263 23.586C40.7761 26.5362 40.5127 29.4337 40.2361 32.4103C41.2766 32.8317 43.9634 34.1751 45.4516 35.321Z"
		fill="white"/>
	<path
		d="M38.3263 23.4806C34.2171 23.7177 31.0694 27.2342 31.3196 31.3435C31.3591 31.923 31.4513 32.4893 31.6094 33.0161C31.5962 32.8976 31.583 32.7791 31.583 32.6473C31.3196 27.8796 34.9547 23.7967 39.7224 23.5201H39.7619C39.301 23.4806 38.8137 23.4543 38.3263 23.4806Z"
		fill="white"/>
	<path
		d="M31.6094 35.5184C31.7674 35.7818 31.9386 36.0321 32.123 36.2692L34.6518 32.7658L40.4732 35.1892L43.8448 28.2219L47.2297 28.8673C47.1375 28.5512 47.0453 28.2351 46.9267 27.9322L43.3707 27.2473L40.0649 34.0828L34.3752 31.7121L31.6094 35.5184Z"
		fill="#999999"/>
	<path
		d="M34.4016 30.4742C35.3762 30.4215 36.2059 31.159 36.2586 32.1336C36.3113 33.1083 35.5737 33.938 34.5991 33.9907C33.6245 34.0434 32.7947 33.3058 32.7421 32.3312C32.6762 31.3698 33.4269 30.54 34.4016 30.4742Z"
		fill="#1EC185"/>
	<path
		d="M43.5024 25.983C44.477 25.9303 45.3067 26.6679 45.3594 27.6425C45.4121 28.6171 44.6746 29.4469 43.6999 29.4995C42.7253 29.5522 41.8956 28.8147 41.8429 27.8401C41.777 26.8654 42.5278 26.0357 43.5024 25.983Z"
		fill="#EA4E64"/>
	<path
		d="M40.157 32.8842C41.1317 32.8316 41.9614 33.5691 42.0141 34.5437C42.0668 35.5184 41.3292 36.3481 40.3546 36.4008C39.38 36.4535 38.5502 35.7159 38.4976 34.7413C38.4317 33.7667 39.1824 32.9369 40.157 32.8842Z"
		fill="#FF893A"/>
	<g clip-path="url(#clip0)">
		<path
			d="M150.527 23.5667C149.748 22.8078 149.359 21.7642 149.359 20.7206C143.129 20.436 136.9 20.6257 130.281 21.3847C129.795 21.4796 129.405 21.7642 129.308 22.0488C129.211 22.4283 129.6 22.618 129.697 22.618C132.52 23.8514 133.98 24.5155 136.608 26.0334C136.803 26.1283 137.095 26.2232 137.387 26.2232C138.749 26.1283 140.015 26.0334 141.28 26.0334C145.368 25.9385 149.456 26.0334 153.349 26.5078L150.527 23.5667Z"
			fill="#4FD6F6"/>
		<path
			d="M157.048 30.2077L155.88 29.0693C151.5 28.4052 147.023 28.1205 142.545 28.2154C142.156 28.2154 141.767 28.4052 141.669 28.6898C141.572 28.9744 141.767 29.259 141.961 29.3539C144.297 30.9667 145.465 31.8205 147.704 33.6231C147.899 33.718 147.996 33.8129 148.191 33.8129C150.819 34.0026 152.96 34.0975 154.907 34.477L157.048 30.2077Z"
			fill="#9AE8FA"/>
		<path
			d="M153.447 16.6411C153.641 16.6411 153.933 16.6411 154.128 16.6411L163.667 17.7796L165.127 14.9334C148.385 11.7078 132.715 12.277 116.071 16.6411C115.487 16.8309 115 17.2103 115 17.5898C115 17.8744 115.389 17.9693 115.487 18.0642C118.699 18.8232 120.353 19.2975 123.371 20.3411C123.663 20.436 123.955 20.436 124.344 20.3411C130.087 19.2975 135.44 18.7283 140.891 18.5385C143.908 18.4437 146.925 18.5385 149.943 18.7283C150.721 17.495 151.987 16.736 153.447 16.6411Z"
			fill="#03C5F2"/>
		<path
			d="M187.513 24.2308C187.319 23.4718 186.735 22.9026 185.956 22.8077L174.86 21.4795L173.108 11.8026C173.011 11.0436 172.329 10.4744 171.551 10.3795C170.772 10.2847 169.993 10.6642 169.604 11.3283L164.932 20.3411L153.836 19.0129C153.057 18.918 152.279 19.2975 151.987 19.9616C151.597 20.6257 151.792 21.4795 152.279 21.9539L159.968 29.7334L154.323 40.9283C154.323 40.9283 154.323 41.0231 154.225 41.0231C154.225 41.0231 154.225 41.118 154.128 41.118V41.2129V41.3077V41.4026V41.4975V41.5924V41.6872V41.7821C154.128 41.877 154.128 41.877 154.128 41.9718C154.128 41.9718 154.128 42.0667 154.225 42.0667C154.225 42.1616 154.225 42.1616 154.323 42.2565C154.323 42.2565 154.323 42.3513 154.42 42.3513L154.517 42.4462L154.615 42.5411L154.712 42.6359C154.809 42.7308 154.907 42.7308 154.907 42.8257H155.004C155.101 42.8257 155.101 42.9206 155.199 42.9206H155.296C155.393 42.9206 155.393 42.9206 155.491 43.0154H155.588C155.685 43.0154 155.685 43.0154 155.783 43.0154C155.88 43.0154 155.88 43.0154 155.977 43.0154H156.075C156.172 43.0154 156.172 43.0154 156.269 43.0154H156.367C156.464 43.0154 156.561 43.0154 156.561 42.9206C156.561 42.9206 156.561 42.9206 156.659 42.9206C156.756 42.9206 156.853 42.8257 156.951 42.8257L167.463 36.7539L176.028 45.6718C176.32 45.9565 176.709 46.1462 177.099 46.2411C177.488 46.2411 177.78 46.2411 178.169 46.0513C178.851 45.6718 179.337 44.9129 179.143 44.1539L176.807 31.4411L186.735 25.7488C187.319 25.7488 187.708 24.9898 187.513 24.2308Z"
			fill="url(#paint0_linear)"/>
	</g>
	<path
		d="M92.0859 21.9609C93.3099 23.0026 93.9609 24.3307 94.0391 25.9453C94.1172 27.5599 93.5964 28.9271 92.4766 30.0469L84.9375 37.8594C84.6771 38.1198 84.3776 38.25 84.0391 38.25C83.7005 38.25 83.401 38.1198 83.1406 37.8594L75.6016 30.0469C74.4818 28.9271 73.9609 27.5599 74.0391 25.9453C74.1172 24.3307 74.7682 23.0026 75.9922 21.9609C77.0599 21.0495 78.2839 20.6589 79.6641 20.7891C81.0703 20.8932 82.2682 21.4531 83.2578 22.4688L84.0391 23.25L84.8203 22.4688C85.8099 21.4531 86.9948 20.8932 88.375 20.7891C89.7812 20.6589 91.0182 21.0495 92.0859 21.9609Z"
		fill="#EB5757"/>
	<defs>
		<linearGradient id="paint0_linear" x1="152.09" y1="29.3618" x2="187.719" y2="27.904"
						gradientUnits="userSpaceOnUse">
			<stop stop-color="#FF8C00"/>
			<stop offset="0.7" stop-color="#FFD200"/>
		</linearGradient>
		<clipPath id="clip0">
			<rect x="115" y="10" width="73" height="37" fill="white"/>
		</clipPath>
	</defs>
</svg>
