<svg width="240" height="39" fill="none" xmlns="http://www.w3.org/2000/svg"><path d="M36.5 14.3c-.8-.8-1.2-1.9-1.2-3-6.4-.3-12.8-.1-19.6.7-.5.1-.9.4-1 .7-.1.4.3.6.4.6 2.9 1.3 4.4 2 7.1 3.6.2.1.5.2.8.2 1.4-.1 2.7-.2 4-.2 4.2-.1 8.4 0 12.4.5l-2.9-3.1z" fill="#4FD6F6"/><path d="M43.2 21.3L42 20.1c-4.5-.7-9.1-1-13.7-.9-.4 0-.8.2-.9.5-.1.3.1.6.3.7 2.4 1.7 3.6 2.6 5.9 4.5.2.1.3.2.5.2 2.7.2 4.9.3 6.9.7l2.2-4.5z" fill="#9AE8FA"/><path d="M39.5 7h.7L50 8.2l1.5-3C34.3 1.8 18.2 2.4 1.1 7 .5 7.2 0 7.6 0 8c0 .3.4.4.5.5 3.3.8 5 1.3 8.1 2.4.3.1.6.1 1 0C15.5 9.8 21 9.2 26.6 9c3.1-.1 6.2 0 9.3.2.8-1.3 2.1-2.1 3.6-2.2z" fill="#03C5F2"/><path d="M74.5 15c-.2-.8-.8-1.4-1.6-1.5l-11.4-1.4-1.8-10.2c-.1-.8-.8-1.4-1.6-1.5-.8-.1-1.6.3-2 1l-4.8 9.5-11.4-1.4c-.8-.1-1.6.3-1.9 1-.4.7-.2 1.6.3 2.1l7.9 8.2-5.8 11.8s0 .1-.1.1c0 0 0 .1-.1.1v.9s0 .1.1.1c0 .1 0 .1.1.2 0 0 0 .1.1.1l.1.1.1.1.1.1c.1.1.2.1.2.2h.1c.1 0 .1.1.2.1h.1c.1 0 .1 0 .2.1h.9c.1 0 .2 0 .2-.1h.1c.1 0 .2-.1.3-.1l10.8-6.4 8.8 9.4c.3.3.7.5 1.1.6.4 0 .7 0 1.1-.2.7-.4 1.2-1.2 1-2l-2.4-13.4 10.2-6c.6 0 1-.8.8-1.6z" fill="url(#paint0_linear)"/><path d="M129.6 22.8c.7 0 1.2-.5 1.2-1.2 0-5.5-3.5-8.1-7.9-8.1-4.8 0-8.2 3.4-8.2 8.2 0 5 3.4 8.2 8.3 8.2 2.3 0 4.9-.8 6.5-2.4.2-.2.3-.5.3-.8 0-.6-.5-1.2-1.2-1.2-.3 0-.6.1-.8.4-1.1 1.1-3.1 1.7-4.7 1.7-3 0-5.4-1.8-5.7-4.7l12.2-.1zm-12.3-2.2c.4-3 2.8-4.7 5.6-4.7 3.1 0 5.2 1.6 5.3 4.7h-10.9zm-25.6-7c-2.3 0-4.7.9-5.8 3v-1.7c0-.7-.6-1.3-1.3-1.3-.7 0-1.3.6-1.3 1.3v21c0 .7.6 1.3 1.3 1.3.7 0 1.3-.6 1.3-1.3v-9.1c1.1 2.1 3.7 3.1 5.9 3.1 4.5 0 8-2.8 8-8.2 0-5.1-3.6-8.1-8.1-8.1zm-.1 13.9c-3.1 0-5.6-2.3-5.6-5.7 0-3.4 2.4-5.7 5.6-5.7 3.1 0 5.6 2.1 5.6 5.7-.1 3.7-2.6 5.7-5.6 5.7zm21.3-13.3c-.9-.4-1.8-.6-2.8-.6-1.9 0-3.9.7-4.9 2.4v-1.1c0-.7-.6-1.3-1.3-1.3-.7 0-1.3.6-1.3 1.3v13.8c0 .7.6 1.3 1.3 1.3.7 0 1.3-.6 1.3-1.3v-7.8c0-3 1.7-4.7 4.7-4.7.7 0 1.3.1 1.9.4.2.1.3.1.5.1.7 0 1.3-.6 1.3-1.3 0-.5-.3-1-.7-1.2zm120.3 6.2c-2-.2-3.9-.6-4-2.2 0-1.7 1.7-2.6 3.9-2.5 1 0 2.7.2 3.5.7l.7.3c.2.1.3.1.5.1.7 0 1.2-.5 1.2-1.2 0-.5-.3-.9-.8-1.1-.2-.1-.5-.2-.7-.3-1.4-.5-3-.7-4.5-.7-3 0-6.5 1.4-6.4 4.8 0 3.3 3.3 4.1 6.3 4.5 2.5.3 4.4.8 4.4 2.5-.1 2.1-2.6 2.4-4.1 2.4-1.4 0-2.9-.3-4.2-1-.2-.1-.4-.1-.6-.1-.7 0-1.3.6-1.3 1.3 0 .5.3.9.7 1.1 1.6.8 3.2 1.1 5.2 1.1 3.6 0 6.7-1.5 6.7-4.8.4-3.9-3.6-4.5-6.5-4.9zm-90.5 8.1c0-.6-.5-1.2-1.2-1.2h-.3c-.3.1-.7.1-1 .1-1.9 0-2.5-1.2-2.5-3v-8.3h3c.6 0 1.1-.5 1.1-1.1 0-.6-.5-1.1-1.1-1.1h-2.9v-3.3c0-.7-.6-1.3-1.3-1.3-.7 0-1.3.6-1.3 1.3V14h-2c-.6 0-1.1.5-1.1 1.1 0 .6.5 1.1 1.1 1.1h2v8.3c0 3.5 1.6 5.5 5 5.4.6 0 1.1-.1 1.6-.2h.1c.5-.2.8-.6.8-1.2zm11.6 0c0-.6-.5-1.2-1.2-1.2h-.3c-.3.1-.7.1-1 .1-1.9 0-2.5-1.2-2.5-3v-8.3h3.5c.6 0 1.1-.5 1.1-1.1 0-.6-.5-1.1-1.1-1.1h-3.4v-3.3c0-.7-.6-1.3-1.3-1.3-.7 0-1.3.6-1.3 1.3V14h-2c-.6 0-1.1.5-1.1 1.1 0 .6.5 1.1 1.1 1.1h2v8.3c0 3.5 1.6 5.5 5 5.4.6 0 1.1-.1 1.6-.2h.1c.5-.2.8-.6.8-1.2zm16.9-13.6c0-.7-.6-1.3-1.3-1.3-.6 0-1.1.4-1.3.9l-4.7 12.2-5.1-12.3c-.2-.5-.7-.8-1.2-.8-.7 0-1.3.6-1.3 1.3 0 .2 0 .4.1.5l6 14.1-1.5 3.8c-.8 1.7-2.1 1.6-3.5 1-.2-.1-.3-.1-.5-.1-.7 0-1.2.5-1.2 1.2 0 .5.3.9.7 1.1 2.9 1.4 5.6.9 7-2.4l7.7-18.7c.1-.1.1-.3.1-.5zm30.9-1.2c-2.1 0-3.8.7-5.3 2.7v-1.2c0-.7-.6-1.3-1.3-1.3-.7 0-1.3.6-1.3 1.3v13.5c0 .7.6 1.3 1.3 1.3.7 0 1.3-.6 1.3-1.3v-7.5c0-3.1 2.1-5.1 5-5.1 3.2 0 4.5 1.5 4.5 4.9v7.6c0 .7.6 1.3 1.3 1.3.7 0 1.3-.6 1.3-1.3V21c.1-4.7-2.2-7.3-6.8-7.3zm16.9 6.8l5.5-4.6c.2-.2.4-.5.4-.8 0-.6-.5-1.1-1.1-1.1-.3 0-.6.1-.8.3l-7.7 6.7V8.8c0-.7-.6-1.3-1.3-1.3-.7 0-1.3.6-1.3 1.3v20c0 .7.6 1.3 1.3 1.3.7 0 1.3-.6 1.3-1.3v-5.1l1.8-1.4 5.4 7.4c.2.3.6.5 1 .5.7 0 1.3-.6 1.3-1.3 0-.3-.1-.6-.3-.8l-5.5-7.6zM180.9 7.4c-.7 0-1.3.6-1.3 1.3v20c0 .7.6 1.3 1.3 1.3.7 0 1.3-.6 1.3-1.3v-20c0-.7-.5-1.3-1.3-1.3zm9.3 3.1c0-2.1-3.1-2.1-3.1 0-.1 2.1 3.1 2.1 3.1 0zm-1.7 4c-.7 0-1.3.6-1.3 1.3v12.9c0 .7.6 1.3 1.3 1.3.7 0 1.3-.6 1.3-1.3V15.8c.1-.7-.5-1.3-1.3-1.3z" fill="#fff"/><defs><linearGradient id="paint0_linear" x1="38.106" y1="20.408" x2="74.715" y2="18.948" gradientUnits="userSpaceOnUse"><stop stop-color="#FF8C00"/><stop offset=".7" stop-color="#FFD200"/></linearGradient></defs></svg>