<svg width="46" height="46" viewBox="7 7 37 37" fill="none" xmlns="http://www.w3.org/2000/svg">
<path d="M38.6831 38.6829C45.8045 31.5616 45.8045 20.0156 38.6831 12.8943C31.5618 5.77292 20.0158 5.77292 12.8945 12.8943C5.77317 20.0156 5.77317 31.5616 12.8945 38.6829C20.0158 45.8042 31.5618 45.8042 38.6831 38.6829Z" fill="#FCD801"/>
<path d="M35.3287 10.2253C37.1449 13.0598 38.1975 16.4314 38.1975 20.0468C38.1975 30.1164 30.0339 38.2821 19.9621 38.2821C16.4644 38.2821 13.1977 37.2959 10.423 35.5887C13.6641 40.6481 19.3353 44.0004 25.7896 44.0004C35.8592 44.0004 44.0249 35.8369 44.0249 25.7651C44.0249 19.1911 40.5464 13.4321 35.3308 10.2231L35.3287 10.2253Z" fill="#FCD801"/>
<path d="M10.0312 27.7119C10.0312 18.361 17.6128 10.7815 26.9615 10.7815C32.4274 10.7815 37.2858 13.3722 40.3813 17.3919C37.459 12.3154 31.9782 8.89893 25.7015 8.89893C16.3507 8.89893 8.77115 16.4784 8.77115 25.8293C8.77115 29.7142 10.0804 33.2933 12.2817 36.1492C10.8505 33.6655 10.0312 30.7839 10.0312 27.7119Z" fill="#FCD801"/>
<path d="M20.4123 21.3646C20.4123 22.6161 19.8112 23.6301 19.0688 23.6301C18.3265 23.6301 17.7254 22.6161 17.7254 21.3646C17.7254 20.1131 18.3265 19.0991 19.0688 19.0991C19.8112 19.0991 20.4123 20.1131 20.4123 21.3646Z" fill="#303030"/>
<path d="M33.849 21.3646C33.849 22.6161 33.2479 23.6301 32.5056 23.6301C31.7632 23.6301 31.1621 22.6161 31.1621 21.3646C31.1621 20.1131 31.7632 19.0991 32.5056 19.0991C33.2479 19.0991 33.849 20.1131 33.849 21.3646Z" fill="#303030"/>
<path d="M13.5349 27.5129C14.2302 33.6655 19.4479 38.449 25.7888 38.449C32.1297 38.449 37.3474 33.6655 38.0405 27.5129H13.5349Z" fill="#412B15"/>
<path d="M17.3242 35.0818C19.5319 37.1676 22.5098 38.449 25.7872 38.449C29.0646 38.449 31.7858 37.2767 33.9614 35.347L33.848 35.0818C25.6203 31.0685 17.4354 35.0261 17.3242 35.0818Z" fill="#FF5654"/>
</svg>
