<svg width="46" height="46" viewBox="7 7 37 37" fill="none" xmlns="http://www.w3.org/2000/svg">
<path d="M38.683 38.6829C45.8043 31.5616 45.8043 20.0156 38.683 12.8943C31.5616 5.77292 20.0157 5.77292 12.8943 12.8943C5.77299 20.0156 5.77298 31.5616 12.8943 38.6829C20.0157 45.8042 31.5616 45.8042 38.683 38.6829Z" fill="#FCD801"/>
<path d="M18.313 28.5475C17.8423 28.0918 17.0914 28.5967 17.3332 29.2043C18.6809 32.5715 21.9712 34.9483 25.8197 34.9483C29.6683 34.9483 32.8495 32.6485 34.2357 29.3711C34.4882 28.7743 33.7308 28.2565 33.2645 28.7079C30.5968 31.2943 24.9298 34.9761 18.313 28.5475Z" fill="#303030"/>
<path d="M21.0799 23.1758C20.5643 21.8858 19.3321 21.0515 17.9437 21.0515C16.5553 21.0515 15.3637 21.8602 14.8332 23.1138C14.7326 23.3534 14.8118 23.6251 15.0278 23.7727C15.2439 23.9203 15.5241 23.8968 15.7124 23.7149C16.7243 22.733 18.3245 21.9457 20.1985 23.7684C20.3033 23.8711 20.4402 23.9246 20.5772 23.9246C20.682 23.9246 20.7868 23.8946 20.8809 23.8305C21.097 23.6871 21.1783 23.4176 21.082 23.1758H21.0799Z" fill="#303030"/>
<path d="M36.7454 23.1758C36.2298 21.8858 34.9976 21.0515 33.6092 21.0515C32.2208 21.0515 31.0292 21.8602 30.4986 23.1117C30.396 23.3513 30.4773 23.6229 30.6912 23.7706C30.9072 23.9182 31.1875 23.8946 31.3758 23.7128C32.3876 22.7309 33.9857 21.9436 35.8618 23.7663C35.9667 23.869 36.1036 23.9224 36.2405 23.9224C36.3453 23.9224 36.4501 23.8925 36.5443 23.8283C36.7603 23.685 36.8416 23.4154 36.7454 23.1737V23.1758Z" fill="#303030"/>
<path d="M12.381 31.6517C14.139 31.6517 15.5642 30.2265 15.5642 28.4684C15.5642 26.7104 14.139 25.2852 12.381 25.2852C10.6229 25.2852 9.19769 26.7104 9.19769 28.4684C9.19769 30.2265 10.6229 31.6517 12.381 31.6517Z" fill="#FF5654"/>
<path d="M39.1929 31.6517C40.951 31.6517 42.3762 30.2265 42.3762 28.4684C42.3762 26.7104 40.951 25.2852 39.1929 25.2852C37.4348 25.2852 36.0096 26.7104 36.0096 28.4684C36.0096 30.2265 37.4348 31.6517 39.1929 31.6517Z" fill="#FF5654"/>
</svg>
