<svg width="46" height="46" viewBox="7 7 37 37" fill="none" xmlns="http://www.w3.org/2000/svg">
<path d="M38.683 38.6829C45.8043 31.5616 45.8043 20.0156 38.683 12.8943C31.5616 5.77292 20.0157 5.77292 12.8943 12.8943C5.77299 20.0156 5.77298 31.5616 12.8943 38.6829C20.0157 45.8042 31.5616 45.8042 38.683 38.6829Z" fill="#FCD801"/>
<path d="M20.4118 21.3651C20.4118 22.6166 19.8106 23.6306 19.0683 23.6306C18.326 23.6306 17.7248 22.6166 17.7248 21.3651C17.7248 20.1136 18.326 19.0996 19.0683 19.0996C19.8106 19.0996 20.4118 20.1136 20.4118 21.3651Z" fill="#303030"/>
<path d="M33.8487 21.3651C33.8487 22.6166 33.2475 23.6306 32.5052 23.6306C31.7629 23.6306 31.1617 22.6166 31.1617 21.3651C31.1617 20.1136 31.7629 19.0996 32.5052 19.0996C33.2475 19.0996 33.8487 20.1136 33.8487 21.3651Z" fill="#303030"/>
<path d="M36.5575 17.5419C36.3607 17.4842 36.1703 17.4307 35.9842 17.3793C35.5735 17.2638 35.1884 17.1568 34.814 17.0263C34.2557 16.8381 33.7529 16.6242 33.278 16.3739C32.7774 16.1086 32.3239 15.8155 31.8896 15.4732C31.4147 15.1053 30.974 14.6731 30.5675 14.2624C30.544 14.2389 30.5098 14.2324 30.4798 14.2453C30.4499 14.2581 30.4306 14.2881 30.4327 14.3223C30.4627 14.9448 30.7087 15.5887 31.1451 16.1835C31.543 16.7226 32.0779 17.1761 32.6876 17.4949C33.263 17.7965 33.9048 17.9826 34.5509 18.0297C34.5766 18.0297 34.6001 18.034 34.6258 18.034C35.351 18.0725 36.0035 17.9569 36.5704 17.6895C36.6003 17.6746 36.6174 17.6446 36.6153 17.6125C36.6132 17.5804 36.5896 17.5526 36.5575 17.5419Z" fill="#303030"/>
<path d="M15.0167 17.5419C15.2136 17.4842 15.404 17.4307 15.5901 17.3793C16.0008 17.2638 16.3859 17.1568 16.7603 17.0263C17.3186 16.8381 17.8214 16.6242 18.2963 16.3739C18.7969 16.1086 19.2504 15.8155 19.6847 15.4732C20.1596 15.1053 20.6003 14.6731 21.0068 14.2624C21.0303 14.2389 21.0645 14.2324 21.0945 14.2453C21.1244 14.2581 21.1437 14.2881 21.1415 14.3223C21.1116 14.9448 20.8656 15.5887 20.4291 16.1835C20.0312 16.7226 19.4964 17.1761 18.8867 17.4949C18.3112 17.7965 17.6695 17.9826 17.0234 18.0297C16.9977 18.0297 16.9742 18.034 16.9485 18.034C16.2233 18.0725 15.5708 17.9569 15.0039 17.6895C14.974 17.6746 14.9568 17.6446 14.959 17.6125C14.9611 17.5804 14.9846 17.5526 15.0167 17.5419Z" fill="#303030"/>
<path d="M29.6377 28.5529C28.6001 27.6544 27.1946 27.1474 25.787 27.173C24.4028 27.1773 23.0102 27.6843 21.9619 28.5593C21.4335 29.0064 20.9907 29.5519 20.6826 30.1424C20.3574 30.782 20.1884 31.4281 20.182 32.0592C20.182 32.2111 20.2761 32.3459 20.4173 32.3951C20.5607 32.4443 20.719 32.3972 20.811 32.2774C21.1896 31.7896 21.5469 31.4003 21.9041 31.0922C22.2892 30.7649 22.6978 30.4932 23.1192 30.2814C23.96 29.8621 24.8863 29.6375 25.8019 29.6332C26.7411 29.6268 27.631 29.8365 28.4525 30.2643C29.2975 30.6965 30.0741 31.3746 30.7587 32.2753C30.8271 32.3651 30.9319 32.4143 31.0389 32.4143C31.0774 32.4143 31.1159 32.4079 31.1544 32.3951C31.2978 32.3459 31.394 32.2089 31.3919 32.0571C31.3726 30.7842 30.7159 29.4749 29.6355 28.5508L29.6377 28.5529Z" fill="#303030"/>
<path d="M34.1135 24.8027C28.7118 30.981 29.3108 34.5237 29.3108 34.5237C29.3108 37.1764 31.4608 39.3264 34.1135 39.3264C36.7662 39.3264 38.9162 37.1764 38.9162 34.5237C38.9162 34.5237 39.5152 30.981 34.1135 24.8027Z" fill="#489BE8"/>
</svg>
