<svg width="46" height="46" viewBox="7 7 37 37" fill="none" xmlns="http://www.w3.org/2000/svg">
<path d="M38.683 38.6829C45.8043 31.5616 45.8043 20.0156 38.683 12.8943C31.5616 5.77292 20.0157 5.77292 12.8943 12.8943C5.77298 20.0156 5.77298 31.5616 12.8943 38.6829C20.0157 45.8042 31.5616 45.8042 38.683 38.6829Z" fill="#FCD801"/>
<path d="M19.2099 34.7251H33.6477" stroke="#303030" stroke-width="2.56715" stroke-linecap="round"/>
<path d="M14.3956 21.1725C14.3956 20.9414 14.4983 20.7147 14.693 20.5628C15.0288 20.2996 15.5144 20.3617 15.7776 20.6976L17.827 23.3267L19.4251 20.6077C19.6411 20.2397 20.1161 20.1178 20.484 20.3339C20.852 20.5499 20.9739 21.0249 20.7578 21.3928L18.5822 25.0916C18.4517 25.312 18.2228 25.4553 17.9661 25.4703C17.7115 25.4874 17.4633 25.3762 17.305 25.1751L14.556 21.6474C14.4469 21.5062 14.3935 21.3393 14.3935 21.1725L14.3956 21.1725Z" fill="#303030"/>
<path d="M37.1817 21.1702C37.1817 21.337 37.1282 21.5039 37.0191 21.6451L34.2701 25.1728C34.1118 25.3739 33.8658 25.4851 33.6091 25.468C33.3545 25.4509 33.1234 25.3097 32.993 25.0893L30.8173 21.3905C30.6012 21.0225 30.7232 20.5498 31.0911 20.3316C31.4591 20.1155 31.9319 20.2374 32.1501 20.6054L33.7481 23.3244L35.7976 20.6952C36.0607 20.3594 36.5463 20.2973 36.8822 20.5605C37.0769 20.7123 37.1795 20.9413 37.1795 21.1702L37.1817 21.1702Z" fill="#303030"/>
</svg>
