<svg width="46" height="46" viewBox="7 7 37 37" fill="none" xmlns="http://www.w3.org/2000/svg">
<path d="M38.683 38.6829C45.8043 31.5616 45.8043 20.0156 38.683 12.8943C31.5616 5.77292 20.0157 5.77292 12.8943 12.8943C5.77298 20.0156 5.77298 31.5616 12.8943 38.6829C20.0157 45.8042 31.5616 45.8042 38.683 38.6829Z" fill="#FCD801"/>
<path d="M20.4149 21.3639C20.4149 22.6154 19.8137 23.6294 19.0714 23.6294C18.3291 23.6294 17.7279 22.6154 17.7279 21.3639C17.7279 20.1124 18.3291 19.0984 19.0714 19.0984C19.8137 19.0984 20.4149 20.1124 20.4149 21.3639Z" fill="#303030"/>
<path d="M33.8492 21.3639C33.8492 22.6154 33.2481 23.6294 32.5057 23.6294C31.7634 23.6294 31.1623 22.6154 31.1623 21.3639C31.1623 20.1124 31.7634 19.0984 32.5057 19.0984C33.2481 19.0984 33.8492 20.1124 33.8492 21.3639Z" fill="#303030"/>
<path d="M36.5585 17.5412C36.3617 17.4834 36.1713 17.4299 35.9852 17.3786C35.5744 17.2631 35.1894 17.1561 34.815 17.0256C34.2566 16.8374 33.7539 16.6234 33.279 16.3731C32.7784 16.1079 32.3249 15.8148 31.8906 15.4725C31.4157 15.1045 30.975 14.6724 30.5685 14.2617C30.545 14.2381 30.5107 14.2317 30.4808 14.2445C30.4508 14.2574 30.4316 14.2873 30.4337 14.3216C30.4637 14.9441 30.7097 15.588 31.1461 16.1827C31.544 16.7218 32.0788 17.1754 32.6885 17.4941C33.264 17.7958 33.9058 17.9819 34.5519 18.0289C34.5775 18.0289 34.6011 18.0332 34.6267 18.0332C35.352 18.0717 36.0044 17.9562 36.5714 17.6888C36.6013 17.6738 36.6184 17.6439 36.6163 17.6118C36.6141 17.5797 36.5906 17.5519 36.5585 17.5412Z" fill="#303030"/>
<path d="M15.0163 17.5412C15.2131 17.4834 15.4035 17.4299 15.5896 17.3786C16.0004 17.2631 16.3855 17.1561 16.7598 17.0256C17.3182 16.8374 17.8209 16.6234 18.2958 16.3731C18.7964 16.1079 19.25 15.8148 19.6842 15.4725C20.1592 15.1045 20.5999 14.6724 21.0063 14.2617C21.0299 14.2381 21.0641 14.2317 21.094 14.2445C21.124 14.2574 21.1432 14.2873 21.1411 14.3216C21.1112 14.9441 20.8651 15.588 20.4287 16.1827C20.0308 16.7218 19.496 17.1754 18.8863 17.4941C18.3108 17.7958 17.669 17.9819 17.023 18.0289C16.9973 18.0289 16.9738 18.0332 16.9481 18.0332C16.2229 18.0717 15.5704 17.9562 15.0035 17.6888C14.9735 17.6738 14.9564 17.6439 14.9586 17.6118C14.9607 17.5797 14.9842 17.5519 15.0163 17.5412Z" fill="#303030"/>
<path d="M18.8937 33.635C18.7033 33.6564 18.5942 33.4211 18.5963 33.2457C18.6049 32.4349 18.8209 31.607 19.2381 30.7855C19.6339 30.0303 20.2008 29.3286 20.8789 28.7553C22.2245 27.63 24.013 26.9818 25.7865 26.9754C27.592 26.9412 29.3955 27.5915 30.7282 28.7446C32.1124 29.9276 32.9552 31.6091 32.9809 33.2414C32.983 33.4275 32.859 33.6692 32.6515 33.6307C32.4803 33.6008 32.3413 33.3676 32.215 33.2628C32.0204 33.1002 31.8193 32.9483 31.6118 32.8028C31.1989 32.5119 30.7667 32.2509 30.3196 32.0134C28.6767 31.1363 26.8155 30.6635 24.95 30.8261C23.7627 30.9288 22.6096 31.2861 21.5507 31.8295C20.9153 32.1546 20.312 32.544 19.7451 32.9783C19.529 33.143 19.1761 33.5837 18.9108 33.635C18.9044 33.635 18.9001 33.635 18.8937 33.6372V33.635Z" fill="#303030"/>
</svg>
