<?xml version="1.0" encoding="utf-8"?>
<!-- Generator: Adobe Illustrator 26.5.0, SVG Export Plug-In . SVG Version: 6.00 Build 0)  -->
<svg version="1.1" id="Layer_1" xmlns="http://www.w3.org/2000/svg" xmlns:xlink="http://www.w3.org/1999/xlink" x="0px" y="0px"
	 viewBox="0 0 25 25" style="enable-background:new 0 0 25 25;" xml:space="preserve">
<style type="text/css">
	.st0{fill:#2579C0;}
</style>
<path class="st0" d="M22.6,0.3H2.4c-1,0-1.9,0.8-1.9,1.9v16.3c0,1,0.8,1.9,1.9,1.9h2.5v3.6c0,0.7,0.9,1.1,1.4,0.6l4.9-4.2h11.4
	c1,0,1.9-0.8,1.9-1.9V2.1C24.5,1.1,23.6,0.3,22.6,0.3z M15.4,10.3c-1.7,1.7-3.4,3.4-5.1,5.1c-0.2,0.2-2.3,0.8-3.2,0.9
	c-0.5,0.2-0.8,0-0.6-0.6c0.2-0.9,0.6-3.2,0.8-3.4c1.7-1.9,3.5-3.5,5.4-5.4c0.9,1.1,2,2.2,2.9,3.2L15.4,10.3z M18.7,7.4
	c-0.4,0.4-1.6,1.5-1.8,1.6c-1.1-1.2-2-2.1-3.1-3.2c0.6-0.6,1.1-1.1,1.7-1.5c0.5-0.3,1.2-0.3,1.7,0.2c0.5,0.5,0.9,0.9,1.3,1.3
	C19.1,6.3,19.3,6.7,18.7,7.4z"/>
</svg>
