<svg xmlns="http://www.w3.org/2000/svg" width="81" height="81" fill="none"><circle cx="40.5" cy="40.5" r="38" fill="#338EEF" stroke="#D4ECF8" stroke-width="5"/><path fill="#FEFEFF" fill-rule="evenodd" d="M47.084 64H33.647V53.228C29.64 50.9 26.93 46.577 26.93 41.605c0-7.412 6.024-13.436 13.437-13.436 7.412 0 13.436 6.024 13.436 13.436 0 4.972-2.71 9.294-6.718 11.623V64Zm-8.958-4.479v-8.868l-2.24-1.299a8.971 8.971 0 0 1-4.478-7.749 8.955 8.955 0 0 1 8.957-8.957 8.955 8.955 0 0 1 8.958 8.957c0 3.18-1.724 6.137-4.479 7.749l-2.24 1.299v8.868h-4.478Zm20.156-15.564H65v-4.479h-6.718v4.479Zm1.007-18.117-3.157-3.158-4.009 4.031 3.158 3.158 4.008-4.031Zm-16.684-2.038h-4.479v-6.719h4.479v6.719ZM22.45 43.957H15.73v-4.479h6.719v4.479Zm2.172-21.298 4.009 4.031-3.136 3.136-4.03-4.009 3.157-3.158Z" clip-rule="evenodd"/></svg>