<svg width="685" height="164" viewBox="0 0 685 164" fill="none" xmlns="http://www.w3.org/2000/svg" style="opacity: 20%;">
    <rect width="33.3515" height="62.476" transform="matrix(-1 7.59524e-08 1.00625e-07 1 424.282 101.524)" fill="#FBFCFF"/>
    <rect width="33.3515" height="62.476" transform="matrix(-1 7.59524e-08 1.00625e-07 1 684.909 101.524)" fill="#FBFCFF"/>
    <rect width="33.3515" height="126.904" transform="matrix(-1 7.59524e-08 1.00625e-07 1 380.823 37.0957)" fill="#FBFCFF"/>
    <rect width="33.3515" height="126.904" transform="matrix(-1 7.59524e-08 1.00625e-07 1 641.451 37.0955)" fill="#FBFCFF"/>
    <rect width="33.3515" height="103.476" transform="matrix(-1 7.59524e-08 1.00625e-07 1 337.366 60.5242)" fill="#FBFCFF"/>
    <rect width="33.3515" height="103.476" transform="matrix(-1 7.59524e-08 1.00625e-07 1 597.993 60.5242)" fill="#FBFCFF"/>
    <rect width="33.3515" height="163.999" transform="matrix(-1 7.59524e-08 1.00625e-07 1 293.907 0)" fill="#FBFCFF"/>
    <rect width="33.3515" height="163.999" transform="matrix(-1 7.59524e-08 1.00625e-07 1 554.535 0)" fill="#FBFCFF"/>
    <rect width="34.3621" height="46.857" transform="matrix(-1 7.59524e-08 1.00625e-07 1 251.459 117.143)" fill="#FBFCFF"/>
    <rect width="34.3621" height="46.857" transform="matrix(-1 7.59524e-08 1.00625e-07 1 512.087 117.143)" fill="#FBFCFF"/>
    <rect width="34.3621" height="62.476" transform="matrix(-1 7.59524e-08 1.00625e-07 1 208.001 101.524)" fill="#FBFCFF"/>
    <rect width="34.3621" height="62.476" transform="matrix(-1 7.59524e-08 1.00625e-07 1 468.63 101.524)" fill="#FBFCFF"/>
    <rect width="33.3515" height="126.904" transform="matrix(-1 7.59524e-08 1.00625e-07 1 164.543 37.0957)" fill="#FBFCFF"/>
    <rect width="33.3515" height="103.476" transform="matrix(-1 7.59524e-08 1.00625e-07 1 121.085 60.5242)" fill="#FBFCFF"/>
    <rect width="33.3515" height="163.999" transform="matrix(-1 7.59524e-08 1.00625e-07 1 77.6274 0)" fill="#FBFCFF"/>
    <rect width="33.3515" height="46.857" transform="matrix(-1 7.59524e-08 1.00625e-07 1 34.1694 117.143)" fill="#FBFCFF"/>
</svg>
