<svg xmlns="http://www.w3.org/2000/svg" width="45" height="45" fill="none"><circle cx="22.5" cy="22.5" r="22.5" fill="#fff"/><path fill="#0EA6E9" fill-rule="evenodd" d="M18.643 22.5c2.482 0 4.5-2.019 4.5-4.5s-2.018-4.5-4.5-4.5a4.505 4.505 0 0 0-4.5 4.5c0 2.481 2.019 4.5 4.5 4.5Zm0-6.429c1.067 0 1.929.862 1.929 1.929a1.926 1.926 0 0 1-1.929 1.929A1.926 1.926 0 0 1 16.715 18c0-1.067.86-1.929 1.928-1.929ZM13.204 28.93h5.503a3.513 3.513 0 0 0-.064.642V31.5h-9v-1.929c0-2.995 5.991-4.5 9-4.5.72 0 1.607.09 2.546.258-.913.617-1.672 1.388-2.109 2.327-.07 0-.144-.003-.218-.007a5.13 5.13 0 0 0-.219-.006c-1.967 0-4.166.643-5.439 1.286Zm15.082-3.215c-2.366 0-7.072 1.299-7.072 3.857V31.5h14.143v-1.929c0-2.558-4.705-3.857-7.071-3.857Zm3.214-5.143c0 1.209-.681 2.25-1.658 2.803-.463.257-.99.412-1.556.412a3.191 3.191 0 0 1-1.556-.412c-.977-.553-1.658-1.594-1.658-2.803a3.215 3.215 0 0 1 6.428 0Z" clip-rule="evenodd"/></svg>