<svg width="20" height="26" viewBox="0 0 20 26" fill="currentColor" xmlns="http://www.w3.org/2000/svg">
    <path d="M0 3C0 1.625 1.125 0.5 2.5 0.5H17.5C18.163 0.5 18.7989 0.763392 19.2678 1.23223C19.7366 1.70107 20 2.33696 20 3V23C20 23.663 19.7366 24.2989 19.2678 24.7678C18.7989 25.2366 18.163 25.5 17.5 25.5H2.5C1.83696 25.5 1.20107 25.2366 0.732233 24.7678C0.263392 24.2989 0 23.663 0 23V3ZM2.5 3V20.5H17.5V3H2.5ZM10 24.25C10.3315 24.25 10.6495 24.1183 10.8839 23.8839C11.1183 23.6495 11.25 23.3315 11.25 23C11.25 22.6685 11.1183 22.3505 10.8839 22.1161C10.6495 21.8817 10.3315 21.75 10 21.75C9.66848 21.75 9.35054 21.8817 9.11612 22.1161C8.8817 22.3505 8.75 22.6685 8.75 23C8.75 23.3315 8.8817 23.6495 9.11612 23.8839C9.35054 24.1183 9.66848 24.25 10 24.25Z" fill="#FFFFFF"/>
</svg>
