<svg width="242" height="237" viewBox="0 0 242 237" fill="none" xmlns="http://www.w3.org/2000/svg">
    <path d="M174.86 199.062H132.2V236.397H174.081C180.704 233.476 186.158 229.32 190.119 224.45C188.561 216.399 182.782 205.88 174.86 199.062Z" fill="#6F4BBB"/>
    <path d="M172.393 202.178C178.042 208.022 183.626 215.099 185.509 223.151C182.133 227.177 177.717 230.293 172.977 232.566H137.135V202.178H172.393Z" fill="#7D5DC2"/>
    <path d="M182.261 214.905C183.365 216.463 185.443 222.762 185.573 223.151C182.196 227.177 177.781 230.294 173.041 232.566H153.951V216.268C163.366 216.203 172.781 215.749 182.261 214.905Z" fill="#9478CF"/>
    <path d="M175.055 228.476C170.64 229.97 168.562 232.762 167.913 236.398H183.302C182.263 233.281 179.341 229.45 175.055 228.476Z" fill="#5F3EA7"/>
    <path d="M175.119 230.164C177.522 230.813 179.535 232.696 180.833 234.839H175.054V230.164H175.119Z" fill="#6F4BBB"/>
    <path d="M159.862 227.567C153.953 229.19 151.096 233.151 150.382 236.398H170.9C169.536 232.956 165.381 228.346 159.862 227.567Z" fill="#5F3EA7"/>
    <path d="M159.991 229.191C163.237 229.775 166.419 232.048 168.302 234.84H159.861V229.191H159.991Z" fill="#6F4BBB"/>
    <path d="M81.0348 199.062H123.695V236.397H81.8139C75.1909 233.476 69.7367 229.32 65.7758 224.45C67.2693 216.399 73.0482 205.88 81.0348 199.062Z" fill="#6F4BBB"/>
    <path d="M83.4362 202.178C77.7872 208.022 72.203 215.099 70.32 223.151C73.6965 227.177 78.1118 230.293 82.8518 232.566H118.694V202.178H83.4362Z" fill="#7D5DC2"/>
    <path d="M73.6317 214.905C72.5279 216.463 70.4501 222.762 70.3202 223.151C73.6966 227.177 78.112 230.294 82.852 232.566H101.942V216.268C92.5268 216.203 83.0468 215.749 73.6317 214.905Z" fill="#9478CF"/>
    <path d="M80.774 228.476C85.1894 229.97 87.2672 232.762 87.9165 236.398H72.5277C73.5666 233.281 76.4885 229.45 80.774 228.476Z" fill="#5F3EA7"/>
    <path d="M80.7088 230.164C78.3063 230.813 76.2934 232.696 74.9948 234.839H80.7737V230.164H80.7088Z" fill="#6F4BBB"/>
    <path d="M95.9673 227.567C101.876 229.19 104.733 233.151 105.447 236.398H84.9289C86.2925 232.956 90.4481 228.346 95.9673 227.567Z" fill="#5F3EA7"/>
    <path d="M95.9024 229.191C92.6558 229.775 89.4741 232.048 87.5911 234.84H96.0322V229.191H95.9024Z" fill="#6F4BBB"/>
    <path d="M241.999 210.554C241.739 217.372 240.181 222.696 237.194 226.008C232.519 225.618 228.558 220.424 226.74 215.943C229.467 211.203 234.792 209.061 241.999 210.554Z" fill="#5F3EA7"/>
    <path d="M239.598 212.438C239.468 216.399 238.429 220.49 236.286 223.477L234.468 212.698C236.092 212.308 237.845 212.308 239.598 212.438Z" fill="#6F4BBB"/>
    <path d="M230.183 214.191C229.729 220.294 228.949 225.684 225.118 231.138C218.236 229.645 212.846 225.814 210.574 219.71C213.95 211.983 222.002 210.944 230.183 214.191Z" fill="#5F3EA7"/>
    <path d="M224.143 228.54L219.533 214.969C222.13 214.45 225.052 214.84 227.844 215.749C227.389 220.359 226.61 224.449 224.143 228.54Z" fill="#6F4BBB"/>
    <path d="M207.585 219.19C206.416 226.138 199.858 229.58 196.546 229.385C195.053 226.852 193.559 223.541 193.559 219.58L196.416 217.178C200.767 216.333 205.377 216.658 207.585 219.19Z" fill="#5F3EA7"/>
    <path d="M197.716 227.047C196.417 225.099 195.573 222.112 195.443 219.256L200.118 218.476L197.716 227.047Z" fill="#6F4BBB"/>
    <path d="M193.495 126.078V219.515C209.663 221.528 228.493 220.879 241.999 210.489C241.739 201.789 240.895 193.283 239.337 185.166C236.415 170.492 230.896 157.116 221.351 146.142C212.91 136.467 204.469 131.857 193.495 126.078Z" fill="#6F4BBB"/>
    <path d="M237.454 208.347C229.013 214.84 208.754 216.853 198.106 215.49V133.611C225.572 148.22 236.48 175.167 237.454 208.347Z" fill="#9478CF"/>
    <path d="M237.454 208.347C233.169 211.658 225.896 213.736 218.299 214.905C217.195 194.062 217.325 162.7 222 154.388C232.195 168.868 236.805 187.374 237.454 208.347Z" fill="#A58DD4"/>
    <path d="M218.3 194.451C214.729 194.451 211.872 197.308 211.872 200.879C211.872 204.451 214.729 207.308 218.3 207.308C221.871 207.308 224.728 204.451 224.728 200.879C224.728 197.308 221.871 194.451 218.3 194.451Z" fill="#9478CF"/>
    <path d="M202.976 53.2254C204.859 41.0832 202.781 34.7848 200.314 23.6815C192.587 30.1097 187.652 34.7199 178.237 39.4599C176.354 27.7073 172.199 16.604 166.16 6.2149L162.589 0.111328C148.823 10.5004 137.071 18.8116 127.98 32.5771C118.89 18.8116 107.137 10.5004 93.3717 0.111328L89.8004 6.2149C83.7618 16.604 79.6061 27.7073 77.7231 39.4599C68.308 34.7199 63.3732 30.1097 55.6464 23.6815C53.114 34.7199 51.1012 41.0182 52.9842 53.2254L35.9721 57.9005C39.3485 102.314 42.7899 140.169 47.1403 184.582C47.7247 190.686 48.374 196.854 49.0233 202.958C49.2181 204.711 51.3609 207.893 60.4513 207.957C104.865 210.944 151.356 210.944 195.704 207.957C204.794 207.828 206.937 204.711 207.132 202.958C207.781 196.724 208.43 190.491 209.015 184.257C209.275 181.725 209.534 179.193 209.794 176.595C213.495 136.987 217.131 97.5088 220.183 57.8355L203.171 53.1605H202.976V53.2254Z" fill="#6F4BBB"/>
    <path d="M160.704 9.39673C168.042 21.8636 172.132 35.0447 172.912 48.6804C180.444 45.8234 189.015 41.1483 196.417 35.1096C197.91 41.7327 197.586 50.3686 195.573 57.9006C201.806 59.3291 207.585 60.8226 213.364 62.5108C210.247 103.288 207.325 144.065 203.3 184.712C202.91 188.738 202.066 197.439 201.611 201.464C199.988 202.374 196.612 202.374 195.248 202.438C150.575 205.425 105.383 205.425 60.7098 202.438C59.2813 202.309 55.9698 202.309 54.3465 201.464C53.892 197.504 53.0478 188.608 52.6582 184.712C48.6974 144 45.7106 103.223 42.5938 62.5108C48.3728 60.8226 54.1517 59.3291 60.3851 57.9006C58.3722 50.3686 58.0476 41.7327 59.541 35.1096C66.8783 41.2132 75.5142 45.8234 83.0462 48.6804C83.8254 35.1096 87.9161 21.8636 95.2534 9.39673C110.188 20.6948 119.992 28.8762 127.979 45.239C136.03 28.8762 145.77 20.6948 160.769 9.39673H160.704Z" fill="#9478CF"/>
    <path d="M160.704 9.39673C159.601 27.5126 155.055 47.6415 146.484 56.0826C157.912 54.8489 164.016 53.4853 172.847 48.6804C180.444 45.8234 189.015 41.1483 196.417 35.1096C192.456 47.0571 188.625 55.5631 180.768 63.8744C187.456 63.7445 191.287 61.5368 195.573 57.9006C201.806 59.3291 207.585 60.8226 213.364 62.5108C210.247 103.288 207.325 144.065 203.3 184.712C202.91 188.738 202.066 197.439 201.611 201.464C199.988 202.374 196.612 202.374 195.248 202.438C172.912 203.932 150.445 204.646 127.979 204.646V180.362C162.652 183.089 194.339 128.416 157.912 92.5092L165.185 96.535C166.094 90.7561 164.276 83.5486 161.873 77.7048C157.133 66.3418 144.536 57.9006 127.979 55.8878V45.174C136.03 28.8113 145.705 20.6299 160.704 9.39673Z" fill="#A58DD4"/>
    <path d="M75.1902 63.8741C67.3984 55.5629 63.5025 46.9919 59.5417 35.0445C58.0483 41.6675 58.3729 50.3034 60.3858 57.8355C64.6713 61.5366 68.5023 63.7442 75.1902 63.8741ZM88.3713 60.4977C84.4754 60.4977 81.3587 63.6793 81.3587 67.5103C81.3587 71.4062 84.5404 74.5229 88.3713 74.5229C92.2672 74.5229 95.3839 71.3412 95.3839 67.5103C95.3839 63.6793 92.2023 60.4977 88.3713 60.4977ZM62.7233 76.341C60.0611 76.341 57.8535 78.5486 57.8535 81.2108C57.8535 83.873 60.0611 86.0807 62.7233 86.0807C65.3855 86.0807 67.5932 83.873 67.5932 81.2108C67.5932 78.4837 65.4505 76.341 62.7233 76.341ZM109.409 56.0174C100.838 47.6412 96.293 27.5124 95.1892 9.33154C87.8519 21.7984 83.7612 34.9795 82.982 48.6152C91.8777 53.4201 97.9812 54.7837 109.409 56.0174Z" fill="#7D5DC2"/>
    <path d="M191.612 70.6919C185.249 70.6919 180.054 75.8864 180.054 82.2497C180.054 88.613 185.249 93.8075 191.612 93.8075C197.975 93.8075 203.17 88.613 203.17 82.2497C203.17 75.8864 197.975 70.6919 191.612 70.6919ZM199.079 106.145C196.547 106.145 194.469 108.222 194.469 110.755C194.469 113.287 196.547 115.365 199.079 115.365C201.611 115.365 203.689 113.287 203.689 110.755C203.689 108.222 201.611 106.145 199.079 106.145Z" fill="#9478CF"/>
    <path d="M127.2 76.9902C99.734 76.9902 77.4625 99.2618 77.4625 126.728C77.4625 154.194 99.734 176.465 127.2 176.465C154.666 176.465 176.938 154.194 176.938 126.728C176.938 99.2618 154.666 76.9902 127.2 76.9902Z" fill="#D3E8EF"/>
    <path d="M175.64 115.43C171.29 96.7297 156.356 82.0551 137.526 78.0943C117.007 76.5359 100.385 90.8858 100.385 110.43C100.385 130.105 117.267 147.571 137.98 149.389C158.758 151.207 175.575 136.792 175.575 117.053C175.64 116.534 175.64 115.949 175.64 115.43Z" fill="white"/>
    <path d="M111.877 107.638C96.3579 107.638 83.8261 120.17 83.8261 135.688C83.8261 151.207 96.3579 163.739 111.877 163.739C127.395 163.739 139.927 151.207 139.927 135.688C139.927 120.235 127.395 107.638 111.877 107.638Z" fill="#EA4E64"/>
    <path d="M111.876 107.638C107.785 107.638 103.889 108.482 100.383 110.105V110.43C100.383 129.585 116.356 146.662 136.485 149.259C138.693 145.233 139.991 140.623 139.991 135.688C139.991 120.17 127.459 107.638 111.876 107.638Z" fill="#EC6277"/>
    <path d="M111.875 117.507C101.811 117.507 93.6295 125.624 93.6295 135.753C93.6295 145.818 101.746 153.999 111.875 153.999C121.94 153.999 130.121 145.882 130.121 135.753C130.121 125.689 122.005 117.507 111.875 117.507Z" fill="#232323"/>
    <path d="M111.876 117.507C108.175 117.507 104.734 118.611 101.877 120.494C105.383 132.117 114.604 141.987 126.421 146.662C128.694 143.61 130.057 139.779 130.057 135.753C130.122 125.689 122.006 117.507 111.876 117.507Z" fill="#323232"/>
    <path d="M131.746 114.716C125.383 114.716 120.253 119.845 120.253 126.208C120.253 132.572 125.383 137.701 131.746 137.701C138.109 137.701 143.239 132.572 143.239 126.208C143.239 119.845 138.109 114.716 131.746 114.716Z" fill="white"/>
    <path d="M185.704 149.519C171.549 141.727 150.251 155.363 151.81 177.44C165.316 173.284 179.925 160.557 185.704 149.519Z" fill="#6F4BBB"/>
    <path d="M185.704 149.519C172.848 149.779 158.628 157.051 151.81 177.44C167.978 175.622 183.042 163.285 185.704 149.519Z" fill="#A58DD4"/>
    <path d="M179.015 167.959C177.132 167.31 168.302 167.505 167.587 168.479C166.743 169.648 169.081 175.621 171.548 179.517C174.795 176.92 177.457 173.349 179.015 167.959Z" fill="#7D5DC2"/>
    <path d="M181.613 165.816C179.73 165.167 170.899 165.362 170.185 166.336C169.341 167.505 171.678 173.478 174.146 177.374C177.392 174.777 180.054 171.206 181.613 165.816Z" fill="white"/>
    <path d="M178.951 162.764C178.366 175.296 162.003 187.373 146.485 182.893C145.641 186.529 148.108 188.672 150.64 189.191C164.731 190.425 178.301 181.529 182.782 170.166C184.08 167.05 182.652 163.154 178.951 162.764Z" fill="#6F4BBB"/>
    <path d="M181.614 186.271C177.718 193.608 171.614 197.049 164.926 198.153C174.471 202.439 182.912 196.725 181.614 186.271Z" fill="#6F4BBB"/>
    <path d="M175.185 188.022C167.523 192.308 160.25 193.672 151.809 192.892C157.978 196.983 170.055 197.438 175.185 188.022Z" fill="#9478CF"/>
    <path d="M109.994 62.9005C125.382 36.2785 165.9 51.7971 161.809 81.6657C151.68 64.9133 132.135 59.4591 109.994 62.9005Z" fill="#5F3EA7"/>
    <path d="M109.994 62.8996C118.695 47.9004 137.006 46.9265 149.278 55.1728C149.343 58.6791 148.304 61.2114 146.421 63.2243C136.486 58.4194 123.5 56.4714 109.994 62.8996Z" fill="#6F4BBB"/>
    <path d="M29.4139 164.128C13.2459 164.128 -0.000179291 177.115 -0.000179291 193.348C-0.000179291 209.581 13.2459 222.567 29.4139 222.567C45.5818 222.567 58.8279 209.581 58.8279 193.348C58.8279 177.115 45.5818 164.128 29.4139 164.128Z" fill="#6F4BBB"/>
    <path d="M29.414 168.415C15.5186 168.415 4.28541 179.583 4.28541 193.283C4.28541 207.049 15.5186 218.152 29.414 218.152C43.3093 218.152 54.5425 206.984 54.5425 193.283C54.5425 179.583 43.2444 168.415 29.414 168.415Z" fill="#9478CF"/>
    <path d="M29.4143 168.415C19.5447 168.415 11.0387 174.064 6.88303 182.245C5.97398 195.231 21.8173 204.776 32.4011 200.296C40.1929 196.075 45.5823 187.829 45.5823 178.414C45.5823 176.856 45.4524 175.362 45.1277 173.869C40.7773 170.492 35.3231 168.415 29.4143 168.415Z" fill="#A58DD4"/>
    <path d="M39.6726 189.452C40.8414 185.881 27.4654 181.401 26.2317 184.972L12.9857 224.645C11.8169 228.216 25.1929 232.697 26.4266 229.125L39.6726 189.452Z" fill="#2B3039"/>
    <path d="M20.4528 185.427C25.7123 188.673 30.0627 191.855 33.1794 197.764C28.6992 203.218 22.7904 206.205 16.2972 205.426C11.0378 198.803 13.7649 191.206 20.4528 185.427Z" fill="#5F3EA7"/>
    <path d="M16.362 194.516C17.1411 192.243 18.5696 190.1 20.3877 188.022C24.4135 190.62 27.725 193.412 30.2573 197.438C27.4653 197.697 23.1148 196.983 16.362 194.516Z" fill="#6F4BBB"/>
    <path d="M15.3874 201.334C20.6469 204.581 24.9973 207.763 28.114 213.671C23.6337 219.126 17.725 222.113 11.2318 221.333C5.97233 214.71 8.69946 207.113 15.3874 201.334Z" fill="#5F3EA7"/>
    <path d="M11.2963 209.776C12.0754 207.503 13.504 205.361 15.322 203.283C19.3478 205.88 22.6593 208.672 25.1917 212.698C22.3996 213.022 18.0492 212.243 11.2963 209.776Z" fill="#6F4BBB"/>
    <path d="M42.7894 202.893C37.7897 201.659 33.3743 200.88 27.985 202.438C27.3357 208.282 28.959 213.607 33.1795 216.983C40.1922 216.399 43.179 210.295 42.7894 202.893Z" fill="#5F3EA7"/>
    <path d="M39.738 209.971C40.6471 208.153 41.1016 206.075 41.2964 203.802C37.4005 202.893 33.8292 202.504 29.8684 203.348C31.2969 205.231 34.2838 207.373 39.738 209.971Z" fill="#6F4BBB"/>
    <path d="M52.7894 95.4313C79.3464 96.9247 99.67 119.716 98.1766 146.273C96.6832 172.83 73.8922 193.153 47.3351 191.66C20.7781 190.167 0.454491 167.376 1.94792 140.819C3.44135 114.261 26.1674 93.9379 52.7894 95.4313Z" fill="#393F4C"/>
    <path d="M52.3987 101.404C75.6442 102.703 93.5004 122.702 92.2017 146.012C90.9031 169.258 70.9042 187.114 47.5937 185.75C24.3482 184.452 6.492 164.453 7.79063 141.142C9.15419 117.897 29.0882 100.041 52.3987 101.404Z" fill="#D3E8EF"/>
    <path d="M17.9206 164.453C13.6351 157.83 11.2976 149.843 11.7521 141.337C12.7261 124.52 24.3489 110.819 39.7376 106.599C40.9713 121.144 42.27 135.429 43.6335 150.103C38.5039 152.181 25.2579 158.804 17.9206 164.453Z" fill="white"/>
    <path d="M53.0488 106.079C73.3074 107.248 88.8261 124.585 87.5924 144.844C87.3976 147.701 86.9431 150.493 86.1639 153.09C86.2288 152.505 86.2937 151.921 86.2937 151.272C87.5924 127.767 69.6713 107.638 46.166 106.274H45.9712C48.2438 106.079 50.6463 105.95 53.0488 106.079Z" fill="white"/>
    <path d="M86.1636 165.427C85.3844 166.726 84.5403 167.959 83.6312 169.128L71.1644 151.856L42.4646 163.804L25.8421 129.455L9.15467 132.636C9.60919 131.078 10.0637 129.52 10.6481 128.026L28.1796 124.65L44.4775 158.349L72.5279 146.662L86.1636 165.427Z" fill="#999999"/>
    <path d="M72.3979 140.558C67.593 140.299 63.5023 143.935 63.2425 148.74C62.9828 153.545 66.619 157.636 71.4239 157.895C76.2289 158.155 80.3196 154.519 80.5793 149.714C80.9039 144.974 77.2028 140.883 72.3979 140.558Z" fill="#1EC185"/>
    <path d="M27.5297 118.417C22.7248 118.157 18.6341 121.793 18.3744 126.598C18.1147 131.403 21.7508 135.494 26.5558 135.753C31.3607 136.013 35.4514 132.377 35.7111 127.572C36.0358 122.767 32.3347 118.676 27.5297 118.417Z" fill="#EA4E64"/>
    <path d="M44.0219 152.441C39.217 152.181 35.1263 155.817 34.8666 160.622C34.6069 165.427 38.243 169.518 43.048 169.778C47.8529 170.037 51.9436 166.401 52.2033 161.596C52.528 156.791 48.8269 152.701 44.0219 152.441Z" fill="#FF893A"/>
</svg>
