<svg width="346" height="131" viewBox="0 0 346 131" fill="none" xmlns="http://www.w3.org/2000/svg">
    <mask id="mask0_54_14972" style="mask-type:alpha" maskUnits="userSpaceOnUse" x="0" y="0" width="346" height="131">
        <rect width="345.24" height="131" fill="#D9D9D9"/>
    </mask>
    <g mask="url(#mask0_54_14972)">
        <path d="M307.016 81.0528C309.89 62.5236 306.719 52.9122 302.954 35.9684C291.162 45.778 283.632 52.8131 269.264 60.0464C266.391 42.1118 260.049 25.168 250.834 9.31413L245.384 0C224.378 15.8538 206.443 28.5369 192.571 49.5433C178.699 28.5369 160.765 15.8538 139.758 0L134.309 9.31413C125.093 25.168 118.752 42.1118 115.878 60.0464C101.511 52.8131 93.9803 45.778 82.189 35.9684C78.3247 52.8131 75.253 62.4245 78.1265 81.0528L52.1658 88.187C57.3183 155.962 62.5699 213.73 69.2087 281.505C70.1005 290.819 71.0913 300.232 72.0822 309.546C72.3795 312.222 75.6493 317.077 89.5214 317.176C157.297 321.734 228.243 321.734 295.919 317.176C309.791 316.978 313.061 312.222 313.358 309.546C314.349 300.034 315.34 290.522 316.231 281.009C316.628 277.145 317.024 273.281 317.42 269.317C323.068 208.874 328.617 148.63 333.274 88.0879L307.314 80.9537H307.016V81.0528Z" fill="#6F4BBB"/>
        <path d="M242.511 14.1697C253.708 33.1943 259.95 53.3088 261.139 74.117C272.633 69.7572 285.713 62.623 297.009 53.4079C299.288 63.5147 298.792 76.6932 295.72 88.1873C305.233 90.3672 314.051 92.6461 322.87 95.2224C318.114 157.449 313.655 219.675 307.512 281.703C306.917 287.846 305.629 301.124 304.935 307.267C302.458 308.655 297.306 308.655 295.225 308.754C227.054 313.312 158.089 313.312 89.9178 308.754C87.7379 308.556 82.6845 308.556 80.2074 307.267C79.5137 301.223 78.2256 287.648 77.6311 281.703C71.5868 219.576 67.0289 157.35 62.2727 95.2224C71.0914 92.6461 79.9101 90.3672 89.4224 88.1873C86.3507 76.6932 85.8553 63.5147 88.1343 53.4079C99.3311 62.722 112.51 69.7572 124.004 74.117C125.193 53.4079 131.435 33.1943 142.632 14.1697C165.422 31.4107 180.384 43.8956 192.571 68.8654C204.858 43.8956 219.721 31.4107 242.61 14.1697H242.511Z" fill="#9478CF"/>
        <path d="M242.511 14.1697C240.827 41.8148 233.89 72.5316 220.811 85.4129C238.25 83.5302 247.564 81.4494 261.04 74.117C272.633 69.7572 285.713 62.623 297.009 53.4079C290.964 71.6398 285.118 84.6202 273.129 97.3032C283.335 97.1051 289.181 93.7361 295.72 88.1873C305.233 90.3672 314.051 92.6462 322.87 95.2224C318.114 157.449 313.655 219.675 307.512 281.703C306.917 287.847 305.629 301.124 304.935 307.268C302.458 308.655 297.306 308.655 295.225 308.754C261.139 311.033 226.855 312.123 192.571 312.123V275.064C245.484 279.226 293.838 195.795 238.25 141L249.348 147.144C250.735 138.325 247.961 127.326 244.295 118.409C237.061 101.069 217.838 88.1873 192.571 85.1156V68.7663C204.858 43.7965 219.622 31.3116 242.511 14.1697Z" fill="#A58DD4"/>
        <path d="M112.013 97.3027C100.123 84.6196 94.1778 71.5402 88.1335 53.3083C85.8545 63.4151 86.35 76.5936 89.4216 88.0877C95.9613 93.7356 101.807 97.1045 112.013 97.3027ZM132.128 92.1502C126.183 92.1502 121.427 97.0054 121.427 102.852C121.427 108.797 126.282 113.553 132.128 113.553C138.073 113.553 142.829 108.698 142.829 102.852C142.829 97.0054 137.974 92.1502 132.128 92.1502ZM92.9888 116.327C88.9262 116.327 85.5573 119.696 85.5573 123.759C85.5573 127.821 88.9262 131.19 92.9888 131.19C97.0513 131.19 100.42 127.821 100.42 123.759C100.42 119.597 97.1504 116.327 92.9888 116.327ZM164.232 85.3132C151.153 72.5311 144.216 41.8143 142.532 14.0701C131.335 33.0947 125.093 53.2092 123.904 74.0174C137.479 81.3498 146.793 83.4306 164.232 85.3132Z" fill="#7D5DC2"/>
        <path d="M289.675 107.707C279.964 107.707 272.038 115.634 272.038 125.344C272.038 135.055 279.964 142.982 289.675 142.982C299.385 142.982 307.312 135.055 307.312 125.344C307.312 115.634 299.385 107.707 289.675 107.707ZM301.07 161.808C297.205 161.808 294.035 164.979 294.035 168.843C294.035 172.708 297.205 175.878 301.07 175.878C304.934 175.878 308.105 172.708 308.105 168.843C308.105 164.979 304.934 161.808 301.07 161.808Z" fill="#9478CF"/>
        <path d="M191.382 117.319C149.468 117.319 115.482 151.306 115.482 193.219C115.482 235.133 149.468 269.12 191.382 269.12C233.296 269.12 267.282 235.133 267.282 193.219C267.282 151.306 233.296 117.319 191.382 117.319Z" fill="#D3E8EF"/>
        <path d="M265.3 175.978C258.661 147.441 235.871 125.048 207.136 119.004C175.824 116.626 150.458 138.524 150.458 168.349C150.458 198.372 176.221 225.026 207.829 227.801C239.537 230.575 265.2 208.578 265.2 178.455C265.3 177.663 265.3 176.771 265.3 175.978Z" fill="white"/>
        <path d="M165.121 95.8164C188.604 55.1909 250.434 78.8726 244.192 124.452C228.734 98.888 198.909 90.5648 165.121 95.8164Z" fill="#5F3EA7"/>
        <path d="M165.125 95.8164C178.403 72.9274 206.345 71.4411 225.073 84.0251C225.172 89.3757 223.586 93.2401 220.713 96.3118C205.553 88.9794 185.735 86.0068 165.125 95.8164Z" fill="#6F4BBB"/>
    </g>
</svg>
