<svg width="67" height="67" viewBox="0 0 67 67" fill="none" xmlns="http://www.w3.org/2000/svg">
    <path d="M35.3182 0.708315C53.4066 1.71884 67.3012 17.2809 66.2907 35.4197C65.2802 53.5081 49.7182 67.4028 31.5793 66.3417C13.491 65.3312 -0.403725 49.7691 0.606796 31.6303C1.66785 13.5419 17.1794 -0.352733 35.3182 0.708315Z" fill="#D3E8EF"/>
    <path d="M8.48922 49.7697C5.1545 44.6161 3.33556 38.4014 3.68924 31.7824C4.44713 18.6962 13.4913 8.03517 25.466 4.75098C26.426 16.0688 27.4365 27.1846 28.4976 38.6035C24.506 40.2203 14.1987 45.374 8.48922 49.7697Z" fill="white"/>
    <path d="M35.824 4.34634C51.5881 5.25581 63.6638 18.7463 62.7038 34.5104C62.5522 36.7336 62.1986 38.9062 61.5923 40.9272C61.6428 40.4725 61.6933 40.0178 61.6933 39.5125C62.7038 21.2221 48.7586 5.55897 30.4682 4.49792H30.3166C32.085 4.34634 33.9545 4.24529 35.824 4.34634Z" fill="white"/>
    <path d="M61.592 50.5273C60.9857 51.5378 60.3289 52.4978 59.6215 53.4073L49.9205 39.9673L27.588 49.2641L14.6533 22.5358L1.66808 25.0116C2.02177 23.799 2.37544 22.5863 2.83018 21.4242L16.4722 18.7969L29.1543 45.0199L50.9816 35.9252L61.592 50.5273Z" fill="#6F4BBB"/>
    <path d="M50.88 31.1762C47.1411 30.9741 43.9579 33.8036 43.7558 37.5425C43.5537 41.2814 46.3832 44.4646 50.1221 44.6667C53.861 44.8688 57.0442 42.0393 57.2463 38.3004C57.4989 34.612 54.6189 31.4288 50.88 31.1762Z" fill="#1EC185"/>
    <path d="M28.8009 40.4223C25.062 40.2202 21.8788 43.0497 21.6767 46.7886C21.4746 50.5275 24.3041 53.7107 28.043 53.9128C31.7819 54.1149 34.9651 51.2854 35.1672 47.5465C35.4198 43.8075 32.5398 40.6244 28.8009 40.4223Z" fill="#FF893A"/>
</svg>
