<svg width="264" height="79" viewBox="0 0 264 79" fill="none" xmlns="http://www.w3.org/2000/svg">
    <path d="M230.816 0H140.549V79H229.167C243.181 72.8174 254.722 64.0244 263.103 53.72C259.805 36.6835 247.577 14.4261 230.816 0Z" fill="#6F4BBB"/>
    <path d="M225.595 6.59448C237.548 18.9597 249.364 33.9354 253.348 50.9719C246.204 59.4902 236.861 66.0849 226.832 70.8936H150.992V6.59448H225.595Z" fill="#7D5DC2"/>
    <path d="M246.478 33.5234C248.814 36.8208 253.21 50.1478 253.485 50.9721C246.341 59.4904 236.998 66.0852 226.969 70.8939H186.576V36.4087C206.497 36.2713 226.419 35.3095 246.478 33.5234Z" fill="#9478CF"/>
    <path d="M231.228 62.238C221.885 65.398 217.489 71.3059 216.115 78.9998H248.677C246.478 72.405 240.296 64.2989 231.228 62.238Z" fill="#5F3EA7"/>
    <path d="M231.367 65.8103C236.45 67.1842 240.709 71.1686 243.457 75.7025H231.229V65.8103H231.367Z" fill="#6F4BBB"/>
    <path d="M199.079 60.3147C186.576 63.7495 180.531 72.1304 179.02 78.9999H222.436C219.55 71.7182 210.757 61.9634 199.079 60.3147Z" fill="#5F3EA7"/>
    <path d="M199.354 63.7495C206.223 64.986 212.955 69.7947 216.94 75.7026H199.079V63.7495H199.354Z" fill="#6F4BBB"/>
    <path d="M32.2867 0H122.553V79H33.9353C19.9214 72.8174 8.38059 64.0244 -0.000274658 53.72C3.15973 36.6835 15.3876 14.4261 32.2867 0Z" fill="#6F4BBB"/>
    <path d="M37.3684 6.59448C25.4154 18.9597 13.5998 33.9354 9.61542 50.9719C16.7598 59.4902 26.1024 66.0849 36.1319 70.8936H111.972V6.59448H37.3684Z" fill="#7D5DC2"/>
    <path d="M16.6242 33.5234C14.2886 36.8208 9.8921 50.1478 9.61732 50.9721C16.7617 59.4904 26.1043 66.0852 36.1338 70.8939H76.5269V36.4087C56.6051 36.2713 36.546 35.3095 16.6242 33.5234Z" fill="#9478CF"/>
    <path d="M31.7353 62.238C41.078 65.398 45.4745 71.3059 46.8484 78.9998H14.2867C16.4849 72.405 22.6675 64.2989 31.7353 62.238Z" fill="#5F3EA7"/>
    <path d="M31.598 65.8103C26.5145 67.1842 22.2554 71.1686 19.5075 75.7025H31.7354V65.8103H31.598Z" fill="#6F4BBB"/>
    <path d="M63.8847 60.3147C76.3874 63.7495 82.4325 72.1304 83.9438 78.9999H40.5282C43.4134 71.7182 52.2065 61.9634 63.8847 60.3147Z" fill="#5F3EA7"/>
    <path d="M63.7475 63.7495C56.8779 64.986 50.1457 69.7947 46.1613 75.7026H64.0222V63.7495H63.7475Z" fill="#6F4BBB"/>
</svg>
