<svg width="30" height="30" viewBox="0 0 30 30" fill="none" xmlns="http://www.w3.org/2000/svg">
    <path fill-rule="evenodd" clip-rule="evenodd" d="M3.36958 0H26.2398C28.0361 0 29.4922 1.47617 29.4922 3.29713L29.4922 21.2493C29.4922 23.0703 28.036 24.6875 26.2398 24.6875H16.664C15.8379 24.6875 15.0428 24.6298 14.44 25.2024L10.5208 29.0078C8.8041 30.6388 5.625 29.5414 5.625 27.1563C5.625 25.6514 4.68826 24.6875 3.20383 24.6875H3.00441C1.40984 24.6875 0.117188 23.3771 0.117188 21.7606L0.117205 3.29713C0.117205 1.47617 1.57334 0 3.36958 0ZM13.9398 4.12144C13.0417 4.12144 12.3136 4.85953 12.3136 5.77001V17.31C12.3136 18.2204 13.0417 18.9585 13.9398 18.9585H15.566C16.4641 18.9585 17.1922 18.2204 17.1922 17.31V5.77001C17.1922 4.85953 16.4641 4.12144 15.566 4.12144H13.9398ZM7.43505 9.06706C6.53693 9.06706 5.80887 9.80515 5.80887 10.7156V17.3099C5.80887 18.2204 6.53694 18.9584 7.43505 18.9584H9.06124C9.95935 18.9584 10.6874 18.2204 10.6874 17.3099V10.7156C10.6874 9.80515 9.95935 9.06706 9.06124 9.06706H7.43505ZM18.8184 14.0127C18.8184 13.1023 19.5464 12.3642 20.4445 12.3642H22.0707C22.9688 12.3642 23.6969 13.1023 23.6969 14.0127V17.3099C23.6969 18.2203 22.9688 18.9584 22.0707 18.9584H20.4445C19.5464 18.9584 18.8184 18.2203 18.8184 17.3099V14.0127Z" fill="#2D87F1"/>
</svg>
