<svg width="470" height="74" viewBox="0 0 470 74" fill="none" xmlns="http://www.w3.org/2000/svg">
<path d="M73.1 30.9C73 40.3 70.2 47.8 64.6 54.2C63.6 55.4 62.4 56.5 61.2 57.5C60.1 58.5 58.5 58.5 57.6 57.5C56.7 56.4 56.9 54.9 58.1 53.9C60.6 51.8 62.6 49.4 64.2 46.6C66.6 42.5 68 38.1 68.2 33.3C68.6 25 66 17.9 60.5 11.8C59.7 11 58.8 10.2 58 9.39998C56.9 8.39998 56.7 6.79998 57.6 5.79998C58.5 4.69998 60 4.69998 61.2 5.79998C67.6 11.3 71.4 18.3 72.8 26.6C73 28.3 73 30 73.1 30.9Z" fill="#3B43FF"/>
<path d="M5 31.7C5.2 21.3 9.1 12.6 17 5.69998C18.1 4.69998 19.7 4.79998 20.5 5.79998C21.4 6.79998 21.2 8.39998 20.1 9.29998C14.7 14 11.3 19.8 10.2 26.9C8.7 36.2 11.2 44.4 17.5 51.4C18.3 52.3 19.3 53.2 20.2 54C21.3 55 21.4 56.5 20.5 57.5C19.6 58.5 18.1 58.5 17 57.6C10 51.6 6 43.9 5.2 34.7C5.2 34.2 5.1 33.7 5.1 33.2C5 32.7 5 32.2 5 31.7Z" fill="#3B43FF"/>
<path d="M14.7 31.6C14.9 24.2 17.6 18 23.3 13.1C24.5 12.1 25.8 12.2 26.8 13.3C27.7 14.3 27.6 15.6 26.4 16.7C23.7 19.2 21.5 22.1 20.4 25.7C18.3 33 19.8 39.5 25 45.1C25.5 45.7 26.1 46.2 26.6 46.8C27.5 47.7 27.6 49.1 26.8 50C26 51 24.4 51.2 23.5 50.3C22 48.9 20.6 47.5 19.3 45.9C16.6 42.3 15.1 38.2 14.8 33.6C14.8 33.3 14.7 33 14.7 32.6C14.7 32.3 14.7 32 14.7 31.6Z" fill="#3B43FF"/>
<path d="M63.4 31.7C63.2 38.9 60.5 45 55.1 49.9C54.3 50.7 53.3 51.1 52.2 50.7C50.6 50 50.2 48.2 51.4 46.8C52.8 45.2 54.4 43.7 55.6 41.9C60.4 34.5 59.3 24.4 53 18.1C52.5 17.6 52 17.1 51.5 16.6C50.6 15.7 50.5 14.3 51.3 13.4C52.2 12.4 53.6 12.2 54.7 13C56.7 14.6 58.4 16.5 59.7 18.7C61.8 22.1 63.1 25.8 63.3 29.8C63.3 30.4 63.3 31 63.4 31.7Z" fill="#3B43FF"/>
<path d="M53.5 31.1C53.5 36.1 51.8 39.6 48.6 42.6C47.5 43.7 45.9 43.7 45 42.6C44.1 41.6 44.1 40.1 45.3 39.1C47.3 37.2 48.6 34.9 48.7 32.1C48.8 29.4 48 27.1 46.2 25.1C45.9 24.7 45.5 24.4 45.2 24.1C44.2 23.1 44.1 21.7 45 20.7C45.9 19.7 47.4 19.6 48.5 20.6C50.2 22.1 51.5 23.9 52.4 26C53.2 27.8 53.6 29.7 53.5 31.1Z" fill="#3B43FF"/>
<path d="M30.9 19.9C32.3 19.9 33 20.4 33.5 21.4C34 22.4 33.7 23.4 32.9 24.1C31.6 25.4 30.5 26.7 29.9 28.5C28.7 32.3 29.5 35.6 32.1 38.5C32.3 38.8 32.6 39 32.9 39.3C33.9 40.4 34 41.8 33 42.8C32.1 43.7 30.6 43.8 29.6 42.9C27.1 40.7 25.4 38.1 24.9 34.8C23.9 29.4 25.4 24.7 29.4 21C29.9 20.3 30.6 20.1 30.9 19.9Z" fill="#3B43FF"/>
<path d="M38.9 36.4C36.2 36.4 34.1 34.3 34.1 31.6C34.1 28.9 36.3 26.8 39 26.8C41.7 26.8 43.8 28.9 43.8 31.6C43.8 34.4 41.7 36.4 38.9 36.4Z" fill="#3B43FF"/>
<path d="M89.752 56H100.624V38.648C101.632 38.792 102.928 38.864 104.368 38.864C110.848 38.864 116.392 37.28 120.136 33.752C123.016 31.016 124.6 26.984 124.6 22.232C124.6 17.48 122.512 13.448 119.416 11C116.176 8.40801 111.352 7.11201 104.584 7.11201C97.888 7.11201 93.136 7.54401 89.752 8.12001V56ZM100.624 15.824C101.416 15.608 102.928 15.392 105.16 15.392C110.632 15.392 113.728 18.056 113.728 22.52C113.728 27.488 110.128 30.44 104.296 30.44C102.712 30.44 101.56 30.368 100.624 30.152V15.824Z" fill="#191A35"/>
<path d="M162.277 20.792H151.261V41.744C151.261 42.608 151.189 43.472 150.901 44.12C150.181 45.848 148.453 47.936 145.429 47.936C141.613 47.936 139.957 44.84 139.957 39.728V20.792H128.941V41.456C128.941 52.328 134.197 56.792 141.325 56.792C147.661 56.792 150.973 53.192 152.341 51.032H152.557L153.061 56H162.565C162.421 53.048 162.277 49.304 162.277 44.696V20.792Z" fill="#191A35"/>
<path d="M167.605 54.272C170.269 55.712 174.373 56.72 178.981 56.72C189.061 56.72 194.245 51.896 194.245 45.344C194.173 40.16 191.365 36.776 184.669 34.472C180.349 32.96 178.981 32.096 178.981 30.44C178.981 28.64 180.493 27.56 183.157 27.56C186.181 27.56 189.205 28.712 190.789 29.576L192.733 22.016C190.573 20.936 186.901 20 182.797 20C174.085 20 168.469 24.968 168.469 31.52C168.397 35.696 171.205 39.656 178.477 42.104C182.581 43.472 183.661 44.336 183.661 46.136C183.661 47.936 182.293 49.088 178.981 49.088C175.741 49.088 171.565 47.648 169.549 46.424L167.605 54.272Z" fill="#191A35"/>
<path d="M199.4 56H210.344V35.12C210.344 34.328 210.416 33.392 210.704 32.672C211.496 30.728 213.296 28.856 216.176 28.856C220.28 28.856 221.864 32.024 221.864 36.632V56H232.808V35.408C232.808 24.824 227.48 20 220.496 20C218.48 20 216.392 20.504 214.808 21.368C213.08 22.304 211.64 23.456 210.488 24.968H210.344V4.88H199.4V56Z" fill="#191A35"/>
<path d="M269.38 26.552H251.524V16.472H270.46V7.47201H240.508V56H271.468V47H251.524V35.48H269.38V26.552Z" fill="#191A35"/>
<path d="M277.169 56H288.113V35.696C288.113 34.688 288.257 33.608 288.545 32.96C289.265 30.944 291.065 28.856 294.089 28.856C298.049 28.856 299.633 31.952 299.633 36.488V56H310.577V35.12C310.577 24.752 305.177 20 297.977 20C292.145 20 288.545 23.384 287.105 25.616H286.889L286.385 20.792H276.881C277.025 23.888 277.169 27.632 277.169 32.024V56Z" fill="#191A35"/>
<path d="M342.036 20.792L341.676 24.968H341.532C339.732 22.088 336.708 20 331.884 20C323.244 20 315.9 27.2 315.9 38.504C315.9 48.656 322.092 55.712 330.804 55.712C334.836 55.712 338.22 54.056 340.308 51.104H340.452V53.408C340.452 59.888 336.492 62.696 331.308 62.696C327.204 62.696 323.316 61.328 321.084 60.032L318.924 68.312C322.092 70.112 326.988 71.048 331.596 71.048C336.78 71.048 342.036 70.04 345.924 66.728C349.884 63.2 351.252 57.656 351.252 50.888V31.232C351.252 25.976 351.396 23.024 351.54 20.792H342.036ZM340.308 40.304C340.308 41.24 340.236 42.392 339.948 43.184C339.228 45.776 336.996 47.648 334.188 47.648C329.58 47.648 326.988 43.544 326.988 38.288C326.988 31.88 330.228 28.28 334.188 28.28C337.212 28.28 339.3 30.224 340.092 33.104C340.236 33.68 340.308 34.4 340.308 35.12V40.304Z" fill="#191A35"/>
<path d="M388.473 56C388.113 54.056 387.969 50.816 387.969 47.432V35.192C387.969 26.912 384.225 20 372.489 20C366.081 20 361.257 21.728 358.809 23.096L360.825 30.152C363.129 28.712 366.945 27.488 370.545 27.488C375.945 27.488 376.953 30.152 376.953 32.024V32.528C364.497 32.456 356.289 36.848 356.289 45.992C356.289 51.608 360.537 56.792 367.665 56.792C371.841 56.792 375.441 55.28 377.745 52.472H377.961L378.609 56H388.473ZM377.313 43.184C377.313 43.832 377.241 44.48 377.097 45.056C376.377 47.288 374.145 49.088 371.409 49.088C368.961 49.088 367.089 47.72 367.089 44.912C367.089 40.664 371.553 39.296 377.313 39.368V43.184Z" fill="#191A35"/>
<path d="M419.312 20.792L418.952 24.968H418.808C417.008 22.088 413.984 20 409.16 20C400.52 20 393.176 27.2 393.176 38.504C393.176 48.656 399.368 55.712 408.08 55.712C412.112 55.712 415.496 54.056 417.584 51.104H417.728V53.408C417.728 59.888 413.768 62.696 408.584 62.696C404.48 62.696 400.592 61.328 398.36 60.032L396.2 68.312C399.368 70.112 404.264 71.048 408.872 71.048C414.056 71.048 419.312 70.04 423.2 66.728C427.16 63.2 428.528 57.656 428.528 50.888V31.232C428.528 25.976 428.672 23.024 428.816 20.792H419.312ZM417.584 40.304C417.584 41.24 417.512 42.392 417.224 43.184C416.504 45.776 414.272 47.648 411.464 47.648C406.856 47.648 404.264 43.544 404.264 38.288C404.264 31.88 407.504 28.28 411.464 28.28C414.488 28.28 416.576 30.224 417.368 33.104C417.512 33.68 417.584 34.4 417.584 35.12V40.304Z" fill="#191A35"/>
<path d="M466.973 41.888C467.117 41.096 467.333 39.44 467.333 37.568C467.333 28.856 463.013 20 451.637 20C439.397 20 433.853 29.864 433.853 38.792C433.853 49.808 440.693 56.72 452.645 56.72C457.397 56.72 461.789 56 465.389 54.56L463.949 47.144C460.997 48.08 457.973 48.584 454.229 48.584C449.117 48.584 444.653 46.424 444.293 41.888H466.973ZM444.221 34.4C444.509 31.448 446.381 27.272 450.989 27.272C456.029 27.272 457.181 31.736 457.181 34.4H444.221Z" fill="#191A35"/>
</svg>
