<svg width="10" height="14" viewBox="0 0 10 14" fill="none" xmlns="http://www.w3.org/2000/svg">
	<path
		d="M9.0002 6.19961H8.2002V3.79961C8.2002 2.03961 6.7602 0.599609 5.0002 0.599609C3.2402 0.599609 1.8002 2.03961 1.8002 3.79961V6.19961H1.0002C0.600195 6.19961 0.200195 6.59961 0.200195 6.99961V12.5996C0.200195 12.9996 0.600195 13.3996 1.0002 13.3996H9.0002C9.4002 13.3996 9.8002 12.9996 9.8002 12.5996V6.99961C9.8002 6.59961 9.4002 6.19961 9.0002 6.19961ZM5.8002 11.7996H4.2002L4.5202 10.0396C4.1202 9.87961 3.8002 9.39961 3.8002 8.99961C3.8002 8.35961 4.3602 7.79961 5.0002 7.79961C5.6402 7.79961 6.2002 8.35961 6.2002 8.99961C6.2002 9.47961 5.9602 9.87961 5.4802 10.0396L5.8002 11.7996ZM6.6002 6.19961H3.4002V3.79961C3.4002 2.91961 4.1202 2.19961 5.0002 2.19961C5.8802 2.19961 6.6002 2.91961 6.6002 3.79961V6.19961Z"
		fill="#1E1E1E"/>
</svg>
