<svg width="738" height="388" viewBox="0 0 738 388" fill="none" xmlns="http://www.w3.org/2000/svg">
	<path d="M405.884 2.40182H398.696V9.58395H405.884V2.40182Z" fill="#D6E2ED"/>
	<path d="M524.876 5.09508H420.654V6.89061H524.876V5.09508Z" fill="#D6E2ED"/>
	<path d="M405.884 22.0985H398.696V29.2806H405.884V22.0985Z" fill="#D6E2ED"/>
	<path d="M524.876 24.7921H420.654V26.5876H524.876V24.7921Z" fill="#D6E2ED"/>
	<path d="M405.884 41.7954H398.696V48.9776H405.884V41.7954Z" fill="#D6E2ED"/>
	<path d="M524.876 44.489H420.654V46.2846H524.876V44.489Z" fill="#D6E2ED"/>
	<path d="M405.884 61.4747H398.696V68.6568H405.884V61.4747Z" fill="#D6E2ED"/>
	<path d="M524.876 64.1678H420.654V65.9633H524.876V64.1678Z" fill="#D6E2ED"/>
	<path d="M51.57 320.99H0.510498V376.957C0.510498 382.48 4.98764 386.957 10.5105 386.957H51.57V320.99Z" fill="#E9F1F8"/>
	<path d="M102.762 297.164H51.7026V386.896H102.762V297.164Z" fill="#D6E2ED"/>
	<path d="M154.018 252.451H102.958V386.957H154.018V252.451Z" fill="#E9F1F8"/>
	<path d="M256.27 219.559H205.21V386.957H256.27V219.559Z" fill="#E9F1F8"/>
	<path d="M307.766 193.565H256.557V387H307.766V193.565Z" fill="#D6E2ED"/>
	<path d="M205.209 176.195H154.15V386.957H205.209V176.195Z" fill="#D6E2ED"/>
	<mask id="mask0_26_337" style="mask-type:alpha" maskUnits="userSpaceOnUse" x="373" y="119" width="359" height="269">
		<rect x="373.584" y="119.964" width="357.547" height="267.932" fill="#D9D9D9"/>
	</mask>
	<g mask="url(#mask0_26_337)">
		<path d="M433.853 356.585V284.324H673.347V356.585H433.853Z" fill="white"/>
		<path d="M659.743 406.901H531.463V321.382H510.083V406.901H445.944V321.382H424.564V406.901C424.564 412.572 426.816 418.01 430.826 422.019C434.835 426.029 440.273 428.281 445.944 428.281H659.743C665.413 428.281 670.851 426.029 674.861 422.019C678.87 418.01 681.123 412.572 681.123 406.901V321.382H659.743V406.901Z" fill="#D6E2ED"/>
		<path d="M721.638 228.058L678.023 140.828C676.253 137.266 673.524 134.269 670.144 132.173C666.763 130.076 662.865 128.965 658.888 128.963H446.799C442.821 128.965 438.923 130.076 435.543 132.173C432.163 134.269 429.434 137.266 427.664 140.828L384.049 228.058C382.56 231.046 381.791 234.341 381.804 237.679V270.604C381.794 275.6 383.534 280.441 386.721 284.288C391.432 289.687 397.25 294.01 403.78 296.961C410.31 299.913 417.398 301.424 424.564 301.392C436.256 301.41 447.592 297.367 456.634 289.953C465.675 297.371 477.009 301.425 488.704 301.425C500.399 301.425 511.732 297.371 520.773 289.953C529.815 297.371 541.148 301.425 552.843 301.425C564.538 301.425 575.872 297.371 584.913 289.953C593.955 297.371 605.288 301.425 616.983 301.425C628.678 301.425 640.011 297.371 649.053 289.953C659.146 298.24 672.059 302.292 685.077 301.255C698.095 300.218 710.204 294.175 718.858 284.395C722.084 280.563 723.862 275.72 723.883 270.711V237.679C723.896 234.341 723.127 231.046 721.638 228.058ZM520.773 240.138V256.387L512.008 267.932C509.317 271.6 505.8 274.582 501.742 276.638C497.684 278.694 493.199 279.765 488.65 279.765C484.101 279.765 479.616 278.694 475.558 276.638C471.5 274.582 467.984 271.6 465.293 267.932L456.634 255.959V240.138L484.321 150.343H531.463L520.773 240.138ZM649.053 255.959L640.394 267.932C637.703 271.6 634.186 274.582 630.128 276.638C626.07 278.694 621.585 279.765 617.037 279.765C612.488 279.765 608.003 278.694 603.945 276.638C599.887 274.582 596.37 271.6 593.679 267.932L584.913 255.959V240.138L574.223 150.343H621.794L649.053 240.138V255.959Z" fill="#D6E2ED"/>
	</g>
	<path d="M330.141 82.1378C330.141 123.663 296.468 157.31 254.91 157.31C213.353 157.31 179.68 123.663 179.68 82.1378C179.68 40.6127 213.353 6.96564 254.91 6.96564V43.0483C233.334 43.0483 215.79 60.5784 215.79 82.1378C215.79 103.697 233.334 121.227 254.91 121.227C276.486 121.227 294.03 103.697 294.03 82.1378H330.141Z" fill="#2579C1"/>
	<path d="M336.16 76.1236H300.05C300.05 54.5643 282.506 37.0341 260.93 37.0341V0.951477C302.487 0.951477 336.16 34.5985 336.16 76.1236Z" fill="#E1EFFB"/>
	<path d="M330.141 82.1376H294.031C294.031 103.697 276.487 121.227 254.911 121.227C243.867 121.227 233.906 116.627 226.774 109.23L201.226 134.758C214.888 148.65 233.876 157.28 254.911 157.28C296.468 157.28 330.141 123.633 330.141 82.1076V82.1376Z" fill="#9DC3E8"/>
	<path d="M669.841 387.413C671.979 371.844 665.57 355.997 655.54 343.922C645.51 331.848 632.148 323.053 618.517 315.302C615.053 329.763 616.772 345.662 623.493 358.918C621.355 354.536 617.086 351.503 612.52 349.826C607.954 348.149 603.051 347.671 598.21 347.205C595.03 356.265 596.558 366.99 602.987 374.11C594.682 371.674 585.421 371.206 576.954 372.989C576.176 377.753 576.305 382.669 577.572 387.325L669.839 387.413H669.841Z" fill="#46BF40"/>
	<path d="M623.366 358.294C623.808 359.82 624.419 361.295 625.07 362.745C625.734 364.192 626.468 365.608 627.276 366.981C628.073 368.363 628.954 369.692 629.88 370.992C630.815 372.286 631.814 373.531 632.856 374.743C633.92 375.935 635.031 377.081 636.191 378.179C636.79 378.707 637.373 379.252 637.994 379.754C638.303 380.006 638.602 380.272 638.918 380.513L639.869 381.237C640.183 381.483 640.516 381.703 640.838 381.936C641.167 382.162 641.483 382.403 641.823 382.612C642.495 383.039 643.159 383.477 643.855 383.865C645.226 384.669 646.659 385.361 648.114 385.981C645.381 384.382 642.768 382.621 640.342 380.627C639.13 379.629 637.961 378.586 636.833 377.497C635.714 376.4 634.629 375.269 633.595 374.09C632.56 372.913 631.574 371.693 630.63 370.438C629.674 369.192 628.791 367.893 627.927 366.578C627.076 365.257 626.256 363.909 625.497 362.528C624.73 361.15 624.008 359.743 623.361 358.294H623.366Z" fill="#1D2238"/>
	<path d="M602.861 373.484C603.736 374.797 604.791 375.978 605.912 377.082C607.03 378.192 608.233 379.214 609.505 380.147L609.98 380.498L610.467 380.832C610.796 381.05 611.116 381.278 611.451 381.485C612.126 381.893 612.79 382.315 613.497 382.667C614.876 383.423 616.338 384.029 617.831 384.51C616.509 383.654 615.175 382.869 613.89 382.001C613.241 381.58 612.61 381.132 611.971 380.701C611.653 380.481 611.344 380.252 611.028 380.028L610.556 379.696L610.091 379.349C608.843 378.44 607.631 377.485 606.426 376.508C605.225 375.528 604.043 374.525 602.863 373.486L602.861 373.484Z" fill="#1D2238"/>
	<path d="M665.979 387.413C664.341 375.483 669.252 363.34 676.938 354.088C684.623 344.835 694.862 338.096 705.307 332.157C707.961 343.238 706.644 355.421 701.494 365.578C703.132 362.221 706.404 359.897 709.902 358.612C713.401 357.327 717.158 356.96 720.868 356.603C723.304 363.545 722.134 371.764 717.208 377.219C723.571 375.353 730.667 374.995 737.156 376.36C737.752 380.011 737.653 383.778 736.682 387.346L665.981 387.413H665.979Z" fill="#46BF40"/>
	<path d="M701.493 365.579C701.153 366.748 700.686 367.878 700.187 368.989C699.678 370.097 699.115 371.183 698.496 372.235C697.885 373.293 697.21 374.312 696.501 375.308C695.784 376.299 695.019 377.254 694.22 378.182C693.405 379.096 692.554 379.974 691.665 380.815C691.206 381.22 690.76 381.638 690.284 382.022C690.047 382.216 689.818 382.419 689.576 382.604L688.846 383.159C688.606 383.347 688.351 383.516 688.104 383.694C687.852 383.867 687.61 384.052 687.35 384.213C686.834 384.54 686.326 384.875 685.792 385.172C684.742 385.788 683.644 386.318 682.529 386.794C684.623 385.569 686.625 384.219 688.484 382.691C689.413 381.927 690.308 381.127 691.173 380.293C692.031 379.452 692.862 378.585 693.654 377.682C694.448 376.78 695.203 375.845 695.926 374.884C696.659 373.929 697.335 372.933 697.997 371.926C698.649 370.913 699.278 369.881 699.859 368.822C700.447 367.767 701 366.688 701.496 365.579H701.493Z" fill="#1D2238"/>
	<path d="M717.205 377.218C716.534 378.224 715.726 379.129 714.867 379.974C714.011 380.825 713.088 381.608 712.114 382.323L711.75 382.592L711.376 382.848C711.124 383.015 710.879 383.19 710.622 383.349C710.105 383.661 709.596 383.985 709.055 384.254C707.998 384.834 706.878 385.298 705.734 385.666C706.746 385.01 707.769 384.409 708.753 383.743C709.251 383.421 709.735 383.078 710.224 382.747C710.467 382.579 710.704 382.404 710.946 382.232L711.309 381.978L711.664 381.712C712.621 381.015 713.549 380.283 714.473 379.535C715.393 378.783 716.299 378.015 717.203 377.219L717.205 377.218Z" fill="#1D2238"/>
	<path d="M342.139 226.293L403.891 116.848C404.996 114.778 407.207 113.536 409.417 113.536H484.293C486.227 113.536 488.162 114.364 489.267 116.02L503.082 133.548C505.43 136.584 509.989 136.86 512.752 134.1L591.082 50.3259C593.016 48.3937 596.056 47.8416 598.542 49.0837L603.654 51.568C607.522 53.5002 608.351 58.6067 605.311 61.781L512.199 160.185C509.436 163.083 504.739 162.669 502.391 159.495L483.05 132.582C481.945 130.926 480.011 129.96 477.939 129.96L417.982 128.58C415.634 128.58 413.561 129.684 412.318 131.754L353.052 232.918C350.566 237.196 344.211 237.058 341.862 232.642C341.033 230.434 341.033 228.225 342.139 226.293Z" fill="#338EEF"/>
	<path d="M613.344 26.9606L582.951 39.1058C578.945 40.762 578.116 46.1445 581.57 48.9048L607.265 69.0548C610.719 71.815 615.831 69.7448 616.383 65.3284L621.08 33.0332C621.771 28.7548 617.35 25.3045 613.344 26.9606Z" fill="#338EEF"/>
	<path d="M288.322 360.751H320.864V387.896H288.916C283.864 385.772 279.704 382.75 276.682 379.21C277.871 373.356 282.279 365.708 288.322 360.751Z" fill="#6F4BBB"/>
	<path d="M290.202 363.017C285.893 367.266 281.633 372.411 280.197 378.265C282.773 381.192 286.141 383.458 289.757 385.11H317.098V363.017H290.202Z" fill="#7D5DC2"/>
	<path d="M282.678 372.27C281.836 373.403 280.251 377.982 280.152 378.265C282.727 381.192 286.096 383.458 289.711 385.111H304.274V373.261C297.092 373.214 289.91 372.884 282.678 372.27Z" fill="#9478CF"/>
	<path d="M288.174 382.136C291.542 383.222 293.127 385.252 293.622 387.896H281.883C282.676 385.63 284.904 382.844 288.174 382.136Z" fill="#5F3EA7"/>
	<path d="M288.122 383.364C286.289 383.835 284.754 385.202 283.763 386.758H288.171V383.364H288.122Z" fill="#6F4BBB"/>
	<path d="M299.764 381.475C304.272 382.656 306.451 385.535 306.996 387.896H291.344C292.384 385.394 295.554 382.042 299.764 381.475Z" fill="#5F3EA7"/>
	<path d="M299.665 382.656C297.188 383.08 294.761 384.732 293.325 386.761H299.764V382.656H299.665Z" fill="#6F4BBB"/>
	<path d="M359.896 360.751H327.354V387.896H359.302C364.354 385.772 368.514 382.75 371.536 379.21C370.397 373.356 365.988 365.708 359.896 360.751Z" fill="#6F4BBB"/>
	<path d="M358.063 363.017C362.373 367.266 366.632 372.411 368.069 378.265C365.493 381.192 362.125 383.458 358.509 385.11H331.168V363.017H358.063Z" fill="#7D5DC2"/>
	<path d="M365.542 372.27C366.384 373.403 367.969 377.982 368.068 378.265C365.492 381.192 362.124 383.458 358.508 385.111H343.946V373.261C351.128 373.214 358.36 372.884 365.542 372.27Z" fill="#9478CF"/>
	<path d="M360.091 382.136C356.723 383.222 355.138 385.252 354.642 387.896H366.381C365.589 385.63 363.36 382.844 360.091 382.136Z" fill="#5F3EA7"/>
	<path d="M360.146 383.364C361.979 383.835 363.515 385.202 364.505 386.758H360.097V383.364H360.146Z" fill="#6F4BBB"/>
	<path d="M348.503 381.475C343.996 382.656 341.817 385.535 341.272 387.896H356.924C355.884 385.394 352.714 382.042 348.503 381.475Z" fill="#5F3EA7"/>
	<path d="M348.553 382.656C351.029 383.08 353.457 384.732 354.893 386.761H348.454V382.656H348.553Z" fill="#6F4BBB"/>
	<path d="M237.107 369.107C237.305 374.064 238.494 377.935 240.773 380.343C244.339 380.06 247.36 376.283 248.747 373.025C246.667 369.579 242.605 368.021 237.107 369.107Z" fill="#5F3EA7"/>
	<path d="M238.94 370.476C239.039 373.356 239.832 376.33 241.466 378.501L242.853 370.665C241.615 370.382 240.277 370.382 238.94 370.476Z" fill="#6F4BBB"/>
	<path d="M246.122 371.751C246.469 376.188 247.063 380.106 249.986 384.072C255.236 382.986 259.347 380.201 261.081 375.763C258.505 370.146 252.363 369.39 246.122 371.751Z" fill="#5F3EA7"/>
	<path d="M250.728 382.184L254.245 372.317C252.264 371.94 250.035 372.223 247.905 372.884C248.252 376.236 248.846 379.21 250.728 382.184Z" fill="#6F4BBB"/>
	<path d="M263.358 375.386C264.249 380.437 269.252 382.939 271.778 382.798C272.917 380.957 274.057 378.549 274.057 375.669L271.877 373.923C268.558 373.309 265.042 373.545 263.358 375.386Z" fill="#5F3EA7"/>
	<path d="M270.888 381.098C271.878 379.682 272.522 377.51 272.621 375.433L269.055 374.867L270.888 381.098Z" fill="#6F4BBB"/>
	<path d="M274.107 307.689V375.622C261.774 377.085 247.41 376.613 237.107 369.06C237.305 362.734 237.949 356.55 239.138 350.649C241.367 339.98 245.577 330.255 252.858 322.277C259.297 315.243 265.736 311.891 274.107 307.689Z" fill="#6F4BBB"/>
	<path d="M240.576 367.502C247.015 372.223 262.469 373.686 270.592 372.695V313.165C249.64 323.787 241.319 343.378 240.576 367.502Z" fill="#9478CF"/>
	<path d="M240.576 367.502C243.845 369.91 249.393 371.42 255.188 372.27C256.03 357.116 255.931 334.315 252.364 328.272C244.588 338.799 241.071 352.254 240.576 367.502Z" fill="#A58DD4"/>
	<path d="M255.184 357.4C257.908 357.4 260.088 359.477 260.088 362.073C260.088 364.67 257.908 366.747 255.184 366.747C252.46 366.747 250.28 364.67 250.28 362.073C250.28 359.477 252.46 357.4 255.184 357.4Z" fill="#9478CF"/>
	<path d="M266.875 254.723C265.439 245.895 267.024 241.315 268.906 233.243C274.8 237.916 278.565 241.268 285.747 244.714C287.183 236.17 290.353 228.097 294.96 220.544L297.684 216.106C308.184 223.66 317.15 229.702 324.084 239.71C331.019 229.702 339.984 223.66 350.484 216.106L353.209 220.544C357.815 228.097 360.985 236.17 362.422 244.714C369.604 241.268 373.368 237.916 379.262 233.243C381.194 241.268 382.729 245.847 381.293 254.723L394.27 258.122C391.695 290.412 389.07 317.934 385.751 350.225C385.305 354.662 384.81 359.147 384.314 363.585C384.166 364.859 382.531 367.173 375.597 367.22C341.717 369.391 306.253 369.391 272.423 367.22C265.488 367.125 263.854 364.859 263.705 363.585C263.21 359.053 262.714 354.521 262.269 349.989C262.071 348.148 261.872 346.307 261.674 344.418C258.851 315.621 256.077 286.919 253.749 258.074L266.727 254.675H266.875V254.723Z" fill="#6F4BBB"/>
	<path d="M299.12 222.856C293.523 231.92 290.403 241.503 289.808 251.417C284.063 249.34 277.525 245.941 271.878 241.55C270.739 246.365 270.986 252.644 272.522 258.12C267.767 259.159 263.359 260.245 258.95 261.472C261.328 291.119 263.557 320.766 266.628 350.318C266.925 353.245 267.569 359.571 267.915 362.498C269.154 363.159 271.729 363.159 272.769 363.206C306.847 365.378 341.321 365.378 375.399 363.206C376.488 363.112 379.015 363.112 380.253 362.498C380.6 359.618 381.244 353.151 381.541 350.318C384.562 320.718 386.841 291.072 389.218 261.472C384.81 260.245 380.401 259.159 375.646 258.12C377.182 252.644 377.43 246.365 376.29 241.55C370.693 245.988 364.106 249.34 358.36 251.417C357.766 241.55 354.645 231.92 349.048 222.856C337.656 231.07 330.177 237.018 324.084 248.915C317.942 237.018 310.513 231.07 299.071 222.856H299.12Z" fill="#9478CF"/>
	<path d="M299.12 222.856C299.962 236.027 303.43 250.661 309.968 256.798C301.25 255.901 296.594 254.91 289.858 251.417C284.063 249.339 277.525 245.94 271.878 241.55C274.899 250.236 277.822 256.421 283.815 262.463C278.713 262.369 275.791 260.764 272.522 258.12C267.767 259.159 263.359 260.245 258.95 261.472C261.328 291.119 263.557 320.766 266.628 350.318C266.925 353.245 267.569 359.571 267.915 362.498C269.154 363.159 271.729 363.159 272.77 363.206C289.808 364.292 306.946 364.811 324.084 364.811V347.155C297.634 349.138 273.463 309.388 301.25 283.282L295.703 286.209C295.009 282.008 296.396 276.768 298.229 272.519C301.845 264.257 311.454 258.12 324.084 256.657V248.867C317.942 236.971 310.562 231.023 299.12 222.856Z" fill="#A58DD4"/>
	<path d="M364.352 262.464C370.295 256.421 373.267 250.19 376.289 241.503C377.428 246.318 377.18 252.597 375.645 258.073C372.376 260.764 369.453 262.369 364.352 262.464ZM354.297 260.009C357.269 260.009 359.646 262.322 359.646 265.107C359.646 267.94 357.219 270.206 354.297 270.206C351.325 270.206 348.947 267.893 348.947 265.107C348.947 262.322 351.374 260.009 354.297 260.009ZM373.862 271.528C375.893 271.528 377.577 273.133 377.577 275.068C377.577 277.004 375.893 278.609 373.862 278.609C371.831 278.609 370.147 277.004 370.147 275.068C370.147 273.086 371.781 271.528 373.862 271.528ZM338.249 256.752C344.787 250.662 348.254 236.027 349.096 222.809C354.693 231.873 357.813 241.456 358.408 251.37C351.622 254.863 346.966 255.855 338.249 256.752Z" fill="#7D5DC2"/>
	<path d="M275.544 267.42C280.398 267.42 284.36 271.197 284.36 275.823C284.36 280.45 280.398 284.226 275.544 284.226C270.69 284.226 266.727 280.45 266.727 275.823C266.727 271.197 270.69 267.42 275.544 267.42ZM269.848 293.196C271.779 293.196 273.364 294.707 273.364 296.548C273.364 298.389 271.779 299.899 269.848 299.899C267.916 299.899 266.331 298.389 266.331 296.548C266.331 294.707 267.916 293.196 269.848 293.196Z" fill="#9478CF"/>
	<path d="M324.682 272C345.634 272 362.623 288.192 362.623 308.161C362.623 328.13 345.634 344.323 324.682 344.323C303.73 344.323 286.741 328.13 286.741 308.161C286.741 288.192 303.73 272 324.682 272Z" fill="#D3E8EF"/>
	<path d="M287.729 299.947C291.048 286.351 302.44 275.682 316.804 272.802C332.456 271.669 345.136 282.102 345.136 296.312C345.136 310.616 332.258 323.315 316.457 324.637C300.607 325.959 287.779 315.478 287.779 301.127C287.729 300.749 287.729 300.324 287.729 299.947Z" fill="white"/>
	<path d="M336.369 294.282C348.207 294.282 357.767 303.394 357.767 314.676C357.767 325.959 348.207 335.07 336.369 335.07C324.531 335.07 314.971 325.959 314.971 314.676C314.971 303.441 324.531 294.282 336.369 294.282Z" fill="#EA4E64"/>
	<path d="M336.367 294.282C339.487 294.282 342.459 294.896 345.134 296.076V296.312C345.134 310.239 332.949 322.654 317.594 324.543C315.91 321.616 314.92 318.264 314.92 314.676C314.92 303.394 324.479 294.282 336.367 294.282Z" fill="#EC6277"/>
	<path d="M336.37 301.457C344.047 301.457 350.288 307.358 350.288 314.723C350.288 322.04 344.097 327.988 336.37 327.988C328.693 327.988 322.452 322.087 322.452 314.723C322.452 307.405 328.643 301.457 336.37 301.457Z" fill="#232323"/>
	<path d="M336.367 301.457C339.19 301.457 341.816 302.26 343.995 303.629C341.32 312.079 334.287 319.255 325.272 322.654C323.538 320.435 322.498 317.65 322.498 314.723C322.449 307.405 328.64 301.457 336.367 301.457Z" fill="#323232"/>
	<path d="M321.211 299.428C326.065 299.428 329.978 303.157 329.978 307.783C329.978 312.41 326.065 316.139 321.211 316.139C316.357 316.139 312.444 312.41 312.444 307.783C312.444 303.157 316.357 299.428 321.211 299.428Z" fill="white"/>
	<path d="M280.051 324.731C290.849 319.066 307.096 328.98 305.907 345.031C295.604 342.009 284.46 332.757 280.051 324.731Z" fill="#6F4BBB"/>
	<path d="M280.051 324.731C289.859 324.92 300.706 330.208 305.907 345.031C293.573 343.709 282.082 334.74 280.051 324.731Z" fill="#A58DD4"/>
	<path d="M285.151 338.139C286.587 337.666 293.324 337.808 293.868 338.516C294.512 339.366 292.729 343.709 290.847 346.542C288.37 344.653 286.34 342.057 285.151 338.139Z" fill="#7D5DC2"/>
	<path d="M283.17 336.581C284.607 336.109 291.343 336.25 291.888 336.958C292.532 337.808 290.749 342.151 288.867 344.984C286.39 343.095 284.359 340.499 283.17 336.581Z" fill="white"/>
	<path d="M285.203 334.362C285.649 343.473 298.131 352.253 309.969 348.996C310.613 351.64 308.73 353.198 306.799 353.575C296.05 354.472 285.698 348.005 282.28 339.743C281.29 337.477 282.38 334.645 285.203 334.362Z" fill="#6F4BBB"/>
	<path d="M283.171 351.451C286.143 356.786 290.799 359.288 295.901 360.09C288.619 363.206 282.18 359.052 283.171 351.451Z" fill="#6F4BBB"/>
	<path d="M288.073 352.726C293.918 355.841 299.465 356.833 305.905 356.266C301.199 359.24 291.986 359.571 288.073 352.726Z" fill="#9478CF"/>
	<path d="M337.805 261.756C326.066 242.4 295.158 253.683 298.279 275.399C306.006 263.219 320.915 259.253 337.805 261.756Z" fill="#5F3EA7"/>
	<path d="M337.805 261.755C331.168 250.85 317.2 250.142 307.838 256.137C307.789 258.686 308.581 260.528 310.018 261.991C317.596 258.498 327.502 257.081 337.805 261.755Z" fill="#6F4BBB"/>
	<path d="M399.274 335.353C411.607 335.353 421.712 344.795 421.712 356.597C421.712 368.399 411.607 377.84 399.274 377.84C386.94 377.84 376.836 368.399 376.836 356.597C376.836 344.795 386.94 335.353 399.274 335.353Z" fill="#6F4BBB"/>
	<path d="M399.271 338.469C409.87 338.469 418.439 346.589 418.439 356.55C418.439 366.558 409.87 374.631 399.271 374.631C388.671 374.631 380.102 366.511 380.102 356.55C380.102 346.589 388.72 338.469 399.271 338.469Z" fill="#9478CF"/>
	<path d="M399.273 338.469C406.802 338.469 413.291 342.576 416.461 348.524C417.154 357.966 405.069 364.906 396.995 361.648C391.051 358.58 386.94 352.584 386.94 345.739C386.94 344.606 387.039 343.52 387.287 342.435C390.605 339.98 394.766 338.469 399.273 338.469Z" fill="#A58DD4"/>
	<path d="M391.447 353.765C390.555 351.168 400.759 347.911 401.7 350.507L411.804 379.351C412.696 381.948 402.492 385.205 401.551 382.609L391.447 353.765Z" fill="#2B3039"/>
	<path d="M406.109 350.837C402.097 353.198 398.778 355.511 396.401 359.807C399.818 363.772 404.326 365.944 409.279 365.378C413.291 360.562 411.21 355.039 406.109 350.837Z" fill="#5F3EA7"/>
	<path d="M409.229 357.446C408.634 355.794 407.545 354.236 406.158 352.726C403.087 354.614 400.561 356.644 398.629 359.571C400.759 359.76 404.078 359.24 409.229 357.446Z" fill="#6F4BBB"/>
	<path d="M409.973 362.403C405.961 364.764 402.642 367.077 400.264 371.373C403.682 375.339 408.189 377.51 413.143 376.944C417.155 372.128 415.074 366.605 409.973 362.403Z" fill="#5F3EA7"/>
	<path d="M413.093 368.541C412.498 366.888 411.409 365.331 410.022 363.82C406.951 365.708 404.425 367.738 402.493 370.665C404.623 370.901 407.941 370.335 413.093 368.541Z" fill="#6F4BBB"/>
	<path d="M389.068 363.537C392.882 362.64 396.25 362.073 400.361 363.206C400.857 367.455 399.618 371.326 396.399 373.781C391.049 373.356 388.771 368.918 389.068 363.537Z" fill="#5F3EA7"/>
	<path d="M391.4 368.68C390.706 367.359 390.36 365.849 390.211 364.197C393.183 363.537 395.907 363.254 398.929 363.867C397.839 365.235 395.561 366.792 391.4 368.68Z" fill="#6F4BBB"/>
	<path d="M381.44 285.407C361.182 286.492 345.679 303.063 346.818 322.371C347.957 341.679 365.343 356.455 385.601 355.369C405.859 354.284 421.363 337.713 420.223 318.405C419.084 299.097 401.748 284.321 381.44 285.407Z" fill="#393F4C"/>
	<path d="M381.738 289.75C364.006 290.694 350.385 305.234 351.375 322.182C352.366 339.083 367.622 352.065 385.404 351.073C403.136 350.129 416.757 335.589 415.767 318.641C414.726 301.741 399.52 288.759 381.738 289.75Z" fill="#D3E8EF"/>
	<path d="M408.039 335.589C411.308 330.774 413.091 324.967 412.745 318.783C412.002 306.556 403.135 296.595 391.396 293.527C390.455 304.101 389.465 314.487 388.425 325.156C392.338 326.667 402.442 331.482 408.039 335.589Z" fill="white"/>
	<path d="M381.244 293.149C365.79 293.999 353.952 306.604 354.893 321.333C355.042 323.41 355.389 325.44 355.983 327.328C355.933 326.903 355.884 326.478 355.884 326.006C354.893 308.917 368.564 294.282 386.494 293.291H386.643C384.909 293.149 383.077 293.055 381.244 293.149Z" fill="white"/>
	<path d="M355.984 336.297C356.579 337.241 357.222 338.138 357.916 338.988L367.426 326.431L389.319 335.117L401.999 310.144L414.729 312.457C414.382 311.324 414.035 310.191 413.589 309.105L400.216 306.65L387.783 331.151L366.386 322.654L355.984 336.297Z" fill="#999999"/>
	<path d="M366.483 318.217C370.148 318.028 373.269 320.671 373.467 324.165C373.665 327.658 370.891 330.632 367.226 330.821C363.56 331.01 360.44 328.366 360.242 324.873C359.994 321.427 362.817 318.453 366.483 318.217Z" fill="#1EC185"/>
	<path d="M400.71 302.118C404.375 301.929 407.496 304.573 407.694 308.066C407.892 311.56 405.118 314.534 401.453 314.723C397.787 314.912 394.667 312.268 394.469 308.775C394.221 305.281 397.044 302.307 400.71 302.118Z" fill="#EA4E64"/>
	<path d="M388.13 326.856C391.795 326.667 394.916 329.31 395.114 332.804C395.312 336.297 392.538 339.271 388.873 339.46C385.207 339.649 382.087 337.005 381.889 333.512C381.641 330.019 384.465 327.045 388.13 326.856Z" fill="#FF893A"/>
</svg>
