<svg width="23" height="41" viewBox="0 0 23 41" fill="none" xmlns="http://www.w3.org/2000/svg">
    <path d="M6.84967 5.56854C4.75395 7.73634 3.03475 11.2018 3.23053 14.431C2.18532 15.4777 1.48641 16.8163 1.13743 18.2305C-0.264324 23.9143 2.8866 31.7614 8.86705 35.0443C8.40379 35.9907 7.94053 36.937 7.55571 37.9192C7.5137 38.0138 7.69477 38.2227 7.7838 38.1099C7.7838 38.1099 7.78574 38.1009 7.78769 38.0919C7.81912 38.1459 7.8486 38.2088 7.91035 38.2222C8.29951 38.3158 8.69896 38.4116 9.08812 38.5052C8.46779 38.4842 7.84551 38.4721 7.25272 38.5231C6.61485 38.5831 7.08459 39.5992 7.59615 39.625C8.98285 39.6893 10.362 39.6387 11.7493 39.7502C13.1365 39.8617 14.5166 40.0565 15.881 40.3233C16.3338 40.4212 16.3356 39.8653 16.1584 39.6385C14.5933 37.6594 13.3568 35.5063 12.4557 33.2466C12.5369 33.1698 12.5995 33.0797 12.72 33.0209C13.2939 32.7584 12.5816 31.7181 11.9949 31.9401C11.9245 31.7174 11.8214 31.4971 11.7632 31.2677C11.682 30.9955 11.1733 30.5084 10.9504 30.941C10.4827 31.8581 10.0067 32.764 9.52869 33.6789C7.84921 32.2785 6.23897 31.0062 5.01713 29.2334C3.75357 27.4044 2.89004 25.3697 2.54532 23.2775C2.16306 20.9602 2.38224 18.4526 3.68542 16.4622C4.03944 17.4156 4.56343 18.3304 5.42486 19.1295C6.97944 20.5595 9.54581 21.2465 11.5871 20.5755C13.9865 19.7934 14.5208 17.3727 13.4339 15.3745C12.2483 13.1852 9.62493 12.0144 7.02867 12.4617C5.94265 12.6511 5.01322 13.0629 4.21285 13.6252C4.21931 10.3078 6.22446 7.06442 8.77388 4.89104C12.4069 1.79234 17.5872 0.20686 22.7824 0.943965C22.9593 0.972801 22.8761 0.709683 22.7321 0.678518C16.7286 -0.355998 10.678 1.6164 6.86191 5.56176L6.84967 5.56854ZM9.12454 35.9957C9.1835 36.1216 9.27084 36.2159 9.36597 36.2742C9.75038 36.4893 10.1367 36.6955 10.5212 36.9106C10.3481 36.8638 10.1668 36.8057 9.99376 36.7588C9.43353 36.6094 9.65265 37.4393 9.93998 37.6052C10.4568 37.9055 10.9633 38.2037 11.4782 38.513C10.2951 38.3043 9.09984 38.1023 7.91289 37.9116C8.34913 37.2894 8.73586 36.647 9.12454 35.9957ZM11.0195 14.3337C13.633 15.8984 12.9812 19.1611 10.0292 19.5597C7.3211 19.9262 5.15457 18.1376 4.47939 15.8797C4.44102 15.7582 4.43547 15.6344 4.40933 15.5062C5.98257 13.9608 8.80698 13.0066 11.0092 14.3315L11.0195 14.3337Z" fill="#3C6DF1"/>
</svg>
